G04 #@! TF.GenerationSoftware,KiCad,Pcbnew,(6.0.0)*
G04 #@! TF.CreationDate,2022-02-16T09:51:19+01:00*
G04 #@! TF.ProjectId,drawing.kicad_v2_pcb,64726177-696e-4672-9e6b-696361645f76,v2.1*
G04 #@! TF.SameCoordinates,Original*
G04 #@! TF.FileFunction,Soldermask,Bot*
G04 #@! TF.FilePolarity,Negative*
%FSLAX46Y46*%
G04 Gerber Fmt 4.6, Leading zero omitted, Abs format (unit mm)*
G04 Created by KiCad (PCBNEW (6.0.0)) date 2022-02-16 09:51:19*
%MOMM*%
%LPD*%
G01*
G04 APERTURE LIST*
G04 Aperture macros list*
%AMRoundRect*
0 Rectangle with rounded corners*
0 $1 Rounding radius*
0 $2 $3 $4 $5 $6 $7 $8 $9 X,Y pos of 4 corners*
0 Add a 4 corners polygon primitive as box body*
4,1,4,$2,$3,$4,$5,$6,$7,$8,$9,$2,$3,0*
0 Add four circle primitives for the rounded corners*
1,1,$1+$1,$2,$3*
1,1,$1+$1,$4,$5*
1,1,$1+$1,$6,$7*
1,1,$1+$1,$8,$9*
0 Add four rect primitives between the rounded corners*
20,1,$1+$1,$2,$3,$4,$5,0*
20,1,$1+$1,$4,$5,$6,$7,0*
20,1,$1+$1,$6,$7,$8,$9,0*
20,1,$1+$1,$8,$9,$2,$3,0*%
%AMFreePoly0*
4,1,17,0.450135,1.735921,1.035921,1.150135,1.050800,1.114214,1.050800,-1.114214,1.035921,-1.150135,0.450135,-1.735921,0.414214,-1.750800,-0.414214,-1.750800,-0.450135,-1.735921,-1.035921,-1.150135,-1.050800,-1.114214,-1.050800,1.114214,-1.035921,1.150135,-0.450135,1.735921,-0.414214,1.750800,0.414214,1.750800,0.450135,1.735921,0.450135,1.735921,$1*%
G04 Aperture macros list end*
G04 #@! TA.AperFunction,Profile*
%ADD10C,0.150000*%
G04 #@! TD*
%ADD11C,0.200000*%
G04 #@! TA.AperFunction,Profile*
%ADD12C,0.200000*%
G04 #@! TD*
%ADD13RoundRect,0.300800X-0.600000X-0.750000X0.600000X-0.750000X0.600000X0.750000X-0.600000X0.750000X0*%
%ADD14O,1.801600X2.101600*%
%ADD15RoundRect,0.050800X0.850000X0.850000X-0.850000X0.850000X-0.850000X-0.850000X0.850000X-0.850000X0*%
%ADD16O,1.801600X1.801600*%
%ADD17RoundRect,0.050800X0.200000X0.675000X-0.200000X0.675000X-0.200000X-0.675000X0.200000X-0.675000X0*%
%ADD18O,1.351600X1.051600*%
%ADD19O,1.101600X1.651600*%
%ADD20RoundRect,0.300800X0.350000X0.450000X-0.350000X0.450000X-0.350000X-0.450000X0.350000X-0.450000X0*%
%ADD21C,1.001600*%
%ADD22RoundRect,0.050800X0.625000X-0.450000X0.625000X0.450000X-0.625000X0.450000X-0.625000X-0.450000X0*%
%ADD23RoundRect,0.050800X0.450000X-0.400000X0.450000X0.400000X-0.450000X0.400000X-0.450000X-0.400000X0*%
%ADD24RoundRect,0.300800X0.450000X-0.350000X0.450000X0.350000X-0.450000X0.350000X-0.450000X-0.350000X0*%
%ADD25RoundRect,0.050800X-0.762500X0.350000X-0.762500X-0.350000X0.762500X-0.350000X0.762500X0.350000X0*%
%ADD26RoundRect,0.050800X-1.256500X-1.701000X1.256500X-1.701000X1.256500X1.701000X-1.256500X1.701000X0*%
%ADD27RoundRect,0.050800X-0.700000X0.300000X-0.700000X-0.300000X0.700000X-0.300000X0.700000X0.300000X0*%
%ADD28RoundRect,0.050800X-0.800000X0.800000X-0.800000X-0.800000X0.800000X-0.800000X0.800000X0.800000X0*%
%ADD29C,1.701600*%
%ADD30RoundRect,0.050800X0.299999X0.799999X-0.299999X0.799999X-0.299999X-0.799999X0.299999X-0.799999X0*%
%ADD31RoundRect,0.050800X0.350000X1.000000X-0.350000X1.000000X-0.350000X-1.000000X0.350000X-1.000000X0*%
%ADD32FreePoly0,180.000000*%
%ADD33RoundRect,0.050800X-1.250000X-0.500000X1.250000X-0.500000X1.250000X0.500000X-1.250000X0.500000X0*%
%ADD34RoundRect,0.050800X-0.500000X-0.900000X0.500000X-0.900000X0.500000X0.900000X-0.500000X0.900000X0*%
%ADD35RoundRect,0.050800X0.750000X0.500000X-0.750000X0.500000X-0.750000X-0.500000X0.750000X-0.500000X0*%
%ADD36RoundRect,0.300800X0.475000X-0.337500X0.475000X0.337500X-0.475000X0.337500X-0.475000X-0.337500X0*%
%ADD37RoundRect,0.300800X-0.450000X0.325000X-0.450000X-0.325000X0.450000X-0.325000X0.450000X0.325000X0*%
%ADD38RoundRect,0.300800X0.337500X0.475000X-0.337500X0.475000X-0.337500X-0.475000X0.337500X-0.475000X0*%
%ADD39RoundRect,0.050800X-0.600000X0.325000X-0.600000X-0.325000X0.600000X-0.325000X0.600000X0.325000X0*%
%ADD40RoundRect,0.050800X-0.850000X-0.850000X0.850000X-0.850000X0.850000X0.850000X-0.850000X0.850000X0*%
%ADD41RoundRect,0.300800X-0.350000X-0.450000X0.350000X-0.450000X0.350000X0.450000X-0.350000X0.450000X0*%
G04 APERTURE END LIST*
D10*
X157096620Y-70834873D02*
X147866620Y-70804873D01*
X147916669Y-65364807D02*
X149926620Y-65364873D01*
X157036620Y-65324874D02*
X155026620Y-65314873D01*
X155026619Y-65314873D02*
G75*
G03*
X149926620Y-65364873I-2548019J-227008D01*
G01*
X147916669Y-65394800D02*
G75*
G03*
X147866620Y-70804873I0J-2705268D01*
G01*
X157096620Y-70834872D02*
G75*
G03*
X157036620Y-65324874I-41644J2754872D01*
G01*
D11*
X199009991Y-124410835D02*
X198994558Y-124617854D01*
X198949252Y-124818762D01*
X198875557Y-125012559D01*
X198774959Y-125198246D01*
X198648943Y-125374823D01*
X198498994Y-125541290D01*
X198326598Y-125696648D01*
X198133240Y-125839897D01*
X197920406Y-125970037D01*
X197689580Y-126086068D01*
X197442248Y-126186991D01*
X197179896Y-126271807D01*
X196904009Y-126339514D01*
X196616072Y-126389115D01*
X196317570Y-126419608D01*
X196009990Y-126429995D01*
X196009990Y-61430000D02*
X196317570Y-61440386D01*
X196616072Y-61470880D01*
X196904009Y-61520480D01*
X197179896Y-61588188D01*
X197442248Y-61673004D01*
X197689580Y-61773927D01*
X197920406Y-61889959D01*
X198133240Y-62020099D01*
X198326598Y-62163348D01*
X198498994Y-62318706D01*
X198648943Y-62485173D01*
X198774959Y-62661750D01*
X198875557Y-62847436D01*
X198949252Y-63041233D01*
X198994558Y-63242140D01*
X199009991Y-63449159D01*
D12*
X109010000Y-61430000D02*
X109010000Y-61430000D01*
D11*
X109010000Y-126429995D02*
X108702419Y-126419608D01*
X108403917Y-126389115D01*
X108115979Y-126339514D01*
X107840092Y-126271807D01*
X107577739Y-126186991D01*
X107330408Y-126086068D01*
X107099582Y-125970037D01*
X106886747Y-125839897D01*
X106693389Y-125696648D01*
X106520992Y-125541290D01*
X106371043Y-125374823D01*
X106245027Y-125198246D01*
X106144429Y-125012559D01*
X106070734Y-124818762D01*
X106025428Y-124617854D01*
X106009996Y-124410835D01*
D12*
X196009990Y-126429995D02*
X109010000Y-126429995D01*
X199009991Y-63449159D02*
X199009991Y-124410835D01*
D11*
X106009996Y-63449159D02*
X106025428Y-63242140D01*
X106070734Y-63041233D01*
X106144429Y-62847436D01*
X106245027Y-62661750D01*
X106371043Y-62485173D01*
X106520992Y-62318706D01*
X106693389Y-62163348D01*
X106886747Y-62020099D01*
X107099582Y-61889959D01*
X107330408Y-61773927D01*
X107577739Y-61673004D01*
X107840092Y-61588188D01*
X108115979Y-61520480D01*
X108403917Y-61470880D01*
X108702419Y-61440386D01*
X109010000Y-61430000D01*
D12*
X106009996Y-124410835D02*
X106009996Y-63449159D01*
X109010000Y-61430000D02*
X196009990Y-61430000D01*
D10*
X157096620Y-70834873D02*
X147866620Y-70804873D01*
X147916669Y-65364807D02*
X149926620Y-65364873D01*
X157036620Y-65324874D02*
X155026620Y-65314873D01*
X155026619Y-65314873D02*
G75*
G03*
X149926620Y-65364873I-2548019J-227008D01*
G01*
X147916669Y-65394800D02*
G75*
G03*
X147866620Y-70804873I0J-2705268D01*
G01*
X157096620Y-70834872D02*
G75*
G03*
X157036620Y-65324874I-41644J2754872D01*
G01*
D11*
X199009991Y-124410835D02*
X198994558Y-124617854D01*
X198949252Y-124818762D01*
X198875557Y-125012559D01*
X198774959Y-125198246D01*
X198648943Y-125374823D01*
X198498994Y-125541290D01*
X198326598Y-125696648D01*
X198133240Y-125839897D01*
X197920406Y-125970037D01*
X197689580Y-126086068D01*
X197442248Y-126186991D01*
X197179896Y-126271807D01*
X196904009Y-126339514D01*
X196616072Y-126389115D01*
X196317570Y-126419608D01*
X196009990Y-126429995D01*
X196009990Y-61430000D02*
X196317570Y-61440386D01*
X196616072Y-61470880D01*
X196904009Y-61520480D01*
X197179896Y-61588188D01*
X197442248Y-61673004D01*
X197689580Y-61773927D01*
X197920406Y-61889959D01*
X198133240Y-62020099D01*
X198326598Y-62163348D01*
X198498994Y-62318706D01*
X198648943Y-62485173D01*
X198774959Y-62661750D01*
X198875557Y-62847436D01*
X198949252Y-63041233D01*
X198994558Y-63242140D01*
X199009991Y-63449159D01*
D12*
X109010000Y-61430000D02*
X109010000Y-61430000D01*
D11*
X109010000Y-126429995D02*
X108702419Y-126419608D01*
X108403917Y-126389115D01*
X108115979Y-126339514D01*
X107840092Y-126271807D01*
X107577739Y-126186991D01*
X107330408Y-126086068D01*
X107099582Y-125970037D01*
X106886747Y-125839897D01*
X106693389Y-125696648D01*
X106520992Y-125541290D01*
X106371043Y-125374823D01*
X106245027Y-125198246D01*
X106144429Y-125012559D01*
X106070734Y-124818762D01*
X106025428Y-124617854D01*
X106009996Y-124410835D01*
D12*
X196009990Y-126429995D02*
X109010000Y-126429995D01*
X199009991Y-63449159D02*
X199009991Y-124410835D01*
D11*
X106009996Y-63449159D02*
X106025428Y-63242140D01*
X106070734Y-63041233D01*
X106144429Y-62847436D01*
X106245027Y-62661750D01*
X106371043Y-62485173D01*
X106520992Y-62318706D01*
X106693389Y-62163348D01*
X106886747Y-62020099D01*
X107099582Y-61889959D01*
X107330408Y-61773927D01*
X107577739Y-61673004D01*
X107840092Y-61588188D01*
X108115979Y-61520480D01*
X108403917Y-61470880D01*
X108702419Y-61440386D01*
X109010000Y-61430000D01*
D12*
X106009996Y-124410835D02*
X106009996Y-63449159D01*
X109010000Y-61430000D02*
X196009990Y-61430000D01*
D13*
X151250000Y-75760000D03*
D14*
X153750000Y-75760000D03*
D15*
X111709200Y-83058000D03*
D16*
X111709200Y-80518000D03*
X111709200Y-77978000D03*
X111709200Y-75438000D03*
D17*
X115076760Y-120398540D03*
X114426760Y-120398540D03*
X113776760Y-120398540D03*
X113126760Y-120398540D03*
X112476760Y-120398540D03*
D18*
X116276760Y-120398540D03*
X111276760Y-120398540D03*
D19*
X117276760Y-123098540D03*
X110276760Y-123098540D03*
D20*
X175218600Y-107645200D03*
X173218600Y-107645200D03*
X110200000Y-108900000D03*
X108200000Y-108900000D03*
D21*
X108264000Y-95962600D03*
X108264000Y-92962600D03*
D22*
X110339000Y-96712600D03*
X110339000Y-93712600D03*
X110339000Y-92212600D03*
D23*
X109364000Y-98262600D03*
X107164000Y-98262600D03*
X107164000Y-90662600D03*
X109364000Y-90662600D03*
D24*
X120900000Y-115100000D03*
X120900000Y-113100000D03*
D25*
X111088000Y-116105000D03*
X111088000Y-114835000D03*
X111088000Y-113565000D03*
X111088000Y-112295000D03*
X116512000Y-112295000D03*
X116512000Y-113565000D03*
X116512000Y-114835000D03*
X116512000Y-116105000D03*
D26*
X113800000Y-114200000D03*
D27*
X110000000Y-104050000D03*
X110000000Y-103100000D03*
X110000000Y-102150000D03*
X112300000Y-104050000D03*
X112300000Y-103100000D03*
X112300000Y-102150000D03*
D28*
X188325600Y-83083400D03*
D29*
X190865600Y-83083400D03*
X193405600Y-83083400D03*
X195945600Y-83083400D03*
X195945600Y-90703400D03*
X193405600Y-90703400D03*
X190865600Y-90703400D03*
X188325600Y-90703400D03*
D20*
X117900000Y-99100000D03*
X115900000Y-99100000D03*
D30*
X120300000Y-86299999D03*
D31*
X118800001Y-86099999D03*
D32*
X118800000Y-83400000D03*
D30*
X117300000Y-86299999D03*
D33*
X179648800Y-114084400D03*
X179648800Y-112084400D03*
X179648800Y-110084400D03*
X179648800Y-108084400D03*
X179648800Y-106084400D03*
X179648800Y-104084400D03*
X179648800Y-102084400D03*
X179648800Y-100084400D03*
D34*
X182248800Y-98584400D03*
X184248800Y-98584400D03*
X186248800Y-98584400D03*
X188248800Y-98584400D03*
X190248800Y-98584400D03*
X192248800Y-98584400D03*
D33*
X194848800Y-100084400D03*
X194848800Y-102084400D03*
X194848800Y-104084400D03*
X194848800Y-106084400D03*
X194848800Y-108084400D03*
X194848800Y-110084400D03*
X194848800Y-112084400D03*
X194848800Y-114084400D03*
D35*
X174916000Y-68198800D03*
X174916000Y-64998800D03*
X170016000Y-64998800D03*
X170016000Y-68198800D03*
D36*
X123200000Y-104237500D03*
X123200000Y-102162500D03*
D20*
X175200000Y-115600000D03*
X173200000Y-115600000D03*
D37*
X120500000Y-121675000D03*
X120500000Y-123725000D03*
D38*
X114837500Y-109000000D03*
X112762500Y-109000000D03*
D24*
X120900000Y-110600000D03*
X120900000Y-108600000D03*
D39*
X117250000Y-104050000D03*
X117250000Y-103100000D03*
X117250000Y-102150000D03*
X119750000Y-102150000D03*
X119750000Y-103100000D03*
X119750000Y-104050000D03*
D36*
X108000000Y-115037500D03*
X108000000Y-112962500D03*
D37*
X124400000Y-121675000D03*
X124400000Y-123725000D03*
D40*
X169195200Y-122645800D03*
D16*
X169195200Y-120105800D03*
X169195200Y-117565800D03*
X169195200Y-115025800D03*
D41*
X173193200Y-103733600D03*
X175193200Y-103733600D03*
X173167800Y-99898200D03*
X175167800Y-99898200D03*
D38*
X175256100Y-111683800D03*
X173181100Y-111683800D03*
D36*
X166640000Y-67727500D03*
X166640000Y-65652500D03*
D24*
X108000000Y-120600000D03*
X108000000Y-118600000D03*
G36*
X172887058Y-64871879D02*
G01*
X173269815Y-65039919D01*
X173270338Y-65040150D01*
X173343978Y-65072879D01*
X173373467Y-65091223D01*
X173650960Y-65322466D01*
X173667490Y-65339078D01*
X173976085Y-65713133D01*
X173997419Y-65750570D01*
X174201815Y-66317306D01*
X174209222Y-66364115D01*
X174190734Y-66937248D01*
X174181353Y-66981056D01*
X173967012Y-67502931D01*
X173948392Y-67534340D01*
X173633552Y-67923259D01*
X173601655Y-67951289D01*
X173120357Y-68247473D01*
X173076471Y-68264202D01*
X172557794Y-68356823D01*
X172522029Y-68358047D01*
X172095233Y-68311656D01*
X172065606Y-68304741D01*
X171581768Y-68127954D01*
X171542489Y-68104824D01*
X171122238Y-67740607D01*
X171100843Y-67716646D01*
X170880016Y-67394606D01*
X170864398Y-67363194D01*
X170764044Y-67062130D01*
X170758476Y-67037298D01*
X170702546Y-66571217D01*
X170704591Y-66529132D01*
X170806985Y-66063704D01*
X170815954Y-66037298D01*
X170953586Y-65743684D01*
X170969473Y-65718217D01*
X171352758Y-65241447D01*
X171394610Y-65207695D01*
X171986178Y-64911911D01*
X172036604Y-64898748D01*
X172830484Y-64861389D01*
X172887058Y-64871879D01*
G37*
G36*
X114017279Y-119691175D02*
G01*
X114031072Y-119700391D01*
X114032195Y-119698711D01*
X114033989Y-119697826D01*
X114035140Y-119698287D01*
X114052711Y-119712969D01*
X114121429Y-119721596D01*
X114169260Y-119698708D01*
X114171254Y-119698862D01*
X114171786Y-119699401D01*
X114172448Y-119700391D01*
X114186241Y-119691174D01*
X114188237Y-119691043D01*
X114189348Y-119692706D01*
X114189015Y-119693948D01*
X114181712Y-119704879D01*
X114177960Y-119723739D01*
X114177960Y-121073341D01*
X114181712Y-121092201D01*
X114189015Y-121103131D01*
X114189146Y-121105127D01*
X114187483Y-121106238D01*
X114186241Y-121105905D01*
X114172448Y-121096689D01*
X114171325Y-121098369D01*
X114169531Y-121099254D01*
X114168380Y-121098793D01*
X114150809Y-121084111D01*
X114082091Y-121075484D01*
X114034260Y-121098372D01*
X114032266Y-121098218D01*
X114031734Y-121097679D01*
X114031072Y-121096689D01*
X114017279Y-121105906D01*
X114015283Y-121106037D01*
X114014172Y-121104374D01*
X114014505Y-121103132D01*
X114021808Y-121092201D01*
X114025560Y-121073341D01*
X114025560Y-119723739D01*
X114021808Y-119704879D01*
X114014505Y-119693949D01*
X114014374Y-119691953D01*
X114016037Y-119690842D01*
X114017279Y-119691175D01*
G37*
G36*
X114667279Y-119691175D02*
G01*
X114681072Y-119700391D01*
X114682195Y-119698711D01*
X114683989Y-119697826D01*
X114685140Y-119698287D01*
X114702711Y-119712969D01*
X114771429Y-119721596D01*
X114819260Y-119698708D01*
X114821254Y-119698862D01*
X114821786Y-119699401D01*
X114822448Y-119700391D01*
X114836241Y-119691174D01*
X114838237Y-119691043D01*
X114839348Y-119692706D01*
X114839015Y-119693948D01*
X114831712Y-119704879D01*
X114827960Y-119723739D01*
X114827960Y-121073341D01*
X114831712Y-121092201D01*
X114839015Y-121103131D01*
X114839146Y-121105127D01*
X114837483Y-121106238D01*
X114836241Y-121105905D01*
X114822448Y-121096689D01*
X114821325Y-121098369D01*
X114819531Y-121099254D01*
X114818380Y-121098793D01*
X114800809Y-121084111D01*
X114732091Y-121075484D01*
X114684260Y-121098372D01*
X114682266Y-121098218D01*
X114681734Y-121097679D01*
X114681072Y-121096689D01*
X114667279Y-121105906D01*
X114665283Y-121106037D01*
X114664172Y-121104374D01*
X114664505Y-121103132D01*
X114671808Y-121092201D01*
X114675560Y-121073341D01*
X114675560Y-119723739D01*
X114671808Y-119704879D01*
X114664505Y-119693949D01*
X114664374Y-119691953D01*
X114666037Y-119690842D01*
X114667279Y-119691175D01*
G37*
G36*
X113367279Y-119691175D02*
G01*
X113381072Y-119700391D01*
X113382195Y-119698711D01*
X113383989Y-119697826D01*
X113385140Y-119698287D01*
X113402711Y-119712969D01*
X113471429Y-119721596D01*
X113519260Y-119698708D01*
X113521254Y-119698862D01*
X113521786Y-119699401D01*
X113522448Y-119700391D01*
X113536241Y-119691174D01*
X113538237Y-119691043D01*
X113539348Y-119692706D01*
X113539015Y-119693948D01*
X113531712Y-119704879D01*
X113527960Y-119723739D01*
X113527960Y-121073341D01*
X113531712Y-121092201D01*
X113539015Y-121103131D01*
X113539146Y-121105127D01*
X113537483Y-121106238D01*
X113536241Y-121105905D01*
X113522448Y-121096689D01*
X113521325Y-121098369D01*
X113519531Y-121099254D01*
X113518380Y-121098793D01*
X113500809Y-121084111D01*
X113432091Y-121075484D01*
X113384260Y-121098372D01*
X113382266Y-121098218D01*
X113381734Y-121097679D01*
X113381072Y-121096689D01*
X113367279Y-121105906D01*
X113365283Y-121106037D01*
X113364172Y-121104374D01*
X113364505Y-121103132D01*
X113371808Y-121092201D01*
X113375560Y-121073341D01*
X113375560Y-119723739D01*
X113371808Y-119704879D01*
X113364505Y-119693949D01*
X113364374Y-119691953D01*
X113366037Y-119690842D01*
X113367279Y-119691175D01*
G37*
G36*
X112717279Y-119691175D02*
G01*
X112731072Y-119700391D01*
X112732195Y-119698711D01*
X112733989Y-119697826D01*
X112735140Y-119698287D01*
X112752711Y-119712969D01*
X112821429Y-119721596D01*
X112869260Y-119698708D01*
X112871254Y-119698862D01*
X112871786Y-119699401D01*
X112872448Y-119700391D01*
X112886241Y-119691174D01*
X112888237Y-119691043D01*
X112889348Y-119692706D01*
X112889015Y-119693948D01*
X112881712Y-119704879D01*
X112877960Y-119723739D01*
X112877960Y-121073341D01*
X112881712Y-121092201D01*
X112889015Y-121103131D01*
X112889146Y-121105127D01*
X112887483Y-121106238D01*
X112886241Y-121105905D01*
X112872448Y-121096689D01*
X112871325Y-121098369D01*
X112869531Y-121099254D01*
X112868380Y-121098793D01*
X112850809Y-121084111D01*
X112782091Y-121075484D01*
X112734260Y-121098372D01*
X112732266Y-121098218D01*
X112731734Y-121097679D01*
X112731072Y-121096689D01*
X112717279Y-121105906D01*
X112715283Y-121106037D01*
X112714172Y-121104374D01*
X112714505Y-121103132D01*
X112721808Y-121092201D01*
X112725560Y-121073341D01*
X112725560Y-119723739D01*
X112721808Y-119704879D01*
X112714505Y-119693949D01*
X112714374Y-119691953D01*
X112716037Y-119690842D01*
X112717279Y-119691175D01*
G37*
G36*
X112989413Y-103449800D02*
G01*
X112989413Y-103451800D01*
X112988071Y-103452762D01*
X112980301Y-103454307D01*
X112918668Y-103486546D01*
X112884394Y-103546730D01*
X112888100Y-103615888D01*
X112928642Y-103672112D01*
X112980244Y-103695679D01*
X112988081Y-103697238D01*
X112989585Y-103698557D01*
X112989195Y-103700519D01*
X112987691Y-103701200D01*
X111612319Y-103701200D01*
X111610587Y-103700200D01*
X111610587Y-103698200D01*
X111611929Y-103697238D01*
X111619699Y-103695693D01*
X111681332Y-103663454D01*
X111715606Y-103603270D01*
X111711900Y-103534112D01*
X111671358Y-103477888D01*
X111619756Y-103454321D01*
X111611919Y-103452762D01*
X111610415Y-103451443D01*
X111610805Y-103449481D01*
X111612309Y-103448800D01*
X112987681Y-103448800D01*
X112989413Y-103449800D01*
G37*
G36*
X110689413Y-103449800D02*
G01*
X110689413Y-103451800D01*
X110688071Y-103452762D01*
X110680301Y-103454307D01*
X110618668Y-103486546D01*
X110584394Y-103546730D01*
X110588100Y-103615888D01*
X110628642Y-103672112D01*
X110680244Y-103695679D01*
X110688081Y-103697238D01*
X110689585Y-103698557D01*
X110689195Y-103700519D01*
X110687691Y-103701200D01*
X109312319Y-103701200D01*
X109310587Y-103700200D01*
X109310587Y-103698200D01*
X109311929Y-103697238D01*
X109319699Y-103695693D01*
X109381332Y-103663454D01*
X109415606Y-103603270D01*
X109411900Y-103534112D01*
X109371358Y-103477888D01*
X109319756Y-103454321D01*
X109311919Y-103452762D01*
X109310415Y-103451443D01*
X109310805Y-103449481D01*
X109312309Y-103448800D01*
X110687681Y-103448800D01*
X110689413Y-103449800D01*
G37*
G36*
X117866447Y-103471509D02*
G01*
X117866837Y-103473471D01*
X117866478Y-103474111D01*
X117823159Y-103525944D01*
X117814526Y-103594660D01*
X117844490Y-103657290D01*
X117865525Y-103675517D01*
X117866179Y-103677407D01*
X117864869Y-103678918D01*
X117863825Y-103678990D01*
X117849801Y-103676200D01*
X116650199Y-103676200D01*
X116635447Y-103679134D01*
X116633553Y-103678491D01*
X116633163Y-103676529D01*
X116633522Y-103675889D01*
X116676841Y-103624056D01*
X116685474Y-103555340D01*
X116655510Y-103492710D01*
X116634475Y-103474483D01*
X116633821Y-103472593D01*
X116635131Y-103471082D01*
X116636175Y-103471010D01*
X116650199Y-103473800D01*
X117849801Y-103473800D01*
X117864553Y-103470866D01*
X117866447Y-103471509D01*
G37*
G36*
X120366447Y-103471509D02*
G01*
X120366837Y-103473471D01*
X120366478Y-103474111D01*
X120323159Y-103525944D01*
X120314526Y-103594660D01*
X120344490Y-103657290D01*
X120365525Y-103675517D01*
X120366179Y-103677407D01*
X120364869Y-103678918D01*
X120363825Y-103678990D01*
X120349801Y-103676200D01*
X119150199Y-103676200D01*
X119135447Y-103679134D01*
X119133553Y-103678491D01*
X119133163Y-103676529D01*
X119133522Y-103675889D01*
X119176841Y-103624056D01*
X119185474Y-103555340D01*
X119155510Y-103492710D01*
X119134475Y-103474483D01*
X119133821Y-103472593D01*
X119135131Y-103471082D01*
X119136175Y-103471010D01*
X119150199Y-103473800D01*
X120349801Y-103473800D01*
X120364553Y-103470866D01*
X120366447Y-103471509D01*
G37*
G36*
X112989413Y-102499800D02*
G01*
X112989413Y-102501800D01*
X112988071Y-102502762D01*
X112980301Y-102504307D01*
X112918668Y-102536546D01*
X112884394Y-102596730D01*
X112888100Y-102665888D01*
X112928642Y-102722112D01*
X112980244Y-102745679D01*
X112988081Y-102747238D01*
X112989585Y-102748557D01*
X112989195Y-102750519D01*
X112987691Y-102751200D01*
X111612319Y-102751200D01*
X111610587Y-102750200D01*
X111610587Y-102748200D01*
X111611929Y-102747238D01*
X111619699Y-102745693D01*
X111681332Y-102713454D01*
X111715606Y-102653270D01*
X111711900Y-102584112D01*
X111671358Y-102527888D01*
X111619756Y-102504321D01*
X111611919Y-102502762D01*
X111610415Y-102501443D01*
X111610805Y-102499481D01*
X111612309Y-102498800D01*
X112987681Y-102498800D01*
X112989413Y-102499800D01*
G37*
G36*
X110689413Y-102499800D02*
G01*
X110689413Y-102501800D01*
X110688071Y-102502762D01*
X110680301Y-102504307D01*
X110618668Y-102536546D01*
X110584394Y-102596730D01*
X110588100Y-102665888D01*
X110628642Y-102722112D01*
X110680244Y-102745679D01*
X110688081Y-102747238D01*
X110689585Y-102748557D01*
X110689195Y-102750519D01*
X110687691Y-102751200D01*
X109312319Y-102751200D01*
X109310587Y-102750200D01*
X109310587Y-102748200D01*
X109311929Y-102747238D01*
X109319699Y-102745693D01*
X109381332Y-102713454D01*
X109415606Y-102653270D01*
X109411900Y-102584112D01*
X109371358Y-102527888D01*
X109319756Y-102504321D01*
X109311919Y-102502762D01*
X109310415Y-102501443D01*
X109310805Y-102499481D01*
X109312309Y-102498800D01*
X110687681Y-102498800D01*
X110689413Y-102499800D01*
G37*
G36*
X117866447Y-102521509D02*
G01*
X117866837Y-102523471D01*
X117866478Y-102524111D01*
X117823159Y-102575944D01*
X117814526Y-102644660D01*
X117844490Y-102707290D01*
X117865525Y-102725517D01*
X117866179Y-102727407D01*
X117864869Y-102728918D01*
X117863825Y-102728990D01*
X117849801Y-102726200D01*
X116650199Y-102726200D01*
X116635447Y-102729134D01*
X116633553Y-102728491D01*
X116633163Y-102726529D01*
X116633522Y-102725889D01*
X116676841Y-102674056D01*
X116685474Y-102605340D01*
X116655510Y-102542710D01*
X116634475Y-102524483D01*
X116633821Y-102522593D01*
X116635131Y-102521082D01*
X116636175Y-102521010D01*
X116650199Y-102523800D01*
X117849801Y-102523800D01*
X117864553Y-102520866D01*
X117866447Y-102521509D01*
G37*
G36*
X120366447Y-102521509D02*
G01*
X120366837Y-102523471D01*
X120366478Y-102524111D01*
X120323159Y-102575944D01*
X120314526Y-102644660D01*
X120344490Y-102707290D01*
X120365525Y-102725517D01*
X120366179Y-102727407D01*
X120364869Y-102728918D01*
X120363825Y-102728990D01*
X120349801Y-102726200D01*
X119150199Y-102726200D01*
X119135447Y-102729134D01*
X119133553Y-102728491D01*
X119133163Y-102726529D01*
X119133522Y-102725889D01*
X119176841Y-102674056D01*
X119185474Y-102605340D01*
X119155510Y-102542710D01*
X119134475Y-102524483D01*
X119133821Y-102522593D01*
X119135131Y-102521082D01*
X119136175Y-102521010D01*
X119150199Y-102523800D01*
X120349801Y-102523800D01*
X120364553Y-102520866D01*
X120366447Y-102521509D01*
G37*
M02*
