M48
; DRILL file {KiCad (6.0.0)} date Wed Feb 16 09:51:39 2022
; FORMAT={-:-/ absolute / metric / decimal}
; #@! TF.CreationDate,2022-02-16T09:51:39+01:00
; #@! TF.GenerationSoftware,Kicad,Pcbnew,(6.0.0)
; #@! TF.FileFunction,Plated,1,2,PTH
FMAT,2
METRIC
; #@! TA.AperFunction,Plated,PTH,ViaDrill
T1C0.300
; #@! TA.AperFunction,Plated,PTH,ComponentDrill
T2C0.500
; #@! TA.AperFunction,Plated,PTH,ComponentDrill
T3C0.550
; #@! TA.AperFunction,Plated,PTH,ComponentDrill
T4C1.000
%
G90
G05
T1
X121.2Y-86.9
X122.19Y-105.59
X124.89Y-105.57
X176.0Y-79.46
X177.39Y-104.64
X180.89Y-105.036
X182.38Y-105.62
X187.97Y-94.84
X188.95Y-94.11
X191.643Y-104.165
X195.42Y-92.63
T4
X111.709Y-75.438
X111.709Y-77.978
X111.709Y-80.518
X111.709Y-83.058
X151.25Y-75.76
X153.75Y-75.76
X169.195Y-115.026
X169.195Y-117.566
X169.195Y-120.106
X169.195Y-122.646
X188.326Y-83.083
X188.326Y-90.703
X190.866Y-83.083
X190.866Y-90.703
X193.406Y-83.083
X193.406Y-90.703
X195.946Y-83.083
X195.946Y-90.703
T2
X110.277Y-123.424G85X110.277Y-122.774
G05
X117.277Y-123.424G85X117.277Y-122.774
G05
T3
X111.427Y-120.399G85X111.127Y-120.399
G05
X116.427Y-120.399G85X116.127Y-120.399
G05
T0
M30
