G04 #@! TF.GenerationSoftware,KiCad,Pcbnew,(6.0.0)*
G04 #@! TF.CreationDate,2022-02-16T09:51:19+01:00*
G04 #@! TF.ProjectId,drawing.kicad_v2_pcb,64726177-696e-4672-9e6b-696361645f76,v2.1*
G04 #@! TF.SameCoordinates,Original*
G04 #@! TF.FileFunction,Paste,Top*
G04 #@! TF.FilePolarity,Positive*
%FSLAX46Y46*%
G04 Gerber Fmt 4.6, Leading zero omitted, Abs format (unit mm)*
G04 Created by KiCad (PCBNEW (6.0.0)) date 2022-02-16 09:51:19*
%MOMM*%
%LPD*%
G01*
G04 APERTURE LIST*
G04 Aperture macros list*
%AMRoundRect*
0 Rectangle with rounded corners*
0 $1 Rounding radius*
0 $2 $3 $4 $5 $6 $7 $8 $9 X,Y pos of 4 corners*
0 Add a 4 corners polygon primitive as box body*
4,1,4,$2,$3,$4,$5,$6,$7,$8,$9,$2,$3,0*
0 Add four circle primitives for the rounded corners*
1,1,$1+$1,$2,$3*
1,1,$1+$1,$4,$5*
1,1,$1+$1,$6,$7*
1,1,$1+$1,$8,$9*
0 Add four rect primitives between the rounded corners*
20,1,$1+$1,$2,$3,$4,$5,0*
20,1,$1+$1,$4,$5,$6,$7,0*
20,1,$1+$1,$6,$7,$8,$9,0*
20,1,$1+$1,$8,$9,$2,$3,0*%
G04 Aperture macros list end*
G04 #@! TA.AperFunction,Profile*
%ADD10C,0.150000*%
G04 #@! TD*
%ADD11C,0.200000*%
G04 #@! TA.AperFunction,Profile*
%ADD12C,0.200000*%
G04 #@! TD*
%ADD13RoundRect,0.250000X-0.151491X-0.534018X0.459309X-0.311705X0.151491X0.534018X-0.459309X0.311705X0*%
%ADD14RoundRect,0.250000X-0.197457X-0.518783X0.430394X-0.350550X0.197457X0.518783X-0.430394X0.350550X0*%
%ADD15RoundRect,0.250000X0.227211X-0.506458X0.552211X0.056458X-0.227211X0.506458X-0.552211X-0.056458X0*%
%ADD16RoundRect,0.250000X-0.325000X-0.450000X0.325000X-0.450000X0.325000X0.450000X-0.325000X0.450000X0*%
%ADD17RoundRect,0.250000X0.450000X-0.350000X0.450000X0.350000X-0.450000X0.350000X-0.450000X-0.350000X0*%
%ADD18R,1.550000X1.300000*%
%ADD19RoundRect,0.250000X-0.350000X-0.450000X0.350000X-0.450000X0.350000X0.450000X-0.350000X0.450000X0*%
G04 APERTURE END LIST*
D10*
X157096620Y-70834873D02*
X147866620Y-70804873D01*
X147916669Y-65364807D02*
X149926620Y-65364873D01*
X157036620Y-65324874D02*
X155026620Y-65314873D01*
X155026619Y-65314873D02*
G75*
G03*
X149926620Y-65364873I-2548019J-227008D01*
G01*
X147916669Y-65394800D02*
G75*
G03*
X147866620Y-70804873I0J-2705268D01*
G01*
X157096620Y-70834872D02*
G75*
G03*
X157036620Y-65324874I-41644J2754872D01*
G01*
D11*
X199009991Y-124410835D02*
X198994558Y-124617854D01*
X198949252Y-124818762D01*
X198875557Y-125012559D01*
X198774959Y-125198246D01*
X198648943Y-125374823D01*
X198498994Y-125541290D01*
X198326598Y-125696648D01*
X198133240Y-125839897D01*
X197920406Y-125970037D01*
X197689580Y-126086068D01*
X197442248Y-126186991D01*
X197179896Y-126271807D01*
X196904009Y-126339514D01*
X196616072Y-126389115D01*
X196317570Y-126419608D01*
X196009990Y-126429995D01*
X196009990Y-61430000D02*
X196317570Y-61440386D01*
X196616072Y-61470880D01*
X196904009Y-61520480D01*
X197179896Y-61588188D01*
X197442248Y-61673004D01*
X197689580Y-61773927D01*
X197920406Y-61889959D01*
X198133240Y-62020099D01*
X198326598Y-62163348D01*
X198498994Y-62318706D01*
X198648943Y-62485173D01*
X198774959Y-62661750D01*
X198875557Y-62847436D01*
X198949252Y-63041233D01*
X198994558Y-63242140D01*
X199009991Y-63449159D01*
D12*
X109010000Y-61430000D02*
X109010000Y-61430000D01*
D11*
X109010000Y-126429995D02*
X108702419Y-126419608D01*
X108403917Y-126389115D01*
X108115979Y-126339514D01*
X107840092Y-126271807D01*
X107577739Y-126186991D01*
X107330408Y-126086068D01*
X107099582Y-125970037D01*
X106886747Y-125839897D01*
X106693389Y-125696648D01*
X106520992Y-125541290D01*
X106371043Y-125374823D01*
X106245027Y-125198246D01*
X106144429Y-125012559D01*
X106070734Y-124818762D01*
X106025428Y-124617854D01*
X106009996Y-124410835D01*
D12*
X196009990Y-126429995D02*
X109010000Y-126429995D01*
X199009991Y-63449159D02*
X199009991Y-124410835D01*
D11*
X106009996Y-63449159D02*
X106025428Y-63242140D01*
X106070734Y-63041233D01*
X106144429Y-62847436D01*
X106245027Y-62661750D01*
X106371043Y-62485173D01*
X106520992Y-62318706D01*
X106693389Y-62163348D01*
X106886747Y-62020099D01*
X107099582Y-61889959D01*
X107330408Y-61773927D01*
X107577739Y-61673004D01*
X107840092Y-61588188D01*
X108115979Y-61520480D01*
X108403917Y-61470880D01*
X108702419Y-61440386D01*
X109010000Y-61430000D01*
D12*
X106009996Y-124410835D02*
X106009996Y-63449159D01*
X109010000Y-61430000D02*
X196009990Y-61430000D01*
D13*
X186920615Y-78861971D03*
X188846985Y-78160829D03*
D14*
X190905766Y-78035010D03*
X192885914Y-77504430D03*
D15*
X195677100Y-76249476D03*
X196702100Y-74474124D03*
D16*
X192208040Y-72864980D03*
X194258040Y-72864980D03*
D17*
X180365400Y-65719200D03*
X180365400Y-63719200D03*
X185572400Y-65770000D03*
X185572400Y-63770000D03*
X195453000Y-65770000D03*
X195453000Y-63770000D03*
X190500000Y-65770000D03*
X190500000Y-63770000D03*
D18*
X125875000Y-95645800D03*
X117925000Y-95645800D03*
X125875000Y-91145800D03*
X117925000Y-91145800D03*
D19*
X193411600Y-95224600D03*
X195411600Y-95224600D03*
D18*
X140068200Y-95671200D03*
X132118200Y-95671200D03*
X140068200Y-91171200D03*
X132118200Y-91171200D03*
M02*
