G04 #@! TF.GenerationSoftware,KiCad,Pcbnew,(6.0.0)*
G04 #@! TF.CreationDate,2022-02-16T09:51:19+01:00*
G04 #@! TF.ProjectId,drawing.kicad_v2_pcb,64726177-696e-4672-9e6b-696361645f76,v2.1*
G04 #@! TF.SameCoordinates,Original*
G04 #@! TF.FileFunction,Copper,L2,Bot*
G04 #@! TF.FilePolarity,Positive*
%FSLAX46Y46*%
G04 Gerber Fmt 4.6, Leading zero omitted, Abs format (unit mm)*
G04 Created by KiCad (PCBNEW (6.0.0)) date 2022-02-16 09:51:19*
%MOMM*%
%LPD*%
G01*
G04 APERTURE LIST*
G04 Aperture macros list*
%AMRoundRect*
0 Rectangle with rounded corners*
0 $1 Rounding radius*
0 $2 $3 $4 $5 $6 $7 $8 $9 X,Y pos of 4 corners*
0 Add a 4 corners polygon primitive as box body*
4,1,4,$2,$3,$4,$5,$6,$7,$8,$9,$2,$3,0*
0 Add four circle primitives for the rounded corners*
1,1,$1+$1,$2,$3*
1,1,$1+$1,$4,$5*
1,1,$1+$1,$6,$7*
1,1,$1+$1,$8,$9*
0 Add four rect primitives between the rounded corners*
20,1,$1+$1,$2,$3,$4,$5,0*
20,1,$1+$1,$4,$5,$6,$7,0*
20,1,$1+$1,$6,$7,$8,$9,0*
20,1,$1+$1,$8,$9,$2,$3,0*%
%AMFreePoly0*
4,1,9,1.000000,1.114214,1.000000,-1.114214,0.414214,-1.700000,-0.414214,-1.700000,-1.000000,-1.114214,-1.000000,1.114214,-0.414214,1.700000,0.414214,1.700000,1.000000,1.114214,1.000000,1.114214,$1*%
G04 Aperture macros list end*
G04 #@! TA.AperFunction,Profile*
%ADD10C,0.150000*%
G04 #@! TD*
%ADD11C,0.200000*%
G04 #@! TA.AperFunction,Profile*
%ADD12C,0.200000*%
G04 #@! TD*
G04 #@! TA.AperFunction,ComponentPad*
%ADD13RoundRect,0.250000X-0.600000X-0.750000X0.600000X-0.750000X0.600000X0.750000X-0.600000X0.750000X0*%
G04 #@! TD*
G04 #@! TA.AperFunction,ComponentPad*
%ADD14O,1.700000X2.000000*%
G04 #@! TD*
G04 #@! TA.AperFunction,ComponentPad*
%ADD15R,1.700000X1.700000*%
G04 #@! TD*
G04 #@! TA.AperFunction,ComponentPad*
%ADD16O,1.700000X1.700000*%
G04 #@! TD*
G04 #@! TA.AperFunction,SMDPad,CuDef*
%ADD17R,0.400000X1.350000*%
G04 #@! TD*
G04 #@! TA.AperFunction,ComponentPad*
%ADD18O,1.250000X0.950000*%
G04 #@! TD*
G04 #@! TA.AperFunction,ComponentPad*
%ADD19O,1.000000X1.550000*%
G04 #@! TD*
G04 #@! TA.AperFunction,SMDPad,CuDef*
%ADD20RoundRect,0.250000X0.350000X0.450000X-0.350000X0.450000X-0.350000X-0.450000X0.350000X-0.450000X0*%
G04 #@! TD*
G04 #@! TA.AperFunction,SMDPad,CuDef*
%ADD21R,1.250000X0.900000*%
G04 #@! TD*
G04 #@! TA.AperFunction,SMDPad,CuDef*
%ADD22R,0.900000X0.800000*%
G04 #@! TD*
G04 #@! TA.AperFunction,SMDPad,CuDef*
%ADD23RoundRect,0.250000X0.450000X-0.350000X0.450000X0.350000X-0.450000X0.350000X-0.450000X-0.350000X0*%
G04 #@! TD*
G04 #@! TA.AperFunction,SMDPad,CuDef*
%ADD24R,1.525000X0.700000*%
G04 #@! TD*
G04 #@! TA.AperFunction,SMDPad,CuDef*
%ADD25R,2.513000X3.402000*%
G04 #@! TD*
G04 #@! TA.AperFunction,SMDPad,CuDef*
%ADD26R,1.400000X0.600000*%
G04 #@! TD*
G04 #@! TA.AperFunction,ComponentPad*
%ADD27R,1.600000X1.600000*%
G04 #@! TD*
G04 #@! TA.AperFunction,ComponentPad*
%ADD28C,1.600000*%
G04 #@! TD*
G04 #@! TA.AperFunction,SMDPad,CuDef*
%ADD29R,0.599999X1.599999*%
G04 #@! TD*
G04 #@! TA.AperFunction,SMDPad,CuDef*
%ADD30R,0.700001X2.000001*%
G04 #@! TD*
G04 #@! TA.AperFunction,SMDPad,CuDef*
%ADD31FreePoly0,180.000000*%
G04 #@! TD*
G04 #@! TA.AperFunction,SMDPad,CuDef*
%ADD32R,2.500000X1.000000*%
G04 #@! TD*
G04 #@! TA.AperFunction,SMDPad,CuDef*
%ADD33R,1.000000X1.800000*%
G04 #@! TD*
G04 #@! TA.AperFunction,SMDPad,CuDef*
%ADD34R,1.500000X1.000000*%
G04 #@! TD*
G04 #@! TA.AperFunction,SMDPad,CuDef*
%ADD35RoundRect,0.250000X0.475000X-0.337500X0.475000X0.337500X-0.475000X0.337500X-0.475000X-0.337500X0*%
G04 #@! TD*
G04 #@! TA.AperFunction,SMDPad,CuDef*
%ADD36RoundRect,0.250000X-0.450000X0.325000X-0.450000X-0.325000X0.450000X-0.325000X0.450000X0.325000X0*%
G04 #@! TD*
G04 #@! TA.AperFunction,SMDPad,CuDef*
%ADD37RoundRect,0.250000X0.337500X0.475000X-0.337500X0.475000X-0.337500X-0.475000X0.337500X-0.475000X0*%
G04 #@! TD*
G04 #@! TA.AperFunction,SMDPad,CuDef*
%ADD38R,1.200000X0.650000*%
G04 #@! TD*
G04 #@! TA.AperFunction,SMDPad,CuDef*
%ADD39RoundRect,0.250000X-0.350000X-0.450000X0.350000X-0.450000X0.350000X0.450000X-0.350000X0.450000X0*%
G04 #@! TD*
G04 #@! TA.AperFunction,ViaPad*
%ADD40C,0.600000*%
G04 #@! TD*
G04 #@! TA.AperFunction,Conductor*
%ADD41C,0.152400*%
G04 #@! TD*
G04 APERTURE END LIST*
D10*
X157096620Y-70834873D02*
X147866620Y-70804873D01*
X147916669Y-65364807D02*
X149926620Y-65364873D01*
X157036620Y-65324874D02*
X155026620Y-65314873D01*
X155026619Y-65314873D02*
G75*
G03*
X149926620Y-65364873I-2548019J-227008D01*
G01*
X147916669Y-65394800D02*
G75*
G03*
X147866620Y-70804873I0J-2705268D01*
G01*
X157096620Y-70834872D02*
G75*
G03*
X157036620Y-65324874I-41644J2754872D01*
G01*
D11*
X199009991Y-124410835D02*
X198994558Y-124617854D01*
X198949252Y-124818762D01*
X198875557Y-125012559D01*
X198774959Y-125198246D01*
X198648943Y-125374823D01*
X198498994Y-125541290D01*
X198326598Y-125696648D01*
X198133240Y-125839897D01*
X197920406Y-125970037D01*
X197689580Y-126086068D01*
X197442248Y-126186991D01*
X197179896Y-126271807D01*
X196904009Y-126339514D01*
X196616072Y-126389115D01*
X196317570Y-126419608D01*
X196009990Y-126429995D01*
X196009990Y-61430000D02*
X196317570Y-61440386D01*
X196616072Y-61470880D01*
X196904009Y-61520480D01*
X197179896Y-61588188D01*
X197442248Y-61673004D01*
X197689580Y-61773927D01*
X197920406Y-61889959D01*
X198133240Y-62020099D01*
X198326598Y-62163348D01*
X198498994Y-62318706D01*
X198648943Y-62485173D01*
X198774959Y-62661750D01*
X198875557Y-62847436D01*
X198949252Y-63041233D01*
X198994558Y-63242140D01*
X199009991Y-63449159D01*
D12*
X109010000Y-61430000D02*
X109010000Y-61430000D01*
D11*
X109010000Y-126429995D02*
X108702419Y-126419608D01*
X108403917Y-126389115D01*
X108115979Y-126339514D01*
X107840092Y-126271807D01*
X107577739Y-126186991D01*
X107330408Y-126086068D01*
X107099582Y-125970037D01*
X106886747Y-125839897D01*
X106693389Y-125696648D01*
X106520992Y-125541290D01*
X106371043Y-125374823D01*
X106245027Y-125198246D01*
X106144429Y-125012559D01*
X106070734Y-124818762D01*
X106025428Y-124617854D01*
X106009996Y-124410835D01*
D12*
X196009990Y-126429995D02*
X109010000Y-126429995D01*
X199009991Y-63449159D02*
X199009991Y-124410835D01*
D11*
X106009996Y-63449159D02*
X106025428Y-63242140D01*
X106070734Y-63041233D01*
X106144429Y-62847436D01*
X106245027Y-62661750D01*
X106371043Y-62485173D01*
X106520992Y-62318706D01*
X106693389Y-62163348D01*
X106886747Y-62020099D01*
X107099582Y-61889959D01*
X107330408Y-61773927D01*
X107577739Y-61673004D01*
X107840092Y-61588188D01*
X108115979Y-61520480D01*
X108403917Y-61470880D01*
X108702419Y-61440386D01*
X109010000Y-61430000D01*
D12*
X106009996Y-124410835D02*
X106009996Y-63449159D01*
X109010000Y-61430000D02*
X196009990Y-61430000D01*
D13*
X151250000Y-75760000D03*
D14*
X153750000Y-75760000D03*
D15*
X111709200Y-83058000D03*
D16*
X111709200Y-80518000D03*
X111709200Y-77978000D03*
X111709200Y-75438000D03*
D17*
X115076760Y-120398540D03*
X114426760Y-120398540D03*
X113776760Y-120398540D03*
X113126760Y-120398540D03*
X112476760Y-120398540D03*
D18*
X116276760Y-120398540D03*
X111276760Y-120398540D03*
D19*
X117276760Y-123098540D03*
X110276760Y-123098540D03*
D20*
X175218600Y-107645200D03*
X173218600Y-107645200D03*
X110200000Y-108900000D03*
X108200000Y-108900000D03*
D21*
X110339000Y-96712600D03*
X110339000Y-93712600D03*
X110339000Y-92212600D03*
D22*
X109364000Y-98262600D03*
X107164000Y-98262600D03*
X107164000Y-90662600D03*
X109364000Y-90662600D03*
D23*
X120900000Y-115100000D03*
X120900000Y-113100000D03*
D24*
X111088000Y-116105000D03*
X111088000Y-114835000D03*
X111088000Y-113565000D03*
X111088000Y-112295000D03*
X116512000Y-112295000D03*
X116512000Y-113565000D03*
X116512000Y-114835000D03*
X116512000Y-116105000D03*
D25*
X113800000Y-114200000D03*
D26*
X110000000Y-104050000D03*
X110000000Y-103100000D03*
X110000000Y-102150000D03*
X112300000Y-104050000D03*
X112300000Y-103100000D03*
X112300000Y-102150000D03*
D27*
X188325600Y-83083400D03*
D28*
X190865600Y-83083400D03*
X193405600Y-83083400D03*
X195945600Y-83083400D03*
X195945600Y-90703400D03*
X193405600Y-90703400D03*
X190865600Y-90703400D03*
X188325600Y-90703400D03*
D20*
X117900000Y-99100000D03*
X115900000Y-99100000D03*
D29*
X120300000Y-86299999D03*
D30*
X118800001Y-86099999D03*
D31*
X118800000Y-83400000D03*
D29*
X117300000Y-86299999D03*
D32*
X179648800Y-114084400D03*
X179648800Y-112084400D03*
X179648800Y-110084400D03*
X179648800Y-108084400D03*
X179648800Y-106084400D03*
X179648800Y-104084400D03*
X179648800Y-102084400D03*
X179648800Y-100084400D03*
D33*
X182248800Y-98584400D03*
X184248800Y-98584400D03*
X186248800Y-98584400D03*
X188248800Y-98584400D03*
X190248800Y-98584400D03*
X192248800Y-98584400D03*
D32*
X194848800Y-100084400D03*
X194848800Y-102084400D03*
X194848800Y-104084400D03*
X194848800Y-106084400D03*
X194848800Y-108084400D03*
X194848800Y-110084400D03*
X194848800Y-112084400D03*
X194848800Y-114084400D03*
D34*
X174916000Y-68198800D03*
X174916000Y-64998800D03*
X170016000Y-64998800D03*
X170016000Y-68198800D03*
D35*
X123200000Y-104237500D03*
X123200000Y-102162500D03*
D20*
X175200000Y-115600000D03*
X173200000Y-115600000D03*
D36*
X120500000Y-121675000D03*
X120500000Y-123725000D03*
D37*
X114837500Y-109000000D03*
X112762500Y-109000000D03*
D23*
X120900000Y-110600000D03*
X120900000Y-108600000D03*
D38*
X117250000Y-104050000D03*
X117250000Y-103100000D03*
X117250000Y-102150000D03*
X119750000Y-102150000D03*
X119750000Y-103100000D03*
X119750000Y-104050000D03*
D35*
X108000000Y-115037500D03*
X108000000Y-112962500D03*
D36*
X124400000Y-121675000D03*
X124400000Y-123725000D03*
D15*
X169195200Y-122645800D03*
D16*
X169195200Y-120105800D03*
X169195200Y-117565800D03*
X169195200Y-115025800D03*
D39*
X173193200Y-103733600D03*
X175193200Y-103733600D03*
X173167800Y-99898200D03*
X175167800Y-99898200D03*
D37*
X175256100Y-111683800D03*
X173181100Y-111683800D03*
D35*
X166640000Y-67727500D03*
X166640000Y-65652500D03*
D23*
X108000000Y-120600000D03*
X108000000Y-118600000D03*
D40*
X121200000Y-86900000D03*
X195420000Y-92630000D03*
X124890000Y-105570000D03*
X122190000Y-105590000D03*
X188950000Y-94110000D03*
X187970000Y-94840000D03*
X191643000Y-104165400D03*
X182380000Y-105620000D03*
X176000000Y-79460000D03*
X180890000Y-105036302D03*
X177390000Y-104640000D03*
D41*
X123012500Y-104050000D02*
X123200000Y-104237500D01*
X119750000Y-104050000D02*
X123012500Y-104050000D01*
X123200000Y-104580000D02*
X123200000Y-104237500D01*
X122190000Y-105590000D02*
X123200000Y-104580000D01*
X152386880Y-77123120D02*
X153750000Y-75760000D01*
X127397600Y-77123120D02*
X152386880Y-77123120D01*
X151210000Y-75800000D02*
X151250000Y-75760000D01*
X128290360Y-75800000D02*
X151210000Y-75800000D01*
X123268049Y-80822311D02*
X128290360Y-75800000D01*
X120640360Y-83400000D02*
X123218049Y-80822311D01*
X118800000Y-83400000D02*
X120640360Y-83400000D01*
X123218049Y-80822311D02*
X123268049Y-80822311D01*
X109067500Y-116105000D02*
X108000000Y-115037500D01*
X111088000Y-113565000D02*
X113165000Y-113565000D01*
X110000000Y-103100000D02*
X110400000Y-103100000D01*
X111210000Y-101910000D02*
X114020000Y-99100000D01*
X114020000Y-99100000D02*
X115900000Y-99100000D01*
X109600000Y-103100000D02*
X110000000Y-103100000D01*
X110874880Y-113778120D02*
X107326957Y-113778120D01*
X173074800Y-69790000D02*
X168702500Y-69790000D01*
X174666000Y-68198800D02*
X173074800Y-69790000D01*
X107030000Y-113481163D02*
X107030000Y-112443837D01*
X111088000Y-113565000D02*
X110874880Y-113778120D01*
X108501660Y-121101660D02*
X111773640Y-121101660D01*
X109050000Y-103650000D02*
X109600000Y-103100000D01*
X113126760Y-120398540D02*
X112476760Y-120398540D01*
X121200000Y-86900000D02*
X120900001Y-86900000D01*
X109651957Y-109828120D02*
X109050000Y-109226163D01*
X112762500Y-109000000D02*
X111934380Y-109828120D01*
X168702500Y-69790000D02*
X166640000Y-67727500D01*
X111088000Y-116105000D02*
X109067500Y-116105000D01*
X174916000Y-68198800D02*
X174666000Y-68198800D01*
X110400000Y-103100000D02*
X111210000Y-102290000D01*
X113165000Y-113565000D02*
X113800000Y-114200000D01*
X111934380Y-109828120D02*
X109651957Y-109828120D01*
X109645717Y-109828120D02*
X109651957Y-109828120D01*
X107326957Y-113778120D02*
X107030000Y-113481163D01*
X108000000Y-120600000D02*
X108501660Y-121101660D01*
X120900001Y-86900000D02*
X120300000Y-86299999D01*
X111210000Y-102290000D02*
X111210000Y-101910000D01*
X107030000Y-112443837D02*
X109645717Y-109828120D01*
X109050000Y-109226163D02*
X109050000Y-103650000D01*
X111773640Y-121101660D02*
X112476760Y-120398540D01*
X120500000Y-121675000D02*
X120500000Y-115500000D01*
X120500000Y-115500000D02*
X120900000Y-115100000D01*
X174209200Y-98856800D02*
X178421200Y-98856800D01*
X174209200Y-98856800D02*
X174209200Y-90596700D01*
X175200000Y-111739900D02*
X175256100Y-111683800D01*
X109485889Y-91534489D02*
X110235511Y-91534489D01*
X166640000Y-65652500D02*
X157952500Y-74340000D01*
X179648800Y-100084400D02*
X179648800Y-99328178D01*
X170016000Y-64998800D02*
X167293700Y-64998800D01*
X173193200Y-103733600D02*
X173193200Y-99923600D01*
X110339000Y-93712600D02*
X109360000Y-92733600D01*
X123142000Y-80518000D02*
X129320000Y-74340000D01*
X167293700Y-64998800D02*
X166640000Y-65652500D01*
X174390480Y-104930880D02*
X173193200Y-103733600D01*
X179648800Y-99328178D02*
X186346978Y-92630000D01*
X129320000Y-74340000D02*
X157952500Y-74340000D01*
X110235511Y-91534489D02*
X115730000Y-86040000D01*
X109360000Y-91660378D02*
X109485889Y-91534489D01*
X186346978Y-92630000D02*
X195420000Y-92630000D01*
X174390480Y-110818180D02*
X174390480Y-104930880D01*
X175200000Y-115600000D02*
X175200000Y-111739900D01*
X174209200Y-98856800D02*
X173167800Y-99898200D01*
X115730000Y-86040000D02*
X115730000Y-84538800D01*
X173193200Y-99923600D02*
X173167800Y-99898200D01*
X178421200Y-98856800D02*
X179648800Y-100084400D01*
X174209200Y-90596700D02*
X157952500Y-74340000D01*
X111709200Y-80518000D02*
X123142000Y-80518000D01*
X175256100Y-111683800D02*
X174390480Y-110818180D01*
X109360000Y-92733600D02*
X109360000Y-91660378D01*
X115730000Y-84538800D02*
X111709200Y-80518000D01*
X111088000Y-112295000D02*
X111112111Y-112270889D01*
X108667500Y-112295000D02*
X108000000Y-112962500D01*
X115076760Y-120398540D02*
X115076760Y-117540240D01*
X120500000Y-123725000D02*
X120123340Y-124101660D01*
X115521389Y-112598200D02*
X115521389Y-115775389D01*
X111112111Y-112270889D02*
X115194078Y-112270889D01*
X124400000Y-123725000D02*
X120500000Y-123725000D01*
X120123340Y-124101660D02*
X116975163Y-124101660D01*
X115521389Y-115775389D02*
X115851000Y-116105000D01*
X115076760Y-122203257D02*
X115076760Y-120398540D01*
X115851000Y-116105000D02*
X116512000Y-116105000D01*
X115076760Y-117540240D02*
X116512000Y-116105000D01*
X116975163Y-124101660D02*
X115076760Y-122203257D01*
X115194078Y-112270889D02*
X115521389Y-112598200D01*
X111088000Y-112295000D02*
X108667500Y-112295000D01*
X127397600Y-77123120D02*
X121870000Y-82650720D01*
X121870000Y-82650720D02*
X121870000Y-97550000D01*
X111371889Y-103628111D02*
X111371889Y-104463089D01*
X111371889Y-104463089D02*
X111511911Y-104603111D01*
X112300000Y-103100000D02*
X111900000Y-103100000D01*
X119196889Y-104603111D02*
X119750000Y-104050000D01*
X124990000Y-105470000D02*
X124890000Y-105570000D01*
X121870000Y-97550000D02*
X124990000Y-100670000D01*
X111511911Y-104603111D02*
X119196889Y-104603111D01*
X111900000Y-103100000D02*
X111371889Y-103628111D01*
X124990000Y-100670000D02*
X124990000Y-105470000D01*
X120578111Y-100258111D02*
X120578111Y-102916489D01*
X123200000Y-102162500D02*
X122262500Y-103100000D01*
X120578111Y-102916489D02*
X120394600Y-103100000D01*
X119750000Y-103100000D02*
X122262500Y-103100000D01*
X112521898Y-98171880D02*
X118491880Y-98171880D01*
X118491880Y-98171880D02*
X120578111Y-100258111D01*
X108200000Y-102493778D02*
X112521898Y-98171880D01*
X108200000Y-108900000D02*
X108200000Y-102493778D01*
X197600000Y-114085600D02*
X197600000Y-122900000D01*
X197600000Y-122900000D02*
X196200000Y-124300000D01*
X194848800Y-112084400D02*
X195598800Y-112084400D01*
X170849400Y-124300000D02*
X169195200Y-122645800D01*
X195598800Y-112084400D02*
X197600000Y-114085600D01*
X196200000Y-124300000D02*
X170849400Y-124300000D01*
X197000000Y-123000000D02*
X196004311Y-123995689D01*
X196004311Y-123995689D02*
X173085089Y-123995689D01*
X197000000Y-115485600D02*
X197000000Y-123000000D01*
X194848800Y-114084400D02*
X195598800Y-114084400D01*
X195598800Y-114084400D02*
X197000000Y-115485600D01*
X173085089Y-123995689D02*
X169195200Y-120105800D01*
X191080622Y-104522444D02*
X193914467Y-107356289D01*
X193914467Y-107356289D02*
X196326911Y-107356289D01*
X196390000Y-107419378D02*
X196390000Y-109293200D01*
X196390000Y-109293200D02*
X195598800Y-110084400D01*
X196326911Y-107356289D02*
X196390000Y-107419378D01*
X188950000Y-94110000D02*
X191080622Y-96240622D01*
X191080622Y-96240622D02*
X191080622Y-104522444D01*
X195598800Y-110084400D02*
X194848800Y-110084400D01*
X187970000Y-94840000D02*
X187520689Y-95289311D01*
X187520689Y-101506289D02*
X194098800Y-108084400D01*
X194098800Y-108084400D02*
X194848800Y-108084400D01*
X187520689Y-95289311D02*
X187520689Y-101506289D01*
X191643000Y-104165400D02*
X191724000Y-104084400D01*
X191724000Y-104084400D02*
X194848800Y-104084400D01*
X175193200Y-103733600D02*
X178342800Y-106883200D01*
X180398800Y-110084400D02*
X179648800Y-110084400D01*
X181126911Y-107356289D02*
X181126911Y-109356289D01*
X178342800Y-106883200D02*
X180653822Y-106883200D01*
X181126911Y-109356289D02*
X180398800Y-110084400D01*
X180653822Y-106883200D02*
X181126911Y-107356289D01*
X181432200Y-113741200D02*
X181089000Y-114084400D01*
X178165000Y-102895400D02*
X180666022Y-102895400D01*
X175167800Y-99898200D02*
X178165000Y-102895400D01*
X182380000Y-105620000D02*
X181432200Y-104672200D01*
X181432200Y-103661578D02*
X181432200Y-113741200D01*
X180666022Y-102895400D02*
X181432200Y-103661578D01*
X181089000Y-114084400D02*
X179648800Y-114084400D01*
X175657800Y-108084400D02*
X179648800Y-108084400D01*
X175218600Y-107645200D02*
X175657800Y-108084400D01*
X121204283Y-114271880D02*
X121828120Y-113648043D01*
X117075120Y-114271880D02*
X121204283Y-114271880D01*
X116512000Y-114835000D02*
X117075120Y-114271880D01*
X121828120Y-113648043D02*
X121828120Y-111528120D01*
X121828120Y-111528120D02*
X120900000Y-110600000D01*
X112078611Y-116683111D02*
X112078611Y-115413111D01*
X111500500Y-114835000D02*
X111088000Y-114835000D01*
X110161722Y-118600000D02*
X112078611Y-116683111D01*
X108000000Y-118600000D02*
X110161722Y-118600000D01*
X112078611Y-115413111D02*
X111500500Y-114835000D01*
X120435000Y-113565000D02*
X120900000Y-113100000D01*
X116512000Y-113565000D02*
X120435000Y-113565000D01*
X169081778Y-124688600D02*
X168117089Y-123723911D01*
X196367400Y-124688600D02*
X169081778Y-124688600D01*
X194848800Y-106084400D02*
X195598800Y-106084400D01*
X195598800Y-106084400D02*
X198018400Y-108504000D01*
X168117089Y-123723911D02*
X168117089Y-116103911D01*
X173200000Y-115600000D02*
X172625800Y-115025800D01*
X172625800Y-115025800D02*
X169195200Y-115025800D01*
X198018400Y-123037600D02*
X196367400Y-124688600D01*
X168117089Y-116103911D02*
X169195200Y-115025800D01*
X198018400Y-108504000D02*
X198018400Y-123037600D01*
X179841902Y-106084400D02*
X179648800Y-106084400D01*
X174916000Y-64998800D02*
X176000000Y-66082800D01*
X180890000Y-105036302D02*
X179841902Y-106084400D01*
X176000000Y-66082800D02*
X176000000Y-79460000D01*
X177945600Y-104084400D02*
X179648800Y-104084400D01*
X177390000Y-104640000D02*
X177945600Y-104084400D01*
X110200000Y-108900000D02*
X111053120Y-108046880D01*
X124153120Y-100263480D02*
X124153120Y-104777080D01*
X120218520Y-107771880D02*
X116512000Y-111478400D01*
X121158320Y-107771880D02*
X120218520Y-107771880D01*
X113884380Y-108046880D02*
X114837500Y-109000000D01*
X111053120Y-108046880D02*
X113884380Y-108046880D01*
X118800001Y-86099999D02*
X118800001Y-94910361D01*
X116512000Y-110674500D02*
X114837500Y-109000000D01*
X116512000Y-112295000D02*
X116512000Y-110674500D01*
X118800001Y-94910361D02*
X124153120Y-100263480D01*
X124153120Y-104777080D02*
X121158320Y-107771880D01*
X124400000Y-121675000D02*
X124400000Y-112100000D01*
X124400000Y-112100000D02*
X120900000Y-108600000D01*
X117250000Y-104050000D02*
X112300000Y-104050000D01*
X117681222Y-103100000D02*
X117250000Y-103100000D01*
X117900000Y-99100000D02*
X118078111Y-99278111D01*
X118078111Y-99278111D02*
X118078111Y-102703111D01*
X118078111Y-102703111D02*
X117681222Y-103100000D01*
X117250000Y-102150000D02*
X112300000Y-102150000D01*
X117300000Y-86299999D02*
X116251601Y-86299999D01*
X116251601Y-86299999D02*
X110339000Y-92212600D01*
G04 #@! TA.AperFunction,Conductor*
G36*
X157726241Y-74944702D02*
G01*
X157747215Y-74961605D01*
X173587595Y-90801986D01*
X173621621Y-90864298D01*
X173624500Y-90891081D01*
X173624500Y-98562420D01*
X173604498Y-98630541D01*
X173587595Y-98651515D01*
X173586315Y-98652795D01*
X173524003Y-98686821D01*
X173497220Y-98689700D01*
X172767400Y-98689700D01*
X172764154Y-98690037D01*
X172764150Y-98690037D01*
X172668492Y-98699962D01*
X172668488Y-98699963D01*
X172661634Y-98700674D01*
X172655098Y-98702855D01*
X172655096Y-98702855D01*
X172529861Y-98744637D01*
X172493854Y-98756650D01*
X172343452Y-98849722D01*
X172218495Y-98974897D01*
X172214655Y-98981127D01*
X172214654Y-98981128D01*
X172150059Y-99085921D01*
X172125685Y-99125462D01*
X172070003Y-99293339D01*
X172059300Y-99397800D01*
X172059300Y-100398600D01*
X172059637Y-100401846D01*
X172059637Y-100401850D01*
X172061118Y-100416117D01*
X172070274Y-100504366D01*
X172126250Y-100672146D01*
X172219322Y-100822548D01*
X172344497Y-100947505D01*
X172350727Y-100951345D01*
X172350728Y-100951346D01*
X172486464Y-101035015D01*
X172495062Y-101040315D01*
X172522168Y-101049306D01*
X172580526Y-101089735D01*
X172607764Y-101155298D01*
X172608500Y-101168898D01*
X172608500Y-102471484D01*
X172588498Y-102539605D01*
X172534842Y-102586098D01*
X172529292Y-102588284D01*
X172526201Y-102589732D01*
X172519254Y-102592050D01*
X172368852Y-102685122D01*
X172243895Y-102810297D01*
X172240055Y-102816527D01*
X172240054Y-102816528D01*
X172156127Y-102952683D01*
X172151085Y-102960862D01*
X172148781Y-102967809D01*
X172101307Y-103110940D01*
X172095403Y-103128739D01*
X172084700Y-103233200D01*
X172084700Y-104234000D01*
X172095674Y-104339766D01*
X172151650Y-104507546D01*
X172244722Y-104657948D01*
X172369897Y-104782905D01*
X172376127Y-104786745D01*
X172376128Y-104786746D01*
X172507974Y-104868017D01*
X172520462Y-104875715D01*
X172571086Y-104892506D01*
X172681811Y-104929232D01*
X172681813Y-104929232D01*
X172688339Y-104931397D01*
X172695175Y-104932097D01*
X172695178Y-104932098D01*
X172738231Y-104936509D01*
X172792800Y-104942100D01*
X173522619Y-104942100D01*
X173590740Y-104962102D01*
X173611714Y-104979005D01*
X173768875Y-105136166D01*
X173802901Y-105198478D01*
X173805780Y-105225261D01*
X173805780Y-106316771D01*
X173785778Y-106384892D01*
X173732122Y-106431385D01*
X173666939Y-106442115D01*
X173622165Y-106437528D01*
X173615745Y-106437200D01*
X173490715Y-106437200D01*
X173475476Y-106441675D01*
X173474271Y-106443065D01*
X173472600Y-106450748D01*
X173472600Y-108835084D01*
X173477075Y-108850323D01*
X173478465Y-108851528D01*
X173486148Y-108853199D01*
X173615695Y-108853199D01*
X173622214Y-108852862D01*
X173666777Y-108848238D01*
X173736598Y-108861103D01*
X173788380Y-108909674D01*
X173805780Y-108973565D01*
X173805780Y-110335494D01*
X173785778Y-110403615D01*
X173732122Y-110450108D01*
X173666938Y-110460838D01*
X173572162Y-110451128D01*
X173565745Y-110450800D01*
X173453215Y-110450800D01*
X173437976Y-110455275D01*
X173436771Y-110456665D01*
X173435100Y-110464348D01*
X173435100Y-112898684D01*
X173439575Y-112913923D01*
X173440965Y-112915128D01*
X173448648Y-112916799D01*
X173565695Y-112916799D01*
X173572214Y-112916462D01*
X173667806Y-112906543D01*
X173681200Y-112903651D01*
X173835384Y-112852212D01*
X173848562Y-112846039D01*
X173986407Y-112760737D01*
X173997808Y-112751701D01*
X174112338Y-112636972D01*
X174119394Y-112628038D01*
X174177312Y-112586977D01*
X174248235Y-112583747D01*
X174309646Y-112619374D01*
X174316446Y-112627207D01*
X174320122Y-112633148D01*
X174445297Y-112758105D01*
X174451527Y-112761945D01*
X174451528Y-112761946D01*
X174555416Y-112825984D01*
X174602910Y-112878757D01*
X174615300Y-112933244D01*
X174615300Y-114337884D01*
X174595298Y-114406005D01*
X174541642Y-114452498D01*
X174536092Y-114454684D01*
X174533001Y-114456132D01*
X174526054Y-114458450D01*
X174375652Y-114551522D01*
X174370479Y-114556704D01*
X174289216Y-114638109D01*
X174226934Y-114672188D01*
X174156114Y-114667185D01*
X174111025Y-114638264D01*
X174028483Y-114555866D01*
X174023303Y-114550695D01*
X173932721Y-114494859D01*
X173878968Y-114461725D01*
X173878966Y-114461724D01*
X173872738Y-114457885D01*
X173749063Y-114416864D01*
X173711389Y-114404368D01*
X173711387Y-114404368D01*
X173704861Y-114402203D01*
X173698025Y-114401503D01*
X173698022Y-114401502D01*
X173654969Y-114397091D01*
X173600400Y-114391500D01*
X172799600Y-114391500D01*
X172796354Y-114391837D01*
X172796350Y-114391837D01*
X172700692Y-114401762D01*
X172700688Y-114401763D01*
X172693834Y-114402474D01*
X172687298Y-114404655D01*
X172687296Y-114404655D01*
X172597469Y-114434624D01*
X172557593Y-114441100D01*
X170503365Y-114441100D01*
X170435244Y-114421098D01*
X170397949Y-114380737D01*
X170396554Y-114381640D01*
X170278022Y-114198417D01*
X170278020Y-114198414D01*
X170275214Y-114194077D01*
X170124870Y-114028851D01*
X170120819Y-114025652D01*
X170120815Y-114025648D01*
X169953614Y-113893600D01*
X169953610Y-113893598D01*
X169949559Y-113890398D01*
X169753989Y-113782438D01*
X169749120Y-113780714D01*
X169749116Y-113780712D01*
X169548287Y-113709595D01*
X169548283Y-113709594D01*
X169543412Y-113707869D01*
X169538319Y-113706962D01*
X169538316Y-113706961D01*
X169328573Y-113669600D01*
X169328567Y-113669599D01*
X169323484Y-113668694D01*
X169249652Y-113667792D01*
X169105281Y-113666028D01*
X169105279Y-113666028D01*
X169100111Y-113665965D01*
X168879291Y-113699755D01*
X168666956Y-113769157D01*
X168468807Y-113872307D01*
X168464674Y-113875410D01*
X168464671Y-113875412D01*
X168309990Y-113991550D01*
X168290165Y-114006435D01*
X168135829Y-114167938D01*
X168132915Y-114172210D01*
X168132914Y-114172211D01*
X168122425Y-114187587D01*
X168009943Y-114352480D01*
X167915888Y-114555105D01*
X167856189Y-114770370D01*
X167832451Y-114992495D01*
X167832748Y-114997648D01*
X167832748Y-114997651D01*
X167838815Y-115102866D01*
X167845310Y-115215515D01*
X167846447Y-115220561D01*
X167846448Y-115220567D01*
X167891346Y-115419790D01*
X167886810Y-115490642D01*
X167857524Y-115536586D01*
X167736586Y-115657524D01*
X167724195Y-115668391D01*
X167700076Y-115686898D01*
X167695050Y-115693448D01*
X167695049Y-115693449D01*
X167649633Y-115752637D01*
X167628502Y-115780176D01*
X167606355Y-115809038D01*
X167603197Y-115816663D01*
X167603194Y-115816668D01*
X167597305Y-115830886D01*
X167597305Y-115830888D01*
X167547439Y-115951274D01*
X167546362Y-115959458D01*
X167546361Y-115959460D01*
X167544060Y-115976937D01*
X167532389Y-116065590D01*
X167527344Y-116103911D01*
X167528422Y-116112099D01*
X167531311Y-116134044D01*
X167532389Y-116150490D01*
X167532389Y-123677333D01*
X167531311Y-123693780D01*
X167527344Y-123723911D01*
X167532389Y-123762230D01*
X167532389Y-123762232D01*
X167547439Y-123876548D01*
X167550599Y-123884176D01*
X167550600Y-123884181D01*
X167581683Y-123959220D01*
X167581684Y-123959222D01*
X167606355Y-124018784D01*
X167640512Y-124063297D01*
X167700076Y-124140924D01*
X167706626Y-124145950D01*
X167706630Y-124145954D01*
X167724198Y-124159434D01*
X167736590Y-124170302D01*
X168635391Y-125069103D01*
X168646258Y-125081494D01*
X168664765Y-125105613D01*
X168721507Y-125149152D01*
X168786905Y-125199334D01*
X168824951Y-125215093D01*
X168929141Y-125258250D01*
X168937329Y-125259328D01*
X169043454Y-125273300D01*
X169043459Y-125273300D01*
X169081778Y-125278345D01*
X169089966Y-125277267D01*
X169111911Y-125274378D01*
X169128357Y-125273300D01*
X196320822Y-125273300D01*
X196337269Y-125274378D01*
X196367400Y-125278345D01*
X196405719Y-125273300D01*
X196405724Y-125273300D01*
X196511849Y-125259328D01*
X196520037Y-125258250D01*
X196629376Y-125212960D01*
X196662273Y-125199334D01*
X196727671Y-125149152D01*
X196784413Y-125105613D01*
X196789439Y-125099063D01*
X196789443Y-125099059D01*
X196802923Y-125081491D01*
X196813791Y-125069099D01*
X198286896Y-123595995D01*
X198349208Y-123561969D01*
X198420024Y-123567034D01*
X198476859Y-123609581D01*
X198501670Y-123676101D01*
X198501991Y-123685090D01*
X198501991Y-124387241D01*
X198501642Y-124396607D01*
X198492584Y-124518120D01*
X198491444Y-124533407D01*
X198488708Y-124551754D01*
X198468065Y-124643296D01*
X198463586Y-124663157D01*
X198458444Y-124680224D01*
X198415749Y-124792499D01*
X198408763Y-124807734D01*
X198346945Y-124921839D01*
X198338720Y-124935012D01*
X198256357Y-125050423D01*
X198247414Y-125061560D01*
X198143648Y-125176755D01*
X198134380Y-125186025D01*
X198009106Y-125298919D01*
X197999762Y-125306562D01*
X197853474Y-125414940D01*
X197844198Y-125421194D01*
X197677859Y-125522903D01*
X197668719Y-125527983D01*
X197483634Y-125621022D01*
X197474647Y-125625107D01*
X197272260Y-125707690D01*
X197263420Y-125710917D01*
X197045356Y-125781415D01*
X197036644Y-125783889D01*
X196967098Y-125800956D01*
X196804506Y-125840859D01*
X196795865Y-125842661D01*
X196630327Y-125871177D01*
X196551334Y-125884784D01*
X196542756Y-125885960D01*
X196461657Y-125894245D01*
X196287398Y-125912046D01*
X196278846Y-125912626D01*
X196003560Y-125921923D01*
X195999307Y-125921995D01*
X109020700Y-125921995D01*
X109016448Y-125921923D01*
X108741135Y-125912626D01*
X108732582Y-125912046D01*
X108623922Y-125900946D01*
X108477237Y-125885962D01*
X108468659Y-125884785D01*
X108224118Y-125842660D01*
X108215483Y-125840860D01*
X107983331Y-125783885D01*
X107974619Y-125781411D01*
X107823890Y-125732681D01*
X107756569Y-125710917D01*
X107747726Y-125707689D01*
X107545342Y-125625107D01*
X107536355Y-125621022D01*
X107351265Y-125527981D01*
X107342125Y-125522901D01*
X107175786Y-125421192D01*
X107166511Y-125414938D01*
X107020224Y-125306562D01*
X107010879Y-125298919D01*
X106885608Y-125186028D01*
X106876339Y-125176758D01*
X106772572Y-125061561D01*
X106763631Y-125050425D01*
X106731473Y-125005365D01*
X106681265Y-124935012D01*
X106673043Y-124921845D01*
X106644409Y-124868989D01*
X106631089Y-124844402D01*
X106611222Y-124807731D01*
X106604237Y-124792498D01*
X106561542Y-124680225D01*
X106556400Y-124663156D01*
X106533923Y-124563479D01*
X106531279Y-124551755D01*
X106528542Y-124533405D01*
X106528253Y-124529521D01*
X106518345Y-124396608D01*
X106517996Y-124387242D01*
X106517996Y-123423309D01*
X109268260Y-123423309D01*
X109268560Y-123426365D01*
X109268560Y-123426372D01*
X109274297Y-123484880D01*
X109282680Y-123570373D01*
X109284462Y-123576274D01*
X109284462Y-123576276D01*
X109301689Y-123633333D01*
X109339844Y-123759709D01*
X109432694Y-123934336D01*
X109495346Y-124011155D01*
X109553800Y-124082827D01*
X109553803Y-124082830D01*
X109557695Y-124087602D01*
X109562442Y-124091529D01*
X109562444Y-124091531D01*
X109705335Y-124209741D01*
X109705339Y-124209743D01*
X109710085Y-124213670D01*
X109884059Y-124307738D01*
X110072992Y-124366222D01*
X110079117Y-124366866D01*
X110079118Y-124366866D01*
X110263556Y-124386251D01*
X110263558Y-124386251D01*
X110269685Y-124386895D01*
X110356788Y-124378968D01*
X110460509Y-124369529D01*
X110460512Y-124369528D01*
X110466648Y-124368970D01*
X110472554Y-124367232D01*
X110472558Y-124367231D01*
X110601913Y-124329160D01*
X110656379Y-124313130D01*
X110661837Y-124310277D01*
X110661841Y-124310275D01*
X110752613Y-124262820D01*
X110831650Y-124221500D01*
X110985785Y-124097572D01*
X111112914Y-123946066D01*
X111115881Y-123940668D01*
X111115885Y-123940663D01*
X111205227Y-123778148D01*
X111208193Y-123772753D01*
X111210606Y-123765148D01*
X111266133Y-123590104D01*
X111266133Y-123590103D01*
X111267995Y-123584234D01*
X111285260Y-123430313D01*
X111285260Y-122773771D01*
X111284574Y-122766767D01*
X111277198Y-122691550D01*
X111270840Y-122626707D01*
X111263157Y-122601258D01*
X111229717Y-122490502D01*
X111213676Y-122437371D01*
X111120826Y-122262744D01*
X111027261Y-122148022D01*
X110999720Y-122114253D01*
X110999717Y-122114250D01*
X110995825Y-122109478D01*
X110989484Y-122104232D01*
X110848185Y-121987339D01*
X110848181Y-121987337D01*
X110843435Y-121983410D01*
X110669461Y-121889342D01*
X110480528Y-121830858D01*
X110474403Y-121830214D01*
X110474402Y-121830214D01*
X110289964Y-121810829D01*
X110289962Y-121810829D01*
X110283835Y-121810185D01*
X110201336Y-121817693D01*
X110093011Y-121827551D01*
X110093008Y-121827552D01*
X110086872Y-121828110D01*
X110080966Y-121829848D01*
X110080962Y-121829849D01*
X109975836Y-121860789D01*
X109897141Y-121883950D01*
X109891683Y-121886803D01*
X109891679Y-121886805D01*
X109849460Y-121908877D01*
X109721870Y-121975580D01*
X109567735Y-122099508D01*
X109440606Y-122251014D01*
X109437639Y-122256412D01*
X109437635Y-122256417D01*
X109387448Y-122347708D01*
X109345327Y-122424327D01*
X109343466Y-122430194D01*
X109343465Y-122430196D01*
X109290083Y-122598478D01*
X109285525Y-122612846D01*
X109268260Y-122766767D01*
X109268260Y-123423309D01*
X106517996Y-123423309D01*
X106517996Y-120997095D01*
X106792001Y-120997095D01*
X106792338Y-121003614D01*
X106802257Y-121099206D01*
X106805149Y-121112600D01*
X106856588Y-121266784D01*
X106862761Y-121279962D01*
X106948063Y-121417807D01*
X106957099Y-121429208D01*
X107071829Y-121543739D01*
X107083240Y-121552751D01*
X107221243Y-121637816D01*
X107234424Y-121643963D01*
X107388710Y-121695138D01*
X107402086Y-121698005D01*
X107496438Y-121707672D01*
X107502854Y-121708000D01*
X107727885Y-121708000D01*
X107743124Y-121703525D01*
X107744329Y-121702135D01*
X107746000Y-121694452D01*
X107746000Y-121689884D01*
X108254000Y-121689884D01*
X108258475Y-121705123D01*
X108259865Y-121706328D01*
X108267548Y-121707999D01*
X108497095Y-121707999D01*
X108503614Y-121707662D01*
X108599206Y-121697743D01*
X108612600Y-121694851D01*
X108766784Y-121643412D01*
X108779962Y-121637239D01*
X108917807Y-121551937D01*
X108929208Y-121542901D01*
X109043739Y-121428171D01*
X109052751Y-121416760D01*
X109137816Y-121278757D01*
X109143963Y-121265576D01*
X109195138Y-121111290D01*
X109198005Y-121097914D01*
X109207672Y-121003562D01*
X109208000Y-120997145D01*
X109208000Y-120872115D01*
X109203525Y-120856876D01*
X109202135Y-120855671D01*
X109194452Y-120854000D01*
X108272115Y-120854000D01*
X108256876Y-120858475D01*
X108255671Y-120859865D01*
X108254000Y-120867548D01*
X108254000Y-121689884D01*
X107746000Y-121689884D01*
X107746000Y-120872115D01*
X107741525Y-120856876D01*
X107740135Y-120855671D01*
X107732452Y-120854000D01*
X106810116Y-120854000D01*
X106794877Y-120858475D01*
X106793672Y-120859865D01*
X106792001Y-120867548D01*
X106792001Y-120997095D01*
X106517996Y-120997095D01*
X106517996Y-120446832D01*
X110139368Y-120446832D01*
X110169246Y-120644388D01*
X110171449Y-120650375D01*
X110171449Y-120650376D01*
X110203302Y-120736951D01*
X110238237Y-120831901D01*
X110343525Y-121001712D01*
X110480807Y-121146884D01*
X110644476Y-121261486D01*
X110827846Y-121340838D01*
X111023426Y-121381696D01*
X111028282Y-121381951D01*
X111028321Y-121381953D01*
X111028337Y-121381953D01*
X111029989Y-121382040D01*
X111476694Y-121382040D01*
X111513534Y-121378298D01*
X111619194Y-121367566D01*
X111619198Y-121367565D01*
X111625540Y-121366921D01*
X111731774Y-121333629D01*
X111802757Y-121332344D01*
X111863168Y-121369641D01*
X111870278Y-121378298D01*
X111908475Y-121429264D01*
X111921036Y-121441825D01*
X112023111Y-121518326D01*
X112038706Y-121526864D01*
X112159154Y-121572018D01*
X112174409Y-121575645D01*
X112225274Y-121581171D01*
X112232088Y-121581540D01*
X112258645Y-121581540D01*
X112273884Y-121577065D01*
X112275089Y-121575675D01*
X112276760Y-121567992D01*
X112276760Y-120928061D01*
X112289706Y-120872431D01*
X112289862Y-120872115D01*
X112353331Y-120743129D01*
X112389969Y-120602474D01*
X112402085Y-120555960D01*
X112402085Y-120555957D01*
X112403695Y-120549778D01*
X112414152Y-120350248D01*
X112384274Y-120152692D01*
X112315283Y-119965179D01*
X112295674Y-119933553D01*
X112276760Y-119867156D01*
X112276760Y-119233656D01*
X112272285Y-119218417D01*
X112270895Y-119217212D01*
X112263212Y-119215541D01*
X112232091Y-119215541D01*
X112225270Y-119215911D01*
X112174408Y-119221435D01*
X112159156Y-119225061D01*
X112038706Y-119270216D01*
X112023111Y-119278754D01*
X111921036Y-119355255D01*
X111908476Y-119367815D01*
X111873064Y-119415066D01*
X111816205Y-119457582D01*
X111745386Y-119462608D01*
X111734139Y-119459604D01*
X111731531Y-119458777D01*
X111725674Y-119456242D01*
X111719430Y-119454938D01*
X111719425Y-119454936D01*
X111614213Y-119432957D01*
X111530094Y-119415384D01*
X111525238Y-119415129D01*
X111525199Y-119415127D01*
X111525183Y-119415127D01*
X111523531Y-119415040D01*
X111076826Y-119415040D01*
X111063693Y-119416374D01*
X110934326Y-119429514D01*
X110934322Y-119429515D01*
X110927980Y-119430159D01*
X110821038Y-119463673D01*
X110743411Y-119488000D01*
X110743410Y-119488001D01*
X110737320Y-119489909D01*
X110562569Y-119586775D01*
X110557720Y-119590931D01*
X110433037Y-119697797D01*
X110410864Y-119716801D01*
X110406957Y-119721838D01*
X110406955Y-119721840D01*
X110292315Y-119869633D01*
X110292313Y-119869636D01*
X110288403Y-119874677D01*
X110285585Y-119880403D01*
X110285583Y-119880407D01*
X110246539Y-119959756D01*
X110200189Y-120053951D01*
X110185807Y-120109165D01*
X110161390Y-120202905D01*
X110149825Y-120247302D01*
X110149491Y-120253682D01*
X110142144Y-120393869D01*
X110139368Y-120446832D01*
X106517996Y-120446832D01*
X106517996Y-115460745D01*
X106537998Y-115392624D01*
X106591654Y-115346131D01*
X106661928Y-115336027D01*
X106726508Y-115365521D01*
X106764892Y-115425247D01*
X106769323Y-115447742D01*
X106777257Y-115524206D01*
X106780149Y-115537600D01*
X106831588Y-115691784D01*
X106837761Y-115704962D01*
X106923063Y-115842807D01*
X106932099Y-115854208D01*
X107046829Y-115968739D01*
X107058240Y-115977751D01*
X107196243Y-116062816D01*
X107209424Y-116068963D01*
X107363710Y-116120138D01*
X107377086Y-116123005D01*
X107471438Y-116132672D01*
X107477854Y-116133000D01*
X107727885Y-116133000D01*
X107743124Y-116128525D01*
X107744329Y-116127135D01*
X107746000Y-116119452D01*
X107746000Y-116114884D01*
X108254000Y-116114884D01*
X108258475Y-116130123D01*
X108259865Y-116131328D01*
X108267548Y-116132999D01*
X108522095Y-116132999D01*
X108528614Y-116132662D01*
X108624206Y-116122743D01*
X108637600Y-116119851D01*
X108791784Y-116068412D01*
X108804962Y-116062239D01*
X108942807Y-115976937D01*
X108954208Y-115967901D01*
X109068739Y-115853171D01*
X109077751Y-115841760D01*
X109162816Y-115703757D01*
X109168963Y-115690576D01*
X109220138Y-115536290D01*
X109223005Y-115522914D01*
X109232672Y-115428562D01*
X109233000Y-115422146D01*
X109233000Y-115309615D01*
X109228525Y-115294376D01*
X109227135Y-115293171D01*
X109219452Y-115291500D01*
X108272115Y-115291500D01*
X108256876Y-115295975D01*
X108255671Y-115297365D01*
X108254000Y-115305048D01*
X108254000Y-116114884D01*
X107746000Y-116114884D01*
X107746000Y-114909500D01*
X107766002Y-114841379D01*
X107819658Y-114794886D01*
X107872000Y-114783500D01*
X109214884Y-114783500D01*
X109230123Y-114779025D01*
X109231328Y-114777635D01*
X109232999Y-114769952D01*
X109232999Y-114652905D01*
X109232662Y-114646386D01*
X109222743Y-114550794D01*
X109219851Y-114537400D01*
X109168412Y-114383216D01*
X109162239Y-114370038D01*
X109076937Y-114232193D01*
X109067901Y-114220792D01*
X108953172Y-114106262D01*
X108944238Y-114099206D01*
X108903177Y-114041288D01*
X108899947Y-113970365D01*
X108935574Y-113908954D01*
X108943407Y-113902154D01*
X108949348Y-113898478D01*
X109074305Y-113773303D01*
X109081814Y-113761121D01*
X109163275Y-113628968D01*
X109163276Y-113628966D01*
X109167115Y-113622738D01*
X109196923Y-113532869D01*
X109220632Y-113461389D01*
X109220632Y-113461387D01*
X109222797Y-113454861D01*
X109233500Y-113350400D01*
X109233500Y-113005700D01*
X109253502Y-112937579D01*
X109307158Y-112891086D01*
X109359500Y-112879700D01*
X109726833Y-112879700D01*
X109794954Y-112899702D01*
X109841447Y-112953358D01*
X109851551Y-113023632D01*
X109844815Y-113049929D01*
X109827022Y-113097391D01*
X109823395Y-113112649D01*
X109817869Y-113163514D01*
X109817500Y-113170328D01*
X109817500Y-113292885D01*
X109821975Y-113308124D01*
X109823365Y-113309329D01*
X109831048Y-113311000D01*
X111216000Y-113311000D01*
X111284121Y-113331002D01*
X111330614Y-113384658D01*
X111342000Y-113437000D01*
X111342000Y-113693000D01*
X111321998Y-113761121D01*
X111268342Y-113807614D01*
X111216000Y-113819000D01*
X109835616Y-113819000D01*
X109820377Y-113823475D01*
X109819172Y-113824865D01*
X109817501Y-113832548D01*
X109817501Y-113959669D01*
X109817871Y-113966490D01*
X109823395Y-114017352D01*
X109827021Y-114032604D01*
X109872927Y-114155058D01*
X109878110Y-114225866D01*
X109872927Y-114243518D01*
X109823755Y-114374684D01*
X109817000Y-114436866D01*
X109817000Y-115233134D01*
X109823755Y-115295316D01*
X109872464Y-115425247D01*
X109872927Y-115426482D01*
X109878110Y-115497290D01*
X109872927Y-115514942D01*
X109827022Y-115637394D01*
X109823395Y-115652649D01*
X109817869Y-115703514D01*
X109817500Y-115710328D01*
X109817500Y-115832885D01*
X109821975Y-115848124D01*
X109823365Y-115849329D01*
X109831048Y-115851000D01*
X111216000Y-115851000D01*
X111284121Y-115871002D01*
X111330614Y-115924658D01*
X111342000Y-115977000D01*
X111342000Y-116233000D01*
X111321998Y-116301121D01*
X111268342Y-116347614D01*
X111216000Y-116359000D01*
X109835616Y-116359000D01*
X109820377Y-116363475D01*
X109819172Y-116364865D01*
X109817501Y-116372548D01*
X109817501Y-116499669D01*
X109817871Y-116506490D01*
X109823395Y-116557352D01*
X109827021Y-116572604D01*
X109872176Y-116693054D01*
X109880714Y-116708649D01*
X109957215Y-116810724D01*
X109969776Y-116823285D01*
X110071851Y-116899786D01*
X110087446Y-116908324D01*
X110207894Y-116953478D01*
X110223149Y-116957105D01*
X110274014Y-116962631D01*
X110280828Y-116963000D01*
X110667642Y-116963000D01*
X110735763Y-116983002D01*
X110782256Y-117036658D01*
X110792360Y-117106932D01*
X110762866Y-117171512D01*
X110756744Y-117178087D01*
X110696015Y-117238817D01*
X109956437Y-117978395D01*
X109894125Y-118012421D01*
X109867342Y-118015300D01*
X109262116Y-118015300D01*
X109193995Y-117995298D01*
X109147502Y-117941642D01*
X109145316Y-117936092D01*
X109143868Y-117933001D01*
X109141550Y-117926054D01*
X109048478Y-117775652D01*
X108923303Y-117650695D01*
X108917072Y-117646854D01*
X108778968Y-117561725D01*
X108778966Y-117561724D01*
X108772738Y-117557885D01*
X108612254Y-117504655D01*
X108611389Y-117504368D01*
X108611387Y-117504368D01*
X108604861Y-117502203D01*
X108598025Y-117501503D01*
X108598022Y-117501502D01*
X108554969Y-117497091D01*
X108500400Y-117491500D01*
X107499600Y-117491500D01*
X107496354Y-117491837D01*
X107496350Y-117491837D01*
X107400692Y-117501762D01*
X107400688Y-117501763D01*
X107393834Y-117502474D01*
X107387298Y-117504655D01*
X107387296Y-117504655D01*
X107255194Y-117548728D01*
X107226054Y-117558450D01*
X107075652Y-117651522D01*
X106950695Y-117776697D01*
X106946855Y-117782927D01*
X106946854Y-117782928D01*
X106914991Y-117834620D01*
X106857885Y-117927262D01*
X106840925Y-117978395D01*
X106809856Y-118072067D01*
X106802203Y-118095139D01*
X106791500Y-118199600D01*
X106791500Y-119000400D01*
X106791837Y-119003646D01*
X106791837Y-119003650D01*
X106793224Y-119017013D01*
X106802474Y-119106166D01*
X106804655Y-119112702D01*
X106804655Y-119112704D01*
X106830358Y-119189745D01*
X106858450Y-119273946D01*
X106951522Y-119424348D01*
X106956704Y-119429521D01*
X107038463Y-119511138D01*
X107072542Y-119573421D01*
X107067539Y-119644241D01*
X107038618Y-119689329D01*
X106956261Y-119771829D01*
X106947249Y-119783240D01*
X106862184Y-119921243D01*
X106856037Y-119934424D01*
X106804862Y-120088710D01*
X106801995Y-120102086D01*
X106792328Y-120196438D01*
X106792000Y-120202855D01*
X106792000Y-120327885D01*
X106796475Y-120343124D01*
X106797865Y-120344329D01*
X106805548Y-120346000D01*
X109189884Y-120346000D01*
X109205123Y-120341525D01*
X109206328Y-120340135D01*
X109207999Y-120332452D01*
X109207999Y-120202905D01*
X109207662Y-120196386D01*
X109197743Y-120100794D01*
X109194851Y-120087400D01*
X109143412Y-119933216D01*
X109137239Y-119920038D01*
X109051937Y-119782193D01*
X109042901Y-119770792D01*
X108961538Y-119689570D01*
X108927459Y-119627287D01*
X108932462Y-119556467D01*
X108961383Y-119511380D01*
X109044130Y-119428488D01*
X109044134Y-119428483D01*
X109049305Y-119423303D01*
X109053576Y-119416374D01*
X109138275Y-119278968D01*
X109138276Y-119278966D01*
X109142115Y-119272738D01*
X109144419Y-119265791D01*
X109147513Y-119259156D01*
X109150075Y-119260351D01*
X109183136Y-119212653D01*
X109248707Y-119185432D01*
X109262274Y-119184700D01*
X110115144Y-119184700D01*
X110131591Y-119185778D01*
X110161722Y-119189745D01*
X110200041Y-119184700D01*
X110200046Y-119184700D01*
X110306171Y-119170728D01*
X110314359Y-119169650D01*
X110414935Y-119127990D01*
X110456595Y-119110734D01*
X110501108Y-119076577D01*
X110578735Y-119017013D01*
X110583761Y-119010463D01*
X110583765Y-119010459D01*
X110597245Y-118992891D01*
X110608113Y-118980499D01*
X112459118Y-117129495D01*
X112471510Y-117118627D01*
X112489074Y-117105150D01*
X112495624Y-117100124D01*
X112522813Y-117064691D01*
X112589345Y-116977984D01*
X112619321Y-116905615D01*
X112648261Y-116835748D01*
X112663311Y-116721432D01*
X112663311Y-116721430D01*
X112668356Y-116683111D01*
X112664389Y-116652978D01*
X112663311Y-116636532D01*
X112663311Y-116535000D01*
X112683313Y-116466879D01*
X112736969Y-116420386D01*
X112789311Y-116409000D01*
X113527885Y-116409000D01*
X113543124Y-116404525D01*
X113544329Y-116403135D01*
X113546000Y-116395452D01*
X113546000Y-114072000D01*
X113566002Y-114003879D01*
X113619658Y-113957386D01*
X113672000Y-113946000D01*
X113928000Y-113946000D01*
X113996121Y-113966002D01*
X114042614Y-114019658D01*
X114054000Y-114072000D01*
X114054000Y-116390884D01*
X114058475Y-116406123D01*
X114059865Y-116407328D01*
X114067548Y-116408999D01*
X115076921Y-116408999D01*
X115145042Y-116429001D01*
X115191535Y-116482657D01*
X115201639Y-116552931D01*
X115172145Y-116617511D01*
X115166016Y-116624094D01*
X114696257Y-117093853D01*
X114683866Y-117104720D01*
X114659747Y-117123227D01*
X114654721Y-117129777D01*
X114605562Y-117193843D01*
X114605561Y-117193845D01*
X114566026Y-117245367D01*
X114554640Y-117272856D01*
X114507110Y-117387603D01*
X114506032Y-117395791D01*
X114493432Y-117491499D01*
X114493388Y-117491837D01*
X114487015Y-117540240D01*
X114488093Y-117548428D01*
X114490982Y-117570373D01*
X114492060Y-117586819D01*
X114492060Y-119089040D01*
X114472058Y-119157161D01*
X114418402Y-119203654D01*
X114366060Y-119215040D01*
X114178626Y-119215040D01*
X114175229Y-119215409D01*
X114132829Y-119220015D01*
X114116444Y-119221795D01*
X114116180Y-119219366D01*
X114087340Y-119219366D01*
X114087076Y-119221795D01*
X114028291Y-119215409D01*
X114024894Y-119215040D01*
X113528626Y-119215040D01*
X113525229Y-119215409D01*
X113482829Y-119220015D01*
X113466444Y-119221795D01*
X113466212Y-119219656D01*
X113437248Y-119219706D01*
X113436967Y-119222288D01*
X113378246Y-119215909D01*
X113371432Y-119215540D01*
X113344875Y-119215540D01*
X113329636Y-119220015D01*
X113328431Y-119221405D01*
X113324706Y-119238531D01*
X113290682Y-119300843D01*
X113277150Y-119312575D01*
X113213499Y-119360279D01*
X113172439Y-119415066D01*
X113153586Y-119440221D01*
X113096727Y-119482736D01*
X113025909Y-119487762D01*
X112963615Y-119453702D01*
X112929625Y-119391371D01*
X112926760Y-119364656D01*
X112926760Y-119233656D01*
X112922285Y-119218417D01*
X112920895Y-119217212D01*
X112913212Y-119215541D01*
X112882091Y-119215541D01*
X112875270Y-119215911D01*
X112816553Y-119222288D01*
X112816293Y-119219893D01*
X112787227Y-119219891D01*
X112786967Y-119222288D01*
X112728246Y-119215909D01*
X112721432Y-119215540D01*
X112694875Y-119215540D01*
X112679636Y-119220015D01*
X112678431Y-119221405D01*
X112676760Y-119229088D01*
X112676760Y-120180425D01*
X112681235Y-120195664D01*
X112682625Y-120196869D01*
X112690308Y-120198540D01*
X112926760Y-120198540D01*
X112926760Y-120199092D01*
X112977760Y-120199093D01*
X113037485Y-120237478D01*
X113066978Y-120302059D01*
X113068260Y-120319989D01*
X113068260Y-120475912D01*
X113048258Y-120544033D01*
X112994602Y-120590526D01*
X112924328Y-120600630D01*
X112915475Y-120599032D01*
X112913213Y-120598540D01*
X112694875Y-120598540D01*
X112679636Y-120603015D01*
X112678431Y-120604405D01*
X112676760Y-120612088D01*
X112676760Y-121563424D01*
X112681235Y-121578663D01*
X112682625Y-121579868D01*
X112690308Y-121581539D01*
X112721429Y-121581539D01*
X112728250Y-121581169D01*
X112786967Y-121574792D01*
X112787227Y-121577187D01*
X112816293Y-121577189D01*
X112816553Y-121574792D01*
X112875274Y-121581171D01*
X112882088Y-121581540D01*
X112908645Y-121581540D01*
X112923884Y-121577065D01*
X112925089Y-121575675D01*
X112926760Y-121567992D01*
X112926760Y-121432424D01*
X112946762Y-121364303D01*
X113000418Y-121317810D01*
X113070692Y-121307706D01*
X113135272Y-121337200D01*
X113153585Y-121356857D01*
X113213499Y-121436801D01*
X113220679Y-121442182D01*
X113277520Y-121484782D01*
X113320035Y-121541641D01*
X113322851Y-121550110D01*
X113331235Y-121578663D01*
X113332625Y-121579868D01*
X113340308Y-121581539D01*
X113371429Y-121581539D01*
X113378250Y-121581169D01*
X113436967Y-121574792D01*
X113437265Y-121577538D01*
X113466206Y-121577480D01*
X113466444Y-121575285D01*
X113520627Y-121581171D01*
X113528626Y-121582040D01*
X114024894Y-121582040D01*
X114032894Y-121581171D01*
X114087076Y-121575285D01*
X114087340Y-121577714D01*
X114116180Y-121577714D01*
X114116444Y-121575285D01*
X114170627Y-121581171D01*
X114178626Y-121582040D01*
X114366060Y-121582040D01*
X114434181Y-121602042D01*
X114480674Y-121655698D01*
X114492060Y-121708040D01*
X114492060Y-122156679D01*
X114490982Y-122173126D01*
X114487015Y-122203257D01*
X114488093Y-122211445D01*
X114492060Y-122241576D01*
X114492060Y-122241578D01*
X114498592Y-122291190D01*
X114507110Y-122355894D01*
X114510271Y-122363525D01*
X114521462Y-122390543D01*
X114521463Y-122390544D01*
X114566026Y-122498130D01*
X114568514Y-122501372D01*
X114571054Y-122504682D01*
X114643026Y-122598478D01*
X114659747Y-122620270D01*
X114666293Y-122625293D01*
X114666296Y-122625296D01*
X114683869Y-122638780D01*
X114696261Y-122649648D01*
X116528776Y-124482163D01*
X116539643Y-124494554D01*
X116558150Y-124518673D01*
X116564700Y-124523699D01*
X116577349Y-124533405D01*
X116616543Y-124563479D01*
X116680290Y-124612394D01*
X116687921Y-124615555D01*
X116687925Y-124615557D01*
X116697587Y-124619559D01*
X116814893Y-124668149D01*
X116814898Y-124668150D01*
X116822526Y-124671310D01*
X116830714Y-124672388D01*
X116936839Y-124686360D01*
X116936844Y-124686360D01*
X116975163Y-124691405D01*
X116983351Y-124690327D01*
X117005296Y-124687438D01*
X117021742Y-124686360D01*
X119601097Y-124686360D01*
X119667213Y-124705100D01*
X119720090Y-124737694D01*
X119727262Y-124742115D01*
X119807005Y-124768564D01*
X119888611Y-124795632D01*
X119888613Y-124795632D01*
X119895139Y-124797797D01*
X119901975Y-124798497D01*
X119901978Y-124798498D01*
X119945031Y-124802909D01*
X119999600Y-124808500D01*
X121000400Y-124808500D01*
X121003646Y-124808163D01*
X121003650Y-124808163D01*
X121099308Y-124798238D01*
X121099312Y-124798237D01*
X121106166Y-124797526D01*
X121112702Y-124795345D01*
X121112704Y-124795345D01*
X121244806Y-124751272D01*
X121273946Y-124741550D01*
X121424348Y-124648478D01*
X121549305Y-124523303D01*
X121556197Y-124512123D01*
X121642115Y-124372738D01*
X121644115Y-124373971D01*
X121683576Y-124329160D01*
X121750846Y-124309700D01*
X123149175Y-124309700D01*
X123217296Y-124329702D01*
X123256868Y-124374925D01*
X123258450Y-124373946D01*
X123351522Y-124524348D01*
X123476697Y-124649305D01*
X123482927Y-124653145D01*
X123482928Y-124653146D01*
X123620090Y-124737694D01*
X123627262Y-124742115D01*
X123707005Y-124768564D01*
X123788611Y-124795632D01*
X123788613Y-124795632D01*
X123795139Y-124797797D01*
X123801975Y-124798497D01*
X123801978Y-124798498D01*
X123845031Y-124802909D01*
X123899600Y-124808500D01*
X124900400Y-124808500D01*
X124903646Y-124808163D01*
X124903650Y-124808163D01*
X124999308Y-124798238D01*
X124999312Y-124798237D01*
X125006166Y-124797526D01*
X125012702Y-124795345D01*
X125012704Y-124795345D01*
X125144806Y-124751272D01*
X125173946Y-124741550D01*
X125324348Y-124648478D01*
X125449305Y-124523303D01*
X125453146Y-124517072D01*
X125538275Y-124378968D01*
X125538276Y-124378966D01*
X125542115Y-124372738D01*
X125592278Y-124221500D01*
X125595632Y-124211389D01*
X125595632Y-124211387D01*
X125597797Y-124204861D01*
X125608500Y-124100400D01*
X125608500Y-123349600D01*
X125597526Y-123243834D01*
X125541550Y-123076054D01*
X125448478Y-122925652D01*
X125323303Y-122800695D01*
X125319084Y-122798094D01*
X125278583Y-122740970D01*
X125275351Y-122670047D01*
X125310976Y-122608635D01*
X125318530Y-122602078D01*
X125324348Y-122598478D01*
X125449305Y-122473303D01*
X125475877Y-122430196D01*
X125538275Y-122328968D01*
X125538276Y-122328966D01*
X125542115Y-122322738D01*
X125597797Y-122154861D01*
X125608500Y-122050400D01*
X125608500Y-121299600D01*
X125608163Y-121296350D01*
X125598238Y-121200692D01*
X125598237Y-121200688D01*
X125597526Y-121193834D01*
X125573452Y-121121674D01*
X125543868Y-121033002D01*
X125541550Y-121026054D01*
X125448478Y-120875652D01*
X125323303Y-120750695D01*
X125301006Y-120736951D01*
X125178968Y-120661725D01*
X125178966Y-120661724D01*
X125172738Y-120657885D01*
X125071033Y-120624151D01*
X125012673Y-120583720D01*
X124985436Y-120518156D01*
X124984700Y-120504558D01*
X124984700Y-112205895D01*
X172085601Y-112205895D01*
X172085938Y-112212414D01*
X172095857Y-112308006D01*
X172098749Y-112321400D01*
X172150188Y-112475584D01*
X172156361Y-112488762D01*
X172241663Y-112626607D01*
X172250699Y-112638008D01*
X172365429Y-112752539D01*
X172376840Y-112761551D01*
X172514843Y-112846616D01*
X172528024Y-112852763D01*
X172682310Y-112903938D01*
X172695686Y-112906805D01*
X172790038Y-112916472D01*
X172796454Y-112916800D01*
X172908985Y-112916800D01*
X172924224Y-112912325D01*
X172925429Y-112910935D01*
X172927100Y-112903252D01*
X172927100Y-111955915D01*
X172922625Y-111940676D01*
X172921235Y-111939471D01*
X172913552Y-111937800D01*
X172103716Y-111937800D01*
X172088477Y-111942275D01*
X172087272Y-111943665D01*
X172085601Y-111951348D01*
X172085601Y-112205895D01*
X124984700Y-112205895D01*
X124984700Y-112146578D01*
X124985778Y-112130131D01*
X124988667Y-112108188D01*
X124989745Y-112100000D01*
X124984275Y-112058450D01*
X124969650Y-111947363D01*
X124910734Y-111805128D01*
X124910734Y-111805127D01*
X124840542Y-111713651D01*
X124817013Y-111682987D01*
X124792893Y-111664479D01*
X124780503Y-111653612D01*
X124538576Y-111411685D01*
X172085600Y-111411685D01*
X172090075Y-111426924D01*
X172091465Y-111428129D01*
X172099148Y-111429800D01*
X172908985Y-111429800D01*
X172924224Y-111425325D01*
X172925429Y-111423935D01*
X172927100Y-111416252D01*
X172927100Y-110468916D01*
X172922625Y-110453677D01*
X172921235Y-110452472D01*
X172913552Y-110450801D01*
X172796505Y-110450801D01*
X172789986Y-110451138D01*
X172694394Y-110461057D01*
X172681000Y-110463949D01*
X172526816Y-110515388D01*
X172513638Y-110521561D01*
X172375793Y-110606863D01*
X172364392Y-110615899D01*
X172249861Y-110730629D01*
X172240849Y-110742040D01*
X172155784Y-110880043D01*
X172149637Y-110893224D01*
X172098462Y-111047510D01*
X172095595Y-111060886D01*
X172085928Y-111155238D01*
X172085600Y-111161655D01*
X172085600Y-111411685D01*
X124538576Y-111411685D01*
X123503533Y-110376642D01*
X122145405Y-109018515D01*
X122111379Y-108956203D01*
X122108500Y-108929420D01*
X122108500Y-108199600D01*
X122108163Y-108196350D01*
X122102555Y-108142295D01*
X172110601Y-108142295D01*
X172110938Y-108148814D01*
X172120857Y-108244406D01*
X172123749Y-108257800D01*
X172175188Y-108411984D01*
X172181361Y-108425162D01*
X172266663Y-108563007D01*
X172275699Y-108574408D01*
X172390429Y-108688939D01*
X172401840Y-108697951D01*
X172539843Y-108783016D01*
X172553024Y-108789163D01*
X172707310Y-108840338D01*
X172720686Y-108843205D01*
X172815038Y-108852872D01*
X172821454Y-108853200D01*
X172946485Y-108853200D01*
X172961724Y-108848725D01*
X172962929Y-108847335D01*
X172964600Y-108839652D01*
X172964600Y-107917315D01*
X172960125Y-107902076D01*
X172958735Y-107900871D01*
X172951052Y-107899200D01*
X172128716Y-107899200D01*
X172113477Y-107903675D01*
X172112272Y-107905065D01*
X172110601Y-107912748D01*
X172110601Y-108142295D01*
X122102555Y-108142295D01*
X122098238Y-108100692D01*
X122098237Y-108100688D01*
X122097526Y-108093834D01*
X122087391Y-108063454D01*
X122043868Y-107933002D01*
X122041550Y-107926054D01*
X122013580Y-107880856D01*
X121994744Y-107812406D01*
X122015905Y-107744636D01*
X122031631Y-107725460D01*
X122384006Y-107373085D01*
X172110600Y-107373085D01*
X172115075Y-107388324D01*
X172116465Y-107389529D01*
X172124148Y-107391200D01*
X172946485Y-107391200D01*
X172961724Y-107386725D01*
X172962929Y-107385335D01*
X172964600Y-107377652D01*
X172964600Y-106455316D01*
X172960125Y-106440077D01*
X172958735Y-106438872D01*
X172951052Y-106437201D01*
X172821505Y-106437201D01*
X172814986Y-106437538D01*
X172719394Y-106447457D01*
X172706000Y-106450349D01*
X172551816Y-106501788D01*
X172538638Y-106507961D01*
X172400793Y-106593263D01*
X172389392Y-106602299D01*
X172274861Y-106717029D01*
X172265849Y-106728440D01*
X172180784Y-106866443D01*
X172174637Y-106879624D01*
X172123462Y-107033910D01*
X172120595Y-107047286D01*
X172110928Y-107141638D01*
X172110600Y-107148055D01*
X172110600Y-107373085D01*
X122384006Y-107373085D01*
X123930877Y-105826214D01*
X123993189Y-105792188D01*
X124064004Y-105797253D01*
X124120840Y-105839800D01*
X124139530Y-105875537D01*
X124151418Y-105911273D01*
X124155065Y-105917295D01*
X124155066Y-105917297D01*
X124167179Y-105937297D01*
X124245380Y-106066424D01*
X124250269Y-106071487D01*
X124250270Y-106071488D01*
X124264694Y-106086424D01*
X124371382Y-106196902D01*
X124523159Y-106296222D01*
X124529763Y-106298678D01*
X124529765Y-106298679D01*
X124686558Y-106356990D01*
X124686560Y-106356990D01*
X124693168Y-106359448D01*
X124776995Y-106370633D01*
X124865980Y-106382507D01*
X124865984Y-106382507D01*
X124872961Y-106383438D01*
X124879972Y-106382800D01*
X124879976Y-106382800D01*
X125022459Y-106369832D01*
X125053600Y-106366998D01*
X125060302Y-106364820D01*
X125060304Y-106364820D01*
X125219409Y-106313124D01*
X125219412Y-106313123D01*
X125226108Y-106310947D01*
X125365739Y-106227710D01*
X125375860Y-106221677D01*
X125375862Y-106221676D01*
X125381912Y-106218069D01*
X125513266Y-106092982D01*
X125613643Y-105941902D01*
X125678055Y-105772338D01*
X125703299Y-105592717D01*
X125703452Y-105581738D01*
X125703561Y-105573962D01*
X125703561Y-105573957D01*
X125703616Y-105570000D01*
X125683397Y-105389745D01*
X125647990Y-105288069D01*
X125626064Y-105225106D01*
X125626062Y-105225103D01*
X125623745Y-105218448D01*
X125620009Y-105212469D01*
X125593846Y-105170599D01*
X125574700Y-105103830D01*
X125574700Y-100716578D01*
X125575778Y-100700131D01*
X125578667Y-100678188D01*
X125579745Y-100670000D01*
X125574700Y-100631679D01*
X125559650Y-100517363D01*
X125517712Y-100416117D01*
X125500734Y-100375127D01*
X125430542Y-100283651D01*
X125407013Y-100252987D01*
X125382893Y-100234479D01*
X125370503Y-100223612D01*
X123937195Y-98790304D01*
X122491605Y-97344715D01*
X122457579Y-97282403D01*
X122454700Y-97255620D01*
X122454700Y-82945100D01*
X122474702Y-82876979D01*
X122491605Y-82856005D01*
X127602885Y-77744725D01*
X127665197Y-77710699D01*
X127691980Y-77707820D01*
X152340302Y-77707820D01*
X152356749Y-77708898D01*
X152386880Y-77712865D01*
X152425199Y-77707820D01*
X152425204Y-77707820D01*
X152531329Y-77693848D01*
X152539517Y-77692770D01*
X152647936Y-77647861D01*
X152681753Y-77633854D01*
X152726266Y-77599697D01*
X152803893Y-77540133D01*
X152822400Y-77516014D01*
X152833268Y-77503622D01*
X153127244Y-77209647D01*
X153189556Y-77175622D01*
X153253703Y-77178411D01*
X153452125Y-77240023D01*
X153452127Y-77240024D01*
X153457227Y-77241607D01*
X153462516Y-77242308D01*
X153680489Y-77271198D01*
X153680494Y-77271198D01*
X153685774Y-77271898D01*
X153691103Y-77271698D01*
X153691105Y-77271698D01*
X153800966Y-77267574D01*
X153916158Y-77263249D01*
X154141791Y-77215907D01*
X154146750Y-77213949D01*
X154146752Y-77213948D01*
X154351256Y-77133185D01*
X154351258Y-77133184D01*
X154356221Y-77131224D01*
X154367449Y-77124411D01*
X154548757Y-77014390D01*
X154548756Y-77014390D01*
X154553317Y-77011623D01*
X154588548Y-76981051D01*
X154723412Y-76864023D01*
X154723414Y-76864021D01*
X154727445Y-76860523D01*
X154762290Y-76818027D01*
X154870240Y-76686373D01*
X154870244Y-76686367D01*
X154873624Y-76682245D01*
X154892484Y-76649114D01*
X154985032Y-76486529D01*
X154987675Y-76481886D01*
X155066337Y-76265175D01*
X155067287Y-76259923D01*
X155106623Y-76042392D01*
X155106624Y-76042385D01*
X155107361Y-76038308D01*
X155108500Y-76014156D01*
X155108500Y-75552110D01*
X155093920Y-75380280D01*
X155092582Y-75375125D01*
X155092581Y-75375119D01*
X155037343Y-75162297D01*
X155037342Y-75162293D01*
X155036001Y-75157128D01*
X155011370Y-75102448D01*
X155001629Y-75032126D01*
X155031454Y-74967698D01*
X155091377Y-74929623D01*
X155126252Y-74924700D01*
X157658120Y-74924700D01*
X157726241Y-74944702D01*
G37*
G04 #@! TD.AperFunction*
G04 #@! TA.AperFunction,Conductor*
G36*
X185337945Y-99786261D02*
G01*
X185349617Y-99799730D01*
X185385539Y-99847661D01*
X185502095Y-99935015D01*
X185638484Y-99986145D01*
X185694360Y-99992215D01*
X185695852Y-99992377D01*
X185700666Y-99992900D01*
X186796934Y-99992900D01*
X186800330Y-99992531D01*
X186803175Y-99992377D01*
X186872278Y-100008666D01*
X186921604Y-100059729D01*
X186935989Y-100118193D01*
X186935989Y-101459711D01*
X186934911Y-101476158D01*
X186930944Y-101506289D01*
X186935989Y-101544608D01*
X186935989Y-101544610D01*
X186951039Y-101658926D01*
X186954198Y-101666553D01*
X186954199Y-101666556D01*
X186958516Y-101676978D01*
X186984490Y-101739684D01*
X187009955Y-101801162D01*
X187044112Y-101845675D01*
X187103676Y-101923302D01*
X187110226Y-101928328D01*
X187110230Y-101928332D01*
X187127798Y-101941812D01*
X187140190Y-101952680D01*
X193053395Y-107865886D01*
X193087421Y-107928198D01*
X193090300Y-107954981D01*
X193090300Y-108632534D01*
X193097055Y-108694716D01*
X193148185Y-108831105D01*
X193235539Y-108947661D01*
X193283460Y-108983576D01*
X193325973Y-109040433D01*
X193330999Y-109111251D01*
X193296939Y-109173545D01*
X193283470Y-109185217D01*
X193235539Y-109221139D01*
X193148185Y-109337695D01*
X193097055Y-109474084D01*
X193090300Y-109536266D01*
X193090300Y-110632534D01*
X193097055Y-110694716D01*
X193148185Y-110831105D01*
X193235539Y-110947661D01*
X193283460Y-110983576D01*
X193325973Y-111040433D01*
X193330999Y-111111251D01*
X193296939Y-111173545D01*
X193283470Y-111185217D01*
X193235539Y-111221139D01*
X193148185Y-111337695D01*
X193097055Y-111474084D01*
X193090300Y-111536266D01*
X193090300Y-112632534D01*
X193097055Y-112694716D01*
X193148185Y-112831105D01*
X193235539Y-112947661D01*
X193283460Y-112983576D01*
X193325973Y-113040433D01*
X193330999Y-113111251D01*
X193296939Y-113173545D01*
X193283470Y-113185217D01*
X193235539Y-113221139D01*
X193148185Y-113337695D01*
X193097055Y-113474084D01*
X193090300Y-113536266D01*
X193090300Y-114632534D01*
X193097055Y-114694716D01*
X193148185Y-114831105D01*
X193235539Y-114947661D01*
X193352095Y-115035015D01*
X193488484Y-115086145D01*
X193550666Y-115092900D01*
X195728220Y-115092900D01*
X195796341Y-115112902D01*
X195817315Y-115129805D01*
X196378395Y-115690885D01*
X196412421Y-115753197D01*
X196415300Y-115779980D01*
X196415300Y-122705620D01*
X196395298Y-122773741D01*
X196378395Y-122794715D01*
X195799026Y-123374084D01*
X195736714Y-123408110D01*
X195709931Y-123410989D01*
X173379470Y-123410989D01*
X173311349Y-123390987D01*
X173290375Y-123374084D01*
X171914263Y-121997972D01*
X170530337Y-120614047D01*
X170496311Y-120551735D01*
X170498873Y-120488324D01*
X170526067Y-120398815D01*
X170527570Y-120393869D01*
X170556729Y-120172390D01*
X170558356Y-120105800D01*
X170540052Y-119883161D01*
X170485631Y-119666502D01*
X170396554Y-119461640D01*
X170330981Y-119360279D01*
X170278022Y-119278417D01*
X170278020Y-119278414D01*
X170275214Y-119274077D01*
X170124870Y-119108851D01*
X170120819Y-119105652D01*
X170120815Y-119105648D01*
X169953614Y-118973600D01*
X169953610Y-118973598D01*
X169949559Y-118970398D01*
X169907769Y-118947329D01*
X169857798Y-118896897D01*
X169843026Y-118827454D01*
X169868142Y-118761048D01*
X169895494Y-118734441D01*
X170070528Y-118609592D01*
X170078400Y-118602939D01*
X170229252Y-118452612D01*
X170235930Y-118444765D01*
X170360203Y-118271820D01*
X170365513Y-118262983D01*
X170459870Y-118072067D01*
X170463669Y-118062472D01*
X170525577Y-117858710D01*
X170527755Y-117848637D01*
X170529186Y-117837762D01*
X170526975Y-117823578D01*
X170513817Y-117819800D01*
X169067200Y-117819800D01*
X168999079Y-117799798D01*
X168952586Y-117746142D01*
X168941200Y-117693800D01*
X168941200Y-117437800D01*
X168961202Y-117369679D01*
X169014858Y-117323186D01*
X169067200Y-117311800D01*
X170513544Y-117311800D01*
X170527075Y-117307827D01*
X170528380Y-117298747D01*
X170486414Y-117131675D01*
X170483094Y-117121924D01*
X170398172Y-116926614D01*
X170393305Y-116917539D01*
X170277626Y-116738726D01*
X170271336Y-116730557D01*
X170128006Y-116573040D01*
X170120473Y-116566015D01*
X169953339Y-116434022D01*
X169944756Y-116428320D01*
X169907802Y-116407920D01*
X169857831Y-116357487D01*
X169843059Y-116288045D01*
X169868175Y-116221639D01*
X169895527Y-116195032D01*
X169957973Y-116150490D01*
X170075060Y-116066973D01*
X170101857Y-116040270D01*
X170229635Y-115912937D01*
X170233296Y-115909289D01*
X170272876Y-115854208D01*
X170360635Y-115732077D01*
X170363653Y-115727877D01*
X170386983Y-115680672D01*
X170435097Y-115628466D01*
X170499940Y-115610500D01*
X171965500Y-115610500D01*
X172033621Y-115630502D01*
X172080114Y-115684158D01*
X172091500Y-115736500D01*
X172091500Y-116100400D01*
X172091837Y-116103646D01*
X172091837Y-116103650D01*
X172101578Y-116197526D01*
X172102474Y-116206166D01*
X172104655Y-116212702D01*
X172104655Y-116212704D01*
X172141083Y-116321890D01*
X172158450Y-116373946D01*
X172251522Y-116524348D01*
X172376697Y-116649305D01*
X172382927Y-116653145D01*
X172382928Y-116653146D01*
X172520090Y-116737694D01*
X172527262Y-116742115D01*
X172607005Y-116768564D01*
X172688611Y-116795632D01*
X172688613Y-116795632D01*
X172695139Y-116797797D01*
X172701975Y-116798497D01*
X172701978Y-116798498D01*
X172745031Y-116802909D01*
X172799600Y-116808500D01*
X173600400Y-116808500D01*
X173603646Y-116808163D01*
X173603650Y-116808163D01*
X173699308Y-116798238D01*
X173699312Y-116798237D01*
X173706166Y-116797526D01*
X173712702Y-116795345D01*
X173712704Y-116795345D01*
X173844806Y-116751272D01*
X173873946Y-116741550D01*
X174024348Y-116648478D01*
X174110784Y-116561891D01*
X174173066Y-116527812D01*
X174243886Y-116532815D01*
X174288975Y-116561736D01*
X174351442Y-116624094D01*
X174376697Y-116649305D01*
X174382927Y-116653145D01*
X174382928Y-116653146D01*
X174520090Y-116737694D01*
X174527262Y-116742115D01*
X174607005Y-116768564D01*
X174688611Y-116795632D01*
X174688613Y-116795632D01*
X174695139Y-116797797D01*
X174701975Y-116798497D01*
X174701978Y-116798498D01*
X174745031Y-116802909D01*
X174799600Y-116808500D01*
X175600400Y-116808500D01*
X175603646Y-116808163D01*
X175603650Y-116808163D01*
X175699308Y-116798238D01*
X175699312Y-116798237D01*
X175706166Y-116797526D01*
X175712702Y-116795345D01*
X175712704Y-116795345D01*
X175844806Y-116751272D01*
X175873946Y-116741550D01*
X176024348Y-116648478D01*
X176149305Y-116523303D01*
X176153146Y-116517072D01*
X176238275Y-116378968D01*
X176238276Y-116378966D01*
X176242115Y-116372738D01*
X176292232Y-116221639D01*
X176295632Y-116211389D01*
X176295632Y-116211387D01*
X176297797Y-116204861D01*
X176308500Y-116100400D01*
X176308500Y-115099600D01*
X176307767Y-115092531D01*
X176298238Y-115000692D01*
X176298237Y-115000688D01*
X176297526Y-114993834D01*
X176293772Y-114982580D01*
X176243868Y-114833002D01*
X176241550Y-114826054D01*
X176148478Y-114675652D01*
X176023303Y-114550695D01*
X175932721Y-114494859D01*
X175878968Y-114461725D01*
X175878966Y-114461724D01*
X175872738Y-114457885D01*
X175865791Y-114455581D01*
X175859156Y-114452487D01*
X175860351Y-114449925D01*
X175812653Y-114416864D01*
X175785432Y-114351293D01*
X175784700Y-114337726D01*
X175784700Y-112985462D01*
X175804702Y-112917341D01*
X175858358Y-112870848D01*
X175870823Y-112865939D01*
X175910593Y-112852670D01*
X175910595Y-112852669D01*
X175917546Y-112850350D01*
X176067948Y-112757278D01*
X176192905Y-112632103D01*
X176196746Y-112625872D01*
X176281875Y-112487768D01*
X176281876Y-112487766D01*
X176285715Y-112481538D01*
X176341397Y-112313661D01*
X176352100Y-112209200D01*
X176352100Y-111158400D01*
X176347359Y-111112704D01*
X176341838Y-111059492D01*
X176341837Y-111059488D01*
X176341126Y-111052634D01*
X176337056Y-111040433D01*
X176287468Y-110891802D01*
X176285150Y-110884854D01*
X176192078Y-110734452D01*
X176066903Y-110609495D01*
X176060672Y-110605654D01*
X175922568Y-110520525D01*
X175922566Y-110520524D01*
X175916338Y-110516685D01*
X175836595Y-110490236D01*
X175754989Y-110463168D01*
X175754987Y-110463168D01*
X175748461Y-110461003D01*
X175741625Y-110460303D01*
X175741622Y-110460302D01*
X175698569Y-110455891D01*
X175644000Y-110450300D01*
X175101180Y-110450300D01*
X175033059Y-110430298D01*
X174986566Y-110376642D01*
X174975180Y-110324300D01*
X174975180Y-108979700D01*
X174995182Y-108911579D01*
X175048838Y-108865086D01*
X175101180Y-108853700D01*
X175619000Y-108853700D01*
X175622246Y-108853363D01*
X175622250Y-108853363D01*
X175717908Y-108843438D01*
X175717912Y-108843437D01*
X175724766Y-108842726D01*
X175731302Y-108840545D01*
X175731304Y-108840545D01*
X175885598Y-108789068D01*
X175892546Y-108786750D01*
X176042948Y-108693678D01*
X176043323Y-108694284D01*
X176104012Y-108669717D01*
X176116470Y-108669100D01*
X177800124Y-108669100D01*
X177868245Y-108689102D01*
X177914738Y-108742758D01*
X177918106Y-108750870D01*
X177923779Y-108766002D01*
X177948185Y-108831105D01*
X178035539Y-108947661D01*
X178083460Y-108983576D01*
X178125973Y-109040433D01*
X178130999Y-109111251D01*
X178096939Y-109173545D01*
X178083470Y-109185217D01*
X178035539Y-109221139D01*
X177948185Y-109337695D01*
X177897055Y-109474084D01*
X177890300Y-109536266D01*
X177890300Y-110632534D01*
X177897055Y-110694716D01*
X177948185Y-110831105D01*
X178035539Y-110947661D01*
X178083460Y-110983576D01*
X178125973Y-111040433D01*
X178130999Y-111111251D01*
X178096939Y-111173545D01*
X178083470Y-111185217D01*
X178035539Y-111221139D01*
X177948185Y-111337695D01*
X177897055Y-111474084D01*
X177890300Y-111536266D01*
X177890300Y-112632534D01*
X177897055Y-112694716D01*
X177948185Y-112831105D01*
X178035539Y-112947661D01*
X178083460Y-112983576D01*
X178125973Y-113040433D01*
X178130999Y-113111251D01*
X178096939Y-113173545D01*
X178083470Y-113185217D01*
X178035539Y-113221139D01*
X177948185Y-113337695D01*
X177897055Y-113474084D01*
X177890300Y-113536266D01*
X177890300Y-114632534D01*
X177897055Y-114694716D01*
X177948185Y-114831105D01*
X178035539Y-114947661D01*
X178152095Y-115035015D01*
X178288484Y-115086145D01*
X178350666Y-115092900D01*
X180946934Y-115092900D01*
X181009116Y-115086145D01*
X181145505Y-115035015D01*
X181262061Y-114947661D01*
X181349415Y-114831105D01*
X181400545Y-114694716D01*
X181407300Y-114632534D01*
X181407300Y-114632213D01*
X181430759Y-114565834D01*
X181456215Y-114539624D01*
X181499460Y-114506441D01*
X181506013Y-114501413D01*
X181511039Y-114494863D01*
X181511043Y-114494859D01*
X181524523Y-114477291D01*
X181535391Y-114464899D01*
X181812703Y-114187587D01*
X181825095Y-114176719D01*
X181842663Y-114163239D01*
X181849213Y-114158213D01*
X181925763Y-114058450D01*
X181942934Y-114036073D01*
X181973146Y-113963134D01*
X182001850Y-113893837D01*
X182004685Y-113872307D01*
X182016900Y-113779521D01*
X182016900Y-113779519D01*
X182020867Y-113749388D01*
X182021945Y-113741200D01*
X182017978Y-113711067D01*
X182016900Y-113694621D01*
X182016900Y-106528456D01*
X182036902Y-106460335D01*
X182090558Y-106413842D01*
X182160832Y-106403738D01*
X182173383Y-106406199D01*
X182176566Y-106406993D01*
X182183168Y-106409448D01*
X182190147Y-106410379D01*
X182190150Y-106410380D01*
X182355980Y-106432507D01*
X182355984Y-106432507D01*
X182362961Y-106433438D01*
X182369972Y-106432800D01*
X182369976Y-106432800D01*
X182512459Y-106419832D01*
X182543600Y-106416998D01*
X182550302Y-106414820D01*
X182550304Y-106414820D01*
X182709409Y-106363124D01*
X182709412Y-106363123D01*
X182716108Y-106360947D01*
X182813457Y-106302915D01*
X182865860Y-106271677D01*
X182865862Y-106271676D01*
X182871912Y-106268069D01*
X183003266Y-106142982D01*
X183103643Y-105991902D01*
X183168055Y-105822338D01*
X183169035Y-105815366D01*
X183192748Y-105646639D01*
X183192748Y-105646636D01*
X183193299Y-105642717D01*
X183193616Y-105620000D01*
X183173397Y-105439745D01*
X183161533Y-105405675D01*
X183116064Y-105275106D01*
X183116062Y-105275103D01*
X183113745Y-105268448D01*
X183082502Y-105218448D01*
X183021359Y-105120598D01*
X183017626Y-105114624D01*
X183012664Y-105109627D01*
X182894778Y-104990915D01*
X182894774Y-104990912D01*
X182889815Y-104985918D01*
X182736666Y-104888727D01*
X182689340Y-104871875D01*
X182572425Y-104830243D01*
X182572420Y-104830242D01*
X182565790Y-104827881D01*
X182558802Y-104827048D01*
X182558799Y-104827047D01*
X182437648Y-104812601D01*
X182372375Y-104784674D01*
X182363472Y-104776582D01*
X182053805Y-104466915D01*
X182019779Y-104404603D01*
X182016900Y-104377820D01*
X182016900Y-103708156D01*
X182017978Y-103691709D01*
X182020867Y-103669766D01*
X182021945Y-103661578D01*
X182015083Y-103609458D01*
X182001850Y-103508941D01*
X181997896Y-103499394D01*
X181951232Y-103386739D01*
X181951231Y-103386737D01*
X181946093Y-103374331D01*
X181946092Y-103374329D01*
X181942934Y-103366705D01*
X181933023Y-103353788D01*
X181872742Y-103275229D01*
X181862448Y-103261814D01*
X181849213Y-103244565D01*
X181825093Y-103226057D01*
X181812703Y-103215190D01*
X181428374Y-102830861D01*
X181394348Y-102768549D01*
X181398559Y-102710419D01*
X181395945Y-102709798D01*
X181397773Y-102702110D01*
X181400545Y-102694716D01*
X181402095Y-102680454D01*
X181406931Y-102635931D01*
X181407300Y-102632534D01*
X181407300Y-101536266D01*
X181400545Y-101474084D01*
X181349415Y-101337695D01*
X181262061Y-101221139D01*
X181214140Y-101185224D01*
X181171627Y-101128367D01*
X181166601Y-101057549D01*
X181200661Y-100995255D01*
X181214130Y-100983583D01*
X181262061Y-100947661D01*
X181349415Y-100831105D01*
X181400545Y-100694716D01*
X181407300Y-100632534D01*
X181407300Y-100081276D01*
X181427302Y-100013155D01*
X181480958Y-99966662D01*
X181551232Y-99956558D01*
X181577527Y-99963293D01*
X181638484Y-99986145D01*
X181694360Y-99992215D01*
X181695852Y-99992377D01*
X181700666Y-99992900D01*
X182796934Y-99992900D01*
X182801749Y-99992377D01*
X182803240Y-99992215D01*
X182859116Y-99986145D01*
X182995505Y-99935015D01*
X183112061Y-99847661D01*
X183147976Y-99799740D01*
X183204833Y-99757227D01*
X183275651Y-99752201D01*
X183337945Y-99786261D01*
X183349617Y-99799730D01*
X183385539Y-99847661D01*
X183502095Y-99935015D01*
X183638484Y-99986145D01*
X183694360Y-99992215D01*
X183695852Y-99992377D01*
X183700666Y-99992900D01*
X184796934Y-99992900D01*
X184801749Y-99992377D01*
X184803240Y-99992215D01*
X184859116Y-99986145D01*
X184995505Y-99935015D01*
X185112061Y-99847661D01*
X185147976Y-99799740D01*
X185204833Y-99757227D01*
X185275651Y-99752201D01*
X185337945Y-99786261D01*
G37*
G04 #@! TD.AperFunction*
G04 #@! TA.AperFunction,Conductor*
G36*
X196003547Y-61938072D02*
G01*
X196278851Y-61947368D01*
X196287404Y-61947948D01*
X196542757Y-61974034D01*
X196551336Y-61975211D01*
X196605063Y-61984466D01*
X196795861Y-62017333D01*
X196804502Y-62019135D01*
X196967275Y-62059082D01*
X197036652Y-62076108D01*
X197045364Y-62078582D01*
X197225127Y-62136698D01*
X197263424Y-62149079D01*
X197272268Y-62152308D01*
X197474640Y-62234886D01*
X197483626Y-62238970D01*
X197668719Y-62332012D01*
X197677859Y-62337092D01*
X197844197Y-62438801D01*
X197853472Y-62445054D01*
X197999768Y-62553438D01*
X198009102Y-62561072D01*
X198134384Y-62673971D01*
X198134386Y-62673973D01*
X198143641Y-62683230D01*
X198247416Y-62798437D01*
X198256350Y-62809565D01*
X198317156Y-62894766D01*
X198338717Y-62924978D01*
X198346943Y-62938152D01*
X198408763Y-63052261D01*
X198415747Y-63067492D01*
X198458447Y-63179780D01*
X198463583Y-63196827D01*
X198488706Y-63308233D01*
X198488707Y-63308238D01*
X198491444Y-63326588D01*
X198501642Y-63463380D01*
X198501991Y-63472747D01*
X198501991Y-107856511D01*
X198481989Y-107924632D01*
X198428333Y-107971125D01*
X198358059Y-107981229D01*
X198293479Y-107951735D01*
X198286896Y-107945606D01*
X196644205Y-106302915D01*
X196610179Y-106240603D01*
X196607300Y-106213820D01*
X196607300Y-105536266D01*
X196600545Y-105474084D01*
X196549415Y-105337695D01*
X196462061Y-105221139D01*
X196414140Y-105185224D01*
X196371627Y-105128367D01*
X196366601Y-105057549D01*
X196400661Y-104995255D01*
X196414130Y-104983583D01*
X196462061Y-104947661D01*
X196549415Y-104831105D01*
X196600545Y-104694716D01*
X196607300Y-104632534D01*
X196607300Y-103536266D01*
X196600545Y-103474084D01*
X196549415Y-103337695D01*
X196462061Y-103221139D01*
X196413726Y-103184914D01*
X196371211Y-103128055D01*
X196366185Y-103057236D01*
X196400245Y-102994943D01*
X196413725Y-102983262D01*
X196454526Y-102952683D01*
X196467085Y-102940124D01*
X196543586Y-102838049D01*
X196552124Y-102822454D01*
X196597278Y-102702006D01*
X196600905Y-102686751D01*
X196606431Y-102635886D01*
X196606800Y-102629072D01*
X196606800Y-102356515D01*
X196602325Y-102341276D01*
X196600935Y-102340071D01*
X196593252Y-102338400D01*
X193108916Y-102338400D01*
X193093677Y-102342875D01*
X193092472Y-102344265D01*
X193090801Y-102351948D01*
X193090801Y-102629069D01*
X193091171Y-102635890D01*
X193096695Y-102686752D01*
X193100321Y-102702004D01*
X193145476Y-102822454D01*
X193154014Y-102838049D01*
X193230515Y-102940124D01*
X193243074Y-102952683D01*
X193283875Y-102983262D01*
X193326389Y-103040122D01*
X193331414Y-103110940D01*
X193297354Y-103173234D01*
X193283875Y-103184913D01*
X193235539Y-103221139D01*
X193148185Y-103337695D01*
X193145033Y-103346103D01*
X193118106Y-103417930D01*
X193075464Y-103474694D01*
X193008903Y-103499394D01*
X193000124Y-103499700D01*
X192139599Y-103499700D01*
X192072087Y-103480087D01*
X191999666Y-103434127D01*
X191955957Y-103418563D01*
X191835425Y-103375643D01*
X191835420Y-103375642D01*
X191828790Y-103373281D01*
X191821802Y-103372448D01*
X191821799Y-103372447D01*
X191776403Y-103367034D01*
X191711129Y-103339106D01*
X191671317Y-103280323D01*
X191665322Y-103241920D01*
X191665322Y-101812285D01*
X193090800Y-101812285D01*
X193095275Y-101827524D01*
X193096665Y-101828729D01*
X193104348Y-101830400D01*
X194576685Y-101830400D01*
X194591924Y-101825925D01*
X194593129Y-101824535D01*
X194594800Y-101816852D01*
X194594800Y-101812285D01*
X195102800Y-101812285D01*
X195107275Y-101827524D01*
X195108665Y-101828729D01*
X195116348Y-101830400D01*
X196588684Y-101830400D01*
X196603923Y-101825925D01*
X196605128Y-101824535D01*
X196606799Y-101816852D01*
X196606799Y-101539731D01*
X196606429Y-101532910D01*
X196600905Y-101482048D01*
X196597279Y-101466796D01*
X196552124Y-101346346D01*
X196543586Y-101330751D01*
X196467085Y-101228676D01*
X196454524Y-101216115D01*
X196413309Y-101185226D01*
X196370794Y-101128367D01*
X196365768Y-101057548D01*
X196399828Y-100995255D01*
X196413309Y-100983574D01*
X196454524Y-100952685D01*
X196467085Y-100940124D01*
X196543586Y-100838049D01*
X196552124Y-100822454D01*
X196597278Y-100702006D01*
X196600905Y-100686751D01*
X196606431Y-100635886D01*
X196606800Y-100629072D01*
X196606800Y-100356515D01*
X196602325Y-100341276D01*
X196600935Y-100340071D01*
X196593252Y-100338400D01*
X195120915Y-100338400D01*
X195105676Y-100342875D01*
X195104471Y-100344265D01*
X195102800Y-100351948D01*
X195102800Y-101812285D01*
X194594800Y-101812285D01*
X194594800Y-100356515D01*
X194590325Y-100341276D01*
X194588935Y-100340071D01*
X194581252Y-100338400D01*
X193108916Y-100338400D01*
X193093677Y-100342875D01*
X193092472Y-100344265D01*
X193090801Y-100351948D01*
X193090801Y-100629069D01*
X193091171Y-100635890D01*
X193096695Y-100686752D01*
X193100321Y-100702004D01*
X193145476Y-100822454D01*
X193154014Y-100838049D01*
X193230515Y-100940124D01*
X193243076Y-100952685D01*
X193284291Y-100983574D01*
X193326806Y-101040433D01*
X193331832Y-101111252D01*
X193297772Y-101173545D01*
X193284291Y-101185226D01*
X193243076Y-101216115D01*
X193230515Y-101228676D01*
X193154014Y-101330751D01*
X193145476Y-101346346D01*
X193100322Y-101466794D01*
X193096695Y-101482049D01*
X193091169Y-101532914D01*
X193090800Y-101539728D01*
X193090800Y-101812285D01*
X191665322Y-101812285D01*
X191665322Y-100118900D01*
X191685324Y-100050779D01*
X191738980Y-100004286D01*
X191791322Y-99992900D01*
X192796934Y-99992900D01*
X192801749Y-99992377D01*
X192803240Y-99992215D01*
X192859116Y-99986145D01*
X192995505Y-99935015D01*
X193101502Y-99855574D01*
X193168009Y-99830726D01*
X193177068Y-99830400D01*
X194576685Y-99830400D01*
X194591924Y-99825925D01*
X194593129Y-99824535D01*
X194594800Y-99816852D01*
X194594800Y-99812285D01*
X195102800Y-99812285D01*
X195107275Y-99827524D01*
X195108665Y-99828729D01*
X195116348Y-99830400D01*
X196588684Y-99830400D01*
X196603923Y-99825925D01*
X196605128Y-99824535D01*
X196606799Y-99816852D01*
X196606799Y-99539731D01*
X196606429Y-99532910D01*
X196600905Y-99482048D01*
X196597279Y-99466796D01*
X196552124Y-99346346D01*
X196543586Y-99330751D01*
X196467085Y-99228676D01*
X196454524Y-99216115D01*
X196352449Y-99139614D01*
X196336854Y-99131076D01*
X196216406Y-99085922D01*
X196201151Y-99082295D01*
X196150286Y-99076769D01*
X196143472Y-99076400D01*
X195120915Y-99076400D01*
X195105676Y-99080875D01*
X195104471Y-99082265D01*
X195102800Y-99089948D01*
X195102800Y-99812285D01*
X194594800Y-99812285D01*
X194594800Y-99094516D01*
X194590325Y-99079277D01*
X194588935Y-99078072D01*
X194581252Y-99076401D01*
X193554131Y-99076401D01*
X193547310Y-99076771D01*
X193496448Y-99082295D01*
X193481197Y-99085921D01*
X193427530Y-99106040D01*
X193356723Y-99111223D01*
X193294354Y-99077303D01*
X193260225Y-99015048D01*
X193257300Y-98988058D01*
X193257300Y-97636266D01*
X193250545Y-97574084D01*
X193199415Y-97437695D01*
X193112061Y-97321139D01*
X192995505Y-97233785D01*
X192859116Y-97182655D01*
X192803240Y-97176585D01*
X192800331Y-97176269D01*
X192796934Y-97175900D01*
X191791322Y-97175900D01*
X191723201Y-97155898D01*
X191676708Y-97102242D01*
X191665322Y-97049900D01*
X191665322Y-96287208D01*
X191666400Y-96270761D01*
X191669290Y-96248810D01*
X191670368Y-96240622D01*
X191650272Y-96087985D01*
X191591356Y-95945750D01*
X191521165Y-95854274D01*
X191521164Y-95854273D01*
X191497635Y-95823609D01*
X191489506Y-95817371D01*
X191473516Y-95805102D01*
X191461125Y-95794234D01*
X190627179Y-94960288D01*
X189793141Y-94126251D01*
X189759116Y-94063939D01*
X189757021Y-94051202D01*
X189744182Y-93936743D01*
X189743397Y-93929745D01*
X189741080Y-93923091D01*
X189686064Y-93765106D01*
X189686062Y-93765103D01*
X189683745Y-93758448D01*
X189680009Y-93752469D01*
X189591359Y-93610598D01*
X189587626Y-93604624D01*
X189533819Y-93550440D01*
X189464778Y-93480915D01*
X189464774Y-93480912D01*
X189459815Y-93475918D01*
X189414379Y-93447083D01*
X189367582Y-93393697D01*
X189357077Y-93323482D01*
X189386200Y-93258733D01*
X189445706Y-93220009D01*
X189481895Y-93214700D01*
X194807144Y-93214700D01*
X194875265Y-93234702D01*
X194890903Y-93247531D01*
X194891059Y-93247343D01*
X194896488Y-93251834D01*
X194901382Y-93256902D01*
X194977271Y-93306562D01*
X195035593Y-93344727D01*
X195053159Y-93356222D01*
X195059763Y-93358678D01*
X195059765Y-93358679D01*
X195216558Y-93416990D01*
X195216560Y-93416990D01*
X195223168Y-93419448D01*
X195306995Y-93430633D01*
X195395980Y-93442507D01*
X195395984Y-93442507D01*
X195402961Y-93443438D01*
X195409972Y-93442800D01*
X195409976Y-93442800D01*
X195552459Y-93429832D01*
X195583600Y-93426998D01*
X195590302Y-93424820D01*
X195590304Y-93424820D01*
X195749409Y-93373124D01*
X195749412Y-93373123D01*
X195756108Y-93370947D01*
X195911912Y-93278069D01*
X196043266Y-93152982D01*
X196143643Y-93001902D01*
X196208055Y-92832338D01*
X196210463Y-92815207D01*
X196232748Y-92656639D01*
X196232748Y-92656636D01*
X196233299Y-92652717D01*
X196233616Y-92630000D01*
X196213397Y-92449745D01*
X196211080Y-92443091D01*
X196156064Y-92285106D01*
X196156062Y-92285103D01*
X196153745Y-92278448D01*
X196095994Y-92186026D01*
X196076859Y-92117658D01*
X196097725Y-92049796D01*
X196151967Y-92003989D01*
X196173797Y-91997353D01*
X196173687Y-91996943D01*
X196389533Y-91939107D01*
X196389535Y-91939106D01*
X196394843Y-91937684D01*
X196399825Y-91935361D01*
X196597362Y-91843249D01*
X196597367Y-91843246D01*
X196602349Y-91840923D01*
X196714218Y-91762591D01*
X196785389Y-91712757D01*
X196785392Y-91712755D01*
X196789900Y-91709598D01*
X196951798Y-91547700D01*
X196973741Y-91516363D01*
X197079966Y-91364657D01*
X197083123Y-91360149D01*
X197085446Y-91355167D01*
X197085449Y-91355162D01*
X197177561Y-91157625D01*
X197177561Y-91157624D01*
X197179884Y-91152643D01*
X197190204Y-91114131D01*
X197237719Y-90936802D01*
X197237719Y-90936800D01*
X197239143Y-90931487D01*
X197259098Y-90703400D01*
X197239143Y-90475313D01*
X197198976Y-90325409D01*
X197181307Y-90259467D01*
X197181306Y-90259465D01*
X197179884Y-90254157D01*
X197148214Y-90186240D01*
X197085449Y-90051638D01*
X197085446Y-90051633D01*
X197083123Y-90046651D01*
X196951798Y-89859100D01*
X196789900Y-89697202D01*
X196785392Y-89694045D01*
X196785389Y-89694043D01*
X196693547Y-89629735D01*
X196602349Y-89565877D01*
X196597367Y-89563554D01*
X196597362Y-89563551D01*
X196399825Y-89471439D01*
X196399824Y-89471439D01*
X196394843Y-89469116D01*
X196389535Y-89467694D01*
X196389533Y-89467693D01*
X196179002Y-89411281D01*
X196179000Y-89411281D01*
X196173687Y-89409857D01*
X195945600Y-89389902D01*
X195717513Y-89409857D01*
X195712200Y-89411281D01*
X195712198Y-89411281D01*
X195501667Y-89467693D01*
X195501665Y-89467694D01*
X195496357Y-89469116D01*
X195491376Y-89471439D01*
X195491375Y-89471439D01*
X195293838Y-89563551D01*
X195293833Y-89563554D01*
X195288851Y-89565877D01*
X195197653Y-89629735D01*
X195105811Y-89694043D01*
X195105808Y-89694045D01*
X195101300Y-89697202D01*
X194939402Y-89859100D01*
X194808077Y-90046651D01*
X194805754Y-90051633D01*
X194805751Y-90051638D01*
X194789795Y-90085857D01*
X194742878Y-90139142D01*
X194674601Y-90158603D01*
X194606641Y-90138061D01*
X194561405Y-90085857D01*
X194545449Y-90051638D01*
X194545446Y-90051633D01*
X194543123Y-90046651D01*
X194411798Y-89859100D01*
X194249900Y-89697202D01*
X194245392Y-89694045D01*
X194245389Y-89694043D01*
X194153547Y-89629735D01*
X194062349Y-89565877D01*
X194057367Y-89563554D01*
X194057362Y-89563551D01*
X193859825Y-89471439D01*
X193859824Y-89471439D01*
X193854843Y-89469116D01*
X193849535Y-89467694D01*
X193849533Y-89467693D01*
X193639002Y-89411281D01*
X193639000Y-89411281D01*
X193633687Y-89409857D01*
X193405600Y-89389902D01*
X193177513Y-89409857D01*
X193172200Y-89411281D01*
X193172198Y-89411281D01*
X192961667Y-89467693D01*
X192961665Y-89467694D01*
X192956357Y-89469116D01*
X192951376Y-89471439D01*
X192951375Y-89471439D01*
X192753838Y-89563551D01*
X192753833Y-89563554D01*
X192748851Y-89565877D01*
X192657653Y-89629735D01*
X192565811Y-89694043D01*
X192565808Y-89694045D01*
X192561300Y-89697202D01*
X192399402Y-89859100D01*
X192268077Y-90046651D01*
X192265754Y-90051633D01*
X192265751Y-90051638D01*
X192249795Y-90085857D01*
X192202878Y-90139142D01*
X192134601Y-90158603D01*
X192066641Y-90138061D01*
X192021405Y-90085857D01*
X192005449Y-90051638D01*
X192005446Y-90051633D01*
X192003123Y-90046651D01*
X191871798Y-89859100D01*
X191709900Y-89697202D01*
X191705392Y-89694045D01*
X191705389Y-89694043D01*
X191613547Y-89629735D01*
X191522349Y-89565877D01*
X191517367Y-89563554D01*
X191517362Y-89563551D01*
X191319825Y-89471439D01*
X191319824Y-89471439D01*
X191314843Y-89469116D01*
X191309535Y-89467694D01*
X191309533Y-89467693D01*
X191099002Y-89411281D01*
X191099000Y-89411281D01*
X191093687Y-89409857D01*
X190865600Y-89389902D01*
X190637513Y-89409857D01*
X190632200Y-89411281D01*
X190632198Y-89411281D01*
X190421667Y-89467693D01*
X190421665Y-89467694D01*
X190416357Y-89469116D01*
X190411376Y-89471439D01*
X190411375Y-89471439D01*
X190213838Y-89563551D01*
X190213833Y-89563554D01*
X190208851Y-89565877D01*
X190117653Y-89629735D01*
X190025811Y-89694043D01*
X190025808Y-89694045D01*
X190021300Y-89697202D01*
X189859402Y-89859100D01*
X189728077Y-90046651D01*
X189725754Y-90051633D01*
X189725751Y-90051638D01*
X189709795Y-90085857D01*
X189662878Y-90139142D01*
X189594601Y-90158603D01*
X189526641Y-90138061D01*
X189481405Y-90085857D01*
X189465449Y-90051638D01*
X189465446Y-90051633D01*
X189463123Y-90046651D01*
X189331798Y-89859100D01*
X189169900Y-89697202D01*
X189165392Y-89694045D01*
X189165389Y-89694043D01*
X189073547Y-89629735D01*
X188982349Y-89565877D01*
X188977367Y-89563554D01*
X188977362Y-89563551D01*
X188779825Y-89471439D01*
X188779824Y-89471439D01*
X188774843Y-89469116D01*
X188769535Y-89467694D01*
X188769533Y-89467693D01*
X188559002Y-89411281D01*
X188559000Y-89411281D01*
X188553687Y-89409857D01*
X188325600Y-89389902D01*
X188097513Y-89409857D01*
X188092200Y-89411281D01*
X188092198Y-89411281D01*
X187881667Y-89467693D01*
X187881665Y-89467694D01*
X187876357Y-89469116D01*
X187871376Y-89471439D01*
X187871375Y-89471439D01*
X187673838Y-89563551D01*
X187673833Y-89563554D01*
X187668851Y-89565877D01*
X187577653Y-89629735D01*
X187485811Y-89694043D01*
X187485808Y-89694045D01*
X187481300Y-89697202D01*
X187319402Y-89859100D01*
X187188077Y-90046651D01*
X187185754Y-90051633D01*
X187185751Y-90051638D01*
X187122986Y-90186240D01*
X187091316Y-90254157D01*
X187089894Y-90259465D01*
X187089893Y-90259467D01*
X187072224Y-90325409D01*
X187032057Y-90475313D01*
X187012102Y-90703400D01*
X187032057Y-90931487D01*
X187033481Y-90936800D01*
X187033481Y-90936802D01*
X187080997Y-91114131D01*
X187091316Y-91152643D01*
X187093639Y-91157624D01*
X187093639Y-91157625D01*
X187185751Y-91355162D01*
X187185754Y-91355167D01*
X187188077Y-91360149D01*
X187191234Y-91364657D01*
X187297460Y-91516363D01*
X187319402Y-91547700D01*
X187481300Y-91709598D01*
X187485808Y-91712755D01*
X187485811Y-91712757D01*
X187633382Y-91816087D01*
X187677710Y-91871544D01*
X187685019Y-91942163D01*
X187652988Y-92005524D01*
X187591787Y-92041509D01*
X187561111Y-92045300D01*
X186393556Y-92045300D01*
X186377109Y-92044222D01*
X186355166Y-92041333D01*
X186346978Y-92040255D01*
X186308659Y-92045300D01*
X186308654Y-92045300D01*
X186202527Y-92059272D01*
X186202525Y-92059273D01*
X186194341Y-92060350D01*
X186153988Y-92077065D01*
X186052105Y-92119266D01*
X186007592Y-92153423D01*
X185929965Y-92212987D01*
X185924939Y-92219537D01*
X185924935Y-92219541D01*
X185911455Y-92237109D01*
X185900587Y-92249501D01*
X179359784Y-98790304D01*
X179297472Y-98824330D01*
X179226657Y-98819265D01*
X179181594Y-98790304D01*
X178867587Y-98476297D01*
X178856719Y-98463905D01*
X178843239Y-98446337D01*
X178838213Y-98439787D01*
X178760586Y-98380223D01*
X178716073Y-98346066D01*
X178664048Y-98324517D01*
X178573837Y-98287150D01*
X178565653Y-98286073D01*
X178565651Y-98286072D01*
X178459524Y-98272100D01*
X178459519Y-98272100D01*
X178421200Y-98267055D01*
X178413012Y-98268133D01*
X178391067Y-98271022D01*
X178374621Y-98272100D01*
X174919900Y-98272100D01*
X174851779Y-98252098D01*
X174805286Y-98198442D01*
X174793900Y-98146100D01*
X174793900Y-90643286D01*
X174794978Y-90626839D01*
X174797868Y-90604888D01*
X174798946Y-90596700D01*
X174778850Y-90444063D01*
X174719934Y-90301828D01*
X174649743Y-90210352D01*
X174649742Y-90210351D01*
X174626213Y-90179687D01*
X174602093Y-90161179D01*
X174589703Y-90150312D01*
X168370925Y-83931534D01*
X187017100Y-83931534D01*
X187023855Y-83993716D01*
X187074985Y-84130105D01*
X187162339Y-84246661D01*
X187278895Y-84334015D01*
X187415284Y-84385145D01*
X187477466Y-84391900D01*
X189173734Y-84391900D01*
X189235916Y-84385145D01*
X189372305Y-84334015D01*
X189488861Y-84246661D01*
X189576215Y-84130105D01*
X189627345Y-83993716D01*
X189628517Y-83982926D01*
X189629403Y-83980794D01*
X189630025Y-83978178D01*
X189630448Y-83978279D01*
X189655755Y-83917365D01*
X189714117Y-83876937D01*
X189785071Y-83874478D01*
X189846090Y-83910771D01*
X189853089Y-83919431D01*
X189856243Y-83923189D01*
X189859402Y-83927700D01*
X190021300Y-84089598D01*
X190025808Y-84092755D01*
X190025811Y-84092757D01*
X190076622Y-84128335D01*
X190208851Y-84220923D01*
X190213833Y-84223246D01*
X190213838Y-84223249D01*
X190410365Y-84314890D01*
X190416357Y-84317684D01*
X190421665Y-84319106D01*
X190421667Y-84319107D01*
X190632198Y-84375519D01*
X190632200Y-84375519D01*
X190637513Y-84376943D01*
X190865600Y-84396898D01*
X191093687Y-84376943D01*
X191099000Y-84375519D01*
X191099002Y-84375519D01*
X191309533Y-84319107D01*
X191309535Y-84319106D01*
X191314843Y-84317684D01*
X191320835Y-84314890D01*
X191517362Y-84223249D01*
X191517367Y-84223246D01*
X191522349Y-84220923D01*
X191654578Y-84128335D01*
X191705389Y-84092757D01*
X191705392Y-84092755D01*
X191709900Y-84089598D01*
X191871798Y-83927700D01*
X191923474Y-83853900D01*
X191980408Y-83772589D01*
X192003123Y-83740149D01*
X192005446Y-83735167D01*
X192005449Y-83735162D01*
X192021405Y-83700943D01*
X192068322Y-83647658D01*
X192136599Y-83628197D01*
X192204559Y-83648739D01*
X192249795Y-83700943D01*
X192265751Y-83735162D01*
X192265754Y-83735167D01*
X192268077Y-83740149D01*
X192290792Y-83772589D01*
X192347727Y-83853900D01*
X192399402Y-83927700D01*
X192561300Y-84089598D01*
X192565808Y-84092755D01*
X192565811Y-84092757D01*
X192616622Y-84128335D01*
X192748851Y-84220923D01*
X192753833Y-84223246D01*
X192753838Y-84223249D01*
X192950365Y-84314890D01*
X192956357Y-84317684D01*
X192961665Y-84319106D01*
X192961667Y-84319107D01*
X193172198Y-84375519D01*
X193172200Y-84375519D01*
X193177513Y-84376943D01*
X193405600Y-84396898D01*
X193633687Y-84376943D01*
X193639000Y-84375519D01*
X193639002Y-84375519D01*
X193849533Y-84319107D01*
X193849535Y-84319106D01*
X193854843Y-84317684D01*
X193860835Y-84314890D01*
X194057362Y-84223249D01*
X194057367Y-84223246D01*
X194062349Y-84220923D01*
X194135843Y-84169462D01*
X195224093Y-84169462D01*
X195233389Y-84181477D01*
X195284594Y-84217331D01*
X195294089Y-84222814D01*
X195491547Y-84314890D01*
X195501839Y-84318636D01*
X195712288Y-84375025D01*
X195723081Y-84376928D01*
X195940125Y-84395917D01*
X195951075Y-84395917D01*
X196168119Y-84376928D01*
X196178912Y-84375025D01*
X196389361Y-84318636D01*
X196399653Y-84314890D01*
X196597111Y-84222814D01*
X196606606Y-84217331D01*
X196658648Y-84180891D01*
X196667024Y-84170412D01*
X196659956Y-84156966D01*
X195958412Y-83455422D01*
X195944468Y-83447808D01*
X195942635Y-83447939D01*
X195936020Y-83452190D01*
X195230523Y-84157687D01*
X195224093Y-84169462D01*
X194135843Y-84169462D01*
X194194578Y-84128335D01*
X194245389Y-84092757D01*
X194245392Y-84092755D01*
X194249900Y-84089598D01*
X194411798Y-83927700D01*
X194463474Y-83853900D01*
X194520408Y-83772589D01*
X194543123Y-83740149D01*
X194545446Y-83735167D01*
X194545449Y-83735162D01*
X194561681Y-83700351D01*
X194608598Y-83647066D01*
X194676875Y-83627605D01*
X194744835Y-83648147D01*
X194790071Y-83700351D01*
X194806186Y-83734911D01*
X194811669Y-83744406D01*
X194848109Y-83796448D01*
X194858588Y-83804824D01*
X194872034Y-83797756D01*
X195573578Y-83096212D01*
X195579956Y-83084532D01*
X196310008Y-83084532D01*
X196310139Y-83086365D01*
X196314390Y-83092980D01*
X197019887Y-83798477D01*
X197031662Y-83804907D01*
X197043677Y-83795611D01*
X197079531Y-83744406D01*
X197085014Y-83734911D01*
X197177090Y-83537453D01*
X197180836Y-83527161D01*
X197237225Y-83316712D01*
X197239128Y-83305919D01*
X197258117Y-83088875D01*
X197258117Y-83077925D01*
X197239128Y-82860881D01*
X197237225Y-82850088D01*
X197180836Y-82639639D01*
X197177090Y-82629347D01*
X197085014Y-82431889D01*
X197079531Y-82422394D01*
X197043091Y-82370352D01*
X197032612Y-82361976D01*
X197019166Y-82369044D01*
X196317622Y-83070588D01*
X196310008Y-83084532D01*
X195579956Y-83084532D01*
X195581192Y-83082268D01*
X195581061Y-83080435D01*
X195576810Y-83073820D01*
X194871313Y-82368323D01*
X194859538Y-82361893D01*
X194847523Y-82371189D01*
X194811669Y-82422394D01*
X194806186Y-82431889D01*
X194790071Y-82466449D01*
X194743154Y-82519734D01*
X194674877Y-82539195D01*
X194606917Y-82518653D01*
X194561681Y-82466449D01*
X194545449Y-82431638D01*
X194545446Y-82431633D01*
X194543123Y-82426651D01*
X194411798Y-82239100D01*
X194249900Y-82077202D01*
X194245392Y-82074045D01*
X194245389Y-82074043D01*
X194134486Y-81996388D01*
X195224176Y-81996388D01*
X195231244Y-82009834D01*
X195932788Y-82711378D01*
X195946732Y-82718992D01*
X195948565Y-82718861D01*
X195955180Y-82714610D01*
X196660677Y-82009113D01*
X196667107Y-81997338D01*
X196657811Y-81985323D01*
X196606606Y-81949469D01*
X196597111Y-81943986D01*
X196399653Y-81851910D01*
X196389361Y-81848164D01*
X196178912Y-81791775D01*
X196168119Y-81789872D01*
X195951075Y-81770883D01*
X195940125Y-81770883D01*
X195723081Y-81789872D01*
X195712288Y-81791775D01*
X195501839Y-81848164D01*
X195491547Y-81851910D01*
X195294089Y-81943986D01*
X195284594Y-81949469D01*
X195232552Y-81985909D01*
X195224176Y-81996388D01*
X194134486Y-81996388D01*
X194119520Y-81985909D01*
X194062349Y-81945877D01*
X194057367Y-81943554D01*
X194057362Y-81943551D01*
X193859825Y-81851439D01*
X193859824Y-81851439D01*
X193854843Y-81849116D01*
X193849535Y-81847694D01*
X193849533Y-81847693D01*
X193639002Y-81791281D01*
X193639000Y-81791281D01*
X193633687Y-81789857D01*
X193405600Y-81769902D01*
X193177513Y-81789857D01*
X193172200Y-81791281D01*
X193172198Y-81791281D01*
X192961667Y-81847693D01*
X192961665Y-81847694D01*
X192956357Y-81849116D01*
X192951376Y-81851439D01*
X192951375Y-81851439D01*
X192753838Y-81943551D01*
X192753833Y-81943554D01*
X192748851Y-81945877D01*
X192691680Y-81985909D01*
X192565811Y-82074043D01*
X192565808Y-82074045D01*
X192561300Y-82077202D01*
X192399402Y-82239100D01*
X192268077Y-82426651D01*
X192265754Y-82431633D01*
X192265751Y-82431638D01*
X192249795Y-82465857D01*
X192202878Y-82519142D01*
X192134601Y-82538603D01*
X192066641Y-82518061D01*
X192021405Y-82465857D01*
X192005449Y-82431638D01*
X192005446Y-82431633D01*
X192003123Y-82426651D01*
X191871798Y-82239100D01*
X191709900Y-82077202D01*
X191705392Y-82074045D01*
X191705389Y-82074043D01*
X191579520Y-81985909D01*
X191522349Y-81945877D01*
X191517367Y-81943554D01*
X191517362Y-81943551D01*
X191319825Y-81851439D01*
X191319824Y-81851439D01*
X191314843Y-81849116D01*
X191309535Y-81847694D01*
X191309533Y-81847693D01*
X191099002Y-81791281D01*
X191099000Y-81791281D01*
X191093687Y-81789857D01*
X190865600Y-81769902D01*
X190637513Y-81789857D01*
X190632200Y-81791281D01*
X190632198Y-81791281D01*
X190421667Y-81847693D01*
X190421665Y-81847694D01*
X190416357Y-81849116D01*
X190411376Y-81851439D01*
X190411375Y-81851439D01*
X190213838Y-81943551D01*
X190213833Y-81943554D01*
X190208851Y-81945877D01*
X190151680Y-81985909D01*
X190025811Y-82074043D01*
X190025808Y-82074045D01*
X190021300Y-82077202D01*
X189859402Y-82239100D01*
X189856243Y-82243611D01*
X189852708Y-82247824D01*
X189851574Y-82246873D01*
X189801529Y-82286871D01*
X189730910Y-82294176D01*
X189667551Y-82262142D01*
X189631570Y-82200938D01*
X189628518Y-82183883D01*
X189627345Y-82173084D01*
X189576215Y-82036695D01*
X189488861Y-81920139D01*
X189372305Y-81832785D01*
X189235916Y-81781655D01*
X189173734Y-81774900D01*
X187477466Y-81774900D01*
X187415284Y-81781655D01*
X187278895Y-81832785D01*
X187162339Y-81920139D01*
X187074985Y-82036695D01*
X187023855Y-82173084D01*
X187017100Y-82235266D01*
X187017100Y-83931534D01*
X168370925Y-83931534D01*
X166729683Y-82290292D01*
X158868485Y-74429095D01*
X158834459Y-74366783D01*
X158839524Y-74295968D01*
X158868485Y-74250905D01*
X162498011Y-70621379D01*
X165191908Y-67927483D01*
X165254218Y-67893458D01*
X165325033Y-67898523D01*
X165381869Y-67941070D01*
X165406680Y-68007590D01*
X165407001Y-68016579D01*
X165407001Y-68112095D01*
X165407338Y-68118614D01*
X165417257Y-68214206D01*
X165420149Y-68227600D01*
X165471588Y-68381784D01*
X165477761Y-68394962D01*
X165563063Y-68532807D01*
X165572099Y-68544208D01*
X165686829Y-68658739D01*
X165698240Y-68667751D01*
X165836243Y-68752816D01*
X165849424Y-68758963D01*
X166003710Y-68810138D01*
X166017086Y-68813005D01*
X166111438Y-68822672D01*
X166117854Y-68823000D01*
X166367885Y-68823000D01*
X166383124Y-68818525D01*
X166384329Y-68817135D01*
X166386000Y-68809452D01*
X166386000Y-68804884D01*
X166894000Y-68804884D01*
X166898475Y-68820123D01*
X166899865Y-68821328D01*
X166907548Y-68822999D01*
X167162095Y-68822999D01*
X167168614Y-68822662D01*
X167264206Y-68812743D01*
X167277600Y-68809851D01*
X167431784Y-68758412D01*
X167444962Y-68752239D01*
X167582807Y-68666937D01*
X167594208Y-68657901D01*
X167708739Y-68543171D01*
X167717751Y-68531760D01*
X167802816Y-68393757D01*
X167808963Y-68380576D01*
X167860138Y-68226290D01*
X167863005Y-68212914D01*
X167872672Y-68118562D01*
X167873000Y-68112146D01*
X167873000Y-67999615D01*
X167868525Y-67984376D01*
X167867135Y-67983171D01*
X167859452Y-67981500D01*
X166912115Y-67981500D01*
X166896876Y-67985975D01*
X166895671Y-67987365D01*
X166894000Y-67995048D01*
X166894000Y-68804884D01*
X166386000Y-68804884D01*
X166386000Y-67599500D01*
X166406002Y-67531379D01*
X166459658Y-67484886D01*
X166512000Y-67473500D01*
X167854884Y-67473500D01*
X167870123Y-67469025D01*
X167871328Y-67467635D01*
X167872999Y-67459952D01*
X167872999Y-67342905D01*
X167872662Y-67336386D01*
X167862743Y-67240794D01*
X167859851Y-67227400D01*
X167808412Y-67073216D01*
X167802239Y-67060038D01*
X167716937Y-66922193D01*
X167707901Y-66910792D01*
X167593172Y-66796262D01*
X167584238Y-66789206D01*
X167543177Y-66731288D01*
X167539947Y-66660365D01*
X167575574Y-66598954D01*
X167583407Y-66592154D01*
X167589348Y-66588478D01*
X167714305Y-66463303D01*
X167807115Y-66312738D01*
X167838429Y-66218329D01*
X167860632Y-66151389D01*
X167860632Y-66151387D01*
X167862797Y-66144861D01*
X167873500Y-66040400D01*
X167873500Y-65709500D01*
X167893502Y-65641379D01*
X167947158Y-65594886D01*
X167999500Y-65583500D01*
X168667324Y-65583500D01*
X168735445Y-65603502D01*
X168781938Y-65657158D01*
X168785306Y-65665270D01*
X168789198Y-65675651D01*
X168815385Y-65745505D01*
X168818788Y-65750046D01*
X168833800Y-65808725D01*
X168833800Y-67388875D01*
X168818788Y-67447554D01*
X168815385Y-67452095D01*
X168812236Y-67460496D01*
X168812234Y-67460499D01*
X168789548Y-67521014D01*
X168764255Y-67588484D01*
X168757500Y-67650666D01*
X168757500Y-68746934D01*
X168764255Y-68809116D01*
X168768833Y-68821328D01*
X168804938Y-68917637D01*
X168815385Y-68945505D01*
X168818788Y-68950046D01*
X168833800Y-69008725D01*
X168833800Y-69342000D01*
X175289300Y-69342000D01*
X175357421Y-69362002D01*
X175403914Y-69415658D01*
X175415300Y-69468000D01*
X175415300Y-78847948D01*
X175395298Y-78916069D01*
X175377458Y-78937971D01*
X175369493Y-78945771D01*
X175271235Y-79098238D01*
X175268826Y-79104858D01*
X175268824Y-79104861D01*
X175211864Y-79261357D01*
X175209197Y-79268685D01*
X175186463Y-79448640D01*
X175204163Y-79629160D01*
X175261418Y-79801273D01*
X175265065Y-79807295D01*
X175265066Y-79807297D01*
X175341376Y-79933300D01*
X175355380Y-79956424D01*
X175481382Y-80086902D01*
X175633159Y-80186222D01*
X175639763Y-80188678D01*
X175639765Y-80188679D01*
X175796558Y-80246990D01*
X175796560Y-80246990D01*
X175803168Y-80249448D01*
X175886995Y-80260633D01*
X175975980Y-80272507D01*
X175975984Y-80272507D01*
X175982961Y-80273438D01*
X175989972Y-80272800D01*
X175989976Y-80272800D01*
X176132459Y-80259832D01*
X176163600Y-80256998D01*
X176170302Y-80254820D01*
X176170304Y-80254820D01*
X176329409Y-80203124D01*
X176329412Y-80203123D01*
X176336108Y-80200947D01*
X176491912Y-80108069D01*
X176623266Y-79982982D01*
X176723643Y-79831902D01*
X176777313Y-79690617D01*
X176785555Y-79668920D01*
X176785556Y-79668918D01*
X176788055Y-79662338D01*
X176789035Y-79655366D01*
X176812748Y-79486639D01*
X176812748Y-79486636D01*
X176813299Y-79482717D01*
X176813616Y-79460000D01*
X176793397Y-79279745D01*
X176791080Y-79273091D01*
X176736064Y-79115106D01*
X176736062Y-79115103D01*
X176733745Y-79108448D01*
X176637626Y-78954624D01*
X176621294Y-78938178D01*
X176587487Y-78875749D01*
X176584700Y-78849394D01*
X176584700Y-66129386D01*
X176585778Y-66112939D01*
X176588668Y-66090988D01*
X176589746Y-66082800D01*
X176569650Y-65930163D01*
X176510734Y-65787928D01*
X176440543Y-65696452D01*
X176440542Y-65696451D01*
X176417013Y-65665787D01*
X176405768Y-65657158D01*
X176392894Y-65647280D01*
X176380503Y-65636412D01*
X176211405Y-65467314D01*
X176177379Y-65405002D01*
X176174500Y-65378219D01*
X176174500Y-64450666D01*
X176167745Y-64388484D01*
X176116615Y-64252095D01*
X176029261Y-64135539D01*
X176007546Y-64119264D01*
X175970835Y-64091751D01*
X175928320Y-64034892D01*
X175920400Y-63990925D01*
X175920400Y-63855600D01*
X168833800Y-63855600D01*
X168833800Y-64188875D01*
X168818788Y-64247554D01*
X168815385Y-64252095D01*
X168812234Y-64260499D01*
X168812234Y-64260500D01*
X168785306Y-64332330D01*
X168742664Y-64389094D01*
X168676103Y-64413794D01*
X168667324Y-64414100D01*
X167340278Y-64414100D01*
X167323831Y-64413022D01*
X167301888Y-64410133D01*
X167293700Y-64409055D01*
X167255381Y-64414100D01*
X167255376Y-64414100D01*
X167149251Y-64428072D01*
X167141063Y-64429150D01*
X167133436Y-64432309D01*
X167133433Y-64432310D01*
X167089118Y-64450666D01*
X167057743Y-64463662D01*
X166998827Y-64488066D01*
X166943572Y-64530464D01*
X166877354Y-64556063D01*
X166866871Y-64556500D01*
X166114600Y-64556500D01*
X166111354Y-64556837D01*
X166111350Y-64556837D01*
X166015692Y-64566762D01*
X166015688Y-64566763D01*
X166008834Y-64567474D01*
X166002298Y-64569655D01*
X166002296Y-64569655D01*
X165870194Y-64613728D01*
X165841054Y-64623450D01*
X165690652Y-64716522D01*
X165565695Y-64841697D01*
X165561855Y-64847927D01*
X165561854Y-64847928D01*
X165540303Y-64882891D01*
X165472885Y-64992262D01*
X165417203Y-65160139D01*
X165406500Y-65264600D01*
X165406500Y-66006919D01*
X165386498Y-66075040D01*
X165369595Y-66096014D01*
X157747215Y-73718395D01*
X157684903Y-73752421D01*
X157658120Y-73755300D01*
X129366578Y-73755300D01*
X129350131Y-73754222D01*
X129328188Y-73751333D01*
X129320000Y-73750255D01*
X129281681Y-73755300D01*
X129281676Y-73755300D01*
X129175551Y-73769272D01*
X129167363Y-73770350D01*
X129159736Y-73773509D01*
X129159733Y-73773510D01*
X129084043Y-73804862D01*
X129025127Y-73829266D01*
X129018573Y-73834295D01*
X128938420Y-73895798D01*
X128909540Y-73917958D01*
X128909537Y-73917961D01*
X128902987Y-73922987D01*
X128897961Y-73929537D01*
X128897960Y-73929538D01*
X128884480Y-73947106D01*
X128873612Y-73959497D01*
X122936715Y-79896395D01*
X122874403Y-79930421D01*
X122847620Y-79933300D01*
X113017365Y-79933300D01*
X112949244Y-79913298D01*
X112911949Y-79872937D01*
X112910554Y-79873840D01*
X112792022Y-79690617D01*
X112792020Y-79690614D01*
X112789214Y-79686277D01*
X112638870Y-79521051D01*
X112634819Y-79517852D01*
X112634815Y-79517848D01*
X112467614Y-79385800D01*
X112467610Y-79385798D01*
X112463559Y-79382598D01*
X112422253Y-79359796D01*
X112372284Y-79309364D01*
X112357512Y-79239921D01*
X112382628Y-79173516D01*
X112409980Y-79146909D01*
X112478214Y-79098238D01*
X112589060Y-79019173D01*
X112747296Y-78861489D01*
X112806794Y-78778689D01*
X112874635Y-78684277D01*
X112877653Y-78680077D01*
X112976630Y-78479811D01*
X113041570Y-78266069D01*
X113070729Y-78044590D01*
X113072356Y-77978000D01*
X113054052Y-77755361D01*
X112999631Y-77538702D01*
X112910554Y-77333840D01*
X112834260Y-77215907D01*
X112792022Y-77150617D01*
X112792020Y-77150614D01*
X112789214Y-77146277D01*
X112638870Y-76981051D01*
X112634819Y-76977852D01*
X112634815Y-76977848D01*
X112467614Y-76845800D01*
X112467610Y-76845798D01*
X112463559Y-76842598D01*
X112422253Y-76819796D01*
X112372284Y-76769364D01*
X112357512Y-76699921D01*
X112382628Y-76633516D01*
X112409980Y-76606909D01*
X112453803Y-76575650D01*
X112589060Y-76479173D01*
X112747296Y-76321489D01*
X112787762Y-76265175D01*
X112874635Y-76144277D01*
X112877653Y-76140077D01*
X112976630Y-75939811D01*
X113041570Y-75726069D01*
X113070729Y-75504590D01*
X113072356Y-75438000D01*
X113054052Y-75215361D01*
X112999631Y-74998702D01*
X112910554Y-74793840D01*
X112789214Y-74606277D01*
X112638870Y-74441051D01*
X112634819Y-74437852D01*
X112634815Y-74437848D01*
X112467614Y-74305800D01*
X112467610Y-74305798D01*
X112463559Y-74302598D01*
X112267989Y-74194638D01*
X112263120Y-74192914D01*
X112263116Y-74192912D01*
X112062287Y-74121795D01*
X112062283Y-74121794D01*
X112057412Y-74120069D01*
X112052319Y-74119162D01*
X112052316Y-74119161D01*
X111842573Y-74081800D01*
X111842567Y-74081799D01*
X111837484Y-74080894D01*
X111763652Y-74079992D01*
X111619281Y-74078228D01*
X111619279Y-74078228D01*
X111614111Y-74078165D01*
X111393291Y-74111955D01*
X111180956Y-74181357D01*
X110982807Y-74284507D01*
X110978674Y-74287610D01*
X110978671Y-74287612D01*
X110954447Y-74305800D01*
X110804165Y-74418635D01*
X110649829Y-74580138D01*
X110523943Y-74764680D01*
X110508203Y-74798590D01*
X110433465Y-74959600D01*
X110429888Y-74967305D01*
X110370189Y-75182570D01*
X110346451Y-75404695D01*
X110346748Y-75409848D01*
X110346748Y-75409851D01*
X110352211Y-75504590D01*
X110359310Y-75627715D01*
X110360447Y-75632761D01*
X110360448Y-75632767D01*
X110380319Y-75720939D01*
X110408422Y-75845639D01*
X110492466Y-76052616D01*
X110609187Y-76243088D01*
X110755450Y-76411938D01*
X110902810Y-76534279D01*
X110907799Y-76538420D01*
X110927326Y-76554632D01*
X110997795Y-76595811D01*
X111000645Y-76597476D01*
X111049369Y-76649114D01*
X111062440Y-76718897D01*
X111035709Y-76784669D01*
X110995255Y-76818027D01*
X110982807Y-76824507D01*
X110978674Y-76827610D01*
X110978671Y-76827612D01*
X110808300Y-76955530D01*
X110804165Y-76958635D01*
X110649829Y-77120138D01*
X110646915Y-77124410D01*
X110646914Y-77124411D01*
X110640929Y-77133185D01*
X110523943Y-77304680D01*
X110429888Y-77507305D01*
X110370189Y-77722570D01*
X110346451Y-77944695D01*
X110346748Y-77949848D01*
X110346748Y-77949851D01*
X110352211Y-78044590D01*
X110359310Y-78167715D01*
X110360447Y-78172761D01*
X110360448Y-78172767D01*
X110380319Y-78260939D01*
X110408422Y-78385639D01*
X110492466Y-78592616D01*
X110609187Y-78783088D01*
X110755450Y-78951938D01*
X110927326Y-79094632D01*
X110962363Y-79115106D01*
X111000645Y-79137476D01*
X111049369Y-79189114D01*
X111062440Y-79258897D01*
X111035709Y-79324669D01*
X110995255Y-79358027D01*
X110982807Y-79364507D01*
X110978674Y-79367610D01*
X110978671Y-79367612D01*
X110820142Y-79486639D01*
X110804165Y-79498635D01*
X110649829Y-79660138D01*
X110523943Y-79844680D01*
X110499938Y-79896395D01*
X110459746Y-79982982D01*
X110429888Y-80047305D01*
X110370189Y-80262570D01*
X110346451Y-80484695D01*
X110359310Y-80707715D01*
X110360447Y-80712761D01*
X110360448Y-80712767D01*
X110384504Y-80819508D01*
X110408422Y-80925639D01*
X110492466Y-81132616D01*
X110609187Y-81323088D01*
X110755450Y-81491938D01*
X110759425Y-81495238D01*
X110759431Y-81495244D01*
X110764625Y-81499556D01*
X110804259Y-81558460D01*
X110805755Y-81629441D01*
X110768639Y-81689962D01*
X110728368Y-81714480D01*
X110621146Y-81754676D01*
X110605551Y-81763214D01*
X110503476Y-81839715D01*
X110490915Y-81852276D01*
X110414414Y-81954351D01*
X110405876Y-81969946D01*
X110360722Y-82090394D01*
X110357095Y-82105649D01*
X110351569Y-82156514D01*
X110351200Y-82163328D01*
X110351200Y-82785885D01*
X110355675Y-82801124D01*
X110357065Y-82802329D01*
X110364748Y-82804000D01*
X113049084Y-82804000D01*
X113069518Y-82798000D01*
X113140515Y-82798000D01*
X113194111Y-82829801D01*
X115108395Y-84744085D01*
X115142421Y-84806397D01*
X115145300Y-84833180D01*
X115145300Y-85745620D01*
X115125298Y-85813741D01*
X115108395Y-85834715D01*
X110537595Y-90405515D01*
X110475283Y-90439541D01*
X110404468Y-90434476D01*
X110347632Y-90391929D01*
X110322821Y-90325409D01*
X110322500Y-90316420D01*
X110322500Y-90214466D01*
X110315745Y-90152284D01*
X110264615Y-90015895D01*
X110177261Y-89899339D01*
X110060705Y-89811985D01*
X109924316Y-89760855D01*
X109862134Y-89754100D01*
X108865866Y-89754100D01*
X108803684Y-89760855D01*
X108667295Y-89811985D01*
X108550739Y-89899339D01*
X108463385Y-90015895D01*
X108412255Y-90152284D01*
X108405500Y-90214466D01*
X108405500Y-91110734D01*
X108412255Y-91172916D01*
X108463385Y-91309305D01*
X108550739Y-91425861D01*
X108557919Y-91431242D01*
X108660113Y-91507833D01*
X108660116Y-91507835D01*
X108667295Y-91513215D01*
X108690115Y-91521770D01*
X108746878Y-91564412D01*
X108771577Y-91630973D01*
X108771181Y-91643931D01*
X108771333Y-91643931D01*
X108771333Y-91652190D01*
X108770255Y-91660378D01*
X108771333Y-91668566D01*
X108774222Y-91690511D01*
X108775300Y-91706957D01*
X108775300Y-91947634D01*
X108755298Y-92015755D01*
X108701642Y-92062248D01*
X108631368Y-92072352D01*
X108599260Y-92063271D01*
X108561175Y-92046790D01*
X108561171Y-92046789D01*
X108555316Y-92044255D01*
X108549069Y-92042950D01*
X108549066Y-92042949D01*
X108369443Y-92005424D01*
X108369438Y-92005423D01*
X108364707Y-92004435D01*
X108358315Y-92004100D01*
X108215337Y-92004100D01*
X108146049Y-92011138D01*
X108076622Y-92018190D01*
X108076621Y-92018190D01*
X108070273Y-92018835D01*
X108013939Y-92036489D01*
X107890549Y-92075156D01*
X107890544Y-92075158D01*
X107884459Y-92077065D01*
X107814030Y-92116105D01*
X107719729Y-92168377D01*
X107719726Y-92168379D01*
X107714150Y-92171470D01*
X107709309Y-92175619D01*
X107709305Y-92175622D01*
X107571145Y-92294040D01*
X107566302Y-92298191D01*
X107446954Y-92452053D01*
X107360982Y-92626771D01*
X107359373Y-92632949D01*
X107359372Y-92632951D01*
X107320987Y-92780315D01*
X107311898Y-92815207D01*
X107307496Y-92899197D01*
X107302114Y-93001902D01*
X107301707Y-93009664D01*
X107330825Y-93202199D01*
X107333028Y-93208185D01*
X107333029Y-93208191D01*
X107395860Y-93378960D01*
X107395862Y-93378965D01*
X107398063Y-93384946D01*
X107433934Y-93442800D01*
X107457567Y-93480915D01*
X107500674Y-93550440D01*
X107505055Y-93555073D01*
X107505056Y-93555074D01*
X107551913Y-93604624D01*
X107634466Y-93691922D01*
X107639696Y-93695584D01*
X107639697Y-93695585D01*
X107727155Y-93756823D01*
X107793975Y-93803611D01*
X107799838Y-93806148D01*
X107966825Y-93878410D01*
X107966829Y-93878411D01*
X107972684Y-93880945D01*
X107978931Y-93882250D01*
X107978934Y-93882251D01*
X108158557Y-93919776D01*
X108158562Y-93919777D01*
X108163293Y-93920765D01*
X108169685Y-93921100D01*
X108312663Y-93921100D01*
X108381951Y-93914062D01*
X108451378Y-93907010D01*
X108451379Y-93907010D01*
X108457727Y-93906365D01*
X108538843Y-93880945D01*
X108637451Y-93850044D01*
X108637456Y-93850042D01*
X108643541Y-93848135D01*
X108730475Y-93799946D01*
X108808271Y-93756823D01*
X108808274Y-93756821D01*
X108813850Y-93753730D01*
X108818691Y-93749581D01*
X108818695Y-93749578D01*
X108956855Y-93631160D01*
X108961698Y-93627009D01*
X108979943Y-93603488D01*
X109037496Y-93561923D01*
X109108388Y-93558072D01*
X109170109Y-93593160D01*
X109203061Y-93656046D01*
X109205500Y-93680716D01*
X109205500Y-94210734D01*
X109212255Y-94272916D01*
X109263385Y-94409305D01*
X109350739Y-94525861D01*
X109467295Y-94613215D01*
X109603684Y-94664345D01*
X109665866Y-94671100D01*
X111012134Y-94671100D01*
X111074316Y-94664345D01*
X111210705Y-94613215D01*
X111327261Y-94525861D01*
X111414615Y-94409305D01*
X111465745Y-94272916D01*
X111472500Y-94210734D01*
X111472500Y-93214466D01*
X111465745Y-93152284D01*
X111414615Y-93015895D01*
X111415466Y-93015576D01*
X111401945Y-92953751D01*
X111414958Y-92909434D01*
X111414615Y-92909305D01*
X111416372Y-92904619D01*
X111416373Y-92904615D01*
X111465745Y-92772916D01*
X111472500Y-92710734D01*
X111472500Y-91958180D01*
X111492502Y-91890059D01*
X111509405Y-91869085D01*
X116279956Y-87098535D01*
X116342268Y-87064509D01*
X116413083Y-87069574D01*
X116469919Y-87112121D01*
X116494314Y-87174023D01*
X116498256Y-87210314D01*
X116549386Y-87346703D01*
X116636740Y-87463259D01*
X116753296Y-87550613D01*
X116889685Y-87601743D01*
X116951867Y-87608498D01*
X117648133Y-87608498D01*
X117710315Y-87601743D01*
X117846704Y-87550613D01*
X117949434Y-87473621D01*
X118015940Y-87448773D01*
X118085323Y-87463826D01*
X118100563Y-87473620D01*
X118119709Y-87487969D01*
X118164866Y-87521812D01*
X118207381Y-87578670D01*
X118215301Y-87622638D01*
X118215301Y-94863783D01*
X118214223Y-94880230D01*
X118210256Y-94910361D01*
X118211334Y-94918549D01*
X118215301Y-94948680D01*
X118215301Y-94948682D01*
X118228498Y-95048920D01*
X118230351Y-95062998D01*
X118233510Y-95070624D01*
X118260123Y-95134873D01*
X118260124Y-95134875D01*
X118277002Y-95175622D01*
X118289267Y-95205234D01*
X118294382Y-95211899D01*
X118294383Y-95211903D01*
X118294384Y-95211902D01*
X118382988Y-95327374D01*
X118389534Y-95332397D01*
X118389537Y-95332400D01*
X118407110Y-95345884D01*
X118419502Y-95356752D01*
X123531515Y-100468766D01*
X123565541Y-100531078D01*
X123568420Y-100557861D01*
X123568420Y-100940500D01*
X123548418Y-101008621D01*
X123494762Y-101055114D01*
X123442420Y-101066500D01*
X122674600Y-101066500D01*
X122671354Y-101066837D01*
X122671350Y-101066837D01*
X122575692Y-101076762D01*
X122575688Y-101076763D01*
X122568834Y-101077474D01*
X122562298Y-101079655D01*
X122562296Y-101079655D01*
X122482216Y-101106372D01*
X122401054Y-101133450D01*
X122250652Y-101226522D01*
X122125695Y-101351697D01*
X122121855Y-101357927D01*
X122121854Y-101357928D01*
X122042454Y-101486739D01*
X122032885Y-101502262D01*
X121977203Y-101670139D01*
X121966500Y-101774600D01*
X121966500Y-102389300D01*
X121946498Y-102457421D01*
X121892842Y-102503914D01*
X121840500Y-102515300D01*
X121288811Y-102515300D01*
X121220690Y-102495298D01*
X121174197Y-102441642D01*
X121162811Y-102389300D01*
X121162811Y-100304689D01*
X121163889Y-100288242D01*
X121166778Y-100266299D01*
X121167856Y-100258111D01*
X121162811Y-100219790D01*
X121149529Y-100118900D01*
X121148839Y-100113662D01*
X121147761Y-100105474D01*
X121128813Y-100059729D01*
X121092397Y-99971814D01*
X121088845Y-99963239D01*
X121088845Y-99963238D01*
X121038653Y-99897827D01*
X120995124Y-99841098D01*
X120988574Y-99836072D01*
X120988570Y-99836068D01*
X120971002Y-99822588D01*
X120958610Y-99811720D01*
X118938267Y-97791377D01*
X118927399Y-97778985D01*
X118913919Y-97761417D01*
X118908893Y-97754867D01*
X118831266Y-97695303D01*
X118786753Y-97661146D01*
X118745093Y-97643890D01*
X118644517Y-97602230D01*
X118636329Y-97601152D01*
X118530204Y-97587180D01*
X118530199Y-97587180D01*
X118491880Y-97582135D01*
X118483692Y-97583213D01*
X118461747Y-97586102D01*
X118445301Y-97587180D01*
X112568484Y-97587180D01*
X112552037Y-97586102D01*
X112530086Y-97583212D01*
X112521898Y-97582134D01*
X112513710Y-97583212D01*
X112496629Y-97585461D01*
X112369261Y-97602230D01*
X112227025Y-97661146D01*
X112172953Y-97702637D01*
X112104885Y-97754867D01*
X112099859Y-97761417D01*
X112099858Y-97761418D01*
X112086378Y-97778986D01*
X112075510Y-97791377D01*
X107819497Y-102047391D01*
X107807106Y-102058258D01*
X107782987Y-102076765D01*
X107723423Y-102154392D01*
X107700296Y-102184530D01*
X107700295Y-102184532D01*
X107689266Y-102198905D01*
X107689266Y-102198906D01*
X107630350Y-102341141D01*
X107615379Y-102454858D01*
X107610255Y-102493778D01*
X107611333Y-102501966D01*
X107614222Y-102523911D01*
X107615300Y-102540357D01*
X107615300Y-107637884D01*
X107595298Y-107706005D01*
X107541642Y-107752498D01*
X107536092Y-107754684D01*
X107533001Y-107756132D01*
X107526054Y-107758450D01*
X107375652Y-107851522D01*
X107250695Y-107976697D01*
X107246855Y-107982927D01*
X107246854Y-107982928D01*
X107182521Y-108087296D01*
X107157885Y-108127262D01*
X107155581Y-108134209D01*
X107104840Y-108287190D01*
X107102203Y-108295139D01*
X107091500Y-108399600D01*
X107091500Y-109400400D01*
X107091837Y-109403646D01*
X107091837Y-109403650D01*
X107098378Y-109466685D01*
X107102474Y-109506166D01*
X107158450Y-109673946D01*
X107251522Y-109824348D01*
X107376697Y-109949305D01*
X107382927Y-109953145D01*
X107382928Y-109953146D01*
X107520090Y-110037694D01*
X107527262Y-110042115D01*
X107605005Y-110067901D01*
X107688611Y-110095632D01*
X107688613Y-110095632D01*
X107695139Y-110097797D01*
X107701975Y-110098497D01*
X107701978Y-110098498D01*
X107735945Y-110101978D01*
X107799600Y-110108500D01*
X108600400Y-110108500D01*
X108603646Y-110108163D01*
X108603650Y-110108163D01*
X108699308Y-110098238D01*
X108699312Y-110098237D01*
X108706166Y-110097526D01*
X108712702Y-110095345D01*
X108712704Y-110095345D01*
X108844806Y-110051272D01*
X108873946Y-110041550D01*
X109024348Y-109948478D01*
X109110784Y-109861891D01*
X109173066Y-109827812D01*
X109243886Y-109832815D01*
X109288975Y-109861736D01*
X109348375Y-109921032D01*
X109376697Y-109949305D01*
X109382927Y-109953145D01*
X109382928Y-109953146D01*
X109520090Y-110037694D01*
X109527262Y-110042115D01*
X109605005Y-110067901D01*
X109688611Y-110095632D01*
X109688613Y-110095632D01*
X109695139Y-110097797D01*
X109701975Y-110098497D01*
X109701978Y-110098498D01*
X109735945Y-110101978D01*
X109799600Y-110108500D01*
X110600400Y-110108500D01*
X110603646Y-110108163D01*
X110603650Y-110108163D01*
X110699308Y-110098238D01*
X110699312Y-110098237D01*
X110706166Y-110097526D01*
X110712702Y-110095345D01*
X110712704Y-110095345D01*
X110844806Y-110051272D01*
X110873946Y-110041550D01*
X111024348Y-109948478D01*
X111149305Y-109823303D01*
X111174193Y-109782928D01*
X111238275Y-109678968D01*
X111238276Y-109678966D01*
X111242115Y-109672738D01*
X111286247Y-109539683D01*
X111292081Y-109522095D01*
X111667001Y-109522095D01*
X111667338Y-109528614D01*
X111677257Y-109624206D01*
X111680149Y-109637600D01*
X111731588Y-109791784D01*
X111737761Y-109804962D01*
X111823063Y-109942807D01*
X111832099Y-109954208D01*
X111946829Y-110068739D01*
X111958240Y-110077751D01*
X112096243Y-110162816D01*
X112109424Y-110168963D01*
X112263710Y-110220138D01*
X112277086Y-110223005D01*
X112371438Y-110232672D01*
X112377854Y-110233000D01*
X112490385Y-110233000D01*
X112505624Y-110228525D01*
X112506829Y-110227135D01*
X112508500Y-110219452D01*
X112508500Y-109272115D01*
X112504025Y-109256876D01*
X112502635Y-109255671D01*
X112494952Y-109254000D01*
X111685116Y-109254000D01*
X111669877Y-109258475D01*
X111668672Y-109259865D01*
X111667001Y-109267548D01*
X111667001Y-109522095D01*
X111292081Y-109522095D01*
X111295632Y-109511389D01*
X111295632Y-109511387D01*
X111297797Y-109504861D01*
X111300146Y-109481940D01*
X111303063Y-109453468D01*
X111308500Y-109400400D01*
X111308500Y-108757580D01*
X111328502Y-108689459D01*
X111382158Y-108642966D01*
X111434500Y-108631580D01*
X111544400Y-108631580D01*
X111612521Y-108651582D01*
X111659014Y-108705238D01*
X111665296Y-108722082D01*
X111671474Y-108743124D01*
X111672865Y-108744329D01*
X111680548Y-108746000D01*
X112890500Y-108746000D01*
X112958621Y-108766002D01*
X113005114Y-108819658D01*
X113016500Y-108872000D01*
X113016500Y-110214884D01*
X113020975Y-110230123D01*
X113022365Y-110231328D01*
X113030048Y-110232999D01*
X113147095Y-110232999D01*
X113153614Y-110232662D01*
X113249206Y-110222743D01*
X113262600Y-110219851D01*
X113416784Y-110168412D01*
X113429962Y-110162239D01*
X113567807Y-110076937D01*
X113579208Y-110067901D01*
X113693738Y-109953172D01*
X113700794Y-109944238D01*
X113758712Y-109903177D01*
X113829635Y-109899947D01*
X113891046Y-109935574D01*
X113897846Y-109943407D01*
X113901522Y-109949348D01*
X114026697Y-110074305D01*
X114032927Y-110078145D01*
X114032928Y-110078146D01*
X114170288Y-110162816D01*
X114177262Y-110167115D01*
X114244525Y-110189425D01*
X114338611Y-110220632D01*
X114338613Y-110220632D01*
X114345139Y-110222797D01*
X114351975Y-110223497D01*
X114351978Y-110223498D01*
X114395031Y-110227909D01*
X114449600Y-110233500D01*
X115191919Y-110233500D01*
X115260040Y-110253502D01*
X115281015Y-110270405D01*
X115890396Y-110879787D01*
X115924421Y-110942099D01*
X115927300Y-110968882D01*
X115927300Y-111310500D01*
X115907298Y-111378621D01*
X115853642Y-111425114D01*
X115801300Y-111436500D01*
X115701366Y-111436500D01*
X115639184Y-111443255D01*
X115502795Y-111494385D01*
X115386239Y-111581739D01*
X115380858Y-111588919D01*
X115380857Y-111588920D01*
X115345373Y-111636266D01*
X115288513Y-111678781D01*
X115228101Y-111685623D01*
X115202267Y-111682222D01*
X115202266Y-111682222D01*
X115194078Y-111681144D01*
X115185890Y-111682222D01*
X115163945Y-111685111D01*
X115147499Y-111686189D01*
X112355069Y-111686189D01*
X112286948Y-111666187D01*
X112254243Y-111635754D01*
X112219142Y-111588919D01*
X112213761Y-111581739D01*
X112097205Y-111494385D01*
X111960816Y-111443255D01*
X111898634Y-111436500D01*
X110277366Y-111436500D01*
X110215184Y-111443255D01*
X110078795Y-111494385D01*
X109962239Y-111581739D01*
X109956858Y-111588919D01*
X109903687Y-111659865D01*
X109846828Y-111702380D01*
X109802861Y-111710300D01*
X108714086Y-111710300D01*
X108697639Y-111709222D01*
X108675688Y-111706332D01*
X108667500Y-111705254D01*
X108514863Y-111725350D01*
X108372628Y-111784266D01*
X108299388Y-111840464D01*
X108233170Y-111866063D01*
X108222687Y-111866500D01*
X107474600Y-111866500D01*
X107471354Y-111866837D01*
X107471350Y-111866837D01*
X107375692Y-111876762D01*
X107375688Y-111876763D01*
X107368834Y-111877474D01*
X107362298Y-111879655D01*
X107362296Y-111879655D01*
X107320891Y-111893469D01*
X107201054Y-111933450D01*
X107050652Y-112026522D01*
X106925695Y-112151697D01*
X106921855Y-112157927D01*
X106921854Y-112157928D01*
X106844803Y-112282928D01*
X106832885Y-112302262D01*
X106830581Y-112309209D01*
X106791425Y-112427262D01*
X106777203Y-112470139D01*
X106776503Y-112476975D01*
X106776502Y-112476978D01*
X106769340Y-112546882D01*
X106742499Y-112612609D01*
X106684384Y-112653391D01*
X106613446Y-112656279D01*
X106552207Y-112620357D01*
X106520111Y-112557030D01*
X106517996Y-112534039D01*
X106517996Y-99295465D01*
X106537998Y-99227344D01*
X106591654Y-99180851D01*
X106657610Y-99170203D01*
X106660713Y-99170540D01*
X106662468Y-99170731D01*
X106662470Y-99170731D01*
X106665866Y-99171100D01*
X107662134Y-99171100D01*
X107724316Y-99164345D01*
X107860705Y-99113215D01*
X107977261Y-99025861D01*
X108064615Y-98909305D01*
X108115745Y-98772916D01*
X108122500Y-98710734D01*
X108122500Y-97814466D01*
X108115745Y-97752284D01*
X108064615Y-97615895D01*
X107977261Y-97499339D01*
X107860705Y-97411985D01*
X107724316Y-97360855D01*
X107662134Y-97354100D01*
X106665866Y-97354100D01*
X106662470Y-97354469D01*
X106662468Y-97354469D01*
X106660713Y-97354660D01*
X106657610Y-97354997D01*
X106587728Y-97342473D01*
X106535709Y-97294155D01*
X106517996Y-97229735D01*
X106517996Y-96009664D01*
X107301707Y-96009664D01*
X107330825Y-96202199D01*
X107333028Y-96208185D01*
X107333029Y-96208191D01*
X107395860Y-96378960D01*
X107395862Y-96378965D01*
X107398063Y-96384946D01*
X107401425Y-96390368D01*
X107491103Y-96535003D01*
X107500674Y-96550440D01*
X107505055Y-96555073D01*
X107505056Y-96555074D01*
X107568318Y-96621972D01*
X107634466Y-96691922D01*
X107793975Y-96803611D01*
X107799838Y-96806148D01*
X107966825Y-96878410D01*
X107966829Y-96878411D01*
X107972684Y-96880945D01*
X107978931Y-96882250D01*
X107978934Y-96882251D01*
X108158557Y-96919776D01*
X108158562Y-96919777D01*
X108163293Y-96920765D01*
X108169685Y-96921100D01*
X108312663Y-96921100D01*
X108381951Y-96914062D01*
X108451378Y-96907010D01*
X108451379Y-96907010D01*
X108457727Y-96906365D01*
X108538843Y-96880945D01*
X108637451Y-96850044D01*
X108637456Y-96850042D01*
X108643541Y-96848135D01*
X108730475Y-96799946D01*
X108808271Y-96756823D01*
X108808274Y-96756821D01*
X108813850Y-96753730D01*
X108818691Y-96749581D01*
X108818695Y-96749578D01*
X108956855Y-96631160D01*
X108961698Y-96627009D01*
X108979943Y-96603488D01*
X109037496Y-96561923D01*
X109108388Y-96558072D01*
X109170109Y-96593160D01*
X109203061Y-96656046D01*
X109205500Y-96680716D01*
X109205500Y-97210734D01*
X109205869Y-97214129D01*
X109205869Y-97214133D01*
X109205909Y-97214500D01*
X109205894Y-97214586D01*
X109206053Y-97217528D01*
X109205359Y-97217566D01*
X109193376Y-97284382D01*
X109145052Y-97336395D01*
X109080645Y-97354100D01*
X108865866Y-97354100D01*
X108803684Y-97360855D01*
X108667295Y-97411985D01*
X108550739Y-97499339D01*
X108463385Y-97615895D01*
X108412255Y-97752284D01*
X108405500Y-97814466D01*
X108405500Y-98710734D01*
X108412255Y-98772916D01*
X108463385Y-98909305D01*
X108550739Y-99025861D01*
X108667295Y-99113215D01*
X108803684Y-99164345D01*
X108865866Y-99171100D01*
X109862134Y-99171100D01*
X109924316Y-99164345D01*
X110060705Y-99113215D01*
X110177261Y-99025861D01*
X110264615Y-98909305D01*
X110315745Y-98772916D01*
X110322500Y-98710734D01*
X110322500Y-97814466D01*
X110322091Y-97810700D01*
X110322106Y-97810614D01*
X110321947Y-97807672D01*
X110322641Y-97807634D01*
X110334624Y-97740818D01*
X110382948Y-97688805D01*
X110447355Y-97671100D01*
X111012134Y-97671100D01*
X111074316Y-97664345D01*
X111210705Y-97613215D01*
X111327261Y-97525861D01*
X111414615Y-97409305D01*
X111465745Y-97272916D01*
X111472500Y-97210734D01*
X111472500Y-96214466D01*
X111465745Y-96152284D01*
X111414615Y-96015895D01*
X111327261Y-95899339D01*
X111210705Y-95811985D01*
X111074316Y-95760855D01*
X111012134Y-95754100D01*
X109665866Y-95754100D01*
X109603684Y-95760855D01*
X109467295Y-95811985D01*
X109443042Y-95830162D01*
X109405397Y-95858375D01*
X109338891Y-95883223D01*
X109269508Y-95868170D01*
X109219278Y-95817996D01*
X109205249Y-95776390D01*
X109198130Y-95729315D01*
X109198130Y-95729314D01*
X109197175Y-95723001D01*
X109194972Y-95717015D01*
X109194971Y-95717009D01*
X109132140Y-95546240D01*
X109132138Y-95546235D01*
X109129937Y-95540254D01*
X109027326Y-95374760D01*
X109004770Y-95350907D01*
X108897919Y-95237915D01*
X108893534Y-95233278D01*
X108871391Y-95217773D01*
X108752999Y-95134875D01*
X108734025Y-95121589D01*
X108686013Y-95100812D01*
X108561175Y-95046790D01*
X108561171Y-95046789D01*
X108555316Y-95044255D01*
X108549069Y-95042950D01*
X108549066Y-95042949D01*
X108369443Y-95005424D01*
X108369438Y-95005423D01*
X108364707Y-95004435D01*
X108358315Y-95004100D01*
X108215337Y-95004100D01*
X108146049Y-95011138D01*
X108076622Y-95018190D01*
X108076621Y-95018190D01*
X108070273Y-95018835D01*
X108039132Y-95028594D01*
X107890549Y-95075156D01*
X107890544Y-95075158D01*
X107884459Y-95077065D01*
X107808713Y-95119052D01*
X107719729Y-95168377D01*
X107719726Y-95168379D01*
X107714150Y-95171470D01*
X107709309Y-95175619D01*
X107709305Y-95175622D01*
X107576662Y-95289311D01*
X107566302Y-95298191D01*
X107562391Y-95303233D01*
X107562390Y-95303234D01*
X107529307Y-95345884D01*
X107446954Y-95452053D01*
X107444138Y-95457776D01*
X107444136Y-95457779D01*
X107400608Y-95546240D01*
X107360982Y-95626771D01*
X107359373Y-95632949D01*
X107359372Y-95632951D01*
X107315839Y-95800079D01*
X107311898Y-95815207D01*
X107307771Y-95893958D01*
X107304657Y-95953382D01*
X107301707Y-96009664D01*
X106517996Y-96009664D01*
X106517996Y-91695465D01*
X106537998Y-91627344D01*
X106591654Y-91580851D01*
X106657610Y-91570203D01*
X106660713Y-91570540D01*
X106662468Y-91570731D01*
X106662470Y-91570731D01*
X106665866Y-91571100D01*
X107662134Y-91571100D01*
X107724316Y-91564345D01*
X107860705Y-91513215D01*
X107977261Y-91425861D01*
X108064615Y-91309305D01*
X108115745Y-91172916D01*
X108122500Y-91110734D01*
X108122500Y-90214466D01*
X108115745Y-90152284D01*
X108064615Y-90015895D01*
X107977261Y-89899339D01*
X107860705Y-89811985D01*
X107724316Y-89760855D01*
X107662134Y-89754100D01*
X106665866Y-89754100D01*
X106662470Y-89754469D01*
X106662468Y-89754469D01*
X106660713Y-89754660D01*
X106657610Y-89754997D01*
X106587728Y-89742473D01*
X106535709Y-89694155D01*
X106517996Y-89629735D01*
X106517996Y-83952669D01*
X110351201Y-83952669D01*
X110351571Y-83959490D01*
X110357095Y-84010352D01*
X110360721Y-84025604D01*
X110405876Y-84146054D01*
X110414414Y-84161649D01*
X110490915Y-84263724D01*
X110503476Y-84276285D01*
X110605551Y-84352786D01*
X110621146Y-84361324D01*
X110741594Y-84406478D01*
X110756849Y-84410105D01*
X110807714Y-84415631D01*
X110814528Y-84416000D01*
X111437085Y-84416000D01*
X111452324Y-84411525D01*
X111453529Y-84410135D01*
X111455200Y-84402452D01*
X111455200Y-84397884D01*
X111963200Y-84397884D01*
X111967675Y-84413123D01*
X111969065Y-84414328D01*
X111976748Y-84415999D01*
X112603869Y-84415999D01*
X112610690Y-84415629D01*
X112661552Y-84410105D01*
X112676804Y-84406479D01*
X112797254Y-84361324D01*
X112812849Y-84352786D01*
X112914924Y-84276285D01*
X112927485Y-84263724D01*
X113003986Y-84161649D01*
X113012524Y-84146054D01*
X113057678Y-84025606D01*
X113061305Y-84010351D01*
X113066831Y-83959486D01*
X113067200Y-83952672D01*
X113067200Y-83330115D01*
X113062725Y-83314876D01*
X113061335Y-83313671D01*
X113053652Y-83312000D01*
X111981315Y-83312000D01*
X111966076Y-83316475D01*
X111964871Y-83317865D01*
X111963200Y-83325548D01*
X111963200Y-84397884D01*
X111455200Y-84397884D01*
X111455200Y-83330115D01*
X111450725Y-83314876D01*
X111449335Y-83313671D01*
X111441652Y-83312000D01*
X110369316Y-83312000D01*
X110354077Y-83316475D01*
X110352872Y-83317865D01*
X110351201Y-83325548D01*
X110351201Y-83952669D01*
X106517996Y-83952669D01*
X106517996Y-68228887D01*
X144702111Y-68228887D01*
X144702441Y-68232235D01*
X144702441Y-68232245D01*
X144713860Y-68348254D01*
X144736078Y-68573986D01*
X144736768Y-68577297D01*
X144736768Y-68577298D01*
X144785825Y-68812743D01*
X144806810Y-68913462D01*
X144913494Y-69243410D01*
X144914873Y-69246497D01*
X145053523Y-69556943D01*
X145053527Y-69556951D01*
X145054904Y-69560034D01*
X145229411Y-69859691D01*
X145231421Y-69862421D01*
X145231423Y-69862424D01*
X145317840Y-69979795D01*
X145435009Y-70138934D01*
X145669332Y-70394551D01*
X145929684Y-70623601D01*
X145932431Y-70625538D01*
X145932432Y-70625539D01*
X145976900Y-70656898D01*
X146213071Y-70823448D01*
X146216018Y-70825084D01*
X146216022Y-70825087D01*
X146273350Y-70856921D01*
X146516232Y-70991794D01*
X146519347Y-70993110D01*
X146519348Y-70993110D01*
X146832561Y-71125386D01*
X146832564Y-71125387D01*
X146835680Y-71126703D01*
X146838913Y-71127676D01*
X146838919Y-71127678D01*
X146947795Y-71160439D01*
X147167739Y-71226621D01*
X147508590Y-71290401D01*
X147511969Y-71290664D01*
X147824547Y-71314991D01*
X147832373Y-71316047D01*
X147836980Y-71316572D01*
X147841764Y-71317495D01*
X147848217Y-71317729D01*
X147849428Y-71317773D01*
X147849433Y-71317773D01*
X147854296Y-71317949D01*
X147879198Y-71314991D01*
X147888586Y-71313876D01*
X147903858Y-71312997D01*
X157047588Y-71342717D01*
X157066200Y-71344160D01*
X157087018Y-71347339D01*
X157091837Y-71348075D01*
X157096709Y-71348061D01*
X157096714Y-71348061D01*
X157098130Y-71348056D01*
X157104377Y-71348038D01*
X157109146Y-71347281D01*
X157110030Y-71347215D01*
X157453036Y-71323463D01*
X157453041Y-71323462D01*
X157456426Y-71323228D01*
X157459761Y-71322631D01*
X157459768Y-71322630D01*
X157648462Y-71288844D01*
X157803800Y-71261031D01*
X158142443Y-71161738D01*
X158145569Y-71160441D01*
X158145575Y-71160439D01*
X158465265Y-71027811D01*
X158465267Y-71027810D01*
X158468403Y-71026509D01*
X158628915Y-70938552D01*
X158774888Y-70858562D01*
X158774893Y-70858559D01*
X158777882Y-70856921D01*
X158823495Y-70825087D01*
X159064479Y-70656898D01*
X159064480Y-70656897D01*
X159067270Y-70654950D01*
X159105750Y-70621379D01*
X159330633Y-70425185D01*
X159330638Y-70425181D01*
X159333192Y-70422952D01*
X159357346Y-70396784D01*
X159570230Y-70166143D01*
X159572547Y-70163633D01*
X159782545Y-69880017D01*
X159960736Y-69575410D01*
X160105043Y-69253365D01*
X160213782Y-68917637D01*
X160234077Y-68820123D01*
X160284993Y-68575470D01*
X160285686Y-68572141D01*
X160286016Y-68568757D01*
X160319587Y-68224296D01*
X160319587Y-68224291D01*
X160319917Y-68220907D01*
X160317374Y-67987365D01*
X160316111Y-67871419D01*
X160316111Y-67871417D01*
X160316074Y-67868029D01*
X160274204Y-67517623D01*
X160266644Y-67484886D01*
X160195561Y-67177101D01*
X160194793Y-67173775D01*
X160078769Y-66840495D01*
X159927483Y-66521669D01*
X159742701Y-66221015D01*
X159658974Y-66112939D01*
X159528662Y-65944729D01*
X159528659Y-65944726D01*
X159526577Y-65942038D01*
X159523023Y-65938352D01*
X159283997Y-65690445D01*
X159283989Y-65690437D01*
X159281632Y-65687993D01*
X159010721Y-65461841D01*
X159007899Y-65459962D01*
X159007893Y-65459957D01*
X158719836Y-65268107D01*
X158717003Y-65266220D01*
X158713994Y-65264655D01*
X158713985Y-65264650D01*
X158406917Y-65104977D01*
X158406914Y-65104976D01*
X158403905Y-65103411D01*
X158075077Y-64975312D01*
X158071798Y-64974428D01*
X158071790Y-64974425D01*
X157737635Y-64884302D01*
X157737632Y-64884301D01*
X157734353Y-64883417D01*
X157731009Y-64882893D01*
X157730999Y-64882891D01*
X157389065Y-64829325D01*
X157389064Y-64829325D01*
X157385707Y-64828799D01*
X157382316Y-64828638D01*
X157382313Y-64828638D01*
X157061219Y-64813421D01*
X157055403Y-64812816D01*
X157055395Y-64812910D01*
X157050553Y-64812508D01*
X157045740Y-64811731D01*
X157039429Y-64811696D01*
X157038071Y-64811688D01*
X157038069Y-64811688D01*
X157033201Y-64811661D01*
X157028383Y-64812384D01*
X157028380Y-64812384D01*
X157009323Y-64815243D01*
X156990005Y-64816636D01*
X155923679Y-64811330D01*
X155552994Y-64809486D01*
X155484974Y-64789146D01*
X155438748Y-64735259D01*
X155431683Y-64715223D01*
X155404012Y-64608901D01*
X155403136Y-64605535D01*
X155282044Y-64288744D01*
X155126757Y-63987238D01*
X154939168Y-63704694D01*
X154760964Y-63491659D01*
X154723794Y-63447224D01*
X154723790Y-63447220D01*
X154721566Y-63444561D01*
X154476605Y-63210010D01*
X154252199Y-63038282D01*
X154210037Y-63006017D01*
X154210035Y-63006016D01*
X154207273Y-63003902D01*
X154204294Y-63002105D01*
X154204289Y-63002102D01*
X153919843Y-62830554D01*
X153919842Y-62830554D01*
X153916855Y-62828752D01*
X153860705Y-62802851D01*
X153612066Y-62688159D01*
X153612063Y-62688158D01*
X153608894Y-62686696D01*
X153287146Y-62579466D01*
X153283739Y-62578736D01*
X153283737Y-62578735D01*
X152958941Y-62509101D01*
X152958937Y-62509100D01*
X152955535Y-62508371D01*
X152952082Y-62508022D01*
X152952075Y-62508021D01*
X152764184Y-62489038D01*
X152618107Y-62474279D01*
X152614629Y-62474313D01*
X152614627Y-62474313D01*
X152422754Y-62476194D01*
X152278977Y-62477603D01*
X152074449Y-62502328D01*
X151945738Y-62517887D01*
X151945734Y-62517888D01*
X151942282Y-62518305D01*
X151777480Y-62557032D01*
X151615519Y-62595091D01*
X151615513Y-62595093D01*
X151612129Y-62595888D01*
X151608844Y-62597055D01*
X151356478Y-62686696D01*
X151292545Y-62709405D01*
X151289405Y-62710929D01*
X150993293Y-62854626D01*
X150987428Y-62857472D01*
X150984482Y-62859328D01*
X150984481Y-62859329D01*
X150703446Y-63036425D01*
X150703439Y-63036430D01*
X150700500Y-63038282D01*
X150435260Y-63249631D01*
X150194945Y-63488939D01*
X149982485Y-63753289D01*
X149800472Y-64039456D01*
X149651126Y-64343949D01*
X149536269Y-64663054D01*
X149535462Y-64666423D01*
X149535460Y-64666431D01*
X149513011Y-64760194D01*
X149477697Y-64821785D01*
X149414690Y-64854506D01*
X149390472Y-64856855D01*
X148885028Y-64856839D01*
X147968098Y-64856809D01*
X147947896Y-64855178D01*
X147931131Y-64852454D01*
X147931124Y-64852453D01*
X147926327Y-64851674D01*
X147920057Y-64851633D01*
X147918651Y-64851623D01*
X147918648Y-64851623D01*
X147913787Y-64851591D01*
X147908977Y-64852307D01*
X147904712Y-64852609D01*
X147901036Y-64852991D01*
X147835865Y-64856858D01*
X147570998Y-64872575D01*
X147570992Y-64872576D01*
X147567633Y-64872775D01*
X147564311Y-64873334D01*
X147564307Y-64873334D01*
X147499075Y-64884302D01*
X147225666Y-64930272D01*
X147068509Y-64974425D01*
X146895077Y-65023150D01*
X146895071Y-65023152D01*
X146891825Y-65024064D01*
X146888693Y-65025319D01*
X146888688Y-65025321D01*
X146573092Y-65151812D01*
X146573088Y-65151814D01*
X146569949Y-65153072D01*
X146566958Y-65154661D01*
X146566955Y-65154663D01*
X146266726Y-65314227D01*
X146263742Y-65315813D01*
X145976726Y-65510412D01*
X145974148Y-65512597D01*
X145974147Y-65512598D01*
X145750387Y-65702267D01*
X145712203Y-65734633D01*
X145645351Y-65804919D01*
X145507393Y-65949964D01*
X145473217Y-65985895D01*
X145471163Y-65988580D01*
X145471162Y-65988581D01*
X145293342Y-66221015D01*
X145262516Y-66261308D01*
X145260760Y-66264199D01*
X145260757Y-66264204D01*
X145104408Y-66521669D01*
X145082525Y-66557704D01*
X144935314Y-66871673D01*
X144822577Y-67199602D01*
X144745611Y-67537719D01*
X144745220Y-67541058D01*
X144745219Y-67541065D01*
X144738750Y-67596340D01*
X144705301Y-67882135D01*
X144702111Y-68228887D01*
X106517996Y-68228887D01*
X106517996Y-63472748D01*
X106518345Y-63463381D01*
X106528543Y-63326583D01*
X106531280Y-63308233D01*
X106556403Y-63196827D01*
X106561538Y-63179780D01*
X106604238Y-63067495D01*
X106611219Y-63052271D01*
X106673040Y-62938158D01*
X106681266Y-62924983D01*
X106703134Y-62894342D01*
X106763640Y-62809558D01*
X106772582Y-62798424D01*
X106876338Y-62683238D01*
X106885602Y-62673971D01*
X106885872Y-62673728D01*
X107010887Y-62561069D01*
X107020199Y-62553453D01*
X107166523Y-62445049D01*
X107175787Y-62438804D01*
X107342128Y-62337093D01*
X107351268Y-62332013D01*
X107370433Y-62322379D01*
X107536368Y-62238967D01*
X107545340Y-62234889D01*
X107653620Y-62190705D01*
X107747719Y-62152308D01*
X107756564Y-62149079D01*
X107974610Y-62078587D01*
X107983337Y-62076108D01*
X108215487Y-62019133D01*
X108224122Y-62017333D01*
X108468648Y-61975211D01*
X108477226Y-61974035D01*
X108732592Y-61947948D01*
X108741146Y-61947368D01*
X109016451Y-61938072D01*
X109020703Y-61938000D01*
X195999295Y-61938000D01*
X196003547Y-61938072D01*
G37*
G04 #@! TD.AperFunction*
G04 #@! TA.AperFunction,Conductor*
G36*
X114744862Y-98776582D02*
G01*
X114791355Y-98830238D01*
X114796011Y-98842722D01*
X114797865Y-98844329D01*
X114805548Y-98846000D01*
X116028000Y-98846000D01*
X116096121Y-98866002D01*
X116142614Y-98919658D01*
X116154000Y-98972000D01*
X116154000Y-100289884D01*
X116158475Y-100305123D01*
X116159865Y-100306328D01*
X116167548Y-100307999D01*
X116297095Y-100307999D01*
X116303614Y-100307662D01*
X116399206Y-100297743D01*
X116412600Y-100294851D01*
X116566784Y-100243412D01*
X116579962Y-100237239D01*
X116717807Y-100151937D01*
X116729208Y-100142901D01*
X116810430Y-100061538D01*
X116872713Y-100027459D01*
X116943533Y-100032462D01*
X116988620Y-100061383D01*
X117071512Y-100144130D01*
X117071517Y-100144134D01*
X117076697Y-100149305D01*
X117082927Y-100153145D01*
X117082928Y-100153146D01*
X117220288Y-100237816D01*
X117227262Y-100242115D01*
X117250803Y-100249923D01*
X117388607Y-100295631D01*
X117388612Y-100295632D01*
X117395139Y-100297797D01*
X117395904Y-100297875D01*
X117456241Y-100330590D01*
X117490451Y-100392801D01*
X117493411Y-100419950D01*
X117493411Y-101190500D01*
X117473409Y-101258621D01*
X117419753Y-101305114D01*
X117367411Y-101316500D01*
X116601866Y-101316500D01*
X116539684Y-101323255D01*
X116403295Y-101374385D01*
X116286739Y-101461739D01*
X116281357Y-101468920D01*
X116246923Y-101514865D01*
X116190063Y-101557380D01*
X116146097Y-101565300D01*
X113485166Y-101565300D01*
X113417045Y-101545298D01*
X113384339Y-101514864D01*
X113377913Y-101506289D01*
X113363261Y-101486739D01*
X113246705Y-101399385D01*
X113110316Y-101348255D01*
X113048134Y-101341500D01*
X111551866Y-101341500D01*
X111489684Y-101348255D01*
X111353295Y-101399385D01*
X111236739Y-101486739D01*
X111235813Y-101487974D01*
X111176783Y-101520208D01*
X111105968Y-101515143D01*
X111064645Y-101488586D01*
X111063261Y-101486739D01*
X110946705Y-101399385D01*
X110810316Y-101348255D01*
X110748134Y-101341500D01*
X110483358Y-101341500D01*
X110415237Y-101321498D01*
X110368744Y-101267842D01*
X110358640Y-101197568D01*
X110388134Y-101132988D01*
X110394263Y-101126405D01*
X111488207Y-100032462D01*
X111923574Y-99597095D01*
X114792001Y-99597095D01*
X114792338Y-99603614D01*
X114802257Y-99699206D01*
X114805149Y-99712600D01*
X114856588Y-99866784D01*
X114862761Y-99879962D01*
X114948063Y-100017807D01*
X114957099Y-100029208D01*
X115071829Y-100143739D01*
X115083240Y-100152751D01*
X115221243Y-100237816D01*
X115234424Y-100243963D01*
X115388710Y-100295138D01*
X115402086Y-100298005D01*
X115496438Y-100307672D01*
X115502854Y-100308000D01*
X115627885Y-100308000D01*
X115643124Y-100303525D01*
X115644329Y-100302135D01*
X115646000Y-100294452D01*
X115646000Y-99372115D01*
X115641525Y-99356876D01*
X115640135Y-99355671D01*
X115632452Y-99354000D01*
X114810116Y-99354000D01*
X114794877Y-99358475D01*
X114793672Y-99359865D01*
X114792001Y-99367548D01*
X114792001Y-99597095D01*
X111923574Y-99597095D01*
X112727184Y-98793485D01*
X112789496Y-98759459D01*
X112816279Y-98756580D01*
X114676741Y-98756580D01*
X114744862Y-98776582D01*
G37*
G04 #@! TD.AperFunction*
G04 #@! TA.AperFunction,Conductor*
G36*
X121249442Y-83803120D02*
G01*
X121282728Y-83865830D01*
X121285300Y-83891157D01*
X121285300Y-85193138D01*
X121265298Y-85261259D01*
X121211642Y-85307752D01*
X121141368Y-85317856D01*
X121076788Y-85288362D01*
X121048781Y-85253648D01*
X121044789Y-85246357D01*
X120968284Y-85144276D01*
X120955723Y-85131715D01*
X120853648Y-85055214D01*
X120838053Y-85046676D01*
X120717605Y-85001522D01*
X120702350Y-84997895D01*
X120651485Y-84992369D01*
X120644671Y-84992000D01*
X120572115Y-84992000D01*
X120556876Y-84996475D01*
X120555671Y-84997865D01*
X120554000Y-85005548D01*
X120554000Y-87589882D01*
X120558475Y-87605121D01*
X120559865Y-87606326D01*
X120567548Y-87607997D01*
X120644668Y-87607997D01*
X120651489Y-87607627D01*
X120702351Y-87602103D01*
X120717603Y-87598477D01*
X120838053Y-87553322D01*
X120853648Y-87544784D01*
X120955723Y-87468283D01*
X120968284Y-87455722D01*
X121044789Y-87353641D01*
X121048781Y-87346350D01*
X121099040Y-87296204D01*
X121168431Y-87281191D01*
X121234923Y-87306077D01*
X121277405Y-87362961D01*
X121285300Y-87406860D01*
X121285300Y-96264580D01*
X121265298Y-96332701D01*
X121211642Y-96379194D01*
X121141368Y-96389298D01*
X121076788Y-96359804D01*
X121070205Y-96353675D01*
X119421606Y-94705076D01*
X119387580Y-94642764D01*
X119384701Y-94615981D01*
X119384701Y-87622638D01*
X119404703Y-87554517D01*
X119435136Y-87521812D01*
X119499854Y-87473309D01*
X119566359Y-87448461D01*
X119635742Y-87463514D01*
X119650983Y-87473309D01*
X119746352Y-87544784D01*
X119761947Y-87553322D01*
X119882395Y-87598476D01*
X119897650Y-87602103D01*
X119948515Y-87607629D01*
X119955329Y-87607998D01*
X120027885Y-87607998D01*
X120043124Y-87603523D01*
X120044329Y-87602133D01*
X120046000Y-87594450D01*
X120046000Y-85046926D01*
X120066002Y-84978805D01*
X120082905Y-84957831D01*
X120163261Y-84877475D01*
X120232176Y-84791957D01*
X120292919Y-84658948D01*
X120313729Y-84514214D01*
X120313729Y-84110700D01*
X120333731Y-84042579D01*
X120387387Y-83996086D01*
X120439729Y-83984700D01*
X120593782Y-83984700D01*
X120610229Y-83985778D01*
X120640360Y-83989745D01*
X120678679Y-83984700D01*
X120678684Y-83984700D01*
X120784809Y-83970728D01*
X120792997Y-83969650D01*
X120894273Y-83927700D01*
X120935233Y-83910734D01*
X121009300Y-83853900D01*
X121057373Y-83817013D01*
X121062400Y-83810462D01*
X121068242Y-83804620D01*
X121070169Y-83806547D01*
X121116665Y-83772589D01*
X121187536Y-83768361D01*
X121249442Y-83803120D01*
G37*
G04 #@! TD.AperFunction*
M02*
