G04 #@! TF.GenerationSoftware,KiCad,Pcbnew,(6.0.0)*
G04 #@! TF.CreationDate,2022-05-24T10:02:23+02:00*
G04 #@! TF.ProjectId,drawing.kicad_v3.0_pcb,64726177-696e-4672-9e6b-696361645f76,v2.2*
G04 #@! TF.SameCoordinates,Original*
G04 #@! TF.FileFunction,Legend,Top*
G04 #@! TF.FilePolarity,Positive*
%FSLAX46Y46*%
G04 Gerber Fmt 4.6, Leading zero omitted, Abs format (unit mm)*
G04 Created by KiCad (PCBNEW (6.0.0)) date 2022-05-24 10:02:23*
%MOMM*%
%LPD*%
G01*
G04 APERTURE LIST*
G04 Aperture macros list*
%AMRoundRect*
0 Rectangle with rounded corners*
0 $1 Rounding radius*
0 $2 $3 $4 $5 $6 $7 $8 $9 X,Y pos of 4 corners*
0 Add a 4 corners polygon primitive as box body*
4,1,4,$2,$3,$4,$5,$6,$7,$8,$9,$2,$3,0*
0 Add four circle primitives for the rounded corners*
1,1,$1+$1,$2,$3*
1,1,$1+$1,$4,$5*
1,1,$1+$1,$6,$7*
1,1,$1+$1,$8,$9*
0 Add four rect primitives between the rounded corners*
20,1,$1+$1,$2,$3,$4,$5,0*
20,1,$1+$1,$4,$5,$6,$7,0*
20,1,$1+$1,$6,$7,$8,$9,0*
20,1,$1+$1,$8,$9,$2,$3,0*%
G04 Aperture macros list end*
%ADD10C,0.200000*%
%ADD11C,0.100000*%
%ADD12C,0.150000*%
%ADD13C,0.120000*%
%ADD14RoundRect,0.300800X-0.151491X-0.534018X0.459309X-0.311705X0.151491X0.534018X-0.459309X0.311705X0*%
%ADD15RoundRect,0.300800X-0.197457X-0.518783X0.430394X-0.350550X0.197457X0.518783X-0.430394X0.350550X0*%
%ADD16RoundRect,0.300800X0.227211X-0.506458X0.552211X0.056458X-0.227211X0.506458X-0.552211X-0.056458X0*%
%ADD17RoundRect,0.300800X-0.325000X-0.450000X0.325000X-0.450000X0.325000X0.450000X-0.325000X0.450000X0*%
%ADD18RoundRect,0.300800X0.450000X-0.350000X0.450000X0.350000X-0.450000X0.350000X-0.450000X-0.350000X0*%
%ADD19RoundRect,0.050800X0.850000X0.850000X-0.850000X0.850000X-0.850000X-0.850000X0.850000X-0.850000X0*%
%ADD20O,1.801600X1.801600*%
%ADD21RoundRect,0.050800X0.775000X0.650000X-0.775000X0.650000X-0.775000X-0.650000X0.775000X-0.650000X0*%
%ADD22RoundRect,0.300800X-0.350000X-0.450000X0.350000X-0.450000X0.350000X0.450000X-0.350000X0.450000X0*%
%ADD23O,1.351600X1.051600*%
%ADD24O,1.101600X1.651600*%
%ADD25C,1.001600*%
%ADD26RoundRect,0.050800X-0.800000X0.800000X-0.800000X-0.800000X0.800000X-0.800000X0.800000X0.800000X0*%
%ADD27C,1.701600*%
%ADD28RoundRect,0.050800X-0.850000X0.850000X-0.850000X-0.850000X0.850000X-0.850000X0.850000X0.850000X0*%
%ADD29RoundRect,0.050800X-0.850000X-0.850000X0.850000X-0.850000X0.850000X0.850000X-0.850000X0.850000X0*%
G04 APERTURE END LIST*
D10*
X110392413Y-66182059D02*
X110291556Y-66118347D01*
X124649944Y-65420474D02*
X124649944Y-65638501D01*
X127884374Y-64602273D02*
X127744419Y-64438273D01*
X127736082Y-64231523D01*
X127808412Y-64101372D01*
X126804665Y-113433072D02*
X126896019Y-113612255D01*
X127003377Y-113783145D01*
X127129501Y-113948021D01*
X127277157Y-114109160D01*
X127449106Y-114268843D01*
X127648114Y-114429348D01*
X127876942Y-114592954D01*
X128047427Y-114704873D01*
X128233212Y-114819859D01*
X128435117Y-114938585D01*
X128653961Y-115061729D01*
X128890563Y-115189964D01*
X129015779Y-115256203D01*
X113627906Y-66518252D02*
X113472028Y-66660013D01*
X113349813Y-66729183D01*
X149918191Y-95499039D02*
X149726593Y-95410860D01*
X149538975Y-95333338D01*
X149350037Y-95265513D01*
X149187219Y-95225061D01*
X124405241Y-109985659D02*
X124648098Y-109672895D01*
X124897209Y-109367334D01*
X125152449Y-109069049D01*
X125413692Y-108778114D01*
X125680813Y-108494604D01*
X125953687Y-108218593D01*
X126232189Y-107950155D01*
X126516192Y-107689364D01*
X126805572Y-107436294D01*
X127100204Y-107191020D01*
X127399962Y-106953615D01*
X127704720Y-106724154D01*
X128014354Y-106502712D01*
X128328738Y-106289362D01*
X128647746Y-106084178D01*
X128971255Y-105887234D01*
X129299137Y-105698606D01*
X129631268Y-105518366D01*
X129967522Y-105346590D01*
X130307775Y-105183351D01*
X130651901Y-105028723D01*
X130999774Y-104882782D01*
X131351269Y-104745600D01*
X131706261Y-104617252D01*
X132064625Y-104497812D01*
X132426234Y-104387355D01*
X132790965Y-104285954D01*
X133158691Y-104193684D01*
X133529288Y-104110620D01*
X133902629Y-104036834D01*
X134278590Y-103972401D01*
X134657046Y-103917397D01*
X121737352Y-68072177D02*
X121521799Y-68025379D01*
X121314851Y-67947432D01*
X121122642Y-67841895D01*
X120951303Y-67712326D01*
X120806966Y-67562286D01*
X120765915Y-67508339D01*
X124762048Y-67725337D02*
X124667881Y-67635111D01*
X152877100Y-101800669D02*
X152870825Y-101569565D01*
X152864646Y-101351154D01*
X152858489Y-101144913D01*
X152845948Y-100766847D01*
X152832619Y-100431185D01*
X152817915Y-100133744D01*
X152801254Y-99870340D01*
X152782050Y-99636792D01*
X152759718Y-99428914D01*
X152719079Y-99156083D01*
X152668115Y-98917484D01*
X152604855Y-98698999D01*
X152527325Y-98486511D01*
X152433552Y-98265903D01*
X152361039Y-98107348D01*
X180368377Y-104760676D02*
X179570230Y-104974523D01*
X150257804Y-90167489D02*
X150412087Y-90433434D01*
X150565266Y-90696488D01*
X150717244Y-90956493D01*
X150867924Y-91213293D01*
X151017208Y-91466732D01*
X151165001Y-91716654D01*
X151311204Y-91962902D01*
X151455721Y-92205320D01*
X151598454Y-92443752D01*
X151739308Y-92678041D01*
X151878185Y-92908031D01*
X152014988Y-93133567D01*
X152149620Y-93354490D01*
X152281984Y-93570646D01*
X152411983Y-93781878D01*
X152539520Y-93988030D01*
X152664499Y-94188945D01*
X152786822Y-94384467D01*
X152906392Y-94574440D01*
X153023113Y-94758707D01*
X153136887Y-94937113D01*
X153247618Y-95109500D01*
X153459561Y-95435595D01*
X153658167Y-95735742D01*
X153842659Y-96008691D01*
X154012263Y-96253191D01*
X154166202Y-96467992D01*
X119213509Y-65633961D02*
X119218906Y-66490439D01*
X121737352Y-68072177D02*
X121737352Y-68072177D01*
X132930713Y-67215678D02*
X133045716Y-67395514D01*
X133217742Y-67535190D01*
X133410508Y-67604837D01*
X133611394Y-67624562D01*
X177092867Y-79267510D02*
X176934325Y-79144786D01*
X176749787Y-79066673D01*
X176537656Y-79044714D01*
X176485500Y-79044215D01*
X124667881Y-69095728D02*
X124407717Y-69095728D01*
X131912861Y-121398741D02*
X131540087Y-121371397D01*
X131163015Y-121336965D01*
X130783188Y-121295752D01*
X130402149Y-121248065D01*
X130021441Y-121194211D01*
X129642608Y-121134496D01*
X129267194Y-121069228D01*
X128896742Y-120998713D01*
X128532796Y-120923258D01*
X128176898Y-120843170D01*
X127830594Y-120758756D01*
X127495426Y-120670322D01*
X127172937Y-120578175D01*
X126864672Y-120482623D01*
X126572173Y-120383972D01*
X126296985Y-120282529D01*
X133611394Y-67624562D02*
X133828665Y-67606681D01*
X134045296Y-67538422D01*
X134223037Y-67418589D01*
X134362724Y-67246625D01*
X134439665Y-67091570D01*
X162729519Y-74246823D02*
X162825139Y-74067016D01*
X162997196Y-73741652D01*
X163145287Y-73463270D01*
X163271349Y-73233451D01*
X163377317Y-73053778D01*
X163502831Y-72881751D01*
X163687505Y-73032605D01*
X163719134Y-73332997D01*
X163734063Y-73611427D01*
X163746325Y-73954238D01*
X163757857Y-74363011D01*
X163763954Y-74592627D01*
X163770594Y-74839327D01*
X163778021Y-75103309D01*
X116237630Y-63947781D02*
X116224189Y-63968895D01*
X136815764Y-65191035D02*
X137030159Y-65189360D01*
X137250643Y-65206525D01*
X137463112Y-65244759D01*
X137526938Y-65260499D01*
X113006301Y-68582868D02*
X113133399Y-68736900D01*
X153865764Y-107476714D02*
X153729372Y-107139769D01*
X153606753Y-106822413D01*
X153497086Y-106519939D01*
X153399552Y-106227641D01*
X153313330Y-105940812D01*
X153237602Y-105654746D01*
X153171547Y-105364736D01*
X153114346Y-105066077D01*
X153065179Y-104754063D01*
X153023226Y-104423986D01*
X152987667Y-104071141D01*
X152957683Y-103690821D01*
X152944526Y-103488887D01*
X152932454Y-103278320D01*
X152921367Y-103058531D01*
X152911161Y-102828932D01*
X152901733Y-102588934D01*
X152892982Y-102337950D01*
X152884805Y-102075391D01*
X152877100Y-101800669D01*
X116965647Y-63653289D02*
X116770116Y-63724100D01*
X116669922Y-63726489D01*
X112184121Y-65940756D02*
X112352815Y-65814158D01*
X112537273Y-65665304D01*
X112702229Y-65528109D01*
X112856971Y-65395911D01*
X113019973Y-65249490D01*
X113035495Y-65234458D01*
X138417812Y-111084390D02*
X138618989Y-111178910D01*
X138808885Y-111248457D01*
X139018811Y-111284562D01*
X139243949Y-111287665D01*
X139407220Y-111280926D01*
X111412816Y-65072200D02*
X111514928Y-65245229D01*
X111600956Y-65391817D01*
X115910555Y-65534253D02*
X115877257Y-65744858D01*
X115860987Y-65831401D01*
D11*
X119214900Y-65173860D02*
X119994680Y-65217040D01*
X119994680Y-65217040D02*
X120007380Y-65229740D01*
X120007380Y-65229740D02*
X120050560Y-65613280D01*
X120050560Y-65613280D02*
X119242840Y-65625980D01*
X119242840Y-65625980D02*
X119186960Y-66956940D01*
X119186960Y-66956940D02*
X119242840Y-67482720D01*
X119242840Y-67482720D02*
X119567960Y-67650360D01*
X119567960Y-67650360D02*
X120050560Y-67523360D01*
X120050560Y-67523360D02*
X120164860Y-67906900D01*
X120164860Y-67906900D02*
X119753380Y-68061840D01*
X119753380Y-68061840D02*
X119100600Y-68005960D01*
X119100600Y-68005960D02*
X118747540Y-67622420D01*
X118747540Y-67622420D02*
X118734840Y-65669160D01*
X118734840Y-65669160D02*
X118237000Y-65669160D01*
X118237000Y-65669160D02*
X118196360Y-65217040D01*
X118196360Y-65217040D02*
X118704360Y-65229740D01*
X118704360Y-65229740D02*
X118719600Y-64607440D01*
X118719600Y-64607440D02*
X119199660Y-64551560D01*
X119199660Y-64551560D02*
X119214900Y-65173860D01*
G36*
X119214900Y-65173860D02*
G01*
X119994680Y-65217040D01*
X120007380Y-65229740D01*
X120050560Y-65613280D01*
X119242840Y-65625980D01*
X119186960Y-66956940D01*
X119242840Y-67482720D01*
X119567960Y-67650360D01*
X120050560Y-67523360D01*
X120164860Y-67906900D01*
X119753380Y-68061840D01*
X119100600Y-68005960D01*
X118747540Y-67622420D01*
X118734840Y-65669160D01*
X118237000Y-65669160D01*
X118196360Y-65217040D01*
X118704360Y-65229740D01*
X118719600Y-64607440D01*
X119199660Y-64551560D01*
X119214900Y-65173860D01*
G37*
X119214900Y-65173860D02*
X119994680Y-65217040D01*
X120007380Y-65229740D01*
X120050560Y-65613280D01*
X119242840Y-65625980D01*
X119186960Y-66956940D01*
X119242840Y-67482720D01*
X119567960Y-67650360D01*
X120050560Y-67523360D01*
X120164860Y-67906900D01*
X119753380Y-68061840D01*
X119100600Y-68005960D01*
X118747540Y-67622420D01*
X118734840Y-65669160D01*
X118237000Y-65669160D01*
X118196360Y-65217040D01*
X118704360Y-65229740D01*
X118719600Y-64607440D01*
X119199660Y-64551560D01*
X119214900Y-65173860D01*
D10*
X132856013Y-65212511D02*
X132864983Y-66154190D01*
X116933762Y-63055526D02*
X116750364Y-63145929D01*
X116743170Y-63164508D01*
X131500777Y-67731952D02*
X131338666Y-67861519D01*
X131142428Y-67965104D01*
X130922880Y-68039350D01*
X130690845Y-68080896D01*
X130457141Y-68086384D01*
X130380740Y-68079620D01*
X111127407Y-66354369D02*
X110918073Y-66392083D01*
X110704036Y-66424330D01*
X110493999Y-66452828D01*
X110428608Y-66459051D01*
X112130125Y-68381747D02*
X112286288Y-68334239D01*
X162991963Y-119236536D02*
X162785911Y-119156385D01*
X162588816Y-119081487D01*
X162344084Y-118991183D01*
X162125182Y-118913551D01*
X161896506Y-118837233D01*
X161702618Y-118780956D01*
X161611592Y-118772101D01*
X126296985Y-120282529D02*
X126044655Y-120182617D01*
X125802054Y-120081454D01*
X125568604Y-119978685D01*
X125343724Y-119873957D01*
X125126837Y-119766919D01*
X124917363Y-119657216D01*
X124714722Y-119544497D01*
X124518336Y-119428407D01*
X124327626Y-119308595D01*
X124142013Y-119184708D01*
X123960918Y-119056392D01*
X123783761Y-118923294D01*
X123609964Y-118785063D01*
X123438947Y-118641344D01*
X123270132Y-118491785D01*
X123102940Y-118336034D01*
X165290232Y-77480250D02*
X165163966Y-77641323D01*
X165034660Y-77795536D01*
X164855953Y-77991902D01*
X164668077Y-78179484D01*
X164519860Y-78315579D01*
X164364369Y-78448654D01*
X164200697Y-78579530D01*
X164027938Y-78709032D01*
X163845183Y-78837982D01*
X163651527Y-78967204D01*
X159035235Y-81266634D02*
X159206070Y-81384605D01*
X159450219Y-81516150D01*
X159660010Y-81623464D01*
X159900704Y-81743282D01*
X160166544Y-81872867D01*
X160451772Y-82009483D01*
X160750630Y-82150395D01*
X161057362Y-82292868D01*
X161366210Y-82434165D01*
X161671416Y-82571551D01*
X161967223Y-82702291D01*
X162247873Y-82823648D01*
X162507610Y-82932888D01*
X162740676Y-83027274D01*
X184727386Y-101856445D02*
X184585145Y-102020918D01*
X184436717Y-102189676D01*
X184284626Y-102360001D01*
X184131399Y-102529176D01*
X183979562Y-102694483D01*
X183831643Y-102853205D01*
X183690166Y-103002623D01*
X183515920Y-103182680D01*
X183363607Y-103334924D01*
X183267370Y-103426982D01*
X115806414Y-65657210D02*
X115910555Y-65534253D01*
X112441305Y-63726399D02*
X112713069Y-63505366D01*
X112708095Y-63256231D02*
X112710739Y-63056229D01*
X112718651Y-63024636D01*
X113214431Y-65058262D02*
X113286612Y-65090472D01*
X113349823Y-66729183D02*
X113204383Y-66566642D01*
X113042655Y-66419785D01*
X112920486Y-66326876D01*
X178895765Y-99928103D02*
X178905165Y-98372529D01*
X154526981Y-110487063D02*
X154525474Y-110278828D01*
X154516891Y-109988033D01*
X154499428Y-109717227D01*
X154471635Y-109459794D01*
X154432057Y-109209123D01*
X154379241Y-108958600D01*
X154311736Y-108701610D01*
X154228089Y-108431540D01*
X154162638Y-108240961D01*
X154088937Y-108039669D01*
X154006555Y-107825705D01*
X153915062Y-107597110D01*
X153865764Y-107476714D01*
X175029138Y-93738796D02*
X175158360Y-94068598D01*
X109944790Y-67739114D02*
X110081159Y-67823130D01*
X119215130Y-64889587D02*
X119215130Y-65203481D01*
X111303334Y-65150404D02*
X111382346Y-65021635D01*
X137400176Y-108626873D02*
X137319587Y-108856442D01*
X137274213Y-109061373D01*
X137246086Y-109275866D01*
X137235457Y-109491291D01*
X137242577Y-109699021D01*
X137276819Y-109934713D01*
X137339677Y-110128042D01*
X137355726Y-110160141D01*
X115098267Y-64664466D02*
X114886584Y-64654717D01*
X114673791Y-64639340D01*
X114453202Y-64607707D01*
X114258497Y-64540377D01*
X114139039Y-64459322D01*
X134533100Y-67847440D02*
X134533100Y-67639395D01*
X124704086Y-66935659D02*
X124773510Y-67123544D01*
X124906881Y-67322307D01*
X125083460Y-67476439D01*
X125294072Y-67581087D01*
X125529545Y-67631399D01*
X125729658Y-67629267D01*
X125935114Y-67586772D01*
X159170766Y-119876796D02*
X159148188Y-120085873D01*
X159136363Y-120297312D01*
X159127707Y-120504886D01*
X159120044Y-120739818D01*
X159113632Y-120995839D01*
X159109800Y-121197922D01*
X159106926Y-121405694D01*
X158870902Y-123411785D02*
X158780782Y-123232660D01*
X158630224Y-122918424D01*
X158535155Y-122716946D01*
X158428424Y-122489258D01*
X158311183Y-122237884D01*
X158184581Y-121965345D01*
X158049766Y-121674165D01*
X157907889Y-121366866D01*
X157760100Y-121045972D01*
X157607548Y-120714005D01*
X157451383Y-120373487D01*
X157292753Y-120026943D01*
X157132810Y-119676893D01*
X156972703Y-119325862D01*
X156813580Y-118976371D01*
X156656593Y-118630945D01*
X156502890Y-118292105D01*
X156353621Y-117962374D01*
X156209936Y-117644275D01*
X156072985Y-117340331D01*
X155943916Y-117053065D01*
X155823880Y-116784999D01*
X155714026Y-116538656D01*
X155615505Y-116316559D01*
X155529465Y-116121231D01*
X155399428Y-115820972D01*
X155326725Y-115634420D01*
X113188406Y-64380206D02*
X113381696Y-64432368D01*
X113551198Y-64440295D01*
X170723644Y-94691570D02*
X170613289Y-94433444D01*
X170506885Y-94186484D01*
X170404197Y-93950279D01*
X170304987Y-93724420D01*
X170209020Y-93508499D01*
X170116059Y-93302105D01*
X170025868Y-93104830D01*
X169938211Y-92916265D01*
X169769553Y-92563625D01*
X169608194Y-92240911D01*
X169452246Y-91944849D01*
X169299817Y-91672166D01*
X169149018Y-91419587D01*
X168997958Y-91183837D01*
X168844748Y-90961644D01*
X168687497Y-90749733D01*
X168524315Y-90544829D01*
X168353313Y-90343660D01*
X168172600Y-90142950D01*
X167980286Y-89939426D01*
X129589461Y-66889624D02*
X129660978Y-67093436D01*
X129764174Y-67267440D01*
X129926414Y-67434221D01*
X130126600Y-67552054D01*
X130319389Y-67610487D01*
X130533204Y-67630746D01*
X130380740Y-68079620D02*
X130164283Y-68041578D01*
X129963862Y-67981135D01*
X129780399Y-67898961D01*
X129576326Y-67766704D01*
X129401997Y-67602849D01*
X129259213Y-67408705D01*
X129149779Y-67185581D01*
X119419648Y-68074558D02*
X119200579Y-68016387D01*
X119020160Y-67918179D01*
X118862386Y-67757859D01*
X118767655Y-67576333D01*
X118739658Y-67486945D01*
X110723253Y-67304334D02*
X110739242Y-67511885D01*
X110693977Y-67642888D01*
X156083417Y-115465778D02*
X156439103Y-115398783D01*
X156790189Y-115328777D01*
X157136194Y-115255894D01*
X157476638Y-115180269D01*
X157811039Y-115102035D01*
X158138918Y-115021326D01*
X158459793Y-114938276D01*
X158773183Y-114853019D01*
X159078609Y-114765690D01*
X159375590Y-114676421D01*
X159663644Y-114585348D01*
X159942292Y-114492603D01*
X160211052Y-114398322D01*
X160469444Y-114302638D01*
X160716987Y-114205685D01*
X160953202Y-114107597D01*
X114968420Y-66983503D02*
X114968407Y-66983384D01*
X112224293Y-64316409D02*
X112048366Y-64215889D01*
X112004567Y-64186798D01*
X137285013Y-108320131D02*
X137559294Y-108270691D01*
X113883028Y-64577929D02*
X114038391Y-64718244D01*
X114219052Y-64834129D01*
X114323625Y-64880440D01*
X157928401Y-78201392D02*
X160127901Y-76442441D01*
X112592612Y-69077964D02*
X112578149Y-69283380D01*
X112574673Y-69318804D01*
X112822286Y-63243431D02*
X112906755Y-63425053D01*
X112919357Y-63445202D01*
X134757310Y-65212511D02*
X135008424Y-65212511D01*
X180172363Y-96046271D02*
X180291440Y-96289314D01*
X180407655Y-96526105D01*
X180520384Y-96755395D01*
X180629006Y-96975933D01*
X180732899Y-97186468D01*
X180831441Y-97385751D01*
X180924009Y-97572532D01*
X181050301Y-97826526D01*
X181159653Y-98045356D01*
X181249966Y-98224805D01*
X181352478Y-98424910D01*
X181385679Y-98484664D01*
X122362112Y-65704679D02*
X122164204Y-65646945D01*
X121968418Y-65643224D01*
X144964379Y-96120755D02*
X145085152Y-95947702D01*
X145188456Y-95770910D01*
X145287660Y-95594476D01*
X145398568Y-95392222D01*
X145518394Y-95169034D01*
X145612441Y-94990843D01*
X145644354Y-94929796D01*
X117118942Y-63195555D02*
X116970796Y-63053806D01*
X116933762Y-63055526D01*
X120022285Y-65633961D02*
X119617895Y-65633961D01*
X118470757Y-65633961D02*
X118228612Y-65633961D01*
X185551448Y-95296194D02*
X185500693Y-95570822D01*
X185451356Y-95838255D01*
X185403693Y-96097088D01*
X185357959Y-96345915D01*
X185314410Y-96583327D01*
X185273301Y-96807920D01*
X185234888Y-97018287D01*
X185182885Y-97304086D01*
X185138387Y-97549965D01*
X185102257Y-97751177D01*
X185062981Y-97974380D01*
X185052709Y-98039349D01*
X112928278Y-69271653D02*
X112796382Y-69115100D01*
X112764358Y-69074504D01*
X143596549Y-95365761D02*
X143795874Y-95480340D01*
X143987329Y-95589631D01*
X144168546Y-95692329D01*
X144390152Y-95816744D01*
X144583739Y-95924016D01*
X144777775Y-96029283D01*
X144959647Y-96119767D01*
X144964379Y-96120755D01*
X120640383Y-65965883D02*
X120741260Y-65788609D01*
X120878365Y-65616423D01*
X121043482Y-65471925D01*
X121214829Y-65364307D01*
X121268885Y-65336291D01*
X124156684Y-65212448D02*
X124403316Y-65207447D01*
X183727285Y-95571400D02*
X183961128Y-95268995D01*
X184188555Y-94975071D01*
X184408380Y-94691148D01*
X184619422Y-94418748D01*
X184820495Y-94159394D01*
X185010417Y-93914608D01*
X185188004Y-93685911D01*
X185352073Y-93474826D01*
X185501438Y-93282874D01*
X185634918Y-93111578D01*
X185802763Y-92896693D01*
X185928206Y-92736843D01*
X186035911Y-92602800D01*
X109800087Y-67500581D02*
X109892868Y-67570508D01*
X178405904Y-88780305D02*
X178623525Y-88808581D01*
X178827709Y-88836120D01*
X179057108Y-88868463D01*
X179282765Y-88902456D01*
X179487746Y-88938779D01*
X179515713Y-88947511D01*
X123404219Y-66970340D02*
X123344336Y-67162693D01*
X123257871Y-67350122D01*
X123145841Y-67532391D01*
X123112106Y-67575215D01*
X137355726Y-110160141D02*
X137481712Y-110355130D01*
X137615069Y-110512216D01*
X137772432Y-110662835D01*
X137952126Y-110805529D01*
X138152477Y-110938844D01*
X138326508Y-111037763D01*
X138417812Y-111084390D01*
X113282847Y-68408282D02*
X113092513Y-68491779D01*
X113006301Y-68582868D01*
X136465924Y-66311895D02*
X136661091Y-66369195D01*
X136870473Y-66416276D01*
X137071202Y-66456672D01*
X137133915Y-66468650D01*
X122120688Y-67624430D02*
X122320275Y-67572901D01*
X122502263Y-67476045D01*
X122659787Y-67340228D01*
X122785982Y-67171814D01*
X122873984Y-66977171D01*
X122893645Y-66907562D01*
X136613749Y-68078752D02*
X136613749Y-68078752D01*
X124407717Y-69095728D02*
X124147556Y-69095728D01*
X133344823Y-68073746D02*
X133125588Y-68024753D01*
X132916607Y-67938912D01*
X132735445Y-67825204D01*
X132599664Y-67692616D01*
X131507143Y-65910744D02*
X131324163Y-66030201D01*
X111746691Y-67541912D02*
X111788064Y-67743659D01*
X111784947Y-67864960D01*
X155027950Y-80938768D02*
X155728897Y-79960346D01*
X116278857Y-65975692D02*
X116153421Y-66158439D01*
X116029046Y-66320257D01*
X115892501Y-66492221D01*
X115746460Y-66668416D01*
X152301771Y-108942853D02*
X152362680Y-109137489D01*
X152443446Y-109420195D01*
X152511765Y-109694097D01*
X152567940Y-109961774D01*
X152612275Y-110225808D01*
X152645072Y-110488779D01*
X152666636Y-110753266D01*
X152677268Y-111021851D01*
X152677273Y-111297114D01*
X152666954Y-111581634D01*
X152646615Y-111877993D01*
D11*
X128432560Y-64168020D02*
X128389380Y-64437260D01*
X128389380Y-64437260D02*
X128178560Y-64635380D01*
X128178560Y-64635380D02*
X127782320Y-64564260D01*
X127782320Y-64564260D02*
X127723900Y-64322960D01*
X127723900Y-64322960D02*
X127922020Y-64053720D01*
X127922020Y-64053720D02*
X127922020Y-64025780D01*
X127922020Y-64025780D02*
X128219200Y-63997840D01*
X128219200Y-63997840D02*
X128432560Y-64168020D01*
G36*
X128432560Y-64168020D02*
G01*
X128389380Y-64437260D01*
X128178560Y-64635380D01*
X127782320Y-64564260D01*
X127723900Y-64322960D01*
X127922020Y-64053720D01*
X127922020Y-64025780D01*
X128219200Y-63997840D01*
X128432560Y-64168020D01*
G37*
X128432560Y-64168020D02*
X128389380Y-64437260D01*
X128178560Y-64635380D01*
X127782320Y-64564260D01*
X127723900Y-64322960D01*
X127922020Y-64053720D01*
X127922020Y-64025780D01*
X128219200Y-63997840D01*
X128432560Y-64168020D01*
D10*
X110081159Y-67823130D02*
X110236197Y-67814875D01*
X115202376Y-65953131D02*
X115292594Y-66137871D01*
X115348786Y-66243995D01*
X128326974Y-66629033D02*
X128326974Y-68055495D01*
X136456081Y-65707272D02*
X136291801Y-65844500D01*
X136243264Y-66059433D01*
X136347648Y-66238512D01*
X136465924Y-66311895D01*
X118712903Y-65203481D02*
X118712903Y-64889587D01*
X114224311Y-66189480D02*
X114132796Y-66002165D01*
X114047629Y-65813739D01*
X114026718Y-65765880D01*
X134439665Y-67091570D02*
X134488258Y-66970311D01*
X178657579Y-99884263D02*
X178895765Y-99928103D01*
X159169662Y-107825776D02*
X158942108Y-107740961D01*
X158729597Y-107685116D01*
X158527967Y-107659724D01*
X158268865Y-107675800D01*
X158011849Y-107752163D01*
X157814524Y-107851114D01*
X157608666Y-107987436D01*
X157390113Y-108162612D01*
X157235304Y-108301714D01*
X157071772Y-108459182D01*
X156898283Y-108635457D01*
X111382346Y-65021635D02*
X111412816Y-65072200D01*
X137941069Y-65436584D02*
X137842894Y-65629622D01*
X137746049Y-65807318D01*
X137732342Y-65829528D01*
X108145252Y-67921465D02*
X108245514Y-67744202D01*
X108372999Y-67578070D01*
X108523668Y-67421981D01*
X135783447Y-66338068D02*
X135744986Y-66131313D01*
X135744090Y-66045714D01*
X120022285Y-65203481D02*
X120022285Y-65418720D01*
X186035911Y-92602800D02*
X186001953Y-92815325D01*
X185958214Y-93064411D01*
X185915333Y-93304649D01*
X185864747Y-93585500D01*
X185827157Y-93792995D01*
X185786763Y-94015089D01*
X185743815Y-94250399D01*
X185698561Y-94497546D01*
X185651249Y-94755147D01*
X185602129Y-95021824D01*
X185551448Y-95296194D01*
X116743170Y-63164508D02*
X116881438Y-63186680D01*
X114569532Y-65660663D02*
X114634194Y-65854478D01*
X114714160Y-66062557D01*
X114796541Y-66257751D01*
X114805426Y-66274480D01*
X109892868Y-67570508D02*
X109944790Y-67739114D01*
X186617968Y-76149286D02*
X186432301Y-76324272D01*
X186264496Y-76483500D01*
X186076409Y-76662693D01*
X185871815Y-76858229D01*
X185654491Y-77066486D01*
X185504399Y-77210603D01*
X185351445Y-77357691D01*
X185196748Y-77506676D01*
X185041426Y-77656486D01*
X184886598Y-77806047D01*
X184733382Y-77954286D01*
X184582897Y-78100130D01*
X184436262Y-78242506D01*
X151500012Y-115053900D02*
X151342738Y-115208454D01*
X151166334Y-115368422D01*
X150971685Y-115533339D01*
X150759677Y-115702738D01*
X150531195Y-115876156D01*
X150287125Y-116053126D01*
X150028353Y-116233183D01*
X149755765Y-116415861D01*
X149470246Y-116600695D01*
X149172682Y-116787220D01*
X148863958Y-116974970D01*
X148544962Y-117163479D01*
X148216577Y-117352282D01*
X147879690Y-117540915D01*
X147535187Y-117728910D01*
X147183953Y-117915804D01*
X146826874Y-118101129D01*
X146464835Y-118284422D01*
X146098723Y-118465216D01*
X145729424Y-118643046D01*
X145357822Y-118817447D01*
X144984804Y-118987953D01*
X144611255Y-119154099D01*
X144238062Y-119315419D01*
X143866109Y-119471448D01*
X143496282Y-119621720D01*
X143129468Y-119765771D01*
X142766552Y-119903133D01*
X142408419Y-120033343D01*
X142055956Y-120155935D01*
X141710048Y-120270442D01*
X141371581Y-120376401D01*
X113884816Y-64228610D02*
X113890769Y-64047841D01*
X128066783Y-68055495D02*
X127806592Y-68055495D01*
X129015779Y-115256203D02*
X129198491Y-115350517D01*
X129381677Y-115441826D01*
X129565339Y-115530129D01*
X129749482Y-115615427D01*
X129934110Y-115697722D01*
X130119225Y-115777015D01*
X130304834Y-115853307D01*
X130490938Y-115926598D01*
X130864650Y-116064182D01*
X131240393Y-116189776D01*
X131618197Y-116303388D01*
X131998094Y-116405026D01*
X132380115Y-116494696D01*
X132764290Y-116572407D01*
X133150650Y-116638167D01*
X133539227Y-116691983D01*
X133930051Y-116733864D01*
X134323153Y-116763817D01*
X134718564Y-116781849D01*
X135116315Y-116787970D01*
X115051336Y-65832057D02*
X115062792Y-65662263D01*
X113149579Y-68843956D02*
X112960848Y-68773140D01*
X112904386Y-68763930D01*
X137491645Y-67402887D02*
X137522503Y-67198406D01*
X137400560Y-67026366D01*
X137387854Y-67018021D01*
X112713069Y-63505366D02*
X112708095Y-63256231D01*
D11*
X128348740Y-68077080D02*
X127767080Y-68089780D01*
X127767080Y-68089780D02*
X127767080Y-65201800D01*
X127767080Y-65201800D02*
X128361440Y-65173860D01*
X128361440Y-65173860D02*
X128348740Y-68077080D01*
G36*
X128348740Y-68077080D02*
G01*
X127767080Y-68089780D01*
X127767080Y-65201800D01*
X128361440Y-65173860D01*
X128348740Y-68077080D01*
G37*
X128348740Y-68077080D02*
X127767080Y-68089780D01*
X127767080Y-65201800D01*
X128361440Y-65173860D01*
X128348740Y-68077080D01*
D10*
X181385679Y-98484664D02*
X181541544Y-98322815D01*
X181685943Y-98151401D01*
X181871047Y-97926043D01*
X182015064Y-97748326D01*
X182174170Y-97550369D01*
X182347166Y-97333667D01*
X182532852Y-97099714D01*
X182730025Y-96850006D01*
X182937487Y-96586035D01*
X183154035Y-96309296D01*
X183378471Y-96021285D01*
X183609592Y-95723495D01*
X183727285Y-95571400D01*
X112993419Y-64738790D02*
X112812551Y-64650632D01*
X112632570Y-64552958D01*
X112605449Y-64536754D01*
X124147556Y-69095728D02*
X124152132Y-67154099D01*
X172666163Y-84870142D02*
X172486558Y-84763973D01*
X172307019Y-84644154D01*
X172139023Y-84525693D01*
X171962719Y-84396212D01*
X171785984Y-84261239D01*
X171683013Y-84179921D01*
X151388981Y-103799906D02*
X151437211Y-104632525D01*
D11*
X111744760Y-65674240D02*
X112240060Y-66210180D01*
X112240060Y-66210180D02*
X112877600Y-66593720D01*
X112877600Y-66593720D02*
X113329720Y-67315080D01*
X113329720Y-67315080D02*
X113626900Y-68249800D01*
X113626900Y-68249800D02*
X113642140Y-68249800D01*
X113642140Y-68249800D02*
X113032540Y-68475860D01*
X113032540Y-68475860D02*
X113047780Y-68803520D01*
X113047780Y-68803520D02*
X112509300Y-69184520D01*
X112509300Y-69184520D02*
X112156240Y-68376800D01*
X112156240Y-68376800D02*
X113047780Y-68066920D01*
X113047780Y-68066920D02*
X113019840Y-67698620D01*
X113019840Y-67698620D02*
X112453420Y-67358260D01*
X112453420Y-67358260D02*
X112014000Y-67825620D01*
X112014000Y-67825620D02*
X111815880Y-66268600D01*
X111815880Y-66268600D02*
X111574580Y-65956180D01*
X111574580Y-65956180D02*
X111277400Y-65872360D01*
X111277400Y-65872360D02*
X111079280Y-66352420D01*
X111079280Y-66352420D02*
X110441740Y-66438780D01*
X110441740Y-66438780D02*
X110540800Y-66027300D01*
X110540800Y-66027300D02*
X110413800Y-65702180D01*
X110413800Y-65702180D02*
X110865920Y-65885060D01*
X110865920Y-65885060D02*
X111348520Y-64993520D01*
X111348520Y-64993520D02*
X111744760Y-65674240D01*
G36*
X111744760Y-65674240D02*
G01*
X112240060Y-66210180D01*
X112877600Y-66593720D01*
X113329720Y-67315080D01*
X113626900Y-68249800D01*
X113642140Y-68249800D01*
X113032540Y-68475860D01*
X113047780Y-68803520D01*
X112509300Y-69184520D01*
X112156240Y-68376800D01*
X113047780Y-68066920D01*
X113019840Y-67698620D01*
X112453420Y-67358260D01*
X112014000Y-67825620D01*
X111815880Y-66268600D01*
X111574580Y-65956180D01*
X111277400Y-65872360D01*
X111079280Y-66352420D01*
X110441740Y-66438780D01*
X110540800Y-66027300D01*
X110413800Y-65702180D01*
X110865920Y-65885060D01*
X111348520Y-64993520D01*
X111744760Y-65674240D01*
G37*
X111744760Y-65674240D02*
X112240060Y-66210180D01*
X112877600Y-66593720D01*
X113329720Y-67315080D01*
X113626900Y-68249800D01*
X113642140Y-68249800D01*
X113032540Y-68475860D01*
X113047780Y-68803520D01*
X112509300Y-69184520D01*
X112156240Y-68376800D01*
X113047780Y-68066920D01*
X113019840Y-67698620D01*
X112453420Y-67358260D01*
X112014000Y-67825620D01*
X111815880Y-66268600D01*
X111574580Y-65956180D01*
X111277400Y-65872360D01*
X111079280Y-66352420D01*
X110441740Y-66438780D01*
X110540800Y-66027300D01*
X110413800Y-65702180D01*
X110865920Y-65885060D01*
X111348520Y-64993520D01*
X111744760Y-65674240D01*
D10*
X141696697Y-97183797D02*
X141946534Y-97131117D01*
X142180549Y-97081033D01*
X142393552Y-97034707D01*
X142622354Y-96983858D01*
X142828607Y-96936190D01*
X142961785Y-96900181D01*
X154426986Y-82009009D02*
X154449069Y-81804330D01*
X154560293Y-81614139D01*
X154676979Y-81437835D01*
X154831716Y-81214758D01*
X154974812Y-81013062D01*
X155027950Y-80938768D01*
X108036257Y-68485901D02*
X108034154Y-68283991D01*
X108077546Y-68088549D01*
X108145252Y-67921465D01*
X112605449Y-64536754D02*
X112426893Y-64431225D01*
X112247513Y-64329292D01*
X112224293Y-64316409D01*
X122246269Y-116378780D02*
X122222139Y-115991109D01*
X122219947Y-115599696D01*
X122239536Y-115205001D01*
X122280750Y-114807487D01*
X122309417Y-114607817D01*
X122343432Y-114407616D01*
X122382775Y-114206941D01*
X122427427Y-114005850D01*
X122477368Y-113804401D01*
X122532579Y-113602652D01*
X122593040Y-113400660D01*
X122658731Y-113198483D01*
X122729634Y-112996179D01*
X122805728Y-112793806D01*
X122886994Y-112591421D01*
X122973413Y-112389083D01*
X123064965Y-112186848D01*
X123161631Y-111984776D01*
X123263390Y-111782923D01*
X123370224Y-111581347D01*
X123482114Y-111380106D01*
X123599038Y-111179259D01*
X123720979Y-110978862D01*
X123847916Y-110778973D01*
X123979831Y-110579651D01*
X124116702Y-110380952D01*
X124258512Y-110182936D01*
X124405241Y-109985659D01*
X113633787Y-65123527D02*
X113462999Y-64994869D01*
X113278189Y-64882820D01*
X113091543Y-64785115D01*
X112993419Y-64738790D01*
X121798013Y-67623404D02*
X122002455Y-67637728D01*
X122120683Y-67624462D01*
X127808412Y-64101372D02*
X127995542Y-63995414D01*
X128208467Y-64013311D01*
X128359976Y-64133326D01*
X112574673Y-69318804D02*
X112473352Y-69136508D01*
X112383253Y-68947967D01*
X112349849Y-68875881D01*
X164952418Y-76556201D02*
X165176934Y-76455994D01*
X165386387Y-76365282D01*
X165576194Y-76285852D01*
X165778841Y-76205152D01*
X165981894Y-76133127D01*
X166070085Y-76120493D01*
X152646615Y-111877993D02*
X152621560Y-112132988D01*
X152589399Y-112382923D01*
X152550322Y-112627267D01*
X152504520Y-112865491D01*
X152452185Y-113097065D01*
X152393508Y-113321459D01*
X152328681Y-113538142D01*
X152257894Y-113746586D01*
X152181339Y-113946259D01*
X152099207Y-114136633D01*
X152011689Y-114317177D01*
X151870733Y-114568402D01*
X151718735Y-114794529D01*
X151556341Y-114993770D01*
X151500012Y-115053900D01*
X132864983Y-66154190D02*
X132873952Y-67095869D01*
X119215130Y-64575696D02*
X119215130Y-64889587D01*
X121028763Y-66383796D02*
X121009844Y-66595169D01*
X121017129Y-66795210D01*
X121028906Y-66875289D01*
X141536956Y-100281260D02*
X141582185Y-100070942D01*
X141667175Y-99886811D01*
X141765314Y-99694015D01*
X141860992Y-99515643D01*
X141914379Y-99418809D01*
X119419638Y-68074558D02*
X119419638Y-68074558D01*
X118228612Y-65418720D02*
X118228612Y-65203481D01*
X179875404Y-82100417D02*
X180080893Y-82056605D01*
X180320561Y-81998976D01*
X180525866Y-81948627D01*
X180764953Y-81889399D01*
X181035560Y-81821859D01*
X181335424Y-81746575D01*
X181662283Y-81664115D01*
X182013875Y-81575048D01*
X182387936Y-81479943D01*
X182582686Y-81430303D01*
X182782205Y-81379366D01*
X182986210Y-81327204D01*
X183194418Y-81273887D01*
X183406548Y-81219487D01*
X183622315Y-81164074D01*
X183841437Y-81107720D01*
X184063631Y-81050495D01*
X184288615Y-80992471D01*
X124649944Y-65202446D02*
X124649944Y-65420474D01*
X119617895Y-65633961D02*
X119213509Y-65633961D01*
X182954782Y-72891957D02*
X183242118Y-72954485D01*
X183539542Y-73027894D01*
X183844070Y-73111000D01*
X184152720Y-73202618D01*
X184462508Y-73301564D01*
X184770453Y-73406653D01*
X185073571Y-73516702D01*
X185368880Y-73630525D01*
X185653397Y-73746938D01*
X185924139Y-73864758D01*
X186178123Y-73982798D01*
X186412368Y-74099876D01*
X186623889Y-74214807D01*
X186809705Y-74326406D01*
X187033707Y-74484967D01*
X187092290Y-74534872D01*
X111615140Y-68324092D02*
X111438364Y-68458035D01*
X111262622Y-68567053D01*
X111065087Y-68673706D01*
X110853804Y-68774284D01*
X110636817Y-68865075D01*
X110422171Y-68942368D01*
X110217910Y-69002451D01*
X110076370Y-69033988D01*
X158995126Y-123641028D02*
X158870902Y-123411785D01*
X131696336Y-65785678D02*
X131525815Y-65898545D01*
X131507143Y-65910744D01*
X129674360Y-65425181D02*
X129856810Y-65324063D01*
X130048713Y-65251723D01*
X130254120Y-65207150D01*
X130477077Y-65189334D01*
X130613920Y-65190779D01*
X112220396Y-66020422D02*
X112140267Y-65969458D01*
X111757158Y-66201249D02*
X111649929Y-66029452D01*
X111630121Y-66006153D01*
X137559294Y-108270691D02*
X137400176Y-108626873D01*
X125582667Y-65637850D02*
X125377973Y-65656235D01*
X125233817Y-65705793D01*
X125930486Y-65677525D02*
X125731074Y-65635439D01*
X125582667Y-65637850D01*
X118964017Y-64575696D02*
X119215130Y-64575696D01*
X185877446Y-82876584D02*
X183036624Y-85852199D01*
X130533204Y-67630746D02*
X130736365Y-67615187D01*
X130932054Y-67556115D01*
X131104447Y-67448254D01*
X131212334Y-67346792D01*
X120065631Y-67536840D02*
X120146787Y-67712145D01*
X113367997Y-63611538D02*
X113219733Y-63763643D01*
X113034027Y-63879654D01*
X112850574Y-63973294D01*
X112650304Y-64068251D01*
X125935114Y-67586772D02*
X125935114Y-67586772D01*
X112004567Y-64186798D02*
X112087054Y-64063023D01*
X131202219Y-65906302D02*
X131037764Y-65767615D01*
X130841186Y-65674208D01*
X130634179Y-65637641D01*
X130528626Y-65634054D01*
X110461890Y-66360616D02*
X110509438Y-66247990D01*
X110236197Y-67814875D02*
X110405208Y-67692995D01*
X110480873Y-67567719D01*
X111188841Y-67629820D02*
X111322755Y-67477634D01*
X111446188Y-67307690D01*
X111548759Y-67130366D01*
X111574204Y-67070654D01*
X117099696Y-62974043D02*
X117235504Y-63130963D01*
X117313852Y-63270813D01*
X112771185Y-66539426D02*
X112925256Y-66684632D01*
X113055529Y-66836712D01*
X113178312Y-67002179D01*
X113289995Y-67183246D01*
X113300746Y-67203944D01*
X136135036Y-66680021D02*
X135961627Y-66563965D01*
X135825447Y-66412138D01*
X135783447Y-66338068D01*
X112919357Y-63445202D02*
X113024935Y-63264500D01*
X113035945Y-63243949D01*
X135811249Y-65702081D02*
X135940193Y-65512392D01*
X136118539Y-65367061D01*
X136312002Y-65277145D01*
X136544057Y-65218650D01*
X136767680Y-65193515D01*
X136815764Y-65191035D01*
X112569588Y-64105777D02*
X112793798Y-64213418D01*
X167381809Y-114838481D02*
X167173943Y-114930946D01*
X166938555Y-115031874D01*
X166712988Y-115127901D01*
X166450248Y-115239301D01*
X166256592Y-115321193D01*
X166049647Y-115408548D01*
X165830707Y-115500816D01*
X165601064Y-115597449D01*
X165362012Y-115697900D01*
X165114843Y-115801620D01*
X164860852Y-115908061D01*
X145644354Y-94929796D02*
X145815235Y-94603920D01*
X145983789Y-94286211D01*
X146150598Y-93975665D01*
X146316243Y-93671279D01*
X146481306Y-93372052D01*
X146646367Y-93076979D01*
X146812008Y-92785058D01*
X146978811Y-92495287D01*
X147147357Y-92206662D01*
X147318227Y-91918180D01*
X147492004Y-91628840D01*
X147669267Y-91337637D01*
X147850600Y-91043569D01*
X148036582Y-90745634D01*
X148227796Y-90442829D01*
X148424824Y-90134150D01*
X113189290Y-63571311D02*
X113321259Y-63518251D01*
X125935124Y-67586772D02*
X126128756Y-67496839D01*
X126300636Y-67357498D01*
X126425976Y-67198990D01*
X126459859Y-67140647D01*
X169303683Y-82765451D02*
X169486953Y-82488525D01*
X128071374Y-65207545D02*
X128326974Y-65202572D01*
X110291556Y-66118347D02*
X110424046Y-66082774D01*
X110437625Y-65760173D02*
X110400543Y-65698048D01*
X114995530Y-66413559D02*
X115037895Y-66213814D01*
X127884406Y-64602273D02*
X127884406Y-64602273D01*
X110428608Y-66459051D02*
X110461890Y-66360616D01*
X116080684Y-63974605D02*
X116237630Y-63947781D01*
X112920486Y-66326876D02*
X112725891Y-66239112D01*
X112563098Y-66173365D01*
X112087054Y-64063023D02*
X112224959Y-63912335D01*
X112389583Y-63768845D01*
X112441305Y-63726399D01*
X110449076Y-67343416D02*
X110252159Y-67245998D01*
X110046527Y-67209616D01*
X109844790Y-67198565D01*
X109729179Y-67202682D01*
X162740676Y-83027274D02*
X162929226Y-83101019D01*
X163294672Y-83239405D01*
X163645108Y-83365763D01*
X163981164Y-83480225D01*
X164303473Y-83582921D01*
X164612666Y-83673983D01*
X164909376Y-83753543D01*
X165194235Y-83821733D01*
X165467874Y-83878683D01*
X165730925Y-83924525D01*
X165984021Y-83959392D01*
X166227793Y-83983414D01*
X166462873Y-83996722D01*
X166689893Y-83999450D01*
X166909485Y-83991727D01*
X167122281Y-83973685D01*
X167226329Y-83960837D01*
X111166023Y-65371367D02*
X111272687Y-65200179D01*
X111303334Y-65150404D01*
X183267370Y-103426982D02*
X183093731Y-103585931D01*
X182907455Y-103744835D01*
X182736452Y-103871217D01*
X182560451Y-103977596D01*
X182359181Y-104076490D01*
X182166351Y-104158627D01*
X181933998Y-104250394D01*
X112914150Y-69019719D02*
X112927793Y-69226346D01*
X112928278Y-69271653D01*
X124667881Y-67635111D02*
X124667881Y-68365420D01*
X110570776Y-66045801D02*
X110488641Y-65846791D01*
X110437625Y-65760173D01*
X167226329Y-83960837D02*
X167498075Y-83926167D01*
X167729227Y-83905767D01*
X167929386Y-83903996D01*
X168164654Y-83938148D01*
X168384660Y-84023502D01*
X168612168Y-84170393D01*
X168801416Y-84327160D01*
X169017290Y-84528714D01*
X169180742Y-84690117D01*
X169363141Y-84874655D01*
X169462336Y-84976003D01*
X135008424Y-65212511D02*
X135013027Y-66633996D01*
X123112106Y-67575215D02*
X122956858Y-67729425D01*
X122775037Y-67861432D01*
X122575381Y-67965819D01*
X122366632Y-68037170D01*
X113595727Y-68273882D02*
X113411137Y-68354500D01*
X113282847Y-68408282D01*
X116784717Y-62971661D02*
X116984581Y-62927843D01*
X117099696Y-62974043D01*
X141645787Y-94514127D02*
X141419658Y-94116786D01*
X132386582Y-67262909D02*
X132362684Y-67051343D01*
X132356293Y-66823004D01*
X132352963Y-66579603D01*
X132350659Y-66325519D01*
X132349540Y-66176129D01*
X134497227Y-66091412D02*
X134506197Y-65212511D01*
X115024994Y-65155115D02*
X114881692Y-65308410D01*
X114754214Y-65443508D01*
X179570230Y-104974523D02*
X179090124Y-104806829D01*
X117313852Y-63270813D02*
X117214377Y-63444924D01*
X117054904Y-63589443D01*
X116965647Y-63653289D01*
X125108375Y-67967492D02*
X124932621Y-67869706D01*
X124774028Y-67736754D01*
X124762048Y-67725337D01*
X113321259Y-63518251D02*
X113367997Y-63611538D01*
X176485500Y-79044215D02*
X176246241Y-79066954D01*
X176030781Y-79133292D01*
X175841627Y-79240410D01*
X175681288Y-79385487D01*
X175552272Y-79565704D01*
X175457087Y-79778240D01*
X175398240Y-80020277D01*
X175379462Y-80219468D01*
X175378242Y-80288995D01*
X138027752Y-67266279D02*
X138006262Y-67470656D01*
X137968980Y-67562237D01*
X119215130Y-65203481D02*
X119618707Y-65203481D01*
X135744090Y-66045714D02*
X135754381Y-65839764D01*
X135811249Y-65702081D01*
X139407220Y-111280926D02*
X139617241Y-111264982D01*
X139832376Y-111233012D01*
X140029357Y-111183186D01*
X140222922Y-111111871D01*
X140367254Y-111045764D01*
D11*
X114914680Y-63723520D02*
X114909600Y-63728600D01*
X114909600Y-63728600D02*
X114627660Y-63649860D01*
X114627660Y-63649860D02*
X114686080Y-63063120D01*
X114686080Y-63063120D02*
X115260120Y-63014860D01*
X115260120Y-63014860D02*
X114914680Y-63723520D01*
G36*
X114914680Y-63723520D02*
G01*
X114909600Y-63728600D01*
X114627660Y-63649860D01*
X114686080Y-63063120D01*
X115260120Y-63014860D01*
X114914680Y-63723520D01*
G37*
X114914680Y-63723520D02*
X114909600Y-63728600D01*
X114627660Y-63649860D01*
X114686080Y-63063120D01*
X115260120Y-63014860D01*
X114914680Y-63723520D01*
D10*
X115348786Y-66243995D02*
X115481840Y-66079525D01*
X115623581Y-65896628D01*
X115765167Y-65711542D01*
X115806414Y-65657210D01*
X176000885Y-96303935D02*
X176074834Y-96500190D01*
X176149237Y-96695147D01*
X176223600Y-96887618D01*
X176297431Y-97076415D01*
X176406100Y-97350118D01*
X176510798Y-97608866D01*
X176609862Y-97848646D01*
X176701627Y-98065446D01*
X176784429Y-98255254D01*
X176878014Y-98459409D01*
X176962423Y-98622604D01*
X124152132Y-67154099D02*
X124156684Y-65212448D01*
X136613752Y-68078746D02*
X136411982Y-68051280D01*
X136198276Y-68002556D01*
X135995004Y-67938617D01*
X135824537Y-67865503D01*
X113245286Y-68881532D02*
X113149579Y-68843956D01*
X149187219Y-95225061D02*
X148977757Y-95204651D01*
X116881438Y-63186680D02*
X116937181Y-63186945D01*
X178932401Y-85780669D02*
X178932431Y-85780796D01*
X113349813Y-66729183D02*
X113349813Y-66729183D01*
X128326974Y-65202572D02*
X128326974Y-66629033D01*
X160924700Y-74160748D02*
X161046381Y-74425295D01*
X161163825Y-74677658D01*
X161275546Y-74914819D01*
X161380060Y-75133761D01*
X161475881Y-75331464D01*
X161587553Y-75556815D01*
X161696336Y-75766966D01*
X161782982Y-75904936D01*
X134506197Y-65212511D02*
X134757310Y-65212511D01*
X113857879Y-64282609D02*
X113884816Y-64228610D01*
X131696336Y-67473827D02*
X131578078Y-67646576D01*
X131500777Y-67731952D01*
X122650522Y-65329486D02*
X122826696Y-65429151D01*
X123002395Y-65569649D01*
X123151244Y-65739016D01*
X123259875Y-65911305D01*
X123287260Y-65964714D01*
X159639872Y-80958754D02*
X159432797Y-81047313D01*
X159234265Y-81140690D01*
X159054563Y-81243772D01*
X159035235Y-81266634D01*
X127806592Y-68055495D02*
X127811198Y-66634004D01*
X141349359Y-98031239D02*
X141143175Y-97921375D01*
X140953577Y-97818037D01*
X140745923Y-97701576D01*
X140549969Y-97586456D01*
X140383883Y-97470077D01*
X140385628Y-97465069D01*
X113133399Y-68736900D02*
X113245286Y-68881532D01*
X141847907Y-107511807D02*
X141734679Y-107343569D01*
X141596329Y-107192115D01*
X141422677Y-107062034D01*
X141220642Y-106947563D01*
X141151654Y-106912442D01*
X111784947Y-67864960D02*
X111759679Y-68072754D01*
X111671781Y-68265132D01*
X111615140Y-68324092D01*
X124403316Y-65207447D02*
X124649944Y-65202446D01*
X130613920Y-65190779D02*
X130821691Y-65207081D01*
X130954717Y-65228817D01*
X130380740Y-68079620D02*
X130380740Y-68079620D01*
X137879294Y-66787341D02*
X137991855Y-66963160D01*
X138027958Y-67166598D01*
X138027752Y-67266279D01*
X131912969Y-121398734D02*
X131912861Y-121398741D01*
X113495580Y-65257284D02*
X113626378Y-65411566D01*
X113730136Y-65589397D01*
X113805789Y-65788246D01*
X113852273Y-66005579D01*
X113865330Y-66137095D01*
X113551198Y-64440295D02*
X113743592Y-64441354D01*
X113035495Y-65234458D02*
X113214431Y-65058262D01*
X132599664Y-67692616D02*
X132486761Y-67514364D01*
X132402926Y-67317839D01*
X132386582Y-67262909D01*
X112120420Y-67723591D02*
X112038877Y-67828289D01*
X112025887Y-67727623D02*
X112000145Y-67523415D01*
X111931034Y-67324477D01*
X127089340Y-66644310D02*
X127075166Y-66873577D01*
X127032879Y-67087529D01*
X126962828Y-67285253D01*
X126865361Y-67465839D01*
X126740827Y-67628376D01*
X126693362Y-67678387D01*
X115098275Y-64664453D02*
X115098275Y-64664453D01*
X109457049Y-68505734D02*
X109669936Y-68513615D01*
X109890193Y-68486577D01*
X110104169Y-68427333D01*
X110298210Y-68338594D01*
X135743455Y-67558734D02*
X135839362Y-67380383D01*
X135852254Y-67358352D01*
X134533100Y-67639395D02*
X134396315Y-67767136D01*
X170000061Y-77342823D02*
X170113117Y-77031673D01*
X170231571Y-76732035D01*
X170355122Y-76444349D01*
X170483468Y-76169059D01*
X170616306Y-75906607D01*
X170753334Y-75657434D01*
X170894251Y-75421982D01*
X171038755Y-75200695D01*
X171186543Y-74994014D01*
X171337313Y-74802382D01*
X171490764Y-74626240D01*
X171646594Y-74466030D01*
X171804500Y-74322196D01*
X171964180Y-74195178D01*
X172206368Y-74037152D01*
X172287658Y-73993364D01*
X112764358Y-69074504D02*
X112605444Y-68871846D01*
X113865330Y-66137095D02*
X113874537Y-66290392D01*
X112140267Y-65969458D02*
X112184121Y-65940756D01*
X161747088Y-120852826D02*
X161763249Y-121058188D01*
X161778676Y-121258632D01*
X161800291Y-121547728D01*
X161819874Y-121819718D01*
X161837194Y-122070978D01*
X161852024Y-122297884D01*
X161867526Y-122556278D01*
X161877651Y-122756345D01*
X161879599Y-122947137D01*
X118228612Y-65203481D02*
X118470757Y-65203481D01*
X132599296Y-65207537D02*
X132856013Y-65212511D01*
X110400543Y-65698048D02*
X110462667Y-65734910D01*
X112793798Y-64213418D02*
X112988750Y-64301108D01*
X113179378Y-64377033D01*
X113188406Y-64380206D01*
X126658850Y-112569533D02*
X126646958Y-112793654D01*
X126658756Y-112997846D01*
X126712748Y-113211361D01*
X126790659Y-113402189D01*
X126804665Y-113433072D01*
X123404420Y-66288744D02*
X123428160Y-66490767D01*
X123431020Y-66698607D01*
X123413647Y-66915103D01*
X123404219Y-66970340D01*
X148977757Y-95204651D02*
X148142743Y-97324063D01*
X135259742Y-110061601D02*
X135400767Y-109806037D01*
X135556220Y-109565852D01*
X135724606Y-109342334D01*
X135904428Y-109136770D01*
X136094189Y-108950444D01*
X136292393Y-108784646D01*
X136497543Y-108640660D01*
X136708144Y-108519774D01*
X136922699Y-108423275D01*
X137139711Y-108352449D01*
X137285013Y-108320131D01*
X134775352Y-68055482D02*
X134533100Y-68055482D01*
X111826635Y-66679793D02*
X111817055Y-66472852D01*
X111788212Y-66274227D01*
X111757158Y-66201249D01*
X148142743Y-97324063D02*
X148057555Y-97540088D01*
X147974508Y-97750306D01*
X147894041Y-97953615D01*
X147816595Y-98148918D01*
X147742610Y-98335115D01*
X147639088Y-98594931D01*
X147545834Y-98828077D01*
X147464334Y-99030841D01*
X147376524Y-99247523D01*
X147296659Y-99439676D01*
X147283282Y-99467924D01*
X119218906Y-66490439D02*
X119220483Y-66732225D01*
X119223045Y-66984915D01*
X119229131Y-67206881D01*
X119257194Y-67419580D01*
X119343266Y-67537784D01*
X115972636Y-63833574D02*
X115985866Y-63804456D01*
X115354077Y-64051239D02*
X115197622Y-64180888D01*
X115186847Y-64194622D01*
X133344829Y-68073727D02*
X133344829Y-68073727D01*
X141371581Y-120376401D02*
X141106856Y-120454779D01*
X140838388Y-120530352D01*
X140566352Y-120603099D01*
X140290924Y-120673003D01*
X140012278Y-120740043D01*
X139730591Y-120804202D01*
X139446036Y-120865460D01*
X139158790Y-120923798D01*
X138869028Y-120979197D01*
X138576924Y-121031639D01*
X138282654Y-121081104D01*
X137986394Y-121127573D01*
X137688318Y-121171028D01*
X137388602Y-121211450D01*
X137087420Y-121248819D01*
X136784949Y-121283117D01*
X136481363Y-121314325D01*
X136176838Y-121342424D01*
X135871549Y-121367394D01*
X135565670Y-121389218D01*
X135259378Y-121407875D01*
X134952847Y-121423347D01*
X134646253Y-121435616D01*
X134339771Y-121444662D01*
X134033576Y-121450466D01*
X133727843Y-121453009D01*
X133422748Y-121452273D01*
X133118466Y-121448238D01*
X132815171Y-121440885D01*
X132513040Y-121430196D01*
X132212247Y-121416152D01*
X131912969Y-121398734D01*
X112349851Y-68875881D02*
X112264536Y-68689120D01*
X112180462Y-68501644D01*
X112130125Y-68381747D01*
X116005506Y-63463689D02*
X115851212Y-63601934D01*
X115760337Y-63689683D01*
X159106926Y-121405694D02*
X159104071Y-121616552D01*
X159100251Y-121827589D01*
X159095577Y-122035697D01*
X159090161Y-122237770D01*
X159081982Y-122492441D01*
X159072949Y-122723493D01*
X159063330Y-122923562D01*
X159048383Y-123149461D01*
X159043396Y-123201291D01*
X112650304Y-64068251D02*
X112569588Y-64105777D01*
X135013027Y-66633996D02*
X135017605Y-68055482D01*
X124649944Y-65638501D02*
X124782669Y-65512425D01*
X113098707Y-67919406D02*
X113015294Y-67732155D01*
X112952461Y-67669153D01*
D11*
X115341400Y-63822580D02*
X115399820Y-64173100D01*
X115399820Y-64173100D02*
X116078000Y-64046100D01*
X116078000Y-64046100D02*
X115536980Y-64632840D01*
X115536980Y-64632840D02*
X114950240Y-64627760D01*
X114950240Y-64627760D02*
X114904520Y-64246760D01*
X114904520Y-64246760D02*
X114968020Y-64201040D01*
X114968020Y-64201040D02*
X115028980Y-64058800D01*
X115028980Y-64058800D02*
X115054380Y-63896240D01*
X115054380Y-63896240D02*
X114960400Y-63814960D01*
X114960400Y-63814960D02*
X115006120Y-63741300D01*
X115006120Y-63741300D02*
X115341400Y-63822580D01*
G36*
X115341400Y-63822580D02*
G01*
X115399820Y-64173100D01*
X116078000Y-64046100D01*
X115536980Y-64632840D01*
X114950240Y-64627760D01*
X114904520Y-64246760D01*
X114968020Y-64201040D01*
X115028980Y-64058800D01*
X115054380Y-63896240D01*
X114960400Y-63814960D01*
X115006120Y-63741300D01*
X115341400Y-63822580D01*
G37*
X115341400Y-63822580D02*
X115399820Y-64173100D01*
X116078000Y-64046100D01*
X115536980Y-64632840D01*
X114950240Y-64627760D01*
X114904520Y-64246760D01*
X114968020Y-64201040D01*
X115028980Y-64058800D01*
X115054380Y-63896240D01*
X114960400Y-63814960D01*
X115006120Y-63741300D01*
X115341400Y-63822580D01*
D10*
X160127901Y-76442441D02*
X160084061Y-74390331D01*
X115486787Y-64680566D02*
X115281720Y-64671741D01*
X115098275Y-64664453D01*
X135493996Y-112031854D02*
X135321648Y-111908464D01*
X135141014Y-111730621D01*
X135016182Y-111534326D01*
X134946733Y-111316061D01*
X134932251Y-111072311D01*
X134957209Y-110870657D01*
X135012674Y-110651205D01*
X135098470Y-110412471D01*
X135214421Y-110152971D01*
X135259742Y-110061601D01*
X122031195Y-65191157D02*
X122237089Y-65205653D01*
X122437792Y-65245459D01*
X122631461Y-65320512D01*
X122650522Y-65329486D01*
X120765915Y-67508339D02*
X120656044Y-67333577D01*
X120569040Y-67131879D01*
X120518807Y-66913630D01*
X120501438Y-66697232D01*
X120500580Y-66629543D01*
X135824537Y-67865503D02*
X135661748Y-67749234D01*
X135743455Y-67558734D01*
X122120683Y-67624462D02*
X122120683Y-67624462D01*
X141851384Y-109666795D02*
X141944642Y-109488536D01*
X142021356Y-109281297D01*
X142054550Y-109074361D01*
X142065761Y-108837753D01*
X142067701Y-108632941D01*
X142067762Y-108574504D01*
X108909719Y-69044166D02*
X108702169Y-68997478D01*
X108495385Y-68927611D01*
X108300679Y-68827593D01*
X108160532Y-68719308D01*
D11*
X115951000Y-63200280D02*
X116042440Y-63373000D01*
X116042440Y-63373000D02*
X115404900Y-63972440D01*
X115404900Y-63972440D02*
X114937540Y-63769240D01*
X114937540Y-63769240D02*
X114914680Y-63787020D01*
X114914680Y-63787020D02*
X115272820Y-63040260D01*
X115272820Y-63040260D02*
X115951000Y-63200280D01*
G36*
X115951000Y-63200280D02*
G01*
X116042440Y-63373000D01*
X115404900Y-63972440D01*
X114937540Y-63769240D01*
X114914680Y-63787020D01*
X115272820Y-63040260D01*
X115951000Y-63200280D01*
G37*
X115951000Y-63200280D02*
X116042440Y-63373000D01*
X115404900Y-63972440D01*
X114937540Y-63769240D01*
X114914680Y-63787020D01*
X115272820Y-63040260D01*
X115951000Y-63200280D01*
D10*
X112481482Y-67381310D02*
X112315056Y-67505055D01*
X112171083Y-67660618D01*
X112120420Y-67723591D01*
X135017605Y-68055482D02*
X134775352Y-68055482D01*
X181933998Y-104250394D02*
X181717546Y-104331017D01*
X181523025Y-104399790D01*
X181316473Y-104470095D01*
X181104313Y-104539840D01*
X180892966Y-104606932D01*
X180688852Y-104669280D01*
X180453667Y-104737353D01*
X180368377Y-104760676D01*
X116937181Y-63186945D02*
X116796644Y-63331101D01*
X116767683Y-63338072D01*
X112349849Y-68875881D02*
X112349849Y-68875881D01*
X125233817Y-65705793D02*
X125051354Y-65813136D01*
X124893624Y-65965449D01*
X124771415Y-66149760D01*
X124695513Y-66353099D01*
X151119689Y-104559236D02*
X151388981Y-103799906D01*
X176972602Y-81389888D02*
X177157095Y-81250211D01*
X177306716Y-81081215D01*
X177421131Y-80888800D01*
X177500006Y-80678871D01*
X177543004Y-80457329D01*
X177549793Y-80230078D01*
X177520037Y-80003019D01*
X177453402Y-79782056D01*
X177349553Y-79573091D01*
X177208156Y-79382026D01*
X177092867Y-79267510D01*
X130954717Y-65228817D02*
X131155991Y-65303635D01*
X131336224Y-65400458D01*
X131488575Y-65515610D01*
X124782669Y-65512425D02*
X124956099Y-65373774D01*
X125144990Y-65275028D01*
X125355211Y-65214219D01*
X125556825Y-65190799D01*
X125742769Y-65190576D01*
X152361039Y-98107348D02*
X152261587Y-97906416D01*
X152150872Y-97706092D01*
X152029789Y-97507328D01*
X151899228Y-97311078D01*
X151760082Y-97118294D01*
X151613245Y-96929930D01*
X151459609Y-96746939D01*
X151300066Y-96570273D01*
X151135509Y-96400886D01*
X150966830Y-96239731D01*
X150794922Y-96087761D01*
X150620678Y-95945928D01*
X150444990Y-95815187D01*
X150268751Y-95696489D01*
X150092854Y-95590789D01*
X149918191Y-95499039D01*
X113874537Y-66290392D02*
X113627906Y-66518252D01*
X136990424Y-65621647D02*
X136788677Y-65621107D01*
X136584579Y-65655753D01*
X136456081Y-65707272D01*
X113143567Y-63042175D02*
X113159575Y-63306743D01*
X141419658Y-94116786D02*
X141853646Y-94363778D01*
X116669922Y-63726489D02*
X116464210Y-63743737D01*
X116261298Y-63772810D01*
X116054502Y-63812196D01*
X115972636Y-63833574D01*
X137526938Y-65260499D02*
X137718406Y-65326074D01*
X137905711Y-65410003D01*
X137941069Y-65436584D01*
X142067762Y-108574504D02*
X142066681Y-108355782D01*
X142060163Y-108143118D01*
X142034328Y-107924703D01*
X141968315Y-107727569D01*
X141866484Y-107542457D01*
X141847907Y-107511807D01*
X164374234Y-119749108D02*
X164163626Y-119682327D01*
X163957359Y-119607084D01*
X163753246Y-119530624D01*
X163520525Y-119441981D01*
X163330625Y-119368765D01*
X163130220Y-119290761D01*
X162991963Y-119236536D01*
X125742769Y-65190576D02*
X125957367Y-65210652D01*
X126178169Y-65262195D01*
X126374548Y-65347110D01*
X126554286Y-65468635D01*
X126676794Y-65579650D01*
X175487890Y-102386987D02*
X175312818Y-102210851D01*
X175141163Y-102033354D01*
X174972752Y-101854217D01*
X174807413Y-101673160D01*
X174644972Y-101489905D01*
X174485258Y-101304173D01*
X174328096Y-101115684D01*
X174173316Y-100924160D01*
X174020743Y-100729322D01*
X173870205Y-100530890D01*
X173721529Y-100328586D01*
X173574543Y-100122130D01*
X173429074Y-99911244D01*
X173284950Y-99695649D01*
X173141996Y-99475065D01*
X173000042Y-99249215D01*
X172858913Y-99017817D01*
X172718438Y-98780594D01*
X172578443Y-98537267D01*
X172438755Y-98287557D01*
X172299203Y-98031184D01*
X172159614Y-97767869D01*
X172019813Y-97497335D01*
X171879630Y-97219301D01*
X171738891Y-96933488D01*
X171597423Y-96639618D01*
X171455054Y-96337412D01*
X171311611Y-96026590D01*
X171166921Y-95706874D01*
X171020812Y-95377985D01*
X170873110Y-95039643D01*
X170723644Y-94691570D01*
X131324163Y-66030201D02*
X131202219Y-65906302D01*
X126693362Y-67678387D02*
X126532146Y-67814373D01*
X126349944Y-67923736D01*
X126151975Y-68005524D01*
X125943461Y-68058783D01*
X125729622Y-68082562D01*
X125515681Y-68075908D01*
X125306858Y-68037868D01*
X125108375Y-67967492D01*
X112563098Y-66173365D02*
X112377969Y-66096918D01*
X112220396Y-66020422D01*
X179515713Y-88947511D02*
X179388239Y-89102715D01*
X179202877Y-89308735D01*
X179017154Y-89511682D01*
X178873241Y-89667726D01*
X178714585Y-89838925D01*
X178542327Y-90024044D01*
X178357611Y-90221848D01*
X178161580Y-90431100D01*
X177955375Y-90650565D01*
X177740141Y-90879007D01*
X177517019Y-91115192D01*
X177287153Y-91357883D01*
X164860852Y-115908061D02*
X164606760Y-116014610D01*
X164359299Y-116118646D01*
X164119770Y-116219611D01*
X163889477Y-116316945D01*
X163669720Y-116410090D01*
X163461804Y-116498485D01*
X163267029Y-116581574D01*
X163002359Y-116695032D01*
X162774586Y-116793404D01*
X162588106Y-116874803D01*
X162381007Y-116967627D01*
X162320382Y-116998300D01*
X135946772Y-67406019D02*
X136131327Y-67495168D01*
X136339779Y-67566759D01*
X136546211Y-67615346D01*
X136565225Y-67618419D01*
X112952461Y-67669153D02*
X112794514Y-67530263D01*
X112624003Y-67413919D01*
X112481482Y-67381310D01*
X184288615Y-80992471D02*
X184513593Y-80934441D01*
X184735771Y-80877200D01*
X184954867Y-80820820D01*
X185170599Y-80765372D01*
X185382683Y-80710926D01*
X185590837Y-80657555D01*
X185794778Y-80605329D01*
X185994224Y-80554319D01*
X186188893Y-80504598D01*
X186562766Y-80409304D01*
X186914138Y-80320018D01*
X187240748Y-80237309D01*
X187540334Y-80161747D01*
X187810638Y-80093903D01*
X188049397Y-80034346D01*
X188254353Y-79983648D01*
X188493457Y-79925456D01*
X188690918Y-79880836D01*
X188697710Y-79880409D01*
X112448152Y-66349564D02*
X112633810Y-66453117D01*
X112771185Y-66539426D01*
X121574725Y-65704478D02*
X121385071Y-65817864D01*
X121224478Y-65976818D01*
X121102518Y-66169432D01*
X121028763Y-66383796D01*
X120085332Y-67975352D02*
X119890062Y-68045049D01*
X119671256Y-68081347D01*
X119458755Y-68079800D01*
X119419638Y-68074558D01*
X134533100Y-68055482D02*
X134533100Y-67847440D01*
X180343340Y-81714300D02*
X180175926Y-81839752D01*
X180002690Y-81976821D01*
X179875404Y-82100417D01*
X115760337Y-63689683D02*
X115601297Y-63839044D01*
X115440290Y-63980770D01*
X115354077Y-64051239D01*
X167980286Y-89939426D02*
X167747096Y-89707093D01*
X167496429Y-89475436D01*
X167228280Y-89244450D01*
X166942643Y-89014133D01*
X166639513Y-88784481D01*
X166318886Y-88555491D01*
X166152008Y-88441243D01*
X165980755Y-88327160D01*
X165805124Y-88213240D01*
X165625116Y-88099484D01*
X165440729Y-87985891D01*
X165251963Y-87872461D01*
X165058818Y-87759193D01*
X164861293Y-87646087D01*
X164659386Y-87533142D01*
X164453098Y-87420359D01*
X164242428Y-87307736D01*
X164027375Y-87195274D01*
X163807939Y-87082971D01*
X163584118Y-86970828D01*
X163355913Y-86858844D01*
X163123323Y-86747019D01*
X162886346Y-86635352D01*
X162644983Y-86523843D01*
X162399232Y-86412492D01*
X162149094Y-86301298D01*
X128326974Y-68055495D02*
X128066783Y-68055495D01*
X109426379Y-66941892D02*
X109644742Y-66913631D01*
X109849100Y-66911028D01*
X110063770Y-66932746D01*
X110183990Y-66961366D01*
X113933222Y-63634088D02*
X114016600Y-63436977D01*
X114140127Y-63266753D01*
X114303062Y-63168414D01*
X122893388Y-66351522D02*
X122816803Y-66144485D01*
X122697651Y-65961481D01*
X122543547Y-65811787D01*
X122362112Y-65704679D01*
X132349540Y-66176129D02*
X132342581Y-65202563D01*
X129149779Y-67185581D02*
X129076604Y-66937036D01*
X129046432Y-66685354D01*
X129057583Y-66436173D01*
X129108376Y-66195134D01*
X129197131Y-65967875D01*
X129322167Y-65760037D01*
X129481803Y-65577259D01*
X129674360Y-65425181D01*
X132873952Y-67095869D02*
X132930713Y-67215678D01*
X110509438Y-66247990D02*
X110392413Y-66182059D01*
X137387854Y-67018021D02*
X137193324Y-66935093D01*
X136972607Y-66888461D01*
X136837963Y-66862978D01*
X179005805Y-93663215D02*
X180172363Y-96046271D01*
X118228612Y-65633961D02*
X118228612Y-65418720D01*
D11*
X110512860Y-67089020D02*
X110766860Y-67386200D01*
X110766860Y-67386200D02*
X110596680Y-67810380D01*
X110596680Y-67810380D02*
X110172500Y-68079620D01*
X110172500Y-68079620D02*
X109649260Y-67924680D01*
X109649260Y-67924680D02*
X109720380Y-67513200D01*
X109720380Y-67513200D02*
X109875320Y-67612260D01*
X109875320Y-67612260D02*
X110073440Y-67838320D01*
X110073440Y-67838320D02*
X110385860Y-67797680D01*
X110385860Y-67797680D02*
X110469680Y-67571620D01*
X110469680Y-67571620D02*
X110413800Y-67330320D01*
X110413800Y-67330320D02*
X110243620Y-67203320D01*
X110243620Y-67203320D02*
X109890560Y-67188080D01*
X109890560Y-67188080D02*
X109225080Y-67358260D01*
X109225080Y-67358260D02*
X108658660Y-67683380D01*
X108658660Y-67683380D02*
X108559600Y-68107560D01*
X108559600Y-68107560D02*
X108884720Y-68364100D01*
X108884720Y-68364100D02*
X109364780Y-68503800D01*
X109364780Y-68503800D02*
X109903260Y-68546980D01*
X109903260Y-68546980D02*
X110413800Y-68249800D01*
X110413800Y-68249800D02*
X111008160Y-67853560D01*
X111008160Y-67853560D02*
X111305340Y-67472560D01*
X111305340Y-67472560D02*
X111617760Y-67116960D01*
X111617760Y-67116960D02*
X111630460Y-67144900D01*
X111630460Y-67144900D02*
X111673640Y-67330320D01*
X111673640Y-67330320D02*
X111772700Y-67924680D01*
X111772700Y-67924680D02*
X111658400Y-68221860D01*
X111658400Y-68221860D02*
X111305340Y-68519040D01*
X111305340Y-68519040D02*
X110568740Y-68902580D01*
X110568740Y-68902580D02*
X109054900Y-69085460D01*
X109054900Y-69085460D02*
X108290360Y-68816220D01*
X108290360Y-68816220D02*
X108033820Y-68348860D01*
X108033820Y-68348860D02*
X108191300Y-67853560D01*
X108191300Y-67853560D02*
X108600240Y-67373500D01*
X108600240Y-67373500D02*
X109423200Y-66946780D01*
X109423200Y-66946780D02*
X110512860Y-67089020D01*
G36*
X110512860Y-67089020D02*
G01*
X110766860Y-67386200D01*
X110596680Y-67810380D01*
X110172500Y-68079620D01*
X109649260Y-67924680D01*
X109720380Y-67513200D01*
X109875320Y-67612260D01*
X110073440Y-67838320D01*
X110385860Y-67797680D01*
X110469680Y-67571620D01*
X110413800Y-67330320D01*
X110243620Y-67203320D01*
X109890560Y-67188080D01*
X109225080Y-67358260D01*
X108658660Y-67683380D01*
X108559600Y-68107560D01*
X108884720Y-68364100D01*
X109364780Y-68503800D01*
X109903260Y-68546980D01*
X110413800Y-68249800D01*
X111008160Y-67853560D01*
X111305340Y-67472560D01*
X111617760Y-67116960D01*
X111630460Y-67144900D01*
X111673640Y-67330320D01*
X111772700Y-67924680D01*
X111658400Y-68221860D01*
X111305340Y-68519040D01*
X110568740Y-68902580D01*
X109054900Y-69085460D01*
X108290360Y-68816220D01*
X108033820Y-68348860D01*
X108191300Y-67853560D01*
X108600240Y-67373500D01*
X109423200Y-66946780D01*
X110512860Y-67089020D01*
G37*
X110512860Y-67089020D02*
X110766860Y-67386200D01*
X110596680Y-67810380D01*
X110172500Y-68079620D01*
X109649260Y-67924680D01*
X109720380Y-67513200D01*
X109875320Y-67612260D01*
X110073440Y-67838320D01*
X110385860Y-67797680D01*
X110469680Y-67571620D01*
X110413800Y-67330320D01*
X110243620Y-67203320D01*
X109890560Y-67188080D01*
X109225080Y-67358260D01*
X108658660Y-67683380D01*
X108559600Y-68107560D01*
X108884720Y-68364100D01*
X109364780Y-68503800D01*
X109903260Y-68546980D01*
X110413800Y-68249800D01*
X111008160Y-67853560D01*
X111305340Y-67472560D01*
X111617760Y-67116960D01*
X111630460Y-67144900D01*
X111673640Y-67330320D01*
X111772700Y-67924680D01*
X111658400Y-68221860D01*
X111305340Y-68519040D01*
X110568740Y-68902580D01*
X109054900Y-69085460D01*
X108290360Y-68816220D01*
X108033820Y-68348860D01*
X108191300Y-67853560D01*
X108600240Y-67373500D01*
X109423200Y-66946780D01*
X110512860Y-67089020D01*
D10*
X120022285Y-65418720D02*
X120022285Y-65633961D01*
X111600956Y-65391817D02*
X111709018Y-65573216D01*
X111824754Y-65759182D01*
X111940662Y-65932563D01*
X112070773Y-66099193D01*
X112111205Y-66139249D01*
X161782982Y-75904936D02*
X161919340Y-75704439D01*
X162024658Y-75525529D01*
X162153166Y-75300412D01*
X162262430Y-75105344D01*
X162380917Y-74890979D01*
X162506990Y-74660187D01*
X162639010Y-74415838D01*
X162729519Y-74246823D01*
X154526981Y-111478040D02*
X154526981Y-110487063D01*
X159043396Y-123201291D02*
X158995126Y-123641028D01*
X154825148Y-111073381D02*
X154526981Y-111478040D01*
X172287658Y-73993364D02*
X172491105Y-73906285D01*
X172685054Y-73834612D01*
X172908556Y-73758044D01*
X173106809Y-73694208D01*
X173306924Y-73633522D01*
X173346425Y-73622025D01*
X143559963Y-106413979D02*
X143722749Y-106597225D01*
X143864831Y-106781445D01*
X143986246Y-106967607D01*
X144087032Y-107156681D01*
X144167227Y-107349636D01*
X144226869Y-107547440D01*
X144265996Y-107751064D01*
X144284648Y-107961477D01*
X144282860Y-108179648D01*
X144260673Y-108406546D01*
X144218124Y-108643141D01*
X144155250Y-108890402D01*
X144072091Y-109149298D01*
X143968684Y-109420798D01*
X143845067Y-109705872D01*
X143701280Y-110005490D01*
X173346425Y-73622025D02*
X173667010Y-73531613D01*
X173988316Y-73445408D01*
X174310139Y-73363426D01*
X174632278Y-73285680D01*
X174954527Y-73212188D01*
X175276685Y-73142965D01*
X175598548Y-73078025D01*
X175919912Y-73017384D01*
X176240574Y-72961059D01*
X176560332Y-72909063D01*
X176878982Y-72861413D01*
X177196321Y-72818124D01*
X177512145Y-72779212D01*
X177826251Y-72744692D01*
X178138437Y-72714579D01*
X178448499Y-72688889D01*
X178756233Y-72667637D01*
X179061436Y-72650839D01*
X179363906Y-72638511D01*
X179663439Y-72630666D01*
X179959832Y-72627322D01*
X180252882Y-72628494D01*
X180542384Y-72634196D01*
X180828137Y-72644445D01*
X181109937Y-72659255D01*
X181387581Y-72678643D01*
X181660865Y-72702623D01*
X181929587Y-72731212D01*
X182193542Y-72764424D01*
X182452529Y-72802275D01*
X182706343Y-72844781D01*
X182954782Y-72891957D01*
X111644620Y-67009062D02*
X111664502Y-67209120D01*
X111710305Y-67420207D01*
X111746691Y-67541912D01*
X111574204Y-67070654D02*
X111644620Y-67009062D01*
X137968980Y-67562237D02*
X137833141Y-67750383D01*
X137670236Y-67878035D01*
X137467690Y-67977085D01*
X137230706Y-68045551D01*
X137019818Y-68076971D01*
X136792881Y-68086534D01*
X136613749Y-68078752D01*
X136565225Y-67618419D02*
X136776713Y-67636322D01*
X136981417Y-67635051D01*
X137187718Y-67612346D01*
X137214634Y-67605825D01*
X141853646Y-94363778D02*
X142041428Y-94471103D01*
X142218644Y-94572725D01*
X142429141Y-94693609D01*
X142604554Y-94794441D01*
X142791651Y-94902062D01*
X142987414Y-95014738D01*
X143188829Y-95130736D01*
X143392879Y-95248321D01*
X143596549Y-95365761D01*
X156898283Y-108635457D02*
X156707856Y-108836543D01*
X156506611Y-109055080D01*
X156368148Y-109208453D01*
X156227441Y-109366565D01*
X156085519Y-109528208D01*
X155943406Y-109692176D01*
X155802128Y-109857261D01*
X155662713Y-110022258D01*
X155526186Y-110185960D01*
X155393574Y-110347159D01*
X155265902Y-110504648D01*
X155085903Y-110731289D01*
X154922794Y-110942795D01*
X154825148Y-111073381D01*
X128358388Y-64500491D02*
X128191033Y-64628273D01*
X127977648Y-64640258D01*
X127884406Y-64602273D01*
X184436262Y-78242506D02*
X184197341Y-78472596D01*
X183954036Y-78702748D01*
X183706803Y-78932576D01*
X183456098Y-79161691D01*
X183202381Y-79389705D01*
X182946106Y-79616230D01*
X182687733Y-79840880D01*
X182427717Y-80063265D01*
X182166517Y-80282998D01*
X181904588Y-80499691D01*
X181642390Y-80712957D01*
X181380377Y-80922408D01*
X181119009Y-81127655D01*
X180858742Y-81328311D01*
X180600033Y-81523989D01*
X180343340Y-81714300D01*
X126676794Y-65579650D02*
X126825468Y-65748588D01*
X126938216Y-65923924D01*
X127017746Y-66112647D01*
X127066764Y-66321743D01*
X127087979Y-66558202D01*
X127089340Y-66644310D01*
D11*
X113344960Y-63677800D02*
X113329720Y-63662560D01*
X113329720Y-63662560D02*
X112580420Y-64145160D01*
X112580420Y-64145160D02*
X113060480Y-64355980D01*
X113060480Y-64355980D02*
X113769140Y-64498220D01*
X113769140Y-64498220D02*
X114292380Y-64879220D01*
X114292380Y-64879220D02*
X115001040Y-65049400D01*
X115001040Y-65049400D02*
X115001040Y-65191640D01*
X115001040Y-65191640D02*
X114576860Y-65603120D01*
X114576860Y-65603120D02*
X114632740Y-65928240D01*
X114632740Y-65928240D02*
X115016280Y-66367660D01*
X115016280Y-66367660D02*
X115072160Y-65829180D01*
X115072160Y-65829180D02*
X115412520Y-66225420D01*
X115412520Y-66225420D02*
X115808760Y-65615820D01*
X115808760Y-65615820D02*
X115793520Y-66141600D01*
X115793520Y-66141600D02*
X116149120Y-66098420D01*
X116149120Y-66098420D02*
X115836700Y-66636900D01*
X115836700Y-66636900D02*
X115143280Y-67033140D01*
X115143280Y-67033140D02*
X114759740Y-66890900D01*
X114759740Y-66890900D02*
X114137440Y-65928240D01*
X114137440Y-65928240D02*
X113753900Y-65206880D01*
X113753900Y-65206880D02*
X113103660Y-64838580D01*
X113103660Y-64838580D02*
X112014000Y-64129920D01*
X112014000Y-64129920D02*
X112664240Y-63507620D01*
X112664240Y-63507620D02*
X113075720Y-63322200D01*
X113075720Y-63322200D02*
X113344960Y-63677800D01*
G36*
X113344960Y-63677800D02*
G01*
X113329720Y-63662560D01*
X112580420Y-64145160D01*
X113060480Y-64355980D01*
X113769140Y-64498220D01*
X114292380Y-64879220D01*
X115001040Y-65049400D01*
X115001040Y-65191640D01*
X114576860Y-65603120D01*
X114632740Y-65928240D01*
X115016280Y-66367660D01*
X115072160Y-65829180D01*
X115412520Y-66225420D01*
X115808760Y-65615820D01*
X115793520Y-66141600D01*
X116149120Y-66098420D01*
X115836700Y-66636900D01*
X115143280Y-67033140D01*
X114759740Y-66890900D01*
X114137440Y-65928240D01*
X113753900Y-65206880D01*
X113103660Y-64838580D01*
X112014000Y-64129920D01*
X112664240Y-63507620D01*
X113075720Y-63322200D01*
X113344960Y-63677800D01*
G37*
X113344960Y-63677800D02*
X113329720Y-63662560D01*
X112580420Y-64145160D01*
X113060480Y-64355980D01*
X113769140Y-64498220D01*
X114292380Y-64879220D01*
X115001040Y-65049400D01*
X115001040Y-65191640D01*
X114576860Y-65603120D01*
X114632740Y-65928240D01*
X115016280Y-66367660D01*
X115072160Y-65829180D01*
X115412520Y-66225420D01*
X115808760Y-65615820D01*
X115793520Y-66141600D01*
X116149120Y-66098420D01*
X115836700Y-66636900D01*
X115143280Y-67033140D01*
X114759740Y-66890900D01*
X114137440Y-65928240D01*
X113753900Y-65206880D01*
X113103660Y-64838580D01*
X112014000Y-64129920D01*
X112664240Y-63507620D01*
X113075720Y-63322200D01*
X113344960Y-63677800D01*
D10*
X185052709Y-98039349D02*
X185246012Y-97970622D01*
X185442066Y-97887426D01*
X185626572Y-97806851D01*
X185839435Y-97712349D01*
X186077271Y-97605407D01*
X186336701Y-97487513D01*
X186519979Y-97403568D01*
X186710350Y-97315857D01*
X186906809Y-97224821D01*
X187007010Y-97178195D01*
X111234775Y-66093646D02*
X111159782Y-66281536D01*
X111127407Y-66354369D01*
X122893645Y-66907562D02*
X122915854Y-66689285D01*
X122910787Y-66473841D01*
X122893388Y-66351522D01*
X141151654Y-106912442D02*
X140964355Y-106826460D01*
X140757225Y-106745747D01*
X140531423Y-106670463D01*
X140288108Y-106600768D01*
X140028440Y-106536823D01*
X139753580Y-106478788D01*
X139464686Y-106426823D01*
X139162918Y-106381089D01*
X138849435Y-106341746D01*
X138525398Y-106308954D01*
X138191966Y-106282874D01*
X137850299Y-106263667D01*
X137501556Y-106251491D01*
X137146897Y-106246509D01*
X136787482Y-106248880D01*
X136424470Y-106258765D01*
X160083914Y-72377941D02*
X160181792Y-72567720D01*
X160268966Y-72749159D01*
X160378139Y-72979992D01*
X160472384Y-73181134D01*
X160575615Y-73402864D01*
X160686380Y-73642099D01*
X160803225Y-73895755D01*
X160924700Y-74160748D01*
X110834328Y-65938885D02*
X110948466Y-65760437D01*
X110980722Y-65701223D01*
X149378085Y-88648247D02*
X150257804Y-90167489D01*
X114805426Y-66274480D02*
X114967356Y-66403457D01*
X114995530Y-66413559D01*
X111630121Y-66006153D02*
X111466226Y-65878539D01*
X111353250Y-65836460D01*
X108523668Y-67421981D02*
X108700161Y-67271976D01*
X108889490Y-67146583D01*
X109090382Y-67046480D01*
X109301568Y-66972340D01*
X109426379Y-66941892D01*
X114323625Y-64880440D02*
X114514645Y-64947183D01*
X114722013Y-64994720D01*
X114841717Y-65014981D01*
X114754214Y-65443508D02*
X114617657Y-65594973D01*
X114569532Y-65660663D01*
X178932431Y-85780796D02*
X178594922Y-85764814D01*
X178269269Y-85748423D01*
X177955199Y-85731581D01*
X177652441Y-85714250D01*
X177360724Y-85696390D01*
X177079776Y-85677961D01*
X176809327Y-85658925D01*
X176549104Y-85639242D01*
X176298836Y-85618872D01*
X176058252Y-85597775D01*
X175827080Y-85575914D01*
X175605050Y-85553247D01*
X175391890Y-85529736D01*
X175187327Y-85505341D01*
X174802913Y-85453742D01*
X174449635Y-85398135D01*
X174125323Y-85338203D01*
X173827806Y-85273632D01*
X173554913Y-85204106D01*
X173304474Y-85129309D01*
X173074316Y-85048927D01*
X172862269Y-84962642D01*
X172666163Y-84870142D01*
X162149094Y-86301298D02*
X161932910Y-86205430D01*
X161728583Y-86113341D01*
X161534448Y-86024148D01*
X161348842Y-85936968D01*
X161082781Y-85808041D01*
X160826545Y-85678674D01*
X160574516Y-85545886D01*
X160321078Y-85406698D01*
X160060611Y-85258129D01*
X159880287Y-85152398D01*
X159692679Y-85040290D01*
X159496122Y-84920922D01*
X159288950Y-84793409D01*
X159180865Y-84726323D01*
X163778021Y-75103309D02*
X163834751Y-77062208D01*
X116610849Y-63589625D02*
X116821676Y-63577961D01*
X117011299Y-63483728D01*
X117101109Y-63346063D01*
X110076370Y-69033988D02*
X109858547Y-69058802D01*
X109658176Y-69069065D01*
X109443129Y-69072911D01*
X109233384Y-69070166D01*
X109016821Y-69057924D01*
X108909719Y-69044201D01*
X108930891Y-67499573D02*
X108762941Y-67654288D01*
X108635731Y-67824122D01*
X108578905Y-68015951D01*
X108610043Y-68130099D01*
X134396315Y-67767136D02*
X134235041Y-67892866D01*
X134054483Y-67987893D01*
X133857093Y-68051502D01*
X133645322Y-68082978D01*
X133421622Y-68081607D01*
X133344829Y-68073727D01*
X127811198Y-66634004D02*
X127815775Y-65212519D01*
X118712903Y-65633961D02*
X118470757Y-65633961D01*
X155326725Y-115634420D02*
X155539134Y-115575251D01*
X155736630Y-115532867D01*
X155938095Y-115492977D01*
X156083417Y-115465778D01*
X179090124Y-104806829D02*
X178868703Y-104724771D01*
X178645914Y-104632904D01*
X178421945Y-104531352D01*
X178196981Y-104420241D01*
X177971210Y-104299697D01*
X177744818Y-104169844D01*
X177517993Y-104030809D01*
X177290921Y-103882716D01*
X177063790Y-103725693D01*
X176836785Y-103559863D01*
X176610094Y-103385352D01*
X176383904Y-103202287D01*
X176158402Y-103010792D01*
X175933774Y-102810994D01*
X175710208Y-102603016D01*
X175487890Y-102386987D01*
X123102940Y-118336034D02*
X122934387Y-118170773D01*
X122791652Y-118019016D01*
X122636976Y-117827343D01*
X122517341Y-117634869D01*
X122426543Y-117427422D01*
X122358378Y-117190824D01*
X122318374Y-116985720D01*
X122284995Y-116750265D01*
X122255622Y-116478481D01*
X122246269Y-116378780D01*
X140367254Y-111045764D02*
X140577017Y-110929868D01*
X140791586Y-110786934D01*
X140952137Y-110665269D01*
X141109616Y-110533761D01*
X141261548Y-110394709D01*
X141405459Y-110250415D01*
X141580583Y-110053840D01*
X141731180Y-109857483D01*
X141851384Y-109666795D01*
D11*
X122783600Y-65427860D02*
X123322080Y-66022220D01*
X123322080Y-66022220D02*
X123421140Y-66774060D01*
X123421140Y-66774060D02*
X123136660Y-67495420D01*
X123136660Y-67495420D02*
X122359420Y-68061840D01*
X122359420Y-68061840D02*
X121396760Y-67990720D01*
X121396760Y-67990720D02*
X120830340Y-67609720D01*
X120830340Y-67609720D02*
X120489980Y-66702940D01*
X120489980Y-66702940D02*
X120672860Y-65796160D01*
X120672860Y-65796160D02*
X121069100Y-65486280D01*
X121069100Y-65486280D02*
X121366280Y-65783460D01*
X121366280Y-65783460D02*
X121353580Y-65783460D01*
X121353580Y-65783460D02*
X121297700Y-65938400D01*
X121297700Y-65938400D02*
X121056400Y-66192400D01*
X121056400Y-66192400D02*
X120997980Y-66730880D01*
X120997980Y-66730880D02*
X121226580Y-67353180D01*
X121226580Y-67353180D02*
X121805700Y-67650360D01*
X121805700Y-67650360D02*
X122428000Y-67551300D01*
X122428000Y-67551300D02*
X122854720Y-67099180D01*
X122854720Y-67099180D02*
X122882660Y-66504820D01*
X122882660Y-66504820D02*
X122684540Y-65966340D01*
X122684540Y-65966340D02*
X122316240Y-65697100D01*
X122316240Y-65697100D02*
X121594880Y-65669160D01*
X121594880Y-65669160D02*
X121465340Y-65285620D01*
X121465340Y-65285620D02*
X122019060Y-65217040D01*
X122019060Y-65217040D02*
X122783600Y-65427860D01*
G36*
X122783600Y-65427860D02*
G01*
X123322080Y-66022220D01*
X123421140Y-66774060D01*
X123136660Y-67495420D01*
X122359420Y-68061840D01*
X121396760Y-67990720D01*
X120830340Y-67609720D01*
X120489980Y-66702940D01*
X120672860Y-65796160D01*
X121069100Y-65486280D01*
X121366280Y-65783460D01*
X121353580Y-65783460D01*
X121297700Y-65938400D01*
X121056400Y-66192400D01*
X120997980Y-66730880D01*
X121226580Y-67353180D01*
X121805700Y-67650360D01*
X122428000Y-67551300D01*
X122854720Y-67099180D01*
X122882660Y-66504820D01*
X122684540Y-65966340D01*
X122316240Y-65697100D01*
X121594880Y-65669160D01*
X121465340Y-65285620D01*
X122019060Y-65217040D01*
X122783600Y-65427860D01*
G37*
X122783600Y-65427860D02*
X123322080Y-66022220D01*
X123421140Y-66774060D01*
X123136660Y-67495420D01*
X122359420Y-68061840D01*
X121396760Y-67990720D01*
X120830340Y-67609720D01*
X120489980Y-66702940D01*
X120672860Y-65796160D01*
X121069100Y-65486280D01*
X121366280Y-65783460D01*
X121353580Y-65783460D01*
X121297700Y-65938400D01*
X121056400Y-66192400D01*
X120997980Y-66730880D01*
X121226580Y-67353180D01*
X121805700Y-67650360D01*
X122428000Y-67551300D01*
X122854720Y-67099180D01*
X122882660Y-66504820D01*
X122684540Y-65966340D01*
X122316240Y-65697100D01*
X121594880Y-65669160D01*
X121465340Y-65285620D01*
X122019060Y-65217040D01*
X122783600Y-65427860D01*
D10*
X187398690Y-75113434D02*
X187376674Y-75319920D01*
X187270157Y-75502408D01*
X187131990Y-75655774D01*
X186968948Y-75817280D01*
X186810744Y-75968067D01*
X186617968Y-76149286D01*
X121968418Y-65643224D02*
X121761530Y-65647556D01*
X121574725Y-65704478D01*
X110296916Y-68039506D02*
X110094877Y-68038390D01*
X110001710Y-68020800D01*
X177287153Y-91357883D02*
X175029138Y-93738796D01*
X110001710Y-68020800D02*
X109795020Y-67970283D01*
X109618354Y-67863736D01*
X109609029Y-67754999D01*
X175378242Y-80288995D02*
X175400389Y-80546547D01*
X175463061Y-80781959D01*
X175561348Y-80991840D01*
X175690341Y-81172801D01*
X175845132Y-81321451D01*
X176020810Y-81434402D01*
X176212468Y-81508263D01*
X176415195Y-81539645D01*
X176624083Y-81525158D01*
X176834222Y-81461413D01*
X176972587Y-81389877D01*
X175158360Y-94068598D02*
X175246146Y-94297803D01*
X175328890Y-94516155D01*
X175403853Y-94714602D01*
X175488258Y-94938479D01*
X175580646Y-95183918D01*
X175679561Y-95447051D01*
X175783544Y-95724011D01*
X175854962Y-95914421D01*
X175927553Y-96108111D01*
X176000885Y-96303935D01*
X131488575Y-65515610D02*
X131624690Y-65670406D01*
X131696336Y-65785678D01*
X109609029Y-67754999D02*
X109713579Y-67577422D01*
X109800087Y-67500581D01*
X169462336Y-84976003D02*
X169605733Y-85121503D01*
X169752233Y-85267718D01*
X169899511Y-85412462D01*
X170045242Y-85553548D01*
X170233128Y-85732196D01*
X170408621Y-85895274D01*
X170566214Y-86037601D01*
X170729638Y-86178435D01*
X170805659Y-86239276D01*
X148424824Y-90134150D02*
X149378085Y-88648247D01*
X114139039Y-64459322D02*
X113974987Y-64344880D01*
X113949131Y-64330406D01*
X116767683Y-63338072D02*
X116595919Y-63227148D01*
X116589637Y-63212842D01*
X137732342Y-65829528D02*
X137622529Y-65781284D01*
X110980722Y-65701223D02*
X111081190Y-65517617D01*
X111166023Y-65371367D01*
X112286288Y-68334239D02*
X112508658Y-68283213D01*
X112733288Y-68212973D01*
X112931903Y-68121282D01*
X113084577Y-67978489D01*
X113098707Y-67919406D01*
X136837963Y-66862978D02*
X136613802Y-66820068D01*
X136407917Y-66775980D01*
X136215770Y-66716470D01*
X136135036Y-66680021D01*
X126574646Y-66629451D02*
X126557971Y-66417820D01*
X126494960Y-66191734D01*
X126386757Y-65998593D01*
X126235184Y-65841086D01*
X126042060Y-65721904D01*
X125930486Y-65677525D01*
X161879599Y-122947137D02*
X161707032Y-122784918D01*
X161560560Y-122618592D01*
X161426789Y-122461835D01*
X161275102Y-122280676D01*
X161107825Y-122077850D01*
X160927282Y-121856091D01*
X160800699Y-121699085D01*
X160669943Y-121535689D01*
X160535704Y-121366716D01*
X156432502Y-83151364D02*
X156237870Y-83043872D01*
X156047679Y-82938460D01*
X155862956Y-82835713D01*
X155684729Y-82736217D01*
X155431818Y-82594349D01*
X155199307Y-82463090D01*
X154990667Y-82344416D01*
X154809368Y-82240304D01*
X154616164Y-82127557D01*
X154434602Y-82015089D01*
X154426986Y-82009009D01*
X114026718Y-65765880D02*
X113934295Y-65563686D01*
X113837198Y-65381594D01*
X113719591Y-65212695D01*
X113633787Y-65123527D01*
X110183990Y-66961366D02*
X110388776Y-67042299D01*
X110576845Y-67152381D01*
X110723253Y-67304334D01*
D11*
X124627640Y-65354200D02*
X124607320Y-69060060D01*
X124607320Y-69060060D02*
X124170440Y-69039740D01*
X124170440Y-69039740D02*
X124231400Y-65333880D01*
X124231400Y-65333880D02*
X124190760Y-65333880D01*
X124190760Y-65333880D02*
X124460000Y-65186560D01*
X124460000Y-65186560D02*
X124627640Y-65354200D01*
G36*
X124627640Y-65354200D02*
G01*
X124607320Y-69060060D01*
X124170440Y-69039740D01*
X124231400Y-65333880D01*
X124190760Y-65333880D01*
X124460000Y-65186560D01*
X124627640Y-65354200D01*
G37*
X124627640Y-65354200D02*
X124607320Y-69060060D01*
X124170440Y-69039740D01*
X124231400Y-65333880D01*
X124190760Y-65333880D01*
X124460000Y-65186560D01*
X124627640Y-65354200D01*
D10*
X137133915Y-66468650D02*
X137341049Y-66512988D01*
X137535323Y-66570254D01*
X137724930Y-66658976D01*
X137879294Y-66787341D01*
X112718651Y-63024636D02*
X112808736Y-63212685D01*
X112822286Y-63243431D01*
D11*
X113685320Y-65361820D02*
X113840260Y-66309240D01*
X113840260Y-66309240D02*
X113357660Y-66748660D01*
X113357660Y-66748660D02*
X112224820Y-65913000D01*
X112224820Y-65913000D02*
X112196880Y-65928240D01*
X112196880Y-65928240D02*
X113202720Y-65036700D01*
X113202720Y-65036700D02*
X113685320Y-65361820D01*
G36*
X113685320Y-65361820D02*
G01*
X113840260Y-66309240D01*
X113357660Y-66748660D01*
X112224820Y-65913000D01*
X112196880Y-65928240D01*
X113202720Y-65036700D01*
X113685320Y-65361820D01*
G37*
X113685320Y-65361820D02*
X113840260Y-66309240D01*
X113357660Y-66748660D01*
X112224820Y-65913000D01*
X112196880Y-65928240D01*
X113202720Y-65036700D01*
X113685320Y-65361820D01*
D10*
X115319713Y-66987022D02*
X115123216Y-67029988D01*
X114968420Y-66983503D01*
X112111205Y-66139249D02*
X112282686Y-66255258D01*
X112448152Y-66349564D01*
X115062792Y-65662263D02*
X115202376Y-65953131D01*
X110480873Y-67567719D02*
X110463029Y-67367756D01*
X110449076Y-67343416D01*
X135852254Y-67358352D02*
X135946772Y-67406019D01*
X140385628Y-97465069D02*
X140602095Y-97416258D01*
X140799528Y-97373641D01*
X141044155Y-97321413D01*
X141266778Y-97274226D01*
X141507505Y-97223487D01*
X141696697Y-97183797D01*
X110424046Y-66082774D02*
X110570776Y-66045801D01*
X111353250Y-65836460D02*
X111264423Y-66019488D01*
X111234775Y-66093646D01*
X135116315Y-116787970D02*
X135449113Y-116784012D01*
X135775700Y-116771772D01*
X136096647Y-116751117D01*
X136412525Y-116721915D01*
X136723905Y-116684034D01*
X137031360Y-116637342D01*
X137335460Y-116581707D01*
X137636777Y-116516998D01*
X137935882Y-116443082D01*
X138233347Y-116359827D01*
X138529742Y-116267101D01*
X138825641Y-116164772D01*
X139121613Y-116052709D01*
X139418230Y-115930779D01*
X139716064Y-115798850D01*
X140015686Y-115656791D01*
X114303062Y-63168414D02*
X114517596Y-63113719D01*
X114744898Y-63072525D01*
X114972257Y-63046167D01*
X115186962Y-63035981D01*
X115404502Y-63046318D01*
X115431584Y-63049864D01*
X116224189Y-63968895D02*
X116077188Y-64116323D01*
X115923923Y-64275291D01*
X115872425Y-64329123D01*
X170805659Y-86239276D02*
X171124194Y-86469922D01*
X171291361Y-86581679D01*
X171463787Y-86691056D01*
X171641467Y-86798052D01*
X171824395Y-86902663D01*
X172012568Y-87004890D01*
X172205978Y-87104730D01*
X172404622Y-87202180D01*
X172608494Y-87297241D01*
X172817588Y-87389909D01*
X173031901Y-87480184D01*
X173251426Y-87568063D01*
X173476158Y-87653545D01*
X173706092Y-87736628D01*
X173941224Y-87817310D01*
X174181547Y-87895589D01*
X174427057Y-87971464D01*
X174677749Y-88044933D01*
X174933617Y-88115995D01*
X175194656Y-88184647D01*
X175460861Y-88250888D01*
X175732227Y-88314716D01*
X176008748Y-88376130D01*
X176290420Y-88435127D01*
X176577238Y-88491706D01*
X176869195Y-88545865D01*
X177166288Y-88597603D01*
X177468510Y-88646918D01*
X177775857Y-88693807D01*
X178088323Y-88738270D01*
X178405904Y-88780305D01*
X159180865Y-84726323D02*
X158972665Y-84599529D01*
X158775726Y-84482464D01*
X158549109Y-84349595D01*
X158297569Y-84203647D01*
X158118379Y-84100428D01*
X157931635Y-83993414D01*
X157738746Y-83883414D01*
X157541121Y-83771233D01*
X157340170Y-83657681D01*
X157137301Y-83543564D01*
X156933923Y-83429690D01*
X156731446Y-83316865D01*
X156531279Y-83205898D01*
X156432502Y-83151364D01*
X118712903Y-66509092D02*
X118712903Y-65633961D01*
X163651527Y-78967204D02*
X163452674Y-79086634D01*
X163269930Y-79188782D01*
X163053228Y-79305884D01*
X162807865Y-79435309D01*
X162539140Y-79574428D01*
X162252351Y-79720610D01*
X161952796Y-79871224D01*
X161645774Y-80023642D01*
X161336582Y-80175232D01*
X161030520Y-80323365D01*
X160732884Y-80465410D01*
X160448974Y-80598736D01*
X160184088Y-80720715D01*
X159943524Y-80828716D01*
X159732580Y-80920108D01*
X159639872Y-80958754D01*
X171683013Y-84179921D02*
X171468628Y-84011733D01*
X171254430Y-83850409D01*
X171042041Y-83696975D01*
X170833081Y-83552457D01*
X170629172Y-83417879D01*
X170431937Y-83294268D01*
X170242997Y-83182649D01*
X170063974Y-83084049D01*
X169843505Y-82974604D01*
X169647394Y-82892557D01*
X108610043Y-68130099D02*
X108775181Y-68274022D01*
X108965755Y-68369785D01*
X109157014Y-68439182D01*
X109357841Y-68489690D01*
X109457049Y-68505734D01*
X116305017Y-63632691D02*
X116503820Y-63592223D01*
X116610849Y-63589625D01*
D11*
X132836920Y-65217040D02*
X132821680Y-66984880D01*
X132821680Y-66984880D02*
X132963920Y-67353180D01*
X132963920Y-67353180D02*
X133332220Y-67594480D01*
X133332220Y-67594480D02*
X133743700Y-67609720D01*
X133743700Y-67609720D02*
X134195820Y-67467480D01*
X134195820Y-67467480D02*
X134409180Y-67127120D01*
X134409180Y-67127120D02*
X134508240Y-65229740D01*
X134508240Y-65229740D02*
X134988300Y-65229740D01*
X134988300Y-65229740D02*
X135016240Y-68077080D01*
X135016240Y-68077080D02*
X134592060Y-68089780D01*
X134592060Y-68089780D02*
X134493000Y-67665600D01*
X134493000Y-67665600D02*
X134180580Y-67934840D01*
X134180580Y-67934840D02*
X133515100Y-68117720D01*
X133515100Y-68117720D02*
X132821680Y-67878960D01*
X132821680Y-67878960D02*
X132397500Y-67411600D01*
X132397500Y-67411600D02*
X132326380Y-65229740D01*
X132326380Y-65229740D02*
X132864860Y-65201800D01*
X132864860Y-65201800D02*
X132836920Y-65217040D01*
G36*
X132836920Y-65217040D02*
G01*
X132821680Y-66984880D01*
X132963920Y-67353180D01*
X133332220Y-67594480D01*
X133743700Y-67609720D01*
X134195820Y-67467480D01*
X134409180Y-67127120D01*
X134508240Y-65229740D01*
X134988300Y-65229740D01*
X135016240Y-68077080D01*
X134592060Y-68089780D01*
X134493000Y-67665600D01*
X134180580Y-67934840D01*
X133515100Y-68117720D01*
X132821680Y-67878960D01*
X132397500Y-67411600D01*
X132326380Y-65229740D01*
X132864860Y-65201800D01*
X132836920Y-65217040D01*
G37*
X132836920Y-65217040D02*
X132821680Y-66984880D01*
X132963920Y-67353180D01*
X133332220Y-67594480D01*
X133743700Y-67609720D01*
X134195820Y-67467480D01*
X134409180Y-67127120D01*
X134508240Y-65229740D01*
X134988300Y-65229740D01*
X135016240Y-68077080D01*
X134592060Y-68089780D01*
X134493000Y-67665600D01*
X134180580Y-67934840D01*
X133515100Y-68117720D01*
X132821680Y-67878960D01*
X132397500Y-67411600D01*
X132326380Y-65229740D01*
X132864860Y-65201800D01*
X132836920Y-65217040D01*
D10*
X169631293Y-80876462D02*
X169592952Y-80676442D01*
X169562601Y-80475522D01*
X169540282Y-80273299D01*
X169526036Y-80069371D01*
X169519905Y-79863336D01*
X169521931Y-79654791D01*
X169532157Y-79443334D01*
X169550623Y-79228564D01*
X169577372Y-79010077D01*
X169612447Y-78787472D01*
X169655888Y-78560345D01*
X169707737Y-78328296D01*
X169768037Y-78090921D01*
X169836830Y-77847819D01*
X169914157Y-77598587D01*
X170000061Y-77342823D01*
X119618707Y-65203481D02*
X120022285Y-65203481D01*
X119343266Y-67537784D02*
X119527682Y-67633285D01*
X119740807Y-67646287D01*
X119952979Y-67586285D01*
X119972495Y-67576170D01*
X121268885Y-65336291D02*
X121464101Y-65255524D01*
X121665569Y-65207689D01*
X121890186Y-65189568D01*
X122031195Y-65191157D01*
X117101109Y-63346063D02*
X117118942Y-63195555D01*
X123287260Y-65964714D02*
X123367119Y-66156148D01*
X123404420Y-66288744D01*
X139816726Y-113050629D02*
X139570173Y-113044332D01*
X139302124Y-113026062D01*
X139016509Y-112996743D01*
X138717261Y-112957303D01*
X138408310Y-112908669D01*
X138093590Y-112851766D01*
X137777030Y-112787522D01*
X137462564Y-112716863D01*
X137154123Y-112640716D01*
X136855639Y-112560007D01*
X136571042Y-112475664D01*
X136304266Y-112388612D01*
X136059242Y-112299778D01*
X135839900Y-112210089D01*
X135650175Y-112120472D01*
X135493996Y-112031854D01*
X124695513Y-66353099D02*
X124669615Y-66564687D01*
X124676727Y-66776812D01*
X124704086Y-66935659D01*
X121340627Y-67414142D02*
X121522524Y-67528858D01*
X121715408Y-67605107D01*
X121798013Y-67623404D01*
X178905165Y-98372529D02*
X178907055Y-98118195D01*
X178909905Y-97840066D01*
X178913616Y-97543560D01*
X178916519Y-97338358D01*
X178919732Y-97129003D01*
X178923226Y-96917102D01*
X178926970Y-96704261D01*
X178930937Y-96492085D01*
X178935096Y-96282182D01*
X178939419Y-96076156D01*
X178943876Y-95875614D01*
X178950751Y-95588595D01*
X178957763Y-95322949D01*
X178960115Y-95240087D01*
X151437211Y-104632525D02*
X151454806Y-104902713D01*
X151476085Y-105166932D01*
X151501298Y-105426436D01*
X151530698Y-105682484D01*
X151564536Y-105936332D01*
X151603066Y-106189235D01*
X151646538Y-106442452D01*
X151695204Y-106697239D01*
X151749317Y-106954853D01*
X151809128Y-107216549D01*
X151874890Y-107483586D01*
X151946854Y-107757219D01*
X152025272Y-108038706D01*
X152110396Y-108329302D01*
X152202478Y-108630266D01*
X152301771Y-108942853D01*
X131505580Y-67349613D02*
X131675378Y-67459799D01*
X131696336Y-67473827D01*
X178960115Y-95240087D02*
X179005805Y-93663215D01*
X112038877Y-67828289D02*
X112025887Y-67727623D01*
X160535704Y-121366716D02*
X160329674Y-121106804D01*
X160145748Y-120875688D01*
X159982637Y-120671963D01*
X159839054Y-120494223D01*
X159657480Y-120273262D01*
X159512604Y-120102865D01*
X159369016Y-119946129D01*
X159202915Y-119833102D01*
X159170766Y-119876796D01*
X138674338Y-104033315D02*
X139030470Y-104115471D01*
X139389188Y-104211071D01*
X139748488Y-104319138D01*
X140106364Y-104438696D01*
X140460811Y-104568767D01*
X140809824Y-104708374D01*
X141151398Y-104856540D01*
X141483528Y-105012288D01*
X141804208Y-105174641D01*
X142111434Y-105342622D01*
X142403201Y-105515254D01*
X142677503Y-105691559D01*
X142932335Y-105870562D01*
X143165692Y-106051284D01*
X143375570Y-106232748D01*
X143559963Y-106413979D01*
X158176474Y-99466703D02*
X158356018Y-99560898D01*
X158689284Y-99737159D01*
X158990733Y-99899031D01*
X159263495Y-100048656D01*
X159510703Y-100188172D01*
X159735491Y-100319723D01*
X159940989Y-100445447D01*
X160130332Y-100567486D01*
X160306651Y-100687981D01*
X160473080Y-100809072D01*
X160632749Y-100932900D01*
X160788793Y-101061606D01*
X160944342Y-101197330D01*
X161102531Y-101342213D01*
X161266491Y-101498396D01*
X161439356Y-101668019D01*
X161530106Y-101758541D01*
X113286612Y-65090472D02*
X113451759Y-65215919D01*
X113495580Y-65257284D01*
X131321038Y-67230587D02*
X131505580Y-67349613D01*
X112904386Y-68763930D02*
X112910487Y-68970026D01*
X112914150Y-69019719D01*
X160084061Y-74390331D02*
X160079808Y-74181493D01*
X160076123Y-73978915D01*
X160071657Y-73689044D01*
X160068465Y-73419063D01*
X160066546Y-73172452D01*
X160065900Y-72952695D01*
X160067016Y-72707477D01*
X160071588Y-72489367D01*
X160083914Y-72377941D01*
X147283282Y-99467924D02*
X147028690Y-99515434D01*
X146746246Y-99559919D01*
X146382005Y-99615162D01*
X146174281Y-99646100D01*
X145952192Y-99678867D01*
X145717766Y-99713174D01*
X145473031Y-99748736D01*
X145220017Y-99785265D01*
X144960750Y-99822474D01*
X144697259Y-99860076D01*
X144431572Y-99897783D01*
X144165718Y-99935310D01*
X143901724Y-99972368D01*
X143641619Y-100008671D01*
X143387431Y-100043932D01*
X143141189Y-100077863D01*
X142904919Y-100110177D01*
X142680651Y-100140588D01*
X142470413Y-100168808D01*
X142100137Y-100217529D01*
X141810319Y-100254042D01*
X141561942Y-100280899D01*
X141536956Y-100281260D01*
X115186847Y-64194622D02*
X115391624Y-64150560D01*
X115618931Y-64094427D01*
X115846029Y-64036369D01*
X116041943Y-63984936D01*
X116080684Y-63974605D01*
X116589637Y-63212842D02*
X116647348Y-63020568D01*
X116784717Y-62971661D01*
X134657046Y-103917397D02*
X134882149Y-103891007D01*
X135120903Y-103869395D01*
X135371124Y-103852498D01*
X135630629Y-103840254D01*
X135897236Y-103832599D01*
X136168762Y-103829471D01*
X136443023Y-103830807D01*
X136717838Y-103836543D01*
X136991023Y-103846617D01*
X137260396Y-103860966D01*
X137523773Y-103879528D01*
X137778973Y-103902238D01*
X138023812Y-103929035D01*
X138256108Y-103959855D01*
X138473677Y-103994636D01*
X138674338Y-104033315D01*
X137622529Y-65781284D02*
X137428111Y-65699624D01*
X137227278Y-65648904D01*
X137012360Y-65622817D01*
X136990424Y-65621647D01*
X161530106Y-101758541D02*
X161716341Y-101947216D01*
X161898258Y-102135768D01*
X162075911Y-102324285D01*
X162249359Y-102512856D01*
X162418658Y-102701571D01*
X162583865Y-102890519D01*
X162745037Y-103079789D01*
X162902231Y-103269469D01*
X163055504Y-103459650D01*
X163204913Y-103650420D01*
X163350515Y-103841869D01*
X163492366Y-104034085D01*
X163630524Y-104227158D01*
X163765046Y-104421177D01*
X163895988Y-104616231D01*
X164023408Y-104812410D01*
X164147363Y-105009801D01*
X164267909Y-105208495D01*
X164385103Y-105408581D01*
X164499002Y-105610148D01*
X164609664Y-105813285D01*
X164717144Y-106018081D01*
X164821501Y-106224625D01*
X164922791Y-106433006D01*
X165021071Y-106643314D01*
X165116398Y-106855638D01*
X165208829Y-107070067D01*
X165298420Y-107286690D01*
X165385229Y-107505596D01*
X165469313Y-107726874D01*
X165550728Y-107950614D01*
X165629533Y-108176905D01*
X131212334Y-67346792D02*
X131321038Y-67230587D01*
D11*
X114759740Y-63568580D02*
X114627660Y-63682880D01*
X114627660Y-63682880D02*
X114541300Y-63723520D01*
X114541300Y-63723520D02*
X114482880Y-63850520D01*
X114482880Y-63850520D02*
X114442240Y-64114680D01*
X114442240Y-64114680D02*
X114551460Y-64201040D01*
X114551460Y-64201040D02*
X114731800Y-64241680D01*
X114731800Y-64241680D02*
X114863880Y-64259460D01*
X114863880Y-64259460D02*
X114909600Y-64668400D01*
X114909600Y-64668400D02*
X114104420Y-64449960D01*
X114104420Y-64449960D02*
X113885980Y-64160400D01*
X113885980Y-64160400D02*
X114018060Y-63327280D01*
X114018060Y-63327280D02*
X114637820Y-63050420D01*
X114637820Y-63050420D02*
X114759740Y-63568580D01*
G36*
X114759740Y-63568580D02*
G01*
X114627660Y-63682880D01*
X114541300Y-63723520D01*
X114482880Y-63850520D01*
X114442240Y-64114680D01*
X114551460Y-64201040D01*
X114731800Y-64241680D01*
X114863880Y-64259460D01*
X114909600Y-64668400D01*
X114104420Y-64449960D01*
X113885980Y-64160400D01*
X114018060Y-63327280D01*
X114637820Y-63050420D01*
X114759740Y-63568580D01*
G37*
X114759740Y-63568580D02*
X114627660Y-63682880D01*
X114541300Y-63723520D01*
X114482880Y-63850520D01*
X114442240Y-64114680D01*
X114551460Y-64201040D01*
X114731800Y-64241680D01*
X114863880Y-64259460D01*
X114909600Y-64668400D01*
X114104420Y-64449960D01*
X113885980Y-64160400D01*
X114018060Y-63327280D01*
X114637820Y-63050420D01*
X114759740Y-63568580D01*
D10*
X129616888Y-66272242D02*
X129576536Y-66471171D01*
X129566990Y-66686062D01*
X129589461Y-66889624D01*
X183036624Y-85852199D02*
X181607475Y-85844999D01*
X121028906Y-66875289D02*
X121096592Y-67075731D01*
X121196754Y-67248873D01*
X121340627Y-67414142D01*
X141914379Y-99418809D02*
X142382852Y-98575978D01*
X176962423Y-98622604D02*
X177083537Y-98809613D01*
X177214125Y-98983633D01*
X177353617Y-99144237D01*
X177501439Y-99291000D01*
X177657019Y-99423496D01*
X177819786Y-99541299D01*
X178046999Y-99674778D01*
X178284615Y-99780370D01*
X178531278Y-99857066D01*
X178657579Y-99884263D01*
X113890769Y-64047841D02*
X113884977Y-63835501D01*
X113933222Y-63634088D01*
X115872425Y-64329123D02*
X115716314Y-64491075D01*
X115568734Y-64634230D01*
X115486787Y-64680566D01*
X118712903Y-64575696D02*
X118964017Y-64575696D01*
X166070085Y-76120493D02*
X166000675Y-76330848D01*
X165898171Y-76535165D01*
X165791657Y-76724605D01*
X165668955Y-76927383D01*
X165535230Y-77134491D01*
X165395650Y-77336919D01*
X165290232Y-77480250D01*
X109729179Y-67202682D02*
X109523414Y-67227981D01*
X109315579Y-67281863D01*
X109128271Y-67365577D01*
X108952499Y-67482463D01*
X108930891Y-67499573D01*
X118739658Y-67486945D02*
X118719666Y-67286088D01*
X118715111Y-67075507D01*
X118713492Y-66858679D01*
X118712962Y-66637446D01*
X118712903Y-66509092D01*
X113949131Y-64330406D02*
X113857879Y-64282609D01*
X140015686Y-115656791D02*
X140274829Y-115527053D01*
X140523324Y-115395906D01*
X140768291Y-115258666D01*
X141016850Y-115110651D01*
X141188067Y-115003677D01*
X141366156Y-114888447D01*
X141553225Y-114763572D01*
X141751384Y-114627666D01*
X141962744Y-114479342D01*
X142189414Y-114317211D01*
X142433503Y-114139888D01*
X142697122Y-113945985D01*
X142982380Y-113734113D01*
X143291388Y-113502888D01*
X142382852Y-98575978D02*
X141349359Y-98031239D01*
X115037895Y-66213814D02*
X115043126Y-66001301D01*
X115051336Y-65832057D01*
X116057816Y-63401633D02*
X116005506Y-63463689D01*
X163336202Y-118386622D02*
X163497438Y-118590477D01*
X163650638Y-118785393D01*
X163794005Y-118969014D01*
X163925745Y-119138980D01*
X164080205Y-119340288D01*
X164206541Y-119507543D01*
X164334001Y-119682352D01*
X164374234Y-119749108D01*
X189023600Y-96267283D02*
X188875009Y-96533966D01*
X188709462Y-96771074D01*
X188493959Y-97068826D01*
X188369699Y-97237549D01*
X188235618Y-97417960D01*
X188092608Y-97608902D01*
X187941557Y-97809216D01*
X187783356Y-98017746D01*
X187618894Y-98233334D01*
X187449061Y-98454821D01*
X187274748Y-98681052D01*
X187096843Y-98910867D01*
X186916237Y-99143109D01*
X186733819Y-99376621D01*
X186550479Y-99610246D01*
X186367108Y-99842824D01*
X186184594Y-100073200D01*
X186003828Y-100300216D01*
X185825699Y-100522713D01*
X185651097Y-100739534D01*
X185480912Y-100949522D01*
X185316034Y-101151519D01*
X185157353Y-101344367D01*
X185005758Y-101526909D01*
X184862139Y-101697987D01*
X184727386Y-101856445D01*
X161611592Y-118772101D02*
X161616777Y-119001104D01*
X161628795Y-119214319D01*
X161645997Y-119484021D01*
X161661961Y-119718234D01*
X161680290Y-119975821D01*
X161700744Y-120253182D01*
X161723089Y-120546717D01*
X161738919Y-120749614D01*
X161747088Y-120852826D01*
X115985850Y-63804509D02*
X116154647Y-63696176D01*
X116305017Y-63632691D01*
X113159575Y-63306743D02*
X113176916Y-63510700D01*
X113189290Y-63571311D01*
X143701280Y-110005490D02*
X143591148Y-110222259D01*
X143482634Y-110429346D01*
X143375502Y-110626934D01*
X143269518Y-110815206D01*
X143164448Y-110994347D01*
X142956112Y-111325969D01*
X142748620Y-111623269D01*
X142540096Y-111887716D01*
X142328666Y-112120780D01*
X142112455Y-112323931D01*
X141889589Y-112498637D01*
X141658193Y-112646370D01*
X141416392Y-112768598D01*
X141162312Y-112866791D01*
X140894077Y-112942419D01*
X140609813Y-112996950D01*
X140307646Y-113031855D01*
X139985701Y-113048604D01*
X139816726Y-113050629D01*
X154166202Y-96467992D02*
X154338168Y-96699560D01*
X154502508Y-96911695D01*
X154663102Y-97107299D01*
X154823833Y-97289274D01*
X154988584Y-97460525D01*
X155161236Y-97623953D01*
X155345673Y-97782463D01*
X155545776Y-97938957D01*
X155765427Y-98096337D01*
X156008510Y-98257509D01*
X156278907Y-98425373D01*
X156580499Y-98602834D01*
X156917170Y-98792794D01*
X157099872Y-98893369D01*
X157292801Y-98998157D01*
X157496440Y-99107522D01*
X157711274Y-99221825D01*
X157937791Y-99341431D01*
X158176474Y-99466703D01*
D11*
X121693940Y-65669160D02*
X121678700Y-65653920D01*
X121678700Y-65653920D02*
X121254520Y-65938400D01*
X121254520Y-65938400D02*
X120929400Y-65598040D01*
X120929400Y-65598040D02*
X121452640Y-65217040D01*
X121452640Y-65217040D02*
X121693940Y-65669160D01*
G36*
X121693940Y-65669160D02*
G01*
X121678700Y-65653920D01*
X121254520Y-65938400D01*
X120929400Y-65598040D01*
X121452640Y-65217040D01*
X121693940Y-65669160D01*
G37*
X121693940Y-65669160D02*
X121678700Y-65653920D01*
X121254520Y-65938400D01*
X120929400Y-65598040D01*
X121452640Y-65217040D01*
X121693940Y-65669160D01*
D10*
X162320382Y-116998300D02*
X162426178Y-117183058D01*
X162565073Y-117379258D01*
X162710041Y-117575910D01*
X162835777Y-117742818D01*
X162974139Y-117923701D01*
X163123367Y-118116159D01*
X163281703Y-118317788D01*
X163336202Y-118386622D01*
D11*
X131150360Y-65300860D02*
X131688840Y-65752980D01*
X131688840Y-65752980D02*
X131688840Y-65768220D01*
X131688840Y-65768220D02*
X131264660Y-66022220D01*
X131264660Y-66022220D02*
X130952240Y-65725040D01*
X130952240Y-65725040D02*
X130556000Y-65598040D01*
X130556000Y-65598040D02*
X130004820Y-65796160D01*
X130004820Y-65796160D02*
X129621280Y-66151760D01*
X129621280Y-66151760D02*
X129522220Y-66817240D01*
X129522220Y-66817240D02*
X129791460Y-67297300D01*
X129791460Y-67297300D02*
X130230880Y-67609720D01*
X130230880Y-67609720D02*
X130782060Y-67622420D01*
X130782060Y-67622420D02*
X131292600Y-67226180D01*
X131292600Y-67226180D02*
X131660900Y-67467480D01*
X131660900Y-67467480D02*
X131462780Y-67779900D01*
X131462780Y-67779900D02*
X130883660Y-68049140D01*
X130883660Y-68049140D02*
X130230880Y-68089780D01*
X130230880Y-68089780D02*
X129423160Y-67680840D01*
X129423160Y-67680840D02*
X129026920Y-67028060D01*
X129026920Y-67028060D02*
X129113280Y-66151760D01*
X129113280Y-66151760D02*
X129593340Y-65443100D01*
X129593340Y-65443100D02*
X130317240Y-65173860D01*
X130317240Y-65173860D02*
X131150360Y-65300860D01*
G36*
X131150360Y-65300860D02*
G01*
X131688840Y-65752980D01*
X131688840Y-65768220D01*
X131264660Y-66022220D01*
X130952240Y-65725040D01*
X130556000Y-65598040D01*
X130004820Y-65796160D01*
X129621280Y-66151760D01*
X129522220Y-66817240D01*
X129791460Y-67297300D01*
X130230880Y-67609720D01*
X130782060Y-67622420D01*
X131292600Y-67226180D01*
X131660900Y-67467480D01*
X131462780Y-67779900D01*
X130883660Y-68049140D01*
X130230880Y-68089780D01*
X129423160Y-67680840D01*
X129026920Y-67028060D01*
X129113280Y-66151760D01*
X129593340Y-65443100D01*
X130317240Y-65173860D01*
X131150360Y-65300860D01*
G37*
X131150360Y-65300860D02*
X131688840Y-65752980D01*
X131688840Y-65768220D01*
X131264660Y-66022220D01*
X130952240Y-65725040D01*
X130556000Y-65598040D01*
X130004820Y-65796160D01*
X129621280Y-66151760D01*
X129522220Y-66817240D01*
X129791460Y-67297300D01*
X130230880Y-67609720D01*
X130782060Y-67622420D01*
X131292600Y-67226180D01*
X131660900Y-67467480D01*
X131462780Y-67779900D01*
X130883660Y-68049140D01*
X130230880Y-68089780D01*
X129423160Y-67680840D01*
X129026920Y-67028060D01*
X129113280Y-66151760D01*
X129593340Y-65443100D01*
X130317240Y-65173860D01*
X131150360Y-65300860D01*
D10*
X128359976Y-64133326D02*
X128410819Y-64328692D01*
X128358388Y-64500491D01*
X169647394Y-82892557D02*
X169303683Y-82765451D01*
X136424470Y-106258765D02*
X136154559Y-106270641D01*
X135889792Y-106285818D01*
X135630041Y-106304338D01*
X135375180Y-106326241D01*
X135125083Y-106351571D01*
X134879625Y-106380368D01*
X134638679Y-106412675D01*
X134402119Y-106448534D01*
X134169818Y-106487985D01*
X133941651Y-106531071D01*
X133717492Y-106577834D01*
X133497214Y-106628316D01*
X133280691Y-106682558D01*
X133067798Y-106740602D01*
X132858407Y-106802490D01*
X132652394Y-106868264D01*
X132449631Y-106937965D01*
X132249994Y-107011635D01*
X132053354Y-107089316D01*
X131859587Y-107171050D01*
X131668567Y-107256879D01*
X131480167Y-107346844D01*
X131294261Y-107440988D01*
X131110722Y-107539351D01*
X130929426Y-107641977D01*
X130750246Y-107748906D01*
X130573055Y-107860180D01*
X130397727Y-107975841D01*
X130224137Y-108095932D01*
X130052159Y-108220493D01*
X129881665Y-108349566D01*
X129712531Y-108483195D01*
X110298210Y-68338594D02*
X110468903Y-68227723D01*
X110646304Y-68096817D01*
X110833634Y-67947738D01*
X111013108Y-67794637D01*
X111166943Y-67651669D01*
X111188841Y-67629820D01*
X119972495Y-67576170D02*
X120065631Y-67536840D01*
X108160532Y-68719308D02*
X108045868Y-68548257D01*
X108036257Y-68485901D01*
X137214634Y-67605825D02*
X137400693Y-67509765D01*
X137491645Y-67402887D01*
X124667881Y-68365420D02*
X124667881Y-69095728D01*
X163834751Y-77062208D02*
X164952418Y-76556201D01*
X130528626Y-65634054D02*
X130294654Y-65658130D01*
X130086164Y-65728844D01*
X129906401Y-65843927D01*
X129758608Y-66001107D01*
X129646028Y-66198114D01*
X129616888Y-66272242D01*
X113300746Y-67203944D02*
X113383267Y-67414888D01*
X113450643Y-67626445D01*
X113514702Y-67851225D01*
X113566320Y-68056124D01*
X113600251Y-68259995D01*
X113595727Y-68273882D01*
X118712903Y-64889587D02*
X118712903Y-64575696D01*
X126459859Y-67140647D02*
X126535549Y-66952057D01*
X126570883Y-66739990D01*
X126574646Y-66629451D01*
X181607475Y-85844999D02*
X181376160Y-85843282D01*
X181127443Y-85840346D01*
X180865955Y-85836303D01*
X180596323Y-85831267D01*
X180323177Y-85825350D01*
X180051145Y-85818667D01*
X179784856Y-85811331D01*
X179528938Y-85803454D01*
X179288022Y-85795150D01*
X179066734Y-85786532D01*
X178932401Y-85780669D01*
X115746460Y-66668416D02*
X115601380Y-66828550D01*
X115428730Y-66946849D01*
X115319713Y-66987022D01*
X162985938Y-111049113D02*
X162858101Y-110873865D01*
X162693522Y-110676554D01*
X162496912Y-110461157D01*
X162272981Y-110231654D01*
X162026441Y-109992025D01*
X161762002Y-109746248D01*
X161484376Y-109498302D01*
X161198275Y-109252167D01*
X160908408Y-109011822D01*
X160619488Y-108781247D01*
X160336225Y-108564419D01*
X160063331Y-108365319D01*
X159805516Y-108187925D01*
X159567492Y-108036217D01*
X159353970Y-107914174D01*
X159169662Y-107825776D01*
X120146787Y-67712145D02*
X120191082Y-67911299D01*
X120085332Y-67975352D01*
X187007010Y-97178195D02*
X187206464Y-97085402D01*
X187400955Y-96995211D01*
X187589447Y-96908089D01*
X187858678Y-96784183D01*
X188108597Y-96669809D01*
X188335715Y-96566543D01*
X188536543Y-96475962D01*
X188757386Y-96377644D01*
X188946392Y-96296089D01*
X189023600Y-96267283D01*
X115431584Y-63049864D02*
X115640388Y-63093919D01*
X115838760Y-63159226D01*
X116023565Y-63251681D01*
X116076892Y-63303542D01*
X111931034Y-67324477D02*
X111863993Y-67120653D01*
X111838619Y-66917165D01*
X111828135Y-66715433D01*
X111826635Y-66679793D01*
X115860987Y-65831401D02*
X115824941Y-66034841D01*
X115810658Y-66153404D01*
X116076892Y-63303542D02*
X116057816Y-63401633D01*
X116040342Y-66080467D02*
X116225618Y-65996873D01*
X116278857Y-65975692D01*
X114968407Y-66983384D02*
X114786437Y-66869502D01*
X114615238Y-66722162D01*
X114477052Y-66569221D01*
X114346747Y-66391665D01*
X114224311Y-66189480D01*
X160953202Y-114107597D02*
X161141512Y-114024746D01*
X161494571Y-113855693D01*
X161816078Y-113682376D01*
X162105870Y-113505039D01*
X162363785Y-113323928D01*
X162589659Y-113139287D01*
X162783331Y-112951362D01*
X162944636Y-112760397D01*
X163073412Y-112566638D01*
X163169497Y-112370330D01*
X163232727Y-112171718D01*
X163262939Y-111971046D01*
X163259971Y-111768561D01*
X163223660Y-111564506D01*
X163153843Y-111359127D01*
X163050357Y-111152669D01*
X162985938Y-111049113D01*
X114841717Y-65014981D02*
X115049555Y-65049417D01*
X115024994Y-65155115D01*
X132342581Y-65202563D02*
X132599296Y-65207537D01*
X169486953Y-82488525D02*
X169586960Y-82303009D01*
X169658342Y-82092239D01*
X169701056Y-81856675D01*
X169714559Y-81650679D01*
X169709667Y-81429342D01*
X169686359Y-81192900D01*
X169644612Y-80941586D01*
X169631293Y-80876462D01*
X110693977Y-67642888D02*
X110592498Y-67830595D01*
X110455106Y-67977846D01*
X110296916Y-68039506D01*
X113743592Y-64441354D02*
X113883028Y-64577929D01*
X165629533Y-108176905D02*
X165744192Y-108526172D01*
X165806871Y-108725471D01*
X165872599Y-108939255D01*
X165940992Y-109166052D01*
X166011662Y-109404394D01*
X166084222Y-109652811D01*
X166158286Y-109909832D01*
X166233467Y-110173989D01*
X166309379Y-110443811D01*
X166385635Y-110717829D01*
X166461848Y-110994573D01*
X166537633Y-111272573D01*
X166612601Y-111550359D01*
X166686367Y-111826462D01*
X166758545Y-112099412D01*
X166828746Y-112367739D01*
X166896586Y-112629974D01*
X166961676Y-112884646D01*
X167023632Y-113130287D01*
X167082065Y-113365425D01*
X167136590Y-113588592D01*
X167186819Y-113798318D01*
X167232367Y-113993132D01*
X167307870Y-114332149D01*
X167360006Y-114593885D01*
X167387633Y-114815865D01*
X167381809Y-114838481D01*
D11*
X137924615Y-65397399D02*
X137749280Y-65839340D01*
X137749280Y-65839340D02*
X136857740Y-65585340D01*
X136857740Y-65585340D02*
X136362440Y-65768220D01*
X136362440Y-65768220D02*
X136220200Y-66207640D01*
X136220200Y-66207640D02*
X137594340Y-66603880D01*
X137594340Y-66603880D02*
X137975340Y-66929000D01*
X137975340Y-66929000D02*
X138005820Y-67538600D01*
X138005820Y-67538600D02*
X137507980Y-67962780D01*
X137507980Y-67962780D02*
X136588500Y-68077080D01*
X136588500Y-68077080D02*
X135681720Y-67764660D01*
X135681720Y-67764660D02*
X135867140Y-67411600D01*
X135867140Y-67411600D02*
X136588500Y-67622420D01*
X136588500Y-67622420D02*
X137408920Y-67495420D01*
X137408920Y-67495420D02*
X137439400Y-67241420D01*
X137439400Y-67241420D02*
X137340340Y-67015360D01*
X137340340Y-67015360D02*
X136631680Y-66829940D01*
X136631680Y-66829940D02*
X135994140Y-66659760D01*
X135994140Y-66659760D02*
X135724900Y-66164460D01*
X135724900Y-66164460D02*
X135867140Y-65613280D01*
X135867140Y-65613280D02*
X136207500Y-65300860D01*
X136207500Y-65300860D02*
X136857740Y-65130680D01*
X136857740Y-65130680D02*
X137924615Y-65397399D01*
G36*
X137924615Y-65397399D02*
G01*
X137749280Y-65839340D01*
X136857740Y-65585340D01*
X136362440Y-65768220D01*
X136220200Y-66207640D01*
X137594340Y-66603880D01*
X137975340Y-66929000D01*
X138005820Y-67538600D01*
X137507980Y-67962780D01*
X136588500Y-68077080D01*
X135681720Y-67764660D01*
X135867140Y-67411600D01*
X136588500Y-67622420D01*
X137408920Y-67495420D01*
X137439400Y-67241420D01*
X137340340Y-67015360D01*
X136631680Y-66829940D01*
X135994140Y-66659760D01*
X135724900Y-66164460D01*
X135867140Y-65613280D01*
X136207500Y-65300860D01*
X136857740Y-65130680D01*
X137924615Y-65397399D01*
G37*
X137924615Y-65397399D02*
X137749280Y-65839340D01*
X136857740Y-65585340D01*
X136362440Y-65768220D01*
X136220200Y-66207640D01*
X137594340Y-66603880D01*
X137975340Y-66929000D01*
X138005820Y-67538600D01*
X137507980Y-67962780D01*
X136588500Y-68077080D01*
X135681720Y-67764660D01*
X135867140Y-67411600D01*
X136588500Y-67622420D01*
X137408920Y-67495420D01*
X137439400Y-67241420D01*
X137340340Y-67015360D01*
X136631680Y-66829940D01*
X135994140Y-66659760D01*
X135724900Y-66164460D01*
X135867140Y-65613280D01*
X136207500Y-65300860D01*
X136857740Y-65130680D01*
X137924615Y-65397399D01*
D10*
X127815775Y-65212519D02*
X128071374Y-65207545D01*
X188697710Y-79880409D02*
X188531648Y-80068793D01*
X188363306Y-80250711D01*
X188222301Y-80401877D01*
X188059962Y-80575161D01*
X187877735Y-80769027D01*
X187677066Y-80981938D01*
X187459399Y-81212360D01*
X187226183Y-81458755D01*
X186978861Y-81719589D01*
X186718881Y-81993324D01*
X186447687Y-82278426D01*
X186308338Y-82424759D01*
X186166727Y-82573358D01*
X186023036Y-82724030D01*
X185877446Y-82876584D01*
X112605444Y-68871846D02*
X112592612Y-69077964D01*
D11*
X126149100Y-65290700D02*
X126814580Y-65666620D01*
X126814580Y-65666620D02*
X127063500Y-66187320D01*
X127063500Y-66187320D02*
X127127000Y-66748660D01*
X127127000Y-66748660D02*
X127015240Y-67221100D01*
X127015240Y-67221100D02*
X126634240Y-67657980D01*
X126634240Y-67657980D02*
X126182120Y-67965320D01*
X126182120Y-67965320D02*
X125676660Y-68064380D01*
X125676660Y-68064380D02*
X125034040Y-67919600D01*
X125034040Y-67919600D02*
X124653040Y-67701160D01*
X124653040Y-67701160D02*
X124378720Y-67429380D01*
X124378720Y-67429380D02*
X124553980Y-66868040D01*
X124553980Y-66868040D02*
X124747020Y-67190620D01*
X124747020Y-67190620D02*
X124731780Y-67185540D01*
X124731780Y-67185540D02*
X125460760Y-67665600D01*
X125460760Y-67665600D02*
X126085600Y-67561460D01*
X126085600Y-67561460D02*
X126542800Y-67144900D01*
X126542800Y-67144900D02*
X126565660Y-66560700D01*
X126565660Y-66560700D02*
X126438660Y-66040000D01*
X126438660Y-66040000D02*
X126126240Y-65770760D01*
X126126240Y-65770760D02*
X125813820Y-65623440D01*
X125813820Y-65623440D02*
X125420120Y-65646300D01*
X125420120Y-65646300D02*
X124919740Y-65958720D01*
X124919740Y-65958720D02*
X124691140Y-66207640D01*
X124691140Y-66207640D02*
X124647960Y-65542160D01*
X124647960Y-65542160D02*
X124940060Y-65394840D01*
X124940060Y-65394840D02*
X125315980Y-65206880D01*
X125315980Y-65206880D02*
X126149100Y-65290700D01*
G36*
X126149100Y-65290700D02*
G01*
X126814580Y-65666620D01*
X127063500Y-66187320D01*
X127127000Y-66748660D01*
X127015240Y-67221100D01*
X126634240Y-67657980D01*
X126182120Y-67965320D01*
X125676660Y-68064380D01*
X125034040Y-67919600D01*
X124653040Y-67701160D01*
X124378720Y-67429380D01*
X124553980Y-66868040D01*
X124747020Y-67190620D01*
X124731780Y-67185540D01*
X125460760Y-67665600D01*
X126085600Y-67561460D01*
X126542800Y-67144900D01*
X126565660Y-66560700D01*
X126438660Y-66040000D01*
X126126240Y-65770760D01*
X125813820Y-65623440D01*
X125420120Y-65646300D01*
X124919740Y-65958720D01*
X124691140Y-66207640D01*
X124647960Y-65542160D01*
X124940060Y-65394840D01*
X125315980Y-65206880D01*
X126149100Y-65290700D01*
G37*
X126149100Y-65290700D02*
X126814580Y-65666620D01*
X127063500Y-66187320D01*
X127127000Y-66748660D01*
X127015240Y-67221100D01*
X126634240Y-67657980D01*
X126182120Y-67965320D01*
X125676660Y-68064380D01*
X125034040Y-67919600D01*
X124653040Y-67701160D01*
X124378720Y-67429380D01*
X124553980Y-66868040D01*
X124747020Y-67190620D01*
X124731780Y-67185540D01*
X125460760Y-67665600D01*
X126085600Y-67561460D01*
X126542800Y-67144900D01*
X126565660Y-66560700D01*
X126438660Y-66040000D01*
X126126240Y-65770760D01*
X125813820Y-65623440D01*
X125420120Y-65646300D01*
X124919740Y-65958720D01*
X124691140Y-66207640D01*
X124647960Y-65542160D01*
X124940060Y-65394840D01*
X125315980Y-65206880D01*
X126149100Y-65290700D01*
D10*
X122366632Y-68037170D02*
X122159809Y-68070960D01*
X121945876Y-68082861D01*
X121737352Y-68072177D01*
X120500580Y-66629543D02*
X120508436Y-66409031D01*
X120546939Y-66197040D01*
X120620359Y-66007828D01*
X120640383Y-65965883D01*
X113035945Y-63243949D02*
X113143567Y-63042175D01*
X129712531Y-108483195D02*
X129534394Y-108628498D01*
X129361508Y-108772780D01*
X129193881Y-108916029D01*
X129031522Y-109058233D01*
X128874440Y-109199381D01*
X128722642Y-109339462D01*
X128576138Y-109478464D01*
X128299044Y-109753187D01*
X128043226Y-110023457D01*
X127808753Y-110289184D01*
X127595692Y-110550276D01*
X127404112Y-110806643D01*
X127234081Y-111058192D01*
X127085667Y-111304832D01*
X126958939Y-111546473D01*
X126853964Y-111783022D01*
X126770812Y-112014389D01*
X126709550Y-112240482D01*
X126670246Y-112461209D01*
X126658850Y-112569533D01*
X108909719Y-69044201D02*
X108909719Y-69044201D01*
X142961785Y-96900181D02*
X142873634Y-96703271D01*
X142768598Y-96507399D01*
X142659239Y-96308587D01*
X142521441Y-96061251D01*
X142412787Y-95867611D01*
X142290009Y-95649719D01*
X142152514Y-95406499D01*
X141999707Y-95136877D01*
X141830996Y-94839777D01*
X141645787Y-94514127D01*
X143291388Y-113502888D02*
X143713812Y-113183321D01*
X144122393Y-112869050D01*
X144517369Y-112559805D01*
X144898977Y-112255313D01*
X145267454Y-111955305D01*
X145623037Y-111659508D01*
X145965964Y-111367652D01*
X146296471Y-111079466D01*
X146614797Y-110794679D01*
X146921177Y-110513019D01*
X147215850Y-110234216D01*
X147499053Y-109957999D01*
X147771022Y-109684096D01*
X148031996Y-109412237D01*
X148282211Y-109142151D01*
X148521905Y-108873566D01*
X148751315Y-108606211D01*
X148970677Y-108339816D01*
X149180231Y-108074109D01*
X149380211Y-107808819D01*
X149570857Y-107543676D01*
X149752405Y-107278408D01*
X149925092Y-107012744D01*
X150089155Y-106746413D01*
X150244833Y-106479144D01*
X150392361Y-106210667D01*
X150531978Y-105940709D01*
X150663920Y-105669001D01*
X150788425Y-105395270D01*
X150905730Y-105119246D01*
X151016072Y-104840659D01*
X151119689Y-104559236D01*
X187092290Y-74534872D02*
X187251151Y-74688898D01*
X187365023Y-74862117D01*
X187397950Y-75066433D01*
X187398690Y-75113434D01*
X115985866Y-63804456D02*
X115985866Y-63804456D01*
X115810658Y-66153404D02*
X116006280Y-66096209D01*
X116040342Y-66080467D01*
X134488258Y-66970311D02*
X134497227Y-66091412D01*
X155728897Y-79960346D02*
X157928401Y-78201392D01*
X176972587Y-81389877D02*
X176972587Y-81389877D01*
X118470757Y-65203481D02*
X118712903Y-65203481D01*
X110462667Y-65734910D02*
X110637589Y-65836876D01*
X110817161Y-65933124D01*
X110834328Y-65938885D01*
D12*
X107029523Y-78324761D02*
X107172380Y-78372380D01*
X107410476Y-78372380D01*
X107505714Y-78324761D01*
X107553333Y-78277142D01*
X107600952Y-78181904D01*
X107600952Y-78086666D01*
X107553333Y-77991428D01*
X107505714Y-77943809D01*
X107410476Y-77896190D01*
X107220000Y-77848571D01*
X107124761Y-77800952D01*
X107077142Y-77753333D01*
X107029523Y-77658095D01*
X107029523Y-77562857D01*
X107077142Y-77467619D01*
X107124761Y-77420000D01*
X107220000Y-77372380D01*
X107458095Y-77372380D01*
X107600952Y-77420000D01*
X108600952Y-78277142D02*
X108553333Y-78324761D01*
X108410476Y-78372380D01*
X108315238Y-78372380D01*
X108172380Y-78324761D01*
X108077142Y-78229523D01*
X108029523Y-78134285D01*
X107981904Y-77943809D01*
X107981904Y-77800952D01*
X108029523Y-77610476D01*
X108077142Y-77515238D01*
X108172380Y-77420000D01*
X108315238Y-77372380D01*
X108410476Y-77372380D01*
X108553333Y-77420000D01*
X108600952Y-77467619D01*
X109505714Y-78372380D02*
X109029523Y-78372380D01*
X109029523Y-77372380D01*
X106995714Y-75904761D02*
X107138571Y-75952380D01*
X107376666Y-75952380D01*
X107471904Y-75904761D01*
X107519523Y-75857142D01*
X107567142Y-75761904D01*
X107567142Y-75666666D01*
X107519523Y-75571428D01*
X107471904Y-75523809D01*
X107376666Y-75476190D01*
X107186190Y-75428571D01*
X107090952Y-75380952D01*
X107043333Y-75333333D01*
X106995714Y-75238095D01*
X106995714Y-75142857D01*
X107043333Y-75047619D01*
X107090952Y-75000000D01*
X107186190Y-74952380D01*
X107424285Y-74952380D01*
X107567142Y-75000000D01*
X107995714Y-75952380D02*
X107995714Y-74952380D01*
X108233809Y-74952380D01*
X108376666Y-75000000D01*
X108471904Y-75095238D01*
X108519523Y-75190476D01*
X108567142Y-75380952D01*
X108567142Y-75523809D01*
X108519523Y-75714285D01*
X108471904Y-75809523D01*
X108376666Y-75904761D01*
X108233809Y-75952380D01*
X107995714Y-75952380D01*
X108948095Y-75666666D02*
X109424285Y-75666666D01*
X108852857Y-75952380D02*
X109186190Y-74952380D01*
X109519523Y-75952380D01*
X106961904Y-79982380D02*
X107580952Y-79982380D01*
X107247619Y-80363333D01*
X107390476Y-80363333D01*
X107485714Y-80410952D01*
X107533333Y-80458571D01*
X107580952Y-80553809D01*
X107580952Y-80791904D01*
X107533333Y-80887142D01*
X107485714Y-80934761D01*
X107390476Y-80982380D01*
X107104761Y-80982380D01*
X107009523Y-80934761D01*
X106961904Y-80887142D01*
X107866666Y-79982380D02*
X108200000Y-80982380D01*
X108533333Y-79982380D01*
X108771428Y-79982380D02*
X109390476Y-79982380D01*
X109057142Y-80363333D01*
X109200000Y-80363333D01*
X109295238Y-80410952D01*
X109342857Y-80458571D01*
X109390476Y-80553809D01*
X109390476Y-80791904D01*
X109342857Y-80887142D01*
X109295238Y-80934761D01*
X109200000Y-80982380D01*
X108914285Y-80982380D01*
X108819047Y-80934761D01*
X108771428Y-80887142D01*
X107358095Y-82650000D02*
X107262857Y-82602380D01*
X107120000Y-82602380D01*
X106977142Y-82650000D01*
X106881904Y-82745238D01*
X106834285Y-82840476D01*
X106786666Y-83030952D01*
X106786666Y-83173809D01*
X106834285Y-83364285D01*
X106881904Y-83459523D01*
X106977142Y-83554761D01*
X107120000Y-83602380D01*
X107215238Y-83602380D01*
X107358095Y-83554761D01*
X107405714Y-83507142D01*
X107405714Y-83173809D01*
X107215238Y-83173809D01*
X107834285Y-83602380D02*
X107834285Y-82602380D01*
X108405714Y-83602380D01*
X108405714Y-82602380D01*
X108881904Y-83602380D02*
X108881904Y-82602380D01*
X109120000Y-82602380D01*
X109262857Y-82650000D01*
X109358095Y-82745238D01*
X109405714Y-82840476D01*
X109453333Y-83030952D01*
X109453333Y-83173809D01*
X109405714Y-83364285D01*
X109358095Y-83459523D01*
X109262857Y-83554761D01*
X109120000Y-83602380D01*
X108881904Y-83602380D01*
X120307314Y-98207580D02*
X120878742Y-98207580D01*
X120593028Y-99207580D02*
X120593028Y-98207580D01*
X121402552Y-98207580D02*
X121593028Y-98207580D01*
X121688266Y-98255200D01*
X121783504Y-98350438D01*
X121831123Y-98540914D01*
X121831123Y-98874247D01*
X121783504Y-99064723D01*
X121688266Y-99159961D01*
X121593028Y-99207580D01*
X121402552Y-99207580D01*
X121307314Y-99159961D01*
X121212076Y-99064723D01*
X121164457Y-98874247D01*
X121164457Y-98540914D01*
X121212076Y-98350438D01*
X121307314Y-98255200D01*
X121402552Y-98207580D01*
X122259695Y-99207580D02*
X122259695Y-98207580D01*
X122735885Y-99112342D02*
X122783504Y-99159961D01*
X122735885Y-99207580D01*
X122688266Y-99159961D01*
X122735885Y-99112342D01*
X122735885Y-99207580D01*
X123069219Y-98207580D02*
X123402552Y-99207580D01*
X123735885Y-98207580D01*
X110450380Y-96861047D02*
X110450380Y-96670571D01*
X110498000Y-96575333D01*
X110593238Y-96480095D01*
X110783714Y-96432476D01*
X111117047Y-96432476D01*
X111307523Y-96480095D01*
X111402761Y-96575333D01*
X111450380Y-96670571D01*
X111450380Y-96861047D01*
X111402761Y-96956285D01*
X111307523Y-97051523D01*
X111117047Y-97099142D01*
X110783714Y-97099142D01*
X110593238Y-97051523D01*
X110498000Y-96956285D01*
X110450380Y-96861047D01*
X110783714Y-96003904D02*
X111450380Y-96003904D01*
X110878952Y-96003904D02*
X110831333Y-95956285D01*
X110783714Y-95861047D01*
X110783714Y-95718190D01*
X110831333Y-95622952D01*
X110926571Y-95575333D01*
X111450380Y-95575333D01*
X111783714Y-94861047D02*
X110355142Y-94861047D01*
X110450380Y-93956285D02*
X110450380Y-93765809D01*
X110498000Y-93670571D01*
X110593238Y-93575333D01*
X110783714Y-93527714D01*
X111117047Y-93527714D01*
X111307523Y-93575333D01*
X111402761Y-93670571D01*
X111450380Y-93765809D01*
X111450380Y-93956285D01*
X111402761Y-94051523D01*
X111307523Y-94146761D01*
X111117047Y-94194380D01*
X110783714Y-94194380D01*
X110593238Y-94146761D01*
X110498000Y-94051523D01*
X110450380Y-93956285D01*
X110783714Y-93242000D02*
X110783714Y-92861047D01*
X111450380Y-93099142D02*
X110593238Y-93099142D01*
X110498000Y-93051523D01*
X110450380Y-92956285D01*
X110450380Y-92861047D01*
X110783714Y-92670571D02*
X110783714Y-92289619D01*
X111450380Y-92527714D02*
X110593238Y-92527714D01*
X110498000Y-92480095D01*
X110450380Y-92384857D01*
X110450380Y-92289619D01*
X121128095Y-92584761D02*
X121270952Y-92632380D01*
X121509047Y-92632380D01*
X121604285Y-92584761D01*
X121651904Y-92537142D01*
X121699523Y-92441904D01*
X121699523Y-92346666D01*
X121651904Y-92251428D01*
X121604285Y-92203809D01*
X121509047Y-92156190D01*
X121318571Y-92108571D01*
X121223333Y-92060952D01*
X121175714Y-92013333D01*
X121128095Y-91918095D01*
X121128095Y-91822857D01*
X121175714Y-91727619D01*
X121223333Y-91680000D01*
X121318571Y-91632380D01*
X121556666Y-91632380D01*
X121699523Y-91680000D01*
X122651904Y-92632380D02*
X122080476Y-92632380D01*
X122366190Y-92632380D02*
X122366190Y-91632380D01*
X122270952Y-91775238D01*
X122175714Y-91870476D01*
X122080476Y-91918095D01*
D13*
X185807632Y-78245453D02*
X186464311Y-80049662D01*
X188495153Y-77267275D02*
X185807632Y-78245453D01*
X186464311Y-80049662D02*
X189151832Y-79071485D01*
X192613300Y-76583612D02*
X189850752Y-77323835D01*
X190347684Y-79178412D02*
X193110232Y-78438190D01*
X189850752Y-77323835D02*
X190347684Y-79178412D01*
X194428216Y-76492607D02*
X196090984Y-77452607D01*
X195858216Y-74015775D02*
X194428216Y-76492607D01*
X196090984Y-77452607D02*
X197520984Y-74975775D01*
X191373040Y-71904980D02*
X191373040Y-73824980D01*
X194233040Y-71904980D02*
X191373040Y-71904980D01*
X191373040Y-73824980D02*
X194233040Y-73824980D01*
X181100400Y-64946264D02*
X181100400Y-64492136D01*
X179630400Y-64946264D02*
X179630400Y-64492136D01*
X186307400Y-64997064D02*
X186307400Y-64542936D01*
X184837400Y-64997064D02*
X184837400Y-64542936D01*
X194718000Y-64997064D02*
X194718000Y-64542936D01*
X196188000Y-64997064D02*
X196188000Y-64542936D01*
X191235000Y-64997064D02*
X191235000Y-64542936D01*
X189765000Y-64997064D02*
X189765000Y-64542936D01*
X113039200Y-81788000D02*
X110379200Y-81788000D01*
X113039200Y-81788000D02*
X113039200Y-74108000D01*
X113039200Y-74108000D02*
X110379200Y-74108000D01*
X111709200Y-84388000D02*
X110379200Y-84388000D01*
X110379200Y-84388000D02*
X110379200Y-83058000D01*
X110379200Y-81788000D02*
X110379200Y-74108000D01*
D11*
X121900000Y-90295800D02*
X122400000Y-90295800D01*
X125000000Y-93395800D02*
X125000000Y-93895800D01*
X125000000Y-93395800D02*
X125000000Y-92895800D01*
X118800000Y-93395800D02*
X118800000Y-93895800D01*
X125000000Y-96495800D02*
X125000000Y-96395800D01*
X121900000Y-96495800D02*
X122400000Y-96495800D01*
X118800000Y-93395800D02*
X118800000Y-92895800D01*
X124500000Y-96495800D02*
X125000000Y-96495800D01*
X125000000Y-96395800D02*
X125300000Y-96395800D01*
X125300000Y-96395800D02*
X126500000Y-96395800D01*
X121900000Y-90295800D02*
X121400000Y-90295800D01*
X121900000Y-96495800D02*
X121400000Y-96495800D01*
D13*
X194184536Y-94489600D02*
X194638664Y-94489600D01*
X194184536Y-95959600D02*
X194638664Y-95959600D01*
%LPC*%
D11*
X174224109Y-66605891D02*
G75*
G03*
X174224109Y-66605891I-1754109J0D01*
G01*
X164779960Y-89057480D02*
X165414960Y-89466420D01*
X165414960Y-89466420D02*
X166052500Y-89921080D01*
X166052500Y-89921080D02*
X166669720Y-90548460D01*
X166669720Y-90548460D02*
X167218360Y-91170760D01*
X167218360Y-91170760D02*
X167827960Y-92034360D01*
X167827960Y-92034360D02*
X168214040Y-92699840D01*
X168214040Y-92699840D02*
X168549320Y-93408500D01*
X168549320Y-93408500D02*
X168582340Y-93484700D01*
X168582340Y-93484700D02*
X168666160Y-93682820D01*
X168666160Y-93682820D02*
X168849040Y-94162880D01*
X168849040Y-94162880D02*
X168927780Y-94391480D01*
X168927780Y-94391480D02*
X168986200Y-94569280D01*
X168986200Y-94569280D02*
X169057320Y-94805500D01*
X169057320Y-94805500D02*
X169108120Y-94978220D01*
X169108120Y-94978220D02*
X169146220Y-95123000D01*
X169146220Y-95123000D02*
X169199560Y-95338900D01*
X169199560Y-95338900D02*
X169237660Y-95493840D01*
X169237660Y-95493840D02*
X169265600Y-95618300D01*
X169265600Y-95618300D02*
X169334180Y-95948500D01*
X169334180Y-95948500D02*
X169412920Y-96400620D01*
X169412920Y-96400620D02*
X169527220Y-97165160D01*
X169527220Y-97165160D02*
X169578020Y-97790000D01*
X169578020Y-97790000D02*
X169613580Y-98231960D01*
X169613580Y-98231960D02*
X169613580Y-98409760D01*
X169613580Y-98409760D02*
X169621200Y-98920300D01*
X169621200Y-98920300D02*
X165453060Y-102692200D01*
X165453060Y-102692200D02*
X165432740Y-102692200D01*
X165432740Y-102692200D02*
X165346380Y-102628700D01*
X165346380Y-102628700D02*
X165409880Y-102692200D01*
X165409880Y-102692200D02*
X165539420Y-102544880D01*
X165539420Y-102544880D02*
X165440360Y-102697280D01*
X165440360Y-102697280D02*
X165285420Y-102562660D01*
X165285420Y-102562660D02*
X164945060Y-102141020D01*
X164945060Y-102141020D02*
X164503100Y-101625400D01*
X164503100Y-101625400D02*
X164122100Y-101203760D01*
X164122100Y-101203760D02*
X163819840Y-100898960D01*
X163819840Y-100898960D02*
X163512500Y-100601780D01*
X163512500Y-100601780D02*
X162966400Y-100111560D01*
X162966400Y-100111560D02*
X162791140Y-99976940D01*
X162791140Y-99976940D02*
X162605720Y-99824540D01*
X162605720Y-99824540D02*
X162255200Y-99568000D01*
X162255200Y-99568000D02*
X162031680Y-99413060D01*
X162031680Y-99413060D02*
X161932620Y-99352100D01*
X161932620Y-99352100D02*
X161724340Y-99222560D01*
X161724340Y-99222560D02*
X161564320Y-99133660D01*
X161564320Y-99133660D02*
X161381440Y-99093020D01*
X161381440Y-99093020D02*
X161305240Y-99057460D01*
X161305240Y-99057460D02*
X161127440Y-98976180D01*
X161127440Y-98976180D02*
X160632140Y-98765360D01*
X160632140Y-98765360D02*
X160065720Y-98534220D01*
X160065720Y-98534220D02*
X159379920Y-98198940D01*
X159379920Y-98198940D02*
X159014160Y-98054160D01*
X159014160Y-98054160D02*
X158821120Y-97988120D01*
X158821120Y-97988120D02*
X158452820Y-97838260D01*
X158452820Y-97838260D02*
X158005780Y-97655380D01*
X158005780Y-97655380D02*
X157406340Y-97406460D01*
X157406340Y-97406460D02*
X157050740Y-97259140D01*
X157050740Y-97259140D02*
X156745940Y-97116900D01*
X156745940Y-97116900D02*
X156458920Y-96977200D01*
X156458920Y-96977200D02*
X156187140Y-96819720D01*
X156187140Y-96819720D02*
X155910280Y-96634300D01*
X155910280Y-96634300D02*
X155628340Y-96418400D01*
X155628340Y-96418400D02*
X155552140Y-96393000D01*
X155552140Y-96393000D02*
X155511500Y-96354900D01*
X155511500Y-96354900D02*
X155478480Y-96314260D01*
X155478480Y-96314260D02*
X155475940Y-96263460D01*
X155475940Y-96263460D02*
X155486100Y-96215200D01*
X155486100Y-96215200D02*
X155521660Y-96172020D01*
X155521660Y-96172020D02*
X155742640Y-95976440D01*
X155742640Y-95976440D02*
X156210000Y-95613220D01*
X156210000Y-95613220D02*
X157088840Y-94962980D01*
X157088840Y-94962980D02*
X158071820Y-94160340D01*
X158071820Y-94160340D02*
X159179260Y-93296740D01*
X159179260Y-93296740D02*
X160299400Y-92374720D01*
X160299400Y-92374720D02*
X161419540Y-91434920D01*
X161419540Y-91434920D02*
X162402520Y-90497660D01*
X162402520Y-90497660D02*
X163311840Y-89634060D01*
X163311840Y-89634060D02*
X164038280Y-88773000D01*
X164038280Y-88773000D02*
X164779960Y-89057480D01*
G36*
X164779960Y-89057480D02*
G01*
X165414960Y-89466420D01*
X166052500Y-89921080D01*
X166669720Y-90548460D01*
X167218360Y-91170760D01*
X167827960Y-92034360D01*
X168214040Y-92699840D01*
X168549320Y-93408500D01*
X168582340Y-93484700D01*
X168666160Y-93682820D01*
X168849040Y-94162880D01*
X168927780Y-94391480D01*
X168986200Y-94569280D01*
X169057320Y-94805500D01*
X169108120Y-94978220D01*
X169146220Y-95123000D01*
X169199560Y-95338900D01*
X169237660Y-95493840D01*
X169265600Y-95618300D01*
X169334180Y-95948500D01*
X169412920Y-96400620D01*
X169527220Y-97165160D01*
X169578020Y-97790000D01*
X169613580Y-98231960D01*
X169613580Y-98409760D01*
X169621200Y-98920300D01*
X165453060Y-102692200D01*
X165443662Y-102692200D01*
X165440360Y-102697280D01*
X165434513Y-102692200D01*
X165432740Y-102692200D01*
X165418856Y-102681991D01*
X165420549Y-102680067D01*
X165285420Y-102562660D01*
X164945060Y-102141020D01*
X164503100Y-101625400D01*
X164122100Y-101203760D01*
X163819840Y-100898960D01*
X163512500Y-100601780D01*
X162966400Y-100111560D01*
X162791140Y-99976940D01*
X162605720Y-99824540D01*
X162255200Y-99568000D01*
X162031680Y-99413060D01*
X161932620Y-99352100D01*
X161724340Y-99222560D01*
X161564320Y-99133660D01*
X161381440Y-99093020D01*
X161305240Y-99057460D01*
X161127440Y-98976180D01*
X160632140Y-98765360D01*
X160065720Y-98534220D01*
X159379920Y-98198940D01*
X159014160Y-98054160D01*
X158821120Y-97988120D01*
X158452820Y-97838260D01*
X158005780Y-97655380D01*
X157406340Y-97406460D01*
X157050740Y-97259140D01*
X156745940Y-97116900D01*
X156458920Y-96977200D01*
X156187140Y-96819720D01*
X155910280Y-96634300D01*
X155628340Y-96418400D01*
X155552140Y-96393000D01*
X155511500Y-96354900D01*
X155478480Y-96314260D01*
X155475940Y-96263460D01*
X155486100Y-96215200D01*
X155521660Y-96172020D01*
X155742640Y-95976440D01*
X156210000Y-95613220D01*
X157088840Y-94962980D01*
X158071820Y-94160340D01*
X159179260Y-93296740D01*
X160299400Y-92374720D01*
X161419540Y-91434920D01*
X162402520Y-90497660D01*
X163311840Y-89634060D01*
X164038280Y-88773000D01*
X164779960Y-89057480D01*
G37*
X164779960Y-89057480D02*
X165414960Y-89466420D01*
X166052500Y-89921080D01*
X166669720Y-90548460D01*
X167218360Y-91170760D01*
X167827960Y-92034360D01*
X168214040Y-92699840D01*
X168549320Y-93408500D01*
X168582340Y-93484700D01*
X168666160Y-93682820D01*
X168849040Y-94162880D01*
X168927780Y-94391480D01*
X168986200Y-94569280D01*
X169057320Y-94805500D01*
X169108120Y-94978220D01*
X169146220Y-95123000D01*
X169199560Y-95338900D01*
X169237660Y-95493840D01*
X169265600Y-95618300D01*
X169334180Y-95948500D01*
X169412920Y-96400620D01*
X169527220Y-97165160D01*
X169578020Y-97790000D01*
X169613580Y-98231960D01*
X169613580Y-98409760D01*
X169621200Y-98920300D01*
X165453060Y-102692200D01*
X165443662Y-102692200D01*
X165440360Y-102697280D01*
X165434513Y-102692200D01*
X165432740Y-102692200D01*
X165418856Y-102681991D01*
X165420549Y-102680067D01*
X165285420Y-102562660D01*
X164945060Y-102141020D01*
X164503100Y-101625400D01*
X164122100Y-101203760D01*
X163819840Y-100898960D01*
X163512500Y-100601780D01*
X162966400Y-100111560D01*
X162791140Y-99976940D01*
X162605720Y-99824540D01*
X162255200Y-99568000D01*
X162031680Y-99413060D01*
X161932620Y-99352100D01*
X161724340Y-99222560D01*
X161564320Y-99133660D01*
X161381440Y-99093020D01*
X161305240Y-99057460D01*
X161127440Y-98976180D01*
X160632140Y-98765360D01*
X160065720Y-98534220D01*
X159379920Y-98198940D01*
X159014160Y-98054160D01*
X158821120Y-97988120D01*
X158452820Y-97838260D01*
X158005780Y-97655380D01*
X157406340Y-97406460D01*
X157050740Y-97259140D01*
X156745940Y-97116900D01*
X156458920Y-96977200D01*
X156187140Y-96819720D01*
X155910280Y-96634300D01*
X155628340Y-96418400D01*
X155552140Y-96393000D01*
X155511500Y-96354900D01*
X155478480Y-96314260D01*
X155475940Y-96263460D01*
X155486100Y-96215200D01*
X155521660Y-96172020D01*
X155742640Y-95976440D01*
X156210000Y-95613220D01*
X157088840Y-94962980D01*
X158071820Y-94160340D01*
X159179260Y-93296740D01*
X160299400Y-92374720D01*
X161419540Y-91434920D01*
X162402520Y-90497660D01*
X163311840Y-89634060D01*
X164038280Y-88773000D01*
X164779960Y-89057480D01*
G36*
X165418856Y-102681991D02*
G01*
X165409880Y-102692200D01*
X165346380Y-102628700D01*
X165418856Y-102681991D01*
G37*
X165418856Y-102681991D02*
X165409880Y-102692200D01*
X165346380Y-102628700D01*
X165418856Y-102681991D01*
D14*
X186920615Y-78861971D03*
X188846985Y-78160829D03*
D15*
X190905766Y-78035010D03*
X192885914Y-77504430D03*
D16*
X195677100Y-76249476D03*
X196702100Y-74474124D03*
D17*
X192208040Y-72864980D03*
X194258040Y-72864980D03*
D18*
X180365400Y-65719200D03*
X180365400Y-63719200D03*
X185572400Y-65770000D03*
X185572400Y-63770000D03*
X195453000Y-65770000D03*
X195453000Y-63770000D03*
X190500000Y-65770000D03*
X190500000Y-63770000D03*
D19*
X111709200Y-83058000D03*
D20*
X111709200Y-80518000D03*
X111709200Y-77978000D03*
X111709200Y-75438000D03*
D21*
X125875000Y-95645800D03*
X117925000Y-95645800D03*
X125875000Y-91145800D03*
X117925000Y-91145800D03*
D22*
X193411600Y-95224600D03*
X195411600Y-95224600D03*
D23*
X116276760Y-120398540D03*
X111276760Y-120398540D03*
D24*
X117276760Y-123098540D03*
X110276760Y-123098540D03*
D25*
X108264000Y-95962600D03*
X108264000Y-92962600D03*
D26*
X188325600Y-83083400D03*
D27*
X190865600Y-83083400D03*
X193405600Y-83083400D03*
X195945600Y-83083400D03*
X195945600Y-90703400D03*
X193405600Y-90703400D03*
X190865600Y-90703400D03*
X188325600Y-90703400D03*
D28*
X151250000Y-75760000D03*
D20*
X153790000Y-75760000D03*
D29*
X169195200Y-122645800D03*
D20*
X169195200Y-120105800D03*
X169195200Y-117565800D03*
G36*
X172478130Y-64859604D02*
G01*
X172483203Y-64860087D01*
X172825486Y-64869337D01*
X172872475Y-64879807D01*
X173381365Y-65101868D01*
X173415129Y-65123577D01*
X173778425Y-65449612D01*
X173798703Y-65472893D01*
X174048353Y-65842745D01*
X174065478Y-65880086D01*
X174204945Y-66391465D01*
X174209302Y-66429197D01*
X174190714Y-66940376D01*
X174183349Y-66978476D01*
X174017201Y-67439996D01*
X173996630Y-67476536D01*
X173640058Y-67917560D01*
X173617154Y-67939531D01*
X173336436Y-68147805D01*
X173300550Y-68166365D01*
X172787942Y-68334128D01*
X172751128Y-68340356D01*
X172260441Y-68349614D01*
X172220481Y-68343900D01*
X171777864Y-68205582D01*
X171744535Y-68189470D01*
X171304585Y-67889930D01*
X171278701Y-67866441D01*
X171003115Y-67535738D01*
X170982547Y-67500920D01*
X170746871Y-66897589D01*
X170738588Y-66861168D01*
X170711501Y-66500018D01*
X170714793Y-66460507D01*
X170855290Y-65889152D01*
X170870336Y-65853203D01*
X171016313Y-65615991D01*
X171024331Y-65604456D01*
X171251776Y-65313326D01*
X171296704Y-65277228D01*
X172162218Y-64863287D01*
X172220778Y-64851026D01*
X172478130Y-64859604D01*
G37*
M02*
