G04 #@! TF.GenerationSoftware,KiCad,Pcbnew,(6.0.0)*
G04 #@! TF.CreationDate,2022-02-16T09:51:19+01:00*
G04 #@! TF.ProjectId,drawing.kicad_v2_pcb,64726177-696e-4672-9e6b-696361645f76,v2.1*
G04 #@! TF.SameCoordinates,Original*
G04 #@! TF.FileFunction,Paste,Bot*
G04 #@! TF.FilePolarity,Positive*
%FSLAX46Y46*%
G04 Gerber Fmt 4.6, Leading zero omitted, Abs format (unit mm)*
G04 Created by KiCad (PCBNEW (6.0.0)) date 2022-02-16 09:51:19*
%MOMM*%
%LPD*%
G01*
G04 APERTURE LIST*
G04 Aperture macros list*
%AMRoundRect*
0 Rectangle with rounded corners*
0 $1 Rounding radius*
0 $2 $3 $4 $5 $6 $7 $8 $9 X,Y pos of 4 corners*
0 Add a 4 corners polygon primitive as box body*
4,1,4,$2,$3,$4,$5,$6,$7,$8,$9,$2,$3,0*
0 Add four circle primitives for the rounded corners*
1,1,$1+$1,$2,$3*
1,1,$1+$1,$4,$5*
1,1,$1+$1,$6,$7*
1,1,$1+$1,$8,$9*
0 Add four rect primitives between the rounded corners*
20,1,$1+$1,$2,$3,$4,$5,0*
20,1,$1+$1,$4,$5,$6,$7,0*
20,1,$1+$1,$6,$7,$8,$9,0*
20,1,$1+$1,$8,$9,$2,$3,0*%
%AMFreePoly0*
4,1,9,1.000000,1.114214,1.000000,-1.114214,0.414214,-1.700000,-0.414214,-1.700000,-1.000000,-1.114214,-1.000000,1.114214,-0.414214,1.700000,0.414214,1.700000,1.000000,1.114214,1.000000,1.114214,$1*%
G04 Aperture macros list end*
G04 #@! TA.AperFunction,Profile*
%ADD10C,0.150000*%
G04 #@! TD*
%ADD11C,0.200000*%
G04 #@! TA.AperFunction,Profile*
%ADD12C,0.200000*%
G04 #@! TD*
%ADD13R,0.400000X1.350000*%
%ADD14RoundRect,0.250000X0.350000X0.450000X-0.350000X0.450000X-0.350000X-0.450000X0.350000X-0.450000X0*%
%ADD15R,1.250000X0.900000*%
%ADD16R,0.900000X0.800000*%
%ADD17RoundRect,0.250000X0.450000X-0.350000X0.450000X0.350000X-0.450000X0.350000X-0.450000X-0.350000X0*%
%ADD18R,1.525000X0.700000*%
%ADD19R,2.513000X3.402000*%
%ADD20R,1.400000X0.600000*%
%ADD21R,0.599999X1.599999*%
%ADD22R,0.700001X2.000001*%
%ADD23FreePoly0,180.000000*%
%ADD24R,2.500000X1.000000*%
%ADD25R,1.000000X1.800000*%
%ADD26R,1.500000X1.000000*%
%ADD27RoundRect,0.250000X0.475000X-0.337500X0.475000X0.337500X-0.475000X0.337500X-0.475000X-0.337500X0*%
%ADD28RoundRect,0.250000X-0.450000X0.325000X-0.450000X-0.325000X0.450000X-0.325000X0.450000X0.325000X0*%
%ADD29RoundRect,0.250000X0.337500X0.475000X-0.337500X0.475000X-0.337500X-0.475000X0.337500X-0.475000X0*%
%ADD30R,1.200000X0.650000*%
%ADD31RoundRect,0.250000X-0.350000X-0.450000X0.350000X-0.450000X0.350000X0.450000X-0.350000X0.450000X0*%
G04 APERTURE END LIST*
D10*
X157096620Y-70834873D02*
X147866620Y-70804873D01*
X147916669Y-65364807D02*
X149926620Y-65364873D01*
X157036620Y-65324874D02*
X155026620Y-65314873D01*
X155026619Y-65314873D02*
G75*
G03*
X149926620Y-65364873I-2548019J-227008D01*
G01*
X147916669Y-65394800D02*
G75*
G03*
X147866620Y-70804873I0J-2705268D01*
G01*
X157096620Y-70834872D02*
G75*
G03*
X157036620Y-65324874I-41644J2754872D01*
G01*
D11*
X199009991Y-124410835D02*
X198994558Y-124617854D01*
X198949252Y-124818762D01*
X198875557Y-125012559D01*
X198774959Y-125198246D01*
X198648943Y-125374823D01*
X198498994Y-125541290D01*
X198326598Y-125696648D01*
X198133240Y-125839897D01*
X197920406Y-125970037D01*
X197689580Y-126086068D01*
X197442248Y-126186991D01*
X197179896Y-126271807D01*
X196904009Y-126339514D01*
X196616072Y-126389115D01*
X196317570Y-126419608D01*
X196009990Y-126429995D01*
X196009990Y-61430000D02*
X196317570Y-61440386D01*
X196616072Y-61470880D01*
X196904009Y-61520480D01*
X197179896Y-61588188D01*
X197442248Y-61673004D01*
X197689580Y-61773927D01*
X197920406Y-61889959D01*
X198133240Y-62020099D01*
X198326598Y-62163348D01*
X198498994Y-62318706D01*
X198648943Y-62485173D01*
X198774959Y-62661750D01*
X198875557Y-62847436D01*
X198949252Y-63041233D01*
X198994558Y-63242140D01*
X199009991Y-63449159D01*
D12*
X109010000Y-61430000D02*
X109010000Y-61430000D01*
D11*
X109010000Y-126429995D02*
X108702419Y-126419608D01*
X108403917Y-126389115D01*
X108115979Y-126339514D01*
X107840092Y-126271807D01*
X107577739Y-126186991D01*
X107330408Y-126086068D01*
X107099582Y-125970037D01*
X106886747Y-125839897D01*
X106693389Y-125696648D01*
X106520992Y-125541290D01*
X106371043Y-125374823D01*
X106245027Y-125198246D01*
X106144429Y-125012559D01*
X106070734Y-124818762D01*
X106025428Y-124617854D01*
X106009996Y-124410835D01*
D12*
X196009990Y-126429995D02*
X109010000Y-126429995D01*
X199009991Y-63449159D02*
X199009991Y-124410835D01*
D11*
X106009996Y-63449159D02*
X106025428Y-63242140D01*
X106070734Y-63041233D01*
X106144429Y-62847436D01*
X106245027Y-62661750D01*
X106371043Y-62485173D01*
X106520992Y-62318706D01*
X106693389Y-62163348D01*
X106886747Y-62020099D01*
X107099582Y-61889959D01*
X107330408Y-61773927D01*
X107577739Y-61673004D01*
X107840092Y-61588188D01*
X108115979Y-61520480D01*
X108403917Y-61470880D01*
X108702419Y-61440386D01*
X109010000Y-61430000D01*
D12*
X106009996Y-124410835D02*
X106009996Y-63449159D01*
X109010000Y-61430000D02*
X196009990Y-61430000D01*
D13*
X115076760Y-120398540D03*
X114426760Y-120398540D03*
X113776760Y-120398540D03*
X113126760Y-120398540D03*
X112476760Y-120398540D03*
D14*
X175218600Y-107645200D03*
X173218600Y-107645200D03*
X110200000Y-108900000D03*
X108200000Y-108900000D03*
D15*
X110339000Y-96712600D03*
X110339000Y-93712600D03*
X110339000Y-92212600D03*
D16*
X109364000Y-98262600D03*
X107164000Y-98262600D03*
X107164000Y-90662600D03*
X109364000Y-90662600D03*
D17*
X120900000Y-115100000D03*
X120900000Y-113100000D03*
D18*
X111088000Y-116105000D03*
X111088000Y-114835000D03*
X111088000Y-113565000D03*
X111088000Y-112295000D03*
X116512000Y-112295000D03*
X116512000Y-113565000D03*
X116512000Y-114835000D03*
X116512000Y-116105000D03*
D19*
X113800000Y-114200000D03*
D20*
X110000000Y-104050000D03*
X110000000Y-103100000D03*
X110000000Y-102150000D03*
X112300000Y-104050000D03*
X112300000Y-103100000D03*
X112300000Y-102150000D03*
D14*
X117900000Y-99100000D03*
X115900000Y-99100000D03*
D21*
X120300000Y-86299999D03*
D22*
X118800001Y-86099999D03*
D23*
X118800000Y-83400000D03*
D21*
X117300000Y-86299999D03*
D24*
X179648800Y-114084400D03*
X179648800Y-112084400D03*
X179648800Y-110084400D03*
X179648800Y-108084400D03*
X179648800Y-106084400D03*
X179648800Y-104084400D03*
X179648800Y-102084400D03*
X179648800Y-100084400D03*
D25*
X182248800Y-98584400D03*
X184248800Y-98584400D03*
X186248800Y-98584400D03*
X188248800Y-98584400D03*
X190248800Y-98584400D03*
X192248800Y-98584400D03*
D24*
X194848800Y-100084400D03*
X194848800Y-102084400D03*
X194848800Y-104084400D03*
X194848800Y-106084400D03*
X194848800Y-108084400D03*
X194848800Y-110084400D03*
X194848800Y-112084400D03*
X194848800Y-114084400D03*
D26*
X174916000Y-68198800D03*
X174916000Y-64998800D03*
X170016000Y-64998800D03*
X170016000Y-68198800D03*
D27*
X123200000Y-104237500D03*
X123200000Y-102162500D03*
D14*
X175200000Y-115600000D03*
X173200000Y-115600000D03*
D28*
X120500000Y-121675000D03*
X120500000Y-123725000D03*
D29*
X114837500Y-109000000D03*
X112762500Y-109000000D03*
D17*
X120900000Y-110600000D03*
X120900000Y-108600000D03*
D30*
X117250000Y-104050000D03*
X117250000Y-103100000D03*
X117250000Y-102150000D03*
X119750000Y-102150000D03*
X119750000Y-103100000D03*
X119750000Y-104050000D03*
D27*
X108000000Y-115037500D03*
X108000000Y-112962500D03*
D28*
X124400000Y-121675000D03*
X124400000Y-123725000D03*
D31*
X173193200Y-103733600D03*
X175193200Y-103733600D03*
X173167800Y-99898200D03*
X175167800Y-99898200D03*
D29*
X175256100Y-111683800D03*
X173181100Y-111683800D03*
D27*
X166640000Y-67727500D03*
X166640000Y-65652500D03*
D17*
X108000000Y-120600000D03*
X108000000Y-118600000D03*
M02*
