%FSLAX45Y45*%
G04 Gerber Fmt 4.5, Leading zero omitted, Abs format (unit mm)*
G04 Created by KiCad (PCBNEW (6.0.0)) date 2022-02-16 09:51:41*
%MOMM*%
%LPD*%
G01*
G04 APERTURE LIST*
%TA.AperFunction,Profile*%
%ADD10C,0.150000*%
%TD*%
%ADD11C,0.200000*%
%TA.AperFunction,Profile*%
%ADD12C,0.200000*%
%TD*%
%ADD13C,0.030000*%
%ADD14C,0.050000*%
%ADD15C,0.055000*%
%ADD16C,0.100000*%
G04 APERTURE END LIST*
D10*
X15709662Y-7083487D02*
X14786662Y-7080487D01*
X14791667Y-6536481D02*
X14992662Y-6536487D01*
X15703662Y-6532487D02*
X15502662Y-6531487D01*
X15502662Y-6531487D02*
G75*
G03*
X14992662Y-6536487I-254802J-22701D01*
G01*
X14791667Y-6539480D02*
G75*
G03*
X14786662Y-7080487I0J-270527D01*
G01*
X15709662Y-7083487D02*
G75*
G03*
X15703662Y-6532487I-4164J275487D01*
G01*
D11*
X19900999Y-12441083D02*
X19899456Y-12461785D01*
X19894925Y-12481876D01*
X19887556Y-12501256D01*
X19877496Y-12519825D01*
X19864894Y-12537482D01*
X19849899Y-12554129D01*
X19832660Y-12569665D01*
X19813324Y-12583990D01*
X19792041Y-12597004D01*
X19768958Y-12608607D01*
X19744225Y-12618699D01*
X19717990Y-12627181D01*
X19690401Y-12633951D01*
X19661607Y-12638911D01*
X19631757Y-12641961D01*
X19600999Y-12642999D01*
X19600999Y-6143000D02*
X19631757Y-6144039D01*
X19661607Y-6147088D01*
X19690401Y-6152048D01*
X19717990Y-6158819D01*
X19744225Y-6167300D01*
X19768958Y-6177393D01*
X19792041Y-6188996D01*
X19813324Y-6202010D01*
X19832660Y-6216335D01*
X19849899Y-6231871D01*
X19864894Y-6248517D01*
X19877496Y-6266175D01*
X19887556Y-6284744D01*
X19894925Y-6304123D01*
X19899456Y-6324214D01*
X19900999Y-6344916D01*
D12*
X10901000Y-6143000D02*
X10901000Y-6143000D01*
D11*
X10901000Y-12642999D02*
X10870242Y-12641961D01*
X10840392Y-12638911D01*
X10811598Y-12633951D01*
X10784009Y-12627181D01*
X10757774Y-12618699D01*
X10733041Y-12608607D01*
X10709958Y-12597004D01*
X10688675Y-12583990D01*
X10669339Y-12569665D01*
X10652099Y-12554129D01*
X10637104Y-12537482D01*
X10624503Y-12519825D01*
X10614443Y-12501256D01*
X10607073Y-12481876D01*
X10602543Y-12461785D01*
X10601000Y-12441083D01*
D12*
X19600999Y-12642999D02*
X10901000Y-12642999D01*
X19900999Y-6344916D02*
X19900999Y-12441083D01*
D11*
X10601000Y-6344916D02*
X10602543Y-6324214D01*
X10607073Y-6304123D01*
X10614443Y-6284744D01*
X10624503Y-6266175D01*
X10637104Y-6248517D01*
X10652099Y-6231871D01*
X10669339Y-6216335D01*
X10688675Y-6202010D01*
X10709958Y-6188996D01*
X10733041Y-6177393D01*
X10757774Y-6167300D01*
X10784009Y-6158819D01*
X10811598Y-6152048D01*
X10840392Y-6147088D01*
X10870242Y-6144039D01*
X10901000Y-6143000D01*
D12*
X10601000Y-12441083D02*
X10601000Y-6344916D01*
X10901000Y-6143000D02*
X19600999Y-6143000D01*
D11*
D13*
X12105000Y-8675000D02*
X12135000Y-8705000D01*
X12135000Y-8675000D02*
X12105000Y-8705000D01*
X12204000Y-10544000D02*
X12234000Y-10574000D01*
X12234000Y-10544000D02*
X12204000Y-10574000D01*
X12474000Y-10542000D02*
X12504000Y-10572000D01*
X12504000Y-10542000D02*
X12474000Y-10572000D01*
X17585000Y-7931000D02*
X17615000Y-7961000D01*
X17615000Y-7931000D02*
X17585000Y-7961000D01*
X17724000Y-10449000D02*
X17754000Y-10479000D01*
X17754000Y-10449000D02*
X17724000Y-10479000D01*
X18074000Y-10488630D02*
X18104000Y-10518630D01*
X18104000Y-10488630D02*
X18074000Y-10518630D01*
X18223000Y-10547000D02*
X18253000Y-10577000D01*
X18253000Y-10547000D02*
X18223000Y-10577000D01*
X18782000Y-9469000D02*
X18812000Y-9499000D01*
X18812000Y-9469000D02*
X18782000Y-9499000D01*
X18880000Y-9396000D02*
X18910000Y-9426000D01*
X18910000Y-9396000D02*
X18880000Y-9426000D01*
X19149300Y-10401540D02*
X19179300Y-10431540D01*
X19179300Y-10401540D02*
X19149300Y-10431540D01*
X19527000Y-9248000D02*
X19557000Y-9278000D01*
X19557000Y-9248000D02*
X19527000Y-9278000D01*
D14*
X11052676Y-12309854D02*
G75*
G03*
X11052676Y-12309854I-25000J0D01*
G01*
D11*
X11042676Y-12342354D02*
X11042676Y-12277354D01*
X11012676Y-12342354D02*
X11012676Y-12277354D01*
X11042676Y-12277354D02*
G75*
G03*
X11012676Y-12277354I-15000J0D01*
G01*
X11012676Y-12342354D02*
G75*
G03*
X11042676Y-12342354I15000J0D01*
G01*
D14*
X11752676Y-12309854D02*
G75*
G03*
X11752676Y-12309854I-25000J0D01*
G01*
D11*
X11742676Y-12342354D02*
X11742676Y-12277354D01*
X11712676Y-12342354D02*
X11712676Y-12277354D01*
X11742676Y-12277354D02*
G75*
G03*
X11712676Y-12277354I-15000J0D01*
G01*
X11712676Y-12342354D02*
G75*
G03*
X11742676Y-12342354I15000J0D01*
G01*
D15*
X11127676Y-12012354D02*
X11127676Y-12067354D01*
X11100176Y-12039854D02*
X11155176Y-12039854D01*
D11*
X11142676Y-12022354D02*
X11112676Y-12022354D01*
X11142676Y-12057354D02*
X11112676Y-12057354D01*
X11112676Y-12022354D02*
G75*
G03*
X11112676Y-12057354I0J-17500D01*
G01*
X11142676Y-12057354D02*
G75*
G03*
X11142676Y-12022354I0J17500D01*
G01*
D15*
X11627676Y-12012354D02*
X11627676Y-12067354D01*
X11600176Y-12039854D02*
X11655176Y-12039854D01*
D11*
X11642676Y-12022354D02*
X11612676Y-12022354D01*
X11642676Y-12057354D02*
X11612676Y-12057354D01*
X11612676Y-12022354D02*
G75*
G03*
X11612676Y-12057354I0J-17500D01*
G01*
X11642676Y-12057354D02*
G75*
G03*
X11642676Y-12022354I0J17500D01*
G01*
D16*
X11206276Y-7579156D02*
X11206276Y-7508444D01*
X11135564Y-7508444D01*
X11135564Y-7579156D01*
X11206276Y-7579156D01*
X11206276Y-7833156D02*
X11206276Y-7762444D01*
X11135564Y-7762444D01*
X11135564Y-7833156D01*
X11206276Y-7833156D01*
X11206276Y-8087156D02*
X11206276Y-8016444D01*
X11135564Y-8016444D01*
X11135564Y-8087156D01*
X11206276Y-8087156D01*
X11206276Y-8341156D02*
X11206276Y-8270444D01*
X11135564Y-8270444D01*
X11135564Y-8341156D01*
X11206276Y-8341156D01*
X15160356Y-7611356D02*
X15160356Y-7540644D01*
X15089644Y-7540644D01*
X15089644Y-7611356D01*
X15160356Y-7611356D01*
X15410356Y-7611356D02*
X15410356Y-7540644D01*
X15339644Y-7540644D01*
X15339644Y-7611356D01*
X15410356Y-7611356D01*
X16954876Y-11537936D02*
X16954876Y-11467224D01*
X16884164Y-11467224D01*
X16884164Y-11537936D01*
X16954876Y-11537936D01*
X16954876Y-11791936D02*
X16954876Y-11721224D01*
X16884164Y-11721224D01*
X16884164Y-11791936D01*
X16954876Y-11791936D01*
X16954876Y-12045936D02*
X16954876Y-11975224D01*
X16884164Y-11975224D01*
X16884164Y-12045936D01*
X16954876Y-12045936D01*
X16954876Y-12299936D02*
X16954876Y-12229224D01*
X16884164Y-12229224D01*
X16884164Y-12299936D01*
X16954876Y-12299936D01*
X18867916Y-8343696D02*
X18867916Y-8272984D01*
X18797204Y-8272984D01*
X18797204Y-8343696D01*
X18867916Y-8343696D01*
X18867916Y-9105696D02*
X18867916Y-9034984D01*
X18797204Y-9034984D01*
X18797204Y-9105696D01*
X18867916Y-9105696D01*
X19121916Y-8343696D02*
X19121916Y-8272984D01*
X19051204Y-8272984D01*
X19051204Y-8343696D01*
X19121916Y-8343696D01*
X19121916Y-9105696D02*
X19121916Y-9034984D01*
X19051204Y-9034984D01*
X19051204Y-9105696D01*
X19121916Y-9105696D01*
X19375916Y-8343696D02*
X19375916Y-8272984D01*
X19305204Y-8272984D01*
X19305204Y-8343696D01*
X19375916Y-8343696D01*
X19375916Y-9105696D02*
X19375916Y-9034984D01*
X19305204Y-9034984D01*
X19305204Y-9105696D01*
X19375916Y-9105696D01*
X19629916Y-8343696D02*
X19629916Y-8272984D01*
X19559204Y-8272984D01*
X19559204Y-8343696D01*
X19629916Y-8343696D01*
X19629916Y-9105696D02*
X19629916Y-9034984D01*
X19559204Y-9034984D01*
X19559204Y-9105696D01*
X19629916Y-9105696D01*
D11*
X10848619Y-12963476D02*
X10848619Y-12763476D01*
X10896238Y-12763476D01*
X10924809Y-12772999D01*
X10943857Y-12792047D01*
X10953381Y-12811095D01*
X10962904Y-12849190D01*
X10962904Y-12877761D01*
X10953381Y-12915857D01*
X10943857Y-12934904D01*
X10924809Y-12953952D01*
X10896238Y-12963476D01*
X10848619Y-12963476D01*
X11048619Y-12963476D02*
X11048619Y-12830142D01*
X11048619Y-12868237D02*
X11058142Y-12849190D01*
X11067666Y-12839666D01*
X11086714Y-12830142D01*
X11105762Y-12830142D01*
X11172428Y-12963476D02*
X11172428Y-12830142D01*
X11172428Y-12763476D02*
X11162904Y-12772999D01*
X11172428Y-12782523D01*
X11181952Y-12772999D01*
X11172428Y-12763476D01*
X11172428Y-12782523D01*
X11296238Y-12963476D02*
X11277190Y-12953952D01*
X11267666Y-12934904D01*
X11267666Y-12763476D01*
X11401000Y-12963476D02*
X11381952Y-12953952D01*
X11372428Y-12934904D01*
X11372428Y-12763476D01*
X11629571Y-12963476D02*
X11629571Y-12763476D01*
X11696238Y-12906333D01*
X11762904Y-12763476D01*
X11762904Y-12963476D01*
X11943857Y-12963476D02*
X11943857Y-12858714D01*
X11934333Y-12839666D01*
X11915285Y-12830142D01*
X11877190Y-12830142D01*
X11858142Y-12839666D01*
X11943857Y-12953952D02*
X11924809Y-12963476D01*
X11877190Y-12963476D01*
X11858142Y-12953952D01*
X11848619Y-12934904D01*
X11848619Y-12915857D01*
X11858142Y-12896809D01*
X11877190Y-12887285D01*
X11924809Y-12887285D01*
X11943857Y-12877761D01*
X12039095Y-12830142D02*
X12039095Y-13030142D01*
X12039095Y-12839666D02*
X12058142Y-12830142D01*
X12096238Y-12830142D01*
X12115285Y-12839666D01*
X12124809Y-12849190D01*
X12134333Y-12868237D01*
X12134333Y-12925380D01*
X12124809Y-12944428D01*
X12115285Y-12953952D01*
X12096238Y-12963476D01*
X12058142Y-12963476D01*
X12039095Y-12953952D01*
X12220047Y-12944428D02*
X12229571Y-12953952D01*
X12220047Y-12963476D01*
X12210523Y-12953952D01*
X12220047Y-12944428D01*
X12220047Y-12963476D01*
X12220047Y-12839666D02*
X12229571Y-12849190D01*
X12220047Y-12858714D01*
X12210523Y-12849190D01*
X12220047Y-12839666D01*
X12220047Y-12858714D01*
D13*
X10561000Y-13277999D02*
X10591000Y-13307999D01*
X10591000Y-13277999D02*
X10561000Y-13307999D01*
D11*
X10886714Y-13183476D02*
X10905762Y-13183476D01*
X10924809Y-13192999D01*
X10934333Y-13202523D01*
X10943857Y-13221571D01*
X10953381Y-13259666D01*
X10953381Y-13307285D01*
X10943857Y-13345380D01*
X10934333Y-13364428D01*
X10924809Y-13373952D01*
X10905762Y-13383476D01*
X10886714Y-13383476D01*
X10867666Y-13373952D01*
X10858142Y-13364428D01*
X10848619Y-13345380D01*
X10839095Y-13307285D01*
X10839095Y-13259666D01*
X10848619Y-13221571D01*
X10858142Y-13202523D01*
X10867666Y-13192999D01*
X10886714Y-13183476D01*
X11039095Y-13364428D02*
X11048619Y-13373952D01*
X11039095Y-13383476D01*
X11029571Y-13373952D01*
X11039095Y-13364428D01*
X11039095Y-13383476D01*
X11115285Y-13183476D02*
X11239095Y-13183476D01*
X11172428Y-13259666D01*
X11201000Y-13259666D01*
X11220047Y-13269190D01*
X11229571Y-13278714D01*
X11239095Y-13297761D01*
X11239095Y-13345380D01*
X11229571Y-13364428D01*
X11220047Y-13373952D01*
X11201000Y-13383476D01*
X11143857Y-13383476D01*
X11124809Y-13373952D01*
X11115285Y-13364428D01*
X11362904Y-13183476D02*
X11381952Y-13183476D01*
X11401000Y-13192999D01*
X11410523Y-13202523D01*
X11420047Y-13221571D01*
X11429571Y-13259666D01*
X11429571Y-13307285D01*
X11420047Y-13345380D01*
X11410523Y-13364428D01*
X11401000Y-13373952D01*
X11381952Y-13383476D01*
X11362904Y-13383476D01*
X11343857Y-13373952D01*
X11334333Y-13364428D01*
X11324809Y-13345380D01*
X11315285Y-13307285D01*
X11315285Y-13259666D01*
X11324809Y-13221571D01*
X11334333Y-13202523D01*
X11343857Y-13192999D01*
X11362904Y-13183476D01*
X11553380Y-13183476D02*
X11572428Y-13183476D01*
X11591476Y-13192999D01*
X11601000Y-13202523D01*
X11610523Y-13221571D01*
X11620047Y-13259666D01*
X11620047Y-13307285D01*
X11610523Y-13345380D01*
X11601000Y-13364428D01*
X11591476Y-13373952D01*
X11572428Y-13383476D01*
X11553380Y-13383476D01*
X11534333Y-13373952D01*
X11524809Y-13364428D01*
X11515285Y-13345380D01*
X11505761Y-13307285D01*
X11505761Y-13259666D01*
X11515285Y-13221571D01*
X11524809Y-13202523D01*
X11534333Y-13192999D01*
X11553380Y-13183476D01*
X11705761Y-13383476D02*
X11705761Y-13250142D01*
X11705761Y-13269190D02*
X11715285Y-13259666D01*
X11734333Y-13250142D01*
X11762904Y-13250142D01*
X11781952Y-13259666D01*
X11791476Y-13278714D01*
X11791476Y-13383476D01*
X11791476Y-13278714D02*
X11801000Y-13259666D01*
X11820047Y-13250142D01*
X11848619Y-13250142D01*
X11867666Y-13259666D01*
X11877190Y-13278714D01*
X11877190Y-13383476D01*
X11972428Y-13383476D02*
X11972428Y-13250142D01*
X11972428Y-13269190D02*
X11981952Y-13259666D01*
X12001000Y-13250142D01*
X12029571Y-13250142D01*
X12048619Y-13259666D01*
X12058142Y-13278714D01*
X12058142Y-13383476D01*
X12058142Y-13278714D02*
X12067666Y-13259666D01*
X12086714Y-13250142D01*
X12115285Y-13250142D01*
X12134333Y-13259666D01*
X12143857Y-13278714D01*
X12143857Y-13383476D01*
X12534333Y-13173952D02*
X12362904Y-13431095D01*
X12791476Y-13183476D02*
X12810523Y-13183476D01*
X12829571Y-13192999D01*
X12839095Y-13202523D01*
X12848619Y-13221571D01*
X12858142Y-13259666D01*
X12858142Y-13307285D01*
X12848619Y-13345380D01*
X12839095Y-13364428D01*
X12829571Y-13373952D01*
X12810523Y-13383476D01*
X12791476Y-13383476D01*
X12772428Y-13373952D01*
X12762904Y-13364428D01*
X12753380Y-13345380D01*
X12743857Y-13307285D01*
X12743857Y-13259666D01*
X12753380Y-13221571D01*
X12762904Y-13202523D01*
X12772428Y-13192999D01*
X12791476Y-13183476D01*
X12943857Y-13364428D02*
X12953380Y-13373952D01*
X12943857Y-13383476D01*
X12934333Y-13373952D01*
X12943857Y-13364428D01*
X12943857Y-13383476D01*
X13077190Y-13183476D02*
X13096238Y-13183476D01*
X13115285Y-13192999D01*
X13124809Y-13202523D01*
X13134333Y-13221571D01*
X13143857Y-13259666D01*
X13143857Y-13307285D01*
X13134333Y-13345380D01*
X13124809Y-13364428D01*
X13115285Y-13373952D01*
X13096238Y-13383476D01*
X13077190Y-13383476D01*
X13058142Y-13373952D01*
X13048619Y-13364428D01*
X13039095Y-13345380D01*
X13029571Y-13307285D01*
X13029571Y-13259666D01*
X13039095Y-13221571D01*
X13048619Y-13202523D01*
X13058142Y-13192999D01*
X13077190Y-13183476D01*
X13334333Y-13383476D02*
X13220047Y-13383476D01*
X13277190Y-13383476D02*
X13277190Y-13183476D01*
X13258142Y-13212047D01*
X13239095Y-13231095D01*
X13220047Y-13240618D01*
X13524809Y-13383476D02*
X13410523Y-13383476D01*
X13467666Y-13383476D02*
X13467666Y-13183476D01*
X13448619Y-13212047D01*
X13429571Y-13231095D01*
X13410523Y-13240618D01*
X13639095Y-13269190D02*
X13620047Y-13259666D01*
X13610523Y-13250142D01*
X13601000Y-13231095D01*
X13601000Y-13221571D01*
X13610523Y-13202523D01*
X13620047Y-13192999D01*
X13639095Y-13183476D01*
X13677190Y-13183476D01*
X13696238Y-13192999D01*
X13705761Y-13202523D01*
X13715285Y-13221571D01*
X13715285Y-13231095D01*
X13705761Y-13250142D01*
X13696238Y-13259666D01*
X13677190Y-13269190D01*
X13639095Y-13269190D01*
X13620047Y-13278714D01*
X13610523Y-13288237D01*
X13601000Y-13307285D01*
X13601000Y-13345380D01*
X13610523Y-13364428D01*
X13620047Y-13373952D01*
X13639095Y-13383476D01*
X13677190Y-13383476D01*
X13696238Y-13373952D01*
X13705761Y-13364428D01*
X13715285Y-13345380D01*
X13715285Y-13307285D01*
X13705761Y-13288237D01*
X13696238Y-13278714D01*
X13677190Y-13269190D01*
X13791476Y-13183476D02*
X13791476Y-13221571D01*
X13867666Y-13183476D02*
X13867666Y-13221571D01*
X14162904Y-13459666D02*
X14153380Y-13450142D01*
X14134333Y-13421571D01*
X14124809Y-13402523D01*
X14115285Y-13373952D01*
X14105761Y-13326333D01*
X14105761Y-13288237D01*
X14115285Y-13240618D01*
X14124809Y-13212047D01*
X14134333Y-13192999D01*
X14153380Y-13164428D01*
X14162904Y-13154904D01*
X14343857Y-13383476D02*
X14229571Y-13383476D01*
X14286714Y-13383476D02*
X14286714Y-13183476D01*
X14267666Y-13212047D01*
X14248619Y-13231095D01*
X14229571Y-13240618D01*
X14534333Y-13383476D02*
X14420047Y-13383476D01*
X14477190Y-13383476D02*
X14477190Y-13183476D01*
X14458142Y-13212047D01*
X14439095Y-13231095D01*
X14420047Y-13240618D01*
X14772428Y-13383476D02*
X14772428Y-13183476D01*
X14858142Y-13383476D02*
X14858142Y-13278714D01*
X14848619Y-13259666D01*
X14829571Y-13250142D01*
X14800999Y-13250142D01*
X14781952Y-13259666D01*
X14772428Y-13269190D01*
X14981952Y-13383476D02*
X14962904Y-13373952D01*
X14953380Y-13364428D01*
X14943857Y-13345380D01*
X14943857Y-13288237D01*
X14953380Y-13269190D01*
X14962904Y-13259666D01*
X14981952Y-13250142D01*
X15010523Y-13250142D01*
X15029571Y-13259666D01*
X15039095Y-13269190D01*
X15048619Y-13288237D01*
X15048619Y-13345380D01*
X15039095Y-13364428D01*
X15029571Y-13373952D01*
X15010523Y-13383476D01*
X14981952Y-13383476D01*
X15162904Y-13383476D02*
X15143857Y-13373952D01*
X15134333Y-13354904D01*
X15134333Y-13183476D01*
X15315285Y-13373952D02*
X15296238Y-13383476D01*
X15258142Y-13383476D01*
X15239095Y-13373952D01*
X15229571Y-13354904D01*
X15229571Y-13278714D01*
X15239095Y-13259666D01*
X15258142Y-13250142D01*
X15296238Y-13250142D01*
X15315285Y-13259666D01*
X15324809Y-13278714D01*
X15324809Y-13297761D01*
X15229571Y-13316809D01*
X15400999Y-13373952D02*
X15420047Y-13383476D01*
X15458142Y-13383476D01*
X15477190Y-13373952D01*
X15486714Y-13354904D01*
X15486714Y-13345380D01*
X15477190Y-13326333D01*
X15458142Y-13316809D01*
X15429571Y-13316809D01*
X15410523Y-13307285D01*
X15400999Y-13288237D01*
X15400999Y-13278714D01*
X15410523Y-13259666D01*
X15429571Y-13250142D01*
X15458142Y-13250142D01*
X15477190Y-13259666D01*
X15553380Y-13459666D02*
X15562904Y-13450142D01*
X15581952Y-13421571D01*
X15591476Y-13402523D01*
X15600999Y-13373952D01*
X15610523Y-13326333D01*
X15610523Y-13288237D01*
X15600999Y-13240618D01*
X15591476Y-13212047D01*
X15581952Y-13192999D01*
X15562904Y-13164428D01*
X15553380Y-13154904D01*
D14*
X10591000Y-13556999D02*
G75*
G03*
X10591000Y-13556999I-25000J0D01*
G01*
D11*
X10886714Y-13447476D02*
X10905762Y-13447476D01*
X10924809Y-13456999D01*
X10934333Y-13466523D01*
X10943857Y-13485571D01*
X10953381Y-13523666D01*
X10953381Y-13571285D01*
X10943857Y-13609380D01*
X10934333Y-13628428D01*
X10924809Y-13637952D01*
X10905762Y-13647476D01*
X10886714Y-13647476D01*
X10867666Y-13637952D01*
X10858142Y-13628428D01*
X10848619Y-13609380D01*
X10839095Y-13571285D01*
X10839095Y-13523666D01*
X10848619Y-13485571D01*
X10858142Y-13466523D01*
X10867666Y-13456999D01*
X10886714Y-13447476D01*
X11039095Y-13628428D02*
X11048619Y-13637952D01*
X11039095Y-13647476D01*
X11029571Y-13637952D01*
X11039095Y-13628428D01*
X11039095Y-13647476D01*
X11229571Y-13447476D02*
X11134333Y-13447476D01*
X11124809Y-13542714D01*
X11134333Y-13533190D01*
X11153381Y-13523666D01*
X11201000Y-13523666D01*
X11220047Y-13533190D01*
X11229571Y-13542714D01*
X11239095Y-13561761D01*
X11239095Y-13609380D01*
X11229571Y-13628428D01*
X11220047Y-13637952D01*
X11201000Y-13647476D01*
X11153381Y-13647476D01*
X11134333Y-13637952D01*
X11124809Y-13628428D01*
X11362904Y-13447476D02*
X11381952Y-13447476D01*
X11401000Y-13456999D01*
X11410523Y-13466523D01*
X11420047Y-13485571D01*
X11429571Y-13523666D01*
X11429571Y-13571285D01*
X11420047Y-13609380D01*
X11410523Y-13628428D01*
X11401000Y-13637952D01*
X11381952Y-13647476D01*
X11362904Y-13647476D01*
X11343857Y-13637952D01*
X11334333Y-13628428D01*
X11324809Y-13609380D01*
X11315285Y-13571285D01*
X11315285Y-13523666D01*
X11324809Y-13485571D01*
X11334333Y-13466523D01*
X11343857Y-13456999D01*
X11362904Y-13447476D01*
X11553380Y-13447476D02*
X11572428Y-13447476D01*
X11591476Y-13456999D01*
X11601000Y-13466523D01*
X11610523Y-13485571D01*
X11620047Y-13523666D01*
X11620047Y-13571285D01*
X11610523Y-13609380D01*
X11601000Y-13628428D01*
X11591476Y-13637952D01*
X11572428Y-13647476D01*
X11553380Y-13647476D01*
X11534333Y-13637952D01*
X11524809Y-13628428D01*
X11515285Y-13609380D01*
X11505761Y-13571285D01*
X11505761Y-13523666D01*
X11515285Y-13485571D01*
X11524809Y-13466523D01*
X11534333Y-13456999D01*
X11553380Y-13447476D01*
X11705761Y-13647476D02*
X11705761Y-13514142D01*
X11705761Y-13533190D02*
X11715285Y-13523666D01*
X11734333Y-13514142D01*
X11762904Y-13514142D01*
X11781952Y-13523666D01*
X11791476Y-13542714D01*
X11791476Y-13647476D01*
X11791476Y-13542714D02*
X11801000Y-13523666D01*
X11820047Y-13514142D01*
X11848619Y-13514142D01*
X11867666Y-13523666D01*
X11877190Y-13542714D01*
X11877190Y-13647476D01*
X11972428Y-13647476D02*
X11972428Y-13514142D01*
X11972428Y-13533190D02*
X11981952Y-13523666D01*
X12001000Y-13514142D01*
X12029571Y-13514142D01*
X12048619Y-13523666D01*
X12058142Y-13542714D01*
X12058142Y-13647476D01*
X12058142Y-13542714D02*
X12067666Y-13523666D01*
X12086714Y-13514142D01*
X12115285Y-13514142D01*
X12134333Y-13523666D01*
X12143857Y-13542714D01*
X12143857Y-13647476D01*
X12534333Y-13437952D02*
X12362904Y-13695095D01*
X12791476Y-13447476D02*
X12810523Y-13447476D01*
X12829571Y-13456999D01*
X12839095Y-13466523D01*
X12848619Y-13485571D01*
X12858142Y-13523666D01*
X12858142Y-13571285D01*
X12848619Y-13609380D01*
X12839095Y-13628428D01*
X12829571Y-13637952D01*
X12810523Y-13647476D01*
X12791476Y-13647476D01*
X12772428Y-13637952D01*
X12762904Y-13628428D01*
X12753380Y-13609380D01*
X12743857Y-13571285D01*
X12743857Y-13523666D01*
X12753380Y-13485571D01*
X12762904Y-13466523D01*
X12772428Y-13456999D01*
X12791476Y-13447476D01*
X12943857Y-13628428D02*
X12953380Y-13637952D01*
X12943857Y-13647476D01*
X12934333Y-13637952D01*
X12943857Y-13628428D01*
X12943857Y-13647476D01*
X13077190Y-13447476D02*
X13096238Y-13447476D01*
X13115285Y-13456999D01*
X13124809Y-13466523D01*
X13134333Y-13485571D01*
X13143857Y-13523666D01*
X13143857Y-13571285D01*
X13134333Y-13609380D01*
X13124809Y-13628428D01*
X13115285Y-13637952D01*
X13096238Y-13647476D01*
X13077190Y-13647476D01*
X13058142Y-13637952D01*
X13048619Y-13628428D01*
X13039095Y-13609380D01*
X13029571Y-13571285D01*
X13029571Y-13523666D01*
X13039095Y-13485571D01*
X13048619Y-13466523D01*
X13058142Y-13456999D01*
X13077190Y-13447476D01*
X13334333Y-13647476D02*
X13220047Y-13647476D01*
X13277190Y-13647476D02*
X13277190Y-13447476D01*
X13258142Y-13476047D01*
X13239095Y-13495095D01*
X13220047Y-13504618D01*
X13429571Y-13647476D02*
X13467666Y-13647476D01*
X13486714Y-13637952D01*
X13496238Y-13628428D01*
X13515285Y-13599857D01*
X13524809Y-13561761D01*
X13524809Y-13485571D01*
X13515285Y-13466523D01*
X13505761Y-13456999D01*
X13486714Y-13447476D01*
X13448619Y-13447476D01*
X13429571Y-13456999D01*
X13420047Y-13466523D01*
X13410523Y-13485571D01*
X13410523Y-13533190D01*
X13420047Y-13552237D01*
X13429571Y-13561761D01*
X13448619Y-13571285D01*
X13486714Y-13571285D01*
X13505761Y-13561761D01*
X13515285Y-13552237D01*
X13524809Y-13533190D01*
X13591476Y-13447476D02*
X13724809Y-13447476D01*
X13639095Y-13647476D01*
X13791476Y-13447476D02*
X13791476Y-13485571D01*
X13867666Y-13447476D02*
X13867666Y-13485571D01*
X14162904Y-13723666D02*
X14153380Y-13714142D01*
X14134333Y-13685571D01*
X14124809Y-13666523D01*
X14115285Y-13637952D01*
X14105761Y-13590333D01*
X14105761Y-13552237D01*
X14115285Y-13504618D01*
X14124809Y-13476047D01*
X14134333Y-13456999D01*
X14153380Y-13428428D01*
X14162904Y-13418904D01*
X14277190Y-13447476D02*
X14296238Y-13447476D01*
X14315285Y-13456999D01*
X14324809Y-13466523D01*
X14334333Y-13485571D01*
X14343857Y-13523666D01*
X14343857Y-13571285D01*
X14334333Y-13609380D01*
X14324809Y-13628428D01*
X14315285Y-13637952D01*
X14296238Y-13647476D01*
X14277190Y-13647476D01*
X14258142Y-13637952D01*
X14248619Y-13628428D01*
X14239095Y-13609380D01*
X14229571Y-13571285D01*
X14229571Y-13523666D01*
X14239095Y-13485571D01*
X14248619Y-13466523D01*
X14258142Y-13456999D01*
X14277190Y-13447476D01*
X14581952Y-13647476D02*
X14581952Y-13447476D01*
X14667666Y-13647476D02*
X14667666Y-13542714D01*
X14658142Y-13523666D01*
X14639095Y-13514142D01*
X14610523Y-13514142D01*
X14591476Y-13523666D01*
X14581952Y-13533190D01*
X14791476Y-13647476D02*
X14772428Y-13637952D01*
X14762904Y-13628428D01*
X14753380Y-13609380D01*
X14753380Y-13552237D01*
X14762904Y-13533190D01*
X14772428Y-13523666D01*
X14791476Y-13514142D01*
X14820047Y-13514142D01*
X14839095Y-13523666D01*
X14848619Y-13533190D01*
X14858142Y-13552237D01*
X14858142Y-13609380D01*
X14848619Y-13628428D01*
X14839095Y-13637952D01*
X14820047Y-13647476D01*
X14791476Y-13647476D01*
X14972428Y-13647476D02*
X14953380Y-13637952D01*
X14943857Y-13618904D01*
X14943857Y-13447476D01*
X15124809Y-13637952D02*
X15105761Y-13647476D01*
X15067666Y-13647476D01*
X15048619Y-13637952D01*
X15039095Y-13618904D01*
X15039095Y-13542714D01*
X15048619Y-13523666D01*
X15067666Y-13514142D01*
X15105761Y-13514142D01*
X15124809Y-13523666D01*
X15134333Y-13542714D01*
X15134333Y-13561761D01*
X15039095Y-13580809D01*
X15210523Y-13637952D02*
X15229571Y-13647476D01*
X15267666Y-13647476D01*
X15286714Y-13637952D01*
X15296238Y-13618904D01*
X15296238Y-13609380D01*
X15286714Y-13590333D01*
X15267666Y-13580809D01*
X15239095Y-13580809D01*
X15220047Y-13571285D01*
X15210523Y-13552237D01*
X15210523Y-13542714D01*
X15220047Y-13523666D01*
X15239095Y-13514142D01*
X15267666Y-13514142D01*
X15286714Y-13523666D01*
X15534333Y-13571285D02*
X15686714Y-13571285D01*
X15610523Y-13647476D02*
X15610523Y-13495095D01*
X15924809Y-13466523D02*
X15934333Y-13456999D01*
X15953380Y-13447476D01*
X16000999Y-13447476D01*
X16020047Y-13456999D01*
X16029571Y-13466523D01*
X16039095Y-13485571D01*
X16039095Y-13504618D01*
X16029571Y-13533190D01*
X15915285Y-13647476D01*
X16039095Y-13647476D01*
X16267666Y-13637952D02*
X16286714Y-13647476D01*
X16324809Y-13647476D01*
X16343857Y-13637952D01*
X16353380Y-13618904D01*
X16353380Y-13609380D01*
X16343857Y-13590333D01*
X16324809Y-13580809D01*
X16296238Y-13580809D01*
X16277190Y-13571285D01*
X16267666Y-13552237D01*
X16267666Y-13542714D01*
X16277190Y-13523666D01*
X16296238Y-13514142D01*
X16324809Y-13514142D01*
X16343857Y-13523666D01*
X16467666Y-13647476D02*
X16448619Y-13637952D01*
X16439095Y-13618904D01*
X16439095Y-13447476D01*
X16572428Y-13647476D02*
X16553380Y-13637952D01*
X16543857Y-13628428D01*
X16534333Y-13609380D01*
X16534333Y-13552237D01*
X16543857Y-13533190D01*
X16553380Y-13523666D01*
X16572428Y-13514142D01*
X16600999Y-13514142D01*
X16620047Y-13523666D01*
X16629571Y-13533190D01*
X16639095Y-13552237D01*
X16639095Y-13609380D01*
X16629571Y-13628428D01*
X16620047Y-13637952D01*
X16600999Y-13647476D01*
X16572428Y-13647476D01*
X16696238Y-13514142D02*
X16772428Y-13514142D01*
X16724809Y-13447476D02*
X16724809Y-13618904D01*
X16734333Y-13637952D01*
X16753380Y-13647476D01*
X16772428Y-13647476D01*
X16829571Y-13637952D02*
X16848619Y-13647476D01*
X16886714Y-13647476D01*
X16905762Y-13637952D01*
X16915285Y-13618904D01*
X16915285Y-13609380D01*
X16905762Y-13590333D01*
X16886714Y-13580809D01*
X16858142Y-13580809D01*
X16839095Y-13571285D01*
X16829571Y-13552237D01*
X16829571Y-13542714D01*
X16839095Y-13523666D01*
X16858142Y-13514142D01*
X16886714Y-13514142D01*
X16905762Y-13523666D01*
X16981952Y-13723666D02*
X16991476Y-13714142D01*
X17010523Y-13685571D01*
X17020047Y-13666523D01*
X17029571Y-13637952D01*
X17039095Y-13590333D01*
X17039095Y-13552237D01*
X17029571Y-13504618D01*
X17020047Y-13476047D01*
X17010523Y-13456999D01*
X16991476Y-13428428D01*
X16981952Y-13418904D01*
D15*
X10563500Y-13793499D02*
X10563500Y-13848499D01*
X10536000Y-13820999D02*
X10591000Y-13820999D01*
D11*
X10886714Y-13711476D02*
X10905762Y-13711476D01*
X10924809Y-13720999D01*
X10934333Y-13730523D01*
X10943857Y-13749571D01*
X10953381Y-13787666D01*
X10953381Y-13835285D01*
X10943857Y-13873380D01*
X10934333Y-13892428D01*
X10924809Y-13901952D01*
X10905762Y-13911476D01*
X10886714Y-13911476D01*
X10867666Y-13901952D01*
X10858142Y-13892428D01*
X10848619Y-13873380D01*
X10839095Y-13835285D01*
X10839095Y-13787666D01*
X10848619Y-13749571D01*
X10858142Y-13730523D01*
X10867666Y-13720999D01*
X10886714Y-13711476D01*
X11039095Y-13892428D02*
X11048619Y-13901952D01*
X11039095Y-13911476D01*
X11029571Y-13901952D01*
X11039095Y-13892428D01*
X11039095Y-13911476D01*
X11229571Y-13711476D02*
X11134333Y-13711476D01*
X11124809Y-13806714D01*
X11134333Y-13797190D01*
X11153381Y-13787666D01*
X11201000Y-13787666D01*
X11220047Y-13797190D01*
X11229571Y-13806714D01*
X11239095Y-13825761D01*
X11239095Y-13873380D01*
X11229571Y-13892428D01*
X11220047Y-13901952D01*
X11201000Y-13911476D01*
X11153381Y-13911476D01*
X11134333Y-13901952D01*
X11124809Y-13892428D01*
X11420047Y-13711476D02*
X11324809Y-13711476D01*
X11315285Y-13806714D01*
X11324809Y-13797190D01*
X11343857Y-13787666D01*
X11391476Y-13787666D01*
X11410523Y-13797190D01*
X11420047Y-13806714D01*
X11429571Y-13825761D01*
X11429571Y-13873380D01*
X11420047Y-13892428D01*
X11410523Y-13901952D01*
X11391476Y-13911476D01*
X11343857Y-13911476D01*
X11324809Y-13901952D01*
X11315285Y-13892428D01*
X11553380Y-13711476D02*
X11572428Y-13711476D01*
X11591476Y-13720999D01*
X11601000Y-13730523D01*
X11610523Y-13749571D01*
X11620047Y-13787666D01*
X11620047Y-13835285D01*
X11610523Y-13873380D01*
X11601000Y-13892428D01*
X11591476Y-13901952D01*
X11572428Y-13911476D01*
X11553380Y-13911476D01*
X11534333Y-13901952D01*
X11524809Y-13892428D01*
X11515285Y-13873380D01*
X11505761Y-13835285D01*
X11505761Y-13787666D01*
X11515285Y-13749571D01*
X11524809Y-13730523D01*
X11534333Y-13720999D01*
X11553380Y-13711476D01*
X11705761Y-13911476D02*
X11705761Y-13778142D01*
X11705761Y-13797190D02*
X11715285Y-13787666D01*
X11734333Y-13778142D01*
X11762904Y-13778142D01*
X11781952Y-13787666D01*
X11791476Y-13806714D01*
X11791476Y-13911476D01*
X11791476Y-13806714D02*
X11801000Y-13787666D01*
X11820047Y-13778142D01*
X11848619Y-13778142D01*
X11867666Y-13787666D01*
X11877190Y-13806714D01*
X11877190Y-13911476D01*
X11972428Y-13911476D02*
X11972428Y-13778142D01*
X11972428Y-13797190D02*
X11981952Y-13787666D01*
X12001000Y-13778142D01*
X12029571Y-13778142D01*
X12048619Y-13787666D01*
X12058142Y-13806714D01*
X12058142Y-13911476D01*
X12058142Y-13806714D02*
X12067666Y-13787666D01*
X12086714Y-13778142D01*
X12115285Y-13778142D01*
X12134333Y-13787666D01*
X12143857Y-13806714D01*
X12143857Y-13911476D01*
X12534333Y-13701952D02*
X12362904Y-13959095D01*
X12791476Y-13711476D02*
X12810523Y-13711476D01*
X12829571Y-13720999D01*
X12839095Y-13730523D01*
X12848619Y-13749571D01*
X12858142Y-13787666D01*
X12858142Y-13835285D01*
X12848619Y-13873380D01*
X12839095Y-13892428D01*
X12829571Y-13901952D01*
X12810523Y-13911476D01*
X12791476Y-13911476D01*
X12772428Y-13901952D01*
X12762904Y-13892428D01*
X12753380Y-13873380D01*
X12743857Y-13835285D01*
X12743857Y-13787666D01*
X12753380Y-13749571D01*
X12762904Y-13730523D01*
X12772428Y-13720999D01*
X12791476Y-13711476D01*
X12943857Y-13892428D02*
X12953380Y-13901952D01*
X12943857Y-13911476D01*
X12934333Y-13901952D01*
X12943857Y-13892428D01*
X12943857Y-13911476D01*
X13077190Y-13711476D02*
X13096238Y-13711476D01*
X13115285Y-13720999D01*
X13124809Y-13730523D01*
X13134333Y-13749571D01*
X13143857Y-13787666D01*
X13143857Y-13835285D01*
X13134333Y-13873380D01*
X13124809Y-13892428D01*
X13115285Y-13901952D01*
X13096238Y-13911476D01*
X13077190Y-13911476D01*
X13058142Y-13901952D01*
X13048619Y-13892428D01*
X13039095Y-13873380D01*
X13029571Y-13835285D01*
X13029571Y-13787666D01*
X13039095Y-13749571D01*
X13048619Y-13730523D01*
X13058142Y-13720999D01*
X13077190Y-13711476D01*
X13220047Y-13730523D02*
X13229571Y-13720999D01*
X13248619Y-13711476D01*
X13296238Y-13711476D01*
X13315285Y-13720999D01*
X13324809Y-13730523D01*
X13334333Y-13749571D01*
X13334333Y-13768618D01*
X13324809Y-13797190D01*
X13210523Y-13911476D01*
X13334333Y-13911476D01*
X13524809Y-13911476D02*
X13410523Y-13911476D01*
X13467666Y-13911476D02*
X13467666Y-13711476D01*
X13448619Y-13740047D01*
X13429571Y-13759095D01*
X13410523Y-13768618D01*
X13591476Y-13711476D02*
X13724809Y-13711476D01*
X13639095Y-13911476D01*
X13791476Y-13711476D02*
X13791476Y-13749571D01*
X13867666Y-13711476D02*
X13867666Y-13749571D01*
X14162904Y-13987666D02*
X14153380Y-13978142D01*
X14134333Y-13949571D01*
X14124809Y-13930523D01*
X14115285Y-13901952D01*
X14105761Y-13854333D01*
X14105761Y-13816237D01*
X14115285Y-13768618D01*
X14124809Y-13740047D01*
X14134333Y-13720999D01*
X14153380Y-13692428D01*
X14162904Y-13682904D01*
X14277190Y-13711476D02*
X14296238Y-13711476D01*
X14315285Y-13720999D01*
X14324809Y-13730523D01*
X14334333Y-13749571D01*
X14343857Y-13787666D01*
X14343857Y-13835285D01*
X14334333Y-13873380D01*
X14324809Y-13892428D01*
X14315285Y-13901952D01*
X14296238Y-13911476D01*
X14277190Y-13911476D01*
X14258142Y-13901952D01*
X14248619Y-13892428D01*
X14239095Y-13873380D01*
X14229571Y-13835285D01*
X14229571Y-13787666D01*
X14239095Y-13749571D01*
X14248619Y-13730523D01*
X14258142Y-13720999D01*
X14277190Y-13711476D01*
X14581952Y-13911476D02*
X14581952Y-13711476D01*
X14667666Y-13911476D02*
X14667666Y-13806714D01*
X14658142Y-13787666D01*
X14639095Y-13778142D01*
X14610523Y-13778142D01*
X14591476Y-13787666D01*
X14581952Y-13797190D01*
X14791476Y-13911476D02*
X14772428Y-13901952D01*
X14762904Y-13892428D01*
X14753380Y-13873380D01*
X14753380Y-13816237D01*
X14762904Y-13797190D01*
X14772428Y-13787666D01*
X14791476Y-13778142D01*
X14820047Y-13778142D01*
X14839095Y-13787666D01*
X14848619Y-13797190D01*
X14858142Y-13816237D01*
X14858142Y-13873380D01*
X14848619Y-13892428D01*
X14839095Y-13901952D01*
X14820047Y-13911476D01*
X14791476Y-13911476D01*
X14972428Y-13911476D02*
X14953380Y-13901952D01*
X14943857Y-13882904D01*
X14943857Y-13711476D01*
X15124809Y-13901952D02*
X15105761Y-13911476D01*
X15067666Y-13911476D01*
X15048619Y-13901952D01*
X15039095Y-13882904D01*
X15039095Y-13806714D01*
X15048619Y-13787666D01*
X15067666Y-13778142D01*
X15105761Y-13778142D01*
X15124809Y-13787666D01*
X15134333Y-13806714D01*
X15134333Y-13825761D01*
X15039095Y-13844809D01*
X15210523Y-13901952D02*
X15229571Y-13911476D01*
X15267666Y-13911476D01*
X15286714Y-13901952D01*
X15296238Y-13882904D01*
X15296238Y-13873380D01*
X15286714Y-13854333D01*
X15267666Y-13844809D01*
X15239095Y-13844809D01*
X15220047Y-13835285D01*
X15210523Y-13816237D01*
X15210523Y-13806714D01*
X15220047Y-13787666D01*
X15239095Y-13778142D01*
X15267666Y-13778142D01*
X15286714Y-13787666D01*
X15534333Y-13835285D02*
X15686714Y-13835285D01*
X15610523Y-13911476D02*
X15610523Y-13759095D01*
X15924809Y-13730523D02*
X15934333Y-13720999D01*
X15953380Y-13711476D01*
X16000999Y-13711476D01*
X16020047Y-13720999D01*
X16029571Y-13730523D01*
X16039095Y-13749571D01*
X16039095Y-13768618D01*
X16029571Y-13797190D01*
X15915285Y-13911476D01*
X16039095Y-13911476D01*
X16267666Y-13901952D02*
X16286714Y-13911476D01*
X16324809Y-13911476D01*
X16343857Y-13901952D01*
X16353380Y-13882904D01*
X16353380Y-13873380D01*
X16343857Y-13854333D01*
X16324809Y-13844809D01*
X16296238Y-13844809D01*
X16277190Y-13835285D01*
X16267666Y-13816237D01*
X16267666Y-13806714D01*
X16277190Y-13787666D01*
X16296238Y-13778142D01*
X16324809Y-13778142D01*
X16343857Y-13787666D01*
X16467666Y-13911476D02*
X16448619Y-13901952D01*
X16439095Y-13882904D01*
X16439095Y-13711476D01*
X16572428Y-13911476D02*
X16553380Y-13901952D01*
X16543857Y-13892428D01*
X16534333Y-13873380D01*
X16534333Y-13816237D01*
X16543857Y-13797190D01*
X16553380Y-13787666D01*
X16572428Y-13778142D01*
X16600999Y-13778142D01*
X16620047Y-13787666D01*
X16629571Y-13797190D01*
X16639095Y-13816237D01*
X16639095Y-13873380D01*
X16629571Y-13892428D01*
X16620047Y-13901952D01*
X16600999Y-13911476D01*
X16572428Y-13911476D01*
X16696238Y-13778142D02*
X16772428Y-13778142D01*
X16724809Y-13711476D02*
X16724809Y-13882904D01*
X16734333Y-13901952D01*
X16753380Y-13911476D01*
X16772428Y-13911476D01*
X16829571Y-13901952D02*
X16848619Y-13911476D01*
X16886714Y-13911476D01*
X16905762Y-13901952D01*
X16915285Y-13882904D01*
X16915285Y-13873380D01*
X16905762Y-13854333D01*
X16886714Y-13844809D01*
X16858142Y-13844809D01*
X16839095Y-13835285D01*
X16829571Y-13816237D01*
X16829571Y-13806714D01*
X16839095Y-13787666D01*
X16858142Y-13778142D01*
X16886714Y-13778142D01*
X16905762Y-13787666D01*
X16981952Y-13987666D02*
X16991476Y-13978142D01*
X17010523Y-13949571D01*
X17020047Y-13930523D01*
X17029571Y-13901952D01*
X17039095Y-13854333D01*
X17039095Y-13816237D01*
X17029571Y-13768618D01*
X17020047Y-13740047D01*
X17010523Y-13720999D01*
X16991476Y-13692428D01*
X16981952Y-13682904D01*
D16*
X10576355Y-14120355D02*
X10576355Y-14049644D01*
X10505644Y-14049644D01*
X10505644Y-14120355D01*
X10576355Y-14120355D01*
D11*
X10953381Y-14175476D02*
X10839095Y-14175476D01*
X10896238Y-14175476D02*
X10896238Y-13975476D01*
X10877190Y-14004047D01*
X10858142Y-14023095D01*
X10839095Y-14032618D01*
X11039095Y-14156428D02*
X11048619Y-14165952D01*
X11039095Y-14175476D01*
X11029571Y-14165952D01*
X11039095Y-14156428D01*
X11039095Y-14175476D01*
X11172428Y-13975476D02*
X11191476Y-13975476D01*
X11210523Y-13984999D01*
X11220047Y-13994523D01*
X11229571Y-14013571D01*
X11239095Y-14051666D01*
X11239095Y-14099285D01*
X11229571Y-14137380D01*
X11220047Y-14156428D01*
X11210523Y-14165952D01*
X11191476Y-14175476D01*
X11172428Y-14175476D01*
X11153381Y-14165952D01*
X11143857Y-14156428D01*
X11134333Y-14137380D01*
X11124809Y-14099285D01*
X11124809Y-14051666D01*
X11134333Y-14013571D01*
X11143857Y-13994523D01*
X11153381Y-13984999D01*
X11172428Y-13975476D01*
X11362904Y-13975476D02*
X11381952Y-13975476D01*
X11401000Y-13984999D01*
X11410523Y-13994523D01*
X11420047Y-14013571D01*
X11429571Y-14051666D01*
X11429571Y-14099285D01*
X11420047Y-14137380D01*
X11410523Y-14156428D01*
X11401000Y-14165952D01*
X11381952Y-14175476D01*
X11362904Y-14175476D01*
X11343857Y-14165952D01*
X11334333Y-14156428D01*
X11324809Y-14137380D01*
X11315285Y-14099285D01*
X11315285Y-14051666D01*
X11324809Y-14013571D01*
X11334333Y-13994523D01*
X11343857Y-13984999D01*
X11362904Y-13975476D01*
X11553380Y-13975476D02*
X11572428Y-13975476D01*
X11591476Y-13984999D01*
X11601000Y-13994523D01*
X11610523Y-14013571D01*
X11620047Y-14051666D01*
X11620047Y-14099285D01*
X11610523Y-14137380D01*
X11601000Y-14156428D01*
X11591476Y-14165952D01*
X11572428Y-14175476D01*
X11553380Y-14175476D01*
X11534333Y-14165952D01*
X11524809Y-14156428D01*
X11515285Y-14137380D01*
X11505761Y-14099285D01*
X11505761Y-14051666D01*
X11515285Y-14013571D01*
X11524809Y-13994523D01*
X11534333Y-13984999D01*
X11553380Y-13975476D01*
X11705761Y-14175476D02*
X11705761Y-14042142D01*
X11705761Y-14061190D02*
X11715285Y-14051666D01*
X11734333Y-14042142D01*
X11762904Y-14042142D01*
X11781952Y-14051666D01*
X11791476Y-14070714D01*
X11791476Y-14175476D01*
X11791476Y-14070714D02*
X11801000Y-14051666D01*
X11820047Y-14042142D01*
X11848619Y-14042142D01*
X11867666Y-14051666D01*
X11877190Y-14070714D01*
X11877190Y-14175476D01*
X11972428Y-14175476D02*
X11972428Y-14042142D01*
X11972428Y-14061190D02*
X11981952Y-14051666D01*
X12001000Y-14042142D01*
X12029571Y-14042142D01*
X12048619Y-14051666D01*
X12058142Y-14070714D01*
X12058142Y-14175476D01*
X12058142Y-14070714D02*
X12067666Y-14051666D01*
X12086714Y-14042142D01*
X12115285Y-14042142D01*
X12134333Y-14051666D01*
X12143857Y-14070714D01*
X12143857Y-14175476D01*
X12534333Y-13965952D02*
X12362904Y-14223095D01*
X12791476Y-13975476D02*
X12810523Y-13975476D01*
X12829571Y-13984999D01*
X12839095Y-13994523D01*
X12848619Y-14013571D01*
X12858142Y-14051666D01*
X12858142Y-14099285D01*
X12848619Y-14137380D01*
X12839095Y-14156428D01*
X12829571Y-14165952D01*
X12810523Y-14175476D01*
X12791476Y-14175476D01*
X12772428Y-14165952D01*
X12762904Y-14156428D01*
X12753380Y-14137380D01*
X12743857Y-14099285D01*
X12743857Y-14051666D01*
X12753380Y-14013571D01*
X12762904Y-13994523D01*
X12772428Y-13984999D01*
X12791476Y-13975476D01*
X12943857Y-14156428D02*
X12953380Y-14165952D01*
X12943857Y-14175476D01*
X12934333Y-14165952D01*
X12943857Y-14156428D01*
X12943857Y-14175476D01*
X13077190Y-13975476D02*
X13096238Y-13975476D01*
X13115285Y-13984999D01*
X13124809Y-13994523D01*
X13134333Y-14013571D01*
X13143857Y-14051666D01*
X13143857Y-14099285D01*
X13134333Y-14137380D01*
X13124809Y-14156428D01*
X13115285Y-14165952D01*
X13096238Y-14175476D01*
X13077190Y-14175476D01*
X13058142Y-14165952D01*
X13048619Y-14156428D01*
X13039095Y-14137380D01*
X13029571Y-14099285D01*
X13029571Y-14051666D01*
X13039095Y-14013571D01*
X13048619Y-13994523D01*
X13058142Y-13984999D01*
X13077190Y-13975476D01*
X13210523Y-13975476D02*
X13334333Y-13975476D01*
X13267666Y-14051666D01*
X13296238Y-14051666D01*
X13315285Y-14061190D01*
X13324809Y-14070714D01*
X13334333Y-14089761D01*
X13334333Y-14137380D01*
X13324809Y-14156428D01*
X13315285Y-14165952D01*
X13296238Y-14175476D01*
X13239095Y-14175476D01*
X13220047Y-14165952D01*
X13210523Y-14156428D01*
X13429571Y-14175476D02*
X13467666Y-14175476D01*
X13486714Y-14165952D01*
X13496238Y-14156428D01*
X13515285Y-14127857D01*
X13524809Y-14089761D01*
X13524809Y-14013571D01*
X13515285Y-13994523D01*
X13505761Y-13984999D01*
X13486714Y-13975476D01*
X13448619Y-13975476D01*
X13429571Y-13984999D01*
X13420047Y-13994523D01*
X13410523Y-14013571D01*
X13410523Y-14061190D01*
X13420047Y-14080237D01*
X13429571Y-14089761D01*
X13448619Y-14099285D01*
X13486714Y-14099285D01*
X13505761Y-14089761D01*
X13515285Y-14080237D01*
X13524809Y-14061190D01*
X13696238Y-14042142D02*
X13696238Y-14175476D01*
X13648619Y-13965952D02*
X13601000Y-14108809D01*
X13724809Y-14108809D01*
X13791476Y-13975476D02*
X13791476Y-14013571D01*
X13867666Y-13975476D02*
X13867666Y-14013571D01*
X14162904Y-14251666D02*
X14153380Y-14242142D01*
X14134333Y-14213571D01*
X14124809Y-14194523D01*
X14115285Y-14165952D01*
X14105761Y-14118333D01*
X14105761Y-14080237D01*
X14115285Y-14032618D01*
X14124809Y-14004047D01*
X14134333Y-13984999D01*
X14153380Y-13956428D01*
X14162904Y-13946904D01*
X14343857Y-14175476D02*
X14229571Y-14175476D01*
X14286714Y-14175476D02*
X14286714Y-13975476D01*
X14267666Y-14004047D01*
X14248619Y-14023095D01*
X14229571Y-14032618D01*
X14458142Y-14061190D02*
X14439095Y-14051666D01*
X14429571Y-14042142D01*
X14420047Y-14023095D01*
X14420047Y-14013571D01*
X14429571Y-13994523D01*
X14439095Y-13984999D01*
X14458142Y-13975476D01*
X14496238Y-13975476D01*
X14515285Y-13984999D01*
X14524809Y-13994523D01*
X14534333Y-14013571D01*
X14534333Y-14023095D01*
X14524809Y-14042142D01*
X14515285Y-14051666D01*
X14496238Y-14061190D01*
X14458142Y-14061190D01*
X14439095Y-14070714D01*
X14429571Y-14080237D01*
X14420047Y-14099285D01*
X14420047Y-14137380D01*
X14429571Y-14156428D01*
X14439095Y-14165952D01*
X14458142Y-14175476D01*
X14496238Y-14175476D01*
X14515285Y-14165952D01*
X14524809Y-14156428D01*
X14534333Y-14137380D01*
X14534333Y-14099285D01*
X14524809Y-14080237D01*
X14515285Y-14070714D01*
X14496238Y-14061190D01*
X14772428Y-14175476D02*
X14772428Y-13975476D01*
X14858142Y-14175476D02*
X14858142Y-14070714D01*
X14848619Y-14051666D01*
X14829571Y-14042142D01*
X14800999Y-14042142D01*
X14781952Y-14051666D01*
X14772428Y-14061190D01*
X14981952Y-14175476D02*
X14962904Y-14165952D01*
X14953380Y-14156428D01*
X14943857Y-14137380D01*
X14943857Y-14080237D01*
X14953380Y-14061190D01*
X14962904Y-14051666D01*
X14981952Y-14042142D01*
X15010523Y-14042142D01*
X15029571Y-14051666D01*
X15039095Y-14061190D01*
X15048619Y-14080237D01*
X15048619Y-14137380D01*
X15039095Y-14156428D01*
X15029571Y-14165952D01*
X15010523Y-14175476D01*
X14981952Y-14175476D01*
X15162904Y-14175476D02*
X15143857Y-14165952D01*
X15134333Y-14146904D01*
X15134333Y-13975476D01*
X15315285Y-14165952D02*
X15296238Y-14175476D01*
X15258142Y-14175476D01*
X15239095Y-14165952D01*
X15229571Y-14146904D01*
X15229571Y-14070714D01*
X15239095Y-14051666D01*
X15258142Y-14042142D01*
X15296238Y-14042142D01*
X15315285Y-14051666D01*
X15324809Y-14070714D01*
X15324809Y-14089761D01*
X15229571Y-14108809D01*
X15400999Y-14165952D02*
X15420047Y-14175476D01*
X15458142Y-14175476D01*
X15477190Y-14165952D01*
X15486714Y-14146904D01*
X15486714Y-14137380D01*
X15477190Y-14118333D01*
X15458142Y-14108809D01*
X15429571Y-14108809D01*
X15410523Y-14099285D01*
X15400999Y-14080237D01*
X15400999Y-14070714D01*
X15410523Y-14051666D01*
X15429571Y-14042142D01*
X15458142Y-14042142D01*
X15477190Y-14051666D01*
X15553380Y-14251666D02*
X15562904Y-14242142D01*
X15581952Y-14213571D01*
X15591476Y-14194523D01*
X15600999Y-14165952D01*
X15610523Y-14118333D01*
X15610523Y-14080237D01*
X15600999Y-14032618D01*
X15591476Y-14004047D01*
X15581952Y-13984999D01*
X15562904Y-13956428D01*
X15553380Y-13946904D01*
M02*
