%FSLAX45Y45*%
G04 Gerber Fmt 4.5, Leading zero omitted, Abs format (unit mm)*
G04 Created by KiCad (PCBNEW (6.0.0)) date 2022-02-16 09:51:41*
%MOMM*%
%LPD*%
G01*
G04 APERTURE LIST*
%TA.AperFunction,Profile*%
%ADD10C,0.150000*%
%TD*%
%ADD11C,0.200000*%
%TA.AperFunction,Profile*%
%ADD12C,0.200000*%
%TD*%
%ADD13C,0.090000*%
G04 APERTURE END LIST*
D10*
X15709662Y-7083487D02*
X14786662Y-7080487D01*
X14791667Y-6536481D02*
X14992662Y-6536487D01*
X15703662Y-6532487D02*
X15502662Y-6531487D01*
X15502662Y-6531487D02*
G75*
G03*
X14992662Y-6536487I-254802J-22701D01*
G01*
X14791667Y-6539480D02*
G75*
G03*
X14786662Y-7080487I0J-270527D01*
G01*
X15709662Y-7083487D02*
G75*
G03*
X15703662Y-6532487I-4164J275487D01*
G01*
D11*
X19900999Y-12441083D02*
X19899456Y-12461785D01*
X19894925Y-12481876D01*
X19887556Y-12501256D01*
X19877496Y-12519825D01*
X19864894Y-12537482D01*
X19849899Y-12554129D01*
X19832660Y-12569665D01*
X19813324Y-12583990D01*
X19792041Y-12597004D01*
X19768958Y-12608607D01*
X19744225Y-12618699D01*
X19717990Y-12627181D01*
X19690401Y-12633951D01*
X19661607Y-12638911D01*
X19631757Y-12641961D01*
X19600999Y-12642999D01*
X19600999Y-6143000D02*
X19631757Y-6144039D01*
X19661607Y-6147088D01*
X19690401Y-6152048D01*
X19717990Y-6158819D01*
X19744225Y-6167300D01*
X19768958Y-6177393D01*
X19792041Y-6188996D01*
X19813324Y-6202010D01*
X19832660Y-6216335D01*
X19849899Y-6231871D01*
X19864894Y-6248517D01*
X19877496Y-6266175D01*
X19887556Y-6284744D01*
X19894925Y-6304123D01*
X19899456Y-6324214D01*
X19900999Y-6344916D01*
D12*
X10901000Y-6143000D02*
X10901000Y-6143000D01*
D11*
X10901000Y-12642999D02*
X10870242Y-12641961D01*
X10840392Y-12638911D01*
X10811598Y-12633951D01*
X10784009Y-12627181D01*
X10757774Y-12618699D01*
X10733041Y-12608607D01*
X10709958Y-12597004D01*
X10688675Y-12583990D01*
X10669339Y-12569665D01*
X10652099Y-12554129D01*
X10637104Y-12537482D01*
X10624503Y-12519825D01*
X10614443Y-12501256D01*
X10607073Y-12481876D01*
X10602543Y-12461785D01*
X10601000Y-12441083D01*
D12*
X19600999Y-12642999D02*
X10901000Y-12642999D01*
X19900999Y-6344916D02*
X19900999Y-12441083D01*
D11*
X10601000Y-6344916D02*
X10602543Y-6324214D01*
X10607073Y-6304123D01*
X10614443Y-6284744D01*
X10624503Y-6266175D01*
X10637104Y-6248517D01*
X10652099Y-6231871D01*
X10669339Y-6216335D01*
X10688675Y-6202010D01*
X10709958Y-6188996D01*
X10733041Y-6177393D01*
X10757774Y-6167300D01*
X10784009Y-6158819D01*
X10811598Y-6152048D01*
X10840392Y-6147088D01*
X10870242Y-6144039D01*
X10901000Y-6143000D01*
D12*
X10601000Y-12441083D02*
X10601000Y-6344916D01*
X10901000Y-6143000D02*
X19600999Y-6143000D01*
D11*
D13*
X10781400Y-9251260D02*
X10871400Y-9341260D01*
X10871400Y-9251260D02*
X10781400Y-9341260D01*
X10781400Y-9551260D02*
X10871400Y-9641260D01*
X10871400Y-9551260D02*
X10781400Y-9641260D01*
D11*
X10848619Y-12963476D02*
X10848619Y-12763476D01*
X10896238Y-12763476D01*
X10924809Y-12772999D01*
X10943857Y-12792047D01*
X10953381Y-12811095D01*
X10962904Y-12849190D01*
X10962904Y-12877761D01*
X10953381Y-12915857D01*
X10943857Y-12934904D01*
X10924809Y-12953952D01*
X10896238Y-12963476D01*
X10848619Y-12963476D01*
X11048619Y-12963476D02*
X11048619Y-12830142D01*
X11048619Y-12868237D02*
X11058142Y-12849190D01*
X11067666Y-12839666D01*
X11086714Y-12830142D01*
X11105762Y-12830142D01*
X11172428Y-12963476D02*
X11172428Y-12830142D01*
X11172428Y-12763476D02*
X11162904Y-12772999D01*
X11172428Y-12782523D01*
X11181952Y-12772999D01*
X11172428Y-12763476D01*
X11172428Y-12782523D01*
X11296238Y-12963476D02*
X11277190Y-12953952D01*
X11267666Y-12934904D01*
X11267666Y-12763476D01*
X11401000Y-12963476D02*
X11381952Y-12953952D01*
X11372428Y-12934904D01*
X11372428Y-12763476D01*
X11629571Y-12963476D02*
X11629571Y-12763476D01*
X11696238Y-12906333D01*
X11762904Y-12763476D01*
X11762904Y-12963476D01*
X11943857Y-12963476D02*
X11943857Y-12858714D01*
X11934333Y-12839666D01*
X11915285Y-12830142D01*
X11877190Y-12830142D01*
X11858142Y-12839666D01*
X11943857Y-12953952D02*
X11924809Y-12963476D01*
X11877190Y-12963476D01*
X11858142Y-12953952D01*
X11848619Y-12934904D01*
X11848619Y-12915857D01*
X11858142Y-12896809D01*
X11877190Y-12887285D01*
X11924809Y-12887285D01*
X11943857Y-12877761D01*
X12039095Y-12830142D02*
X12039095Y-13030142D01*
X12039095Y-12839666D02*
X12058142Y-12830142D01*
X12096238Y-12830142D01*
X12115285Y-12839666D01*
X12124809Y-12849190D01*
X12134333Y-12868237D01*
X12134333Y-12925380D01*
X12124809Y-12944428D01*
X12115285Y-12953952D01*
X12096238Y-12963476D01*
X12058142Y-12963476D01*
X12039095Y-12953952D01*
X12220047Y-12944428D02*
X12229571Y-12953952D01*
X12220047Y-12963476D01*
X12210523Y-12953952D01*
X12220047Y-12944428D01*
X12220047Y-12963476D01*
X12220047Y-12839666D02*
X12229571Y-12849190D01*
X12220047Y-12858714D01*
X12210523Y-12849190D01*
X12220047Y-12839666D01*
X12220047Y-12858714D01*
D13*
X10501000Y-13247999D02*
X10591000Y-13337999D01*
X10591000Y-13247999D02*
X10501000Y-13337999D01*
D11*
X10886714Y-13183476D02*
X10905762Y-13183476D01*
X10924809Y-13192999D01*
X10934333Y-13202523D01*
X10943857Y-13221571D01*
X10953381Y-13259666D01*
X10953381Y-13307285D01*
X10943857Y-13345380D01*
X10934333Y-13364428D01*
X10924809Y-13373952D01*
X10905762Y-13383476D01*
X10886714Y-13383476D01*
X10867666Y-13373952D01*
X10858142Y-13364428D01*
X10848619Y-13345380D01*
X10839095Y-13307285D01*
X10839095Y-13259666D01*
X10848619Y-13221571D01*
X10858142Y-13202523D01*
X10867666Y-13192999D01*
X10886714Y-13183476D01*
X11039095Y-13364428D02*
X11048619Y-13373952D01*
X11039095Y-13383476D01*
X11029571Y-13373952D01*
X11039095Y-13364428D01*
X11039095Y-13383476D01*
X11143857Y-13383476D02*
X11181952Y-13383476D01*
X11201000Y-13373952D01*
X11210523Y-13364428D01*
X11229571Y-13335857D01*
X11239095Y-13297761D01*
X11239095Y-13221571D01*
X11229571Y-13202523D01*
X11220047Y-13192999D01*
X11201000Y-13183476D01*
X11162904Y-13183476D01*
X11143857Y-13192999D01*
X11134333Y-13202523D01*
X11124809Y-13221571D01*
X11124809Y-13269190D01*
X11134333Y-13288237D01*
X11143857Y-13297761D01*
X11162904Y-13307285D01*
X11201000Y-13307285D01*
X11220047Y-13297761D01*
X11229571Y-13288237D01*
X11239095Y-13269190D01*
X11362904Y-13183476D02*
X11381952Y-13183476D01*
X11401000Y-13192999D01*
X11410523Y-13202523D01*
X11420047Y-13221571D01*
X11429571Y-13259666D01*
X11429571Y-13307285D01*
X11420047Y-13345380D01*
X11410523Y-13364428D01*
X11401000Y-13373952D01*
X11381952Y-13383476D01*
X11362904Y-13383476D01*
X11343857Y-13373952D01*
X11334333Y-13364428D01*
X11324809Y-13345380D01*
X11315285Y-13307285D01*
X11315285Y-13259666D01*
X11324809Y-13221571D01*
X11334333Y-13202523D01*
X11343857Y-13192999D01*
X11362904Y-13183476D01*
X11553380Y-13183476D02*
X11572428Y-13183476D01*
X11591476Y-13192999D01*
X11601000Y-13202523D01*
X11610523Y-13221571D01*
X11620047Y-13259666D01*
X11620047Y-13307285D01*
X11610523Y-13345380D01*
X11601000Y-13364428D01*
X11591476Y-13373952D01*
X11572428Y-13383476D01*
X11553380Y-13383476D01*
X11534333Y-13373952D01*
X11524809Y-13364428D01*
X11515285Y-13345380D01*
X11505761Y-13307285D01*
X11505761Y-13259666D01*
X11515285Y-13221571D01*
X11524809Y-13202523D01*
X11534333Y-13192999D01*
X11553380Y-13183476D01*
X11705761Y-13383476D02*
X11705761Y-13250142D01*
X11705761Y-13269190D02*
X11715285Y-13259666D01*
X11734333Y-13250142D01*
X11762904Y-13250142D01*
X11781952Y-13259666D01*
X11791476Y-13278714D01*
X11791476Y-13383476D01*
X11791476Y-13278714D02*
X11801000Y-13259666D01*
X11820047Y-13250142D01*
X11848619Y-13250142D01*
X11867666Y-13259666D01*
X11877190Y-13278714D01*
X11877190Y-13383476D01*
X11972428Y-13383476D02*
X11972428Y-13250142D01*
X11972428Y-13269190D02*
X11981952Y-13259666D01*
X12001000Y-13250142D01*
X12029571Y-13250142D01*
X12048619Y-13259666D01*
X12058142Y-13278714D01*
X12058142Y-13383476D01*
X12058142Y-13278714D02*
X12067666Y-13259666D01*
X12086714Y-13250142D01*
X12115285Y-13250142D01*
X12134333Y-13259666D01*
X12143857Y-13278714D01*
X12143857Y-13383476D01*
X12534333Y-13173952D02*
X12362904Y-13431095D01*
X12791476Y-13183476D02*
X12810523Y-13183476D01*
X12829571Y-13192999D01*
X12839095Y-13202523D01*
X12848619Y-13221571D01*
X12858142Y-13259666D01*
X12858142Y-13307285D01*
X12848619Y-13345380D01*
X12839095Y-13364428D01*
X12829571Y-13373952D01*
X12810523Y-13383476D01*
X12791476Y-13383476D01*
X12772428Y-13373952D01*
X12762904Y-13364428D01*
X12753380Y-13345380D01*
X12743857Y-13307285D01*
X12743857Y-13259666D01*
X12753380Y-13221571D01*
X12762904Y-13202523D01*
X12772428Y-13192999D01*
X12791476Y-13183476D01*
X12943857Y-13364428D02*
X12953380Y-13373952D01*
X12943857Y-13383476D01*
X12934333Y-13373952D01*
X12943857Y-13364428D01*
X12943857Y-13383476D01*
X13077190Y-13183476D02*
X13096238Y-13183476D01*
X13115285Y-13192999D01*
X13124809Y-13202523D01*
X13134333Y-13221571D01*
X13143857Y-13259666D01*
X13143857Y-13307285D01*
X13134333Y-13345380D01*
X13124809Y-13364428D01*
X13115285Y-13373952D01*
X13096238Y-13383476D01*
X13077190Y-13383476D01*
X13058142Y-13373952D01*
X13048619Y-13364428D01*
X13039095Y-13345380D01*
X13029571Y-13307285D01*
X13029571Y-13259666D01*
X13039095Y-13221571D01*
X13048619Y-13202523D01*
X13058142Y-13192999D01*
X13077190Y-13183476D01*
X13210523Y-13183476D02*
X13334333Y-13183476D01*
X13267666Y-13259666D01*
X13296238Y-13259666D01*
X13315285Y-13269190D01*
X13324809Y-13278714D01*
X13334333Y-13297761D01*
X13334333Y-13345380D01*
X13324809Y-13364428D01*
X13315285Y-13373952D01*
X13296238Y-13383476D01*
X13239095Y-13383476D01*
X13220047Y-13373952D01*
X13210523Y-13364428D01*
X13515285Y-13183476D02*
X13420047Y-13183476D01*
X13410523Y-13278714D01*
X13420047Y-13269190D01*
X13439095Y-13259666D01*
X13486714Y-13259666D01*
X13505761Y-13269190D01*
X13515285Y-13278714D01*
X13524809Y-13297761D01*
X13524809Y-13345380D01*
X13515285Y-13364428D01*
X13505761Y-13373952D01*
X13486714Y-13383476D01*
X13439095Y-13383476D01*
X13420047Y-13373952D01*
X13410523Y-13364428D01*
X13696238Y-13250142D02*
X13696238Y-13383476D01*
X13648619Y-13173952D02*
X13601000Y-13316809D01*
X13724809Y-13316809D01*
X13791476Y-13183476D02*
X13791476Y-13221571D01*
X13867666Y-13183476D02*
X13867666Y-13221571D01*
X14162904Y-13459666D02*
X14153380Y-13450142D01*
X14134333Y-13421571D01*
X14124809Y-13402523D01*
X14115285Y-13373952D01*
X14105761Y-13326333D01*
X14105761Y-13288237D01*
X14115285Y-13240618D01*
X14124809Y-13212047D01*
X14134333Y-13192999D01*
X14153380Y-13164428D01*
X14162904Y-13154904D01*
X14229571Y-13202523D02*
X14239095Y-13192999D01*
X14258142Y-13183476D01*
X14305761Y-13183476D01*
X14324809Y-13192999D01*
X14334333Y-13202523D01*
X14343857Y-13221571D01*
X14343857Y-13240618D01*
X14334333Y-13269190D01*
X14220047Y-13383476D01*
X14343857Y-13383476D01*
X14581952Y-13383476D02*
X14581952Y-13183476D01*
X14667666Y-13383476D02*
X14667666Y-13278714D01*
X14658142Y-13259666D01*
X14639095Y-13250142D01*
X14610523Y-13250142D01*
X14591476Y-13259666D01*
X14581952Y-13269190D01*
X14791476Y-13383476D02*
X14772428Y-13373952D01*
X14762904Y-13364428D01*
X14753380Y-13345380D01*
X14753380Y-13288237D01*
X14762904Y-13269190D01*
X14772428Y-13259666D01*
X14791476Y-13250142D01*
X14820047Y-13250142D01*
X14839095Y-13259666D01*
X14848619Y-13269190D01*
X14858142Y-13288237D01*
X14858142Y-13345380D01*
X14848619Y-13364428D01*
X14839095Y-13373952D01*
X14820047Y-13383476D01*
X14791476Y-13383476D01*
X14972428Y-13383476D02*
X14953380Y-13373952D01*
X14943857Y-13354904D01*
X14943857Y-13183476D01*
X15124809Y-13373952D02*
X15105761Y-13383476D01*
X15067666Y-13383476D01*
X15048619Y-13373952D01*
X15039095Y-13354904D01*
X15039095Y-13278714D01*
X15048619Y-13259666D01*
X15067666Y-13250142D01*
X15105761Y-13250142D01*
X15124809Y-13259666D01*
X15134333Y-13278714D01*
X15134333Y-13297761D01*
X15039095Y-13316809D01*
X15210523Y-13373952D02*
X15229571Y-13383476D01*
X15267666Y-13383476D01*
X15286714Y-13373952D01*
X15296238Y-13354904D01*
X15296238Y-13345380D01*
X15286714Y-13326333D01*
X15267666Y-13316809D01*
X15239095Y-13316809D01*
X15220047Y-13307285D01*
X15210523Y-13288237D01*
X15210523Y-13278714D01*
X15220047Y-13259666D01*
X15239095Y-13250142D01*
X15267666Y-13250142D01*
X15286714Y-13259666D01*
X15362904Y-13459666D02*
X15372428Y-13450142D01*
X15391476Y-13421571D01*
X15400999Y-13402523D01*
X15410523Y-13373952D01*
X15420047Y-13326333D01*
X15420047Y-13288237D01*
X15410523Y-13240618D01*
X15400999Y-13212047D01*
X15391476Y-13192999D01*
X15372428Y-13164428D01*
X15362904Y-13154904D01*
X15724809Y-13459666D02*
X15715285Y-13450142D01*
X15696238Y-13421571D01*
X15686714Y-13402523D01*
X15677190Y-13373952D01*
X15667666Y-13326333D01*
X15667666Y-13288237D01*
X15677190Y-13240618D01*
X15686714Y-13212047D01*
X15696238Y-13192999D01*
X15715285Y-13164428D01*
X15724809Y-13154904D01*
X15800999Y-13250142D02*
X15800999Y-13383476D01*
X15800999Y-13269190D02*
X15810523Y-13259666D01*
X15829571Y-13250142D01*
X15858142Y-13250142D01*
X15877190Y-13259666D01*
X15886714Y-13278714D01*
X15886714Y-13383476D01*
X16010523Y-13383476D02*
X15991476Y-13373952D01*
X15981952Y-13364428D01*
X15972428Y-13345380D01*
X15972428Y-13288237D01*
X15981952Y-13269190D01*
X15991476Y-13259666D01*
X16010523Y-13250142D01*
X16039095Y-13250142D01*
X16058142Y-13259666D01*
X16067666Y-13269190D01*
X16077190Y-13288237D01*
X16077190Y-13345380D01*
X16067666Y-13364428D01*
X16058142Y-13373952D01*
X16039095Y-13383476D01*
X16010523Y-13383476D01*
X16134333Y-13250142D02*
X16210523Y-13250142D01*
X16162904Y-13183476D02*
X16162904Y-13354904D01*
X16172428Y-13373952D01*
X16191476Y-13383476D01*
X16210523Y-13383476D01*
X16429571Y-13250142D02*
X16429571Y-13450142D01*
X16429571Y-13259666D02*
X16448619Y-13250142D01*
X16486714Y-13250142D01*
X16505761Y-13259666D01*
X16515285Y-13269190D01*
X16524809Y-13288237D01*
X16524809Y-13345380D01*
X16515285Y-13364428D01*
X16505761Y-13373952D01*
X16486714Y-13383476D01*
X16448619Y-13383476D01*
X16429571Y-13373952D01*
X16639095Y-13383476D02*
X16620047Y-13373952D01*
X16610523Y-13354904D01*
X16610523Y-13183476D01*
X16801000Y-13383476D02*
X16801000Y-13278714D01*
X16791476Y-13259666D01*
X16772428Y-13250142D01*
X16734333Y-13250142D01*
X16715285Y-13259666D01*
X16801000Y-13373952D02*
X16781952Y-13383476D01*
X16734333Y-13383476D01*
X16715285Y-13373952D01*
X16705761Y-13354904D01*
X16705761Y-13335857D01*
X16715285Y-13316809D01*
X16734333Y-13307285D01*
X16781952Y-13307285D01*
X16801000Y-13297761D01*
X16867666Y-13250142D02*
X16943857Y-13250142D01*
X16896238Y-13183476D02*
X16896238Y-13354904D01*
X16905762Y-13373952D01*
X16924809Y-13383476D01*
X16943857Y-13383476D01*
X17086714Y-13373952D02*
X17067666Y-13383476D01*
X17029571Y-13383476D01*
X17010523Y-13373952D01*
X17001000Y-13354904D01*
X17001000Y-13278714D01*
X17010523Y-13259666D01*
X17029571Y-13250142D01*
X17067666Y-13250142D01*
X17086714Y-13259666D01*
X17096238Y-13278714D01*
X17096238Y-13297761D01*
X17001000Y-13316809D01*
X17267666Y-13383476D02*
X17267666Y-13183476D01*
X17267666Y-13373952D02*
X17248619Y-13383476D01*
X17210523Y-13383476D01*
X17191476Y-13373952D01*
X17181952Y-13364428D01*
X17172428Y-13345380D01*
X17172428Y-13288237D01*
X17181952Y-13269190D01*
X17191476Y-13259666D01*
X17210523Y-13250142D01*
X17248619Y-13250142D01*
X17267666Y-13259666D01*
X17343857Y-13459666D02*
X17353381Y-13450142D01*
X17372428Y-13421571D01*
X17381952Y-13402523D01*
X17391476Y-13373952D01*
X17401000Y-13326333D01*
X17401000Y-13288237D01*
X17391476Y-13240618D01*
X17381952Y-13212047D01*
X17372428Y-13192999D01*
X17353381Y-13164428D01*
X17343857Y-13154904D01*
M02*
