G04 #@! TF.GenerationSoftware,KiCad,Pcbnew,(6.0.0)*
G04 #@! TF.CreationDate,2022-02-16T09:51:19+01:00*
G04 #@! TF.ProjectId,drawing.kicad_v2_pcb,64726177-696e-4672-9e6b-696361645f76,v2.1*
G04 #@! TF.SameCoordinates,Original*
G04 #@! TF.FileFunction,Legend,Bot*
G04 #@! TF.FilePolarity,Positive*
%FSLAX46Y46*%
G04 Gerber Fmt 4.6, Leading zero omitted, Abs format (unit mm)*
G04 Created by KiCad (PCBNEW (6.0.0)) date 2022-02-16 09:51:19*
%MOMM*%
%LPD*%
G01*
G04 APERTURE LIST*
G04 Aperture macros list*
%AMRoundRect*
0 Rectangle with rounded corners*
0 $1 Rounding radius*
0 $2 $3 $4 $5 $6 $7 $8 $9 X,Y pos of 4 corners*
0 Add a 4 corners polygon primitive as box body*
4,1,4,$2,$3,$4,$5,$6,$7,$8,$9,$2,$3,0*
0 Add four circle primitives for the rounded corners*
1,1,$1+$1,$2,$3*
1,1,$1+$1,$4,$5*
1,1,$1+$1,$6,$7*
1,1,$1+$1,$8,$9*
0 Add four rect primitives between the rounded corners*
20,1,$1+$1,$2,$3,$4,$5,0*
20,1,$1+$1,$4,$5,$6,$7,0*
20,1,$1+$1,$6,$7,$8,$9,0*
20,1,$1+$1,$8,$9,$2,$3,0*%
%AMFreePoly0*
4,1,17,0.450135,1.735921,1.035921,1.150135,1.050800,1.114214,1.050800,-1.114214,1.035921,-1.150135,0.450135,-1.735921,0.414214,-1.750800,-0.414214,-1.750800,-0.450135,-1.735921,-1.035921,-1.150135,-1.050800,-1.114214,-1.050800,1.114214,-1.035921,1.150135,-0.450135,1.735921,-0.414214,1.750800,0.414214,1.750800,0.450135,1.735921,0.450135,1.735921,$1*%
G04 Aperture macros list end*
G04 #@! TA.AperFunction,Profile*
%ADD10C,0.150000*%
G04 #@! TD*
%ADD11C,0.150000*%
%ADD12C,0.200000*%
G04 #@! TA.AperFunction,Profile*
%ADD13C,0.200000*%
G04 #@! TD*
%ADD14C,0.120000*%
%ADD15C,0.100000*%
%ADD16C,0.249999*%
%ADD17RoundRect,0.300800X-0.600000X-0.750000X0.600000X-0.750000X0.600000X0.750000X-0.600000X0.750000X0*%
%ADD18O,1.801600X2.101600*%
%ADD19RoundRect,0.050800X0.850000X0.850000X-0.850000X0.850000X-0.850000X-0.850000X0.850000X-0.850000X0*%
%ADD20O,1.801600X1.801600*%
%ADD21RoundRect,0.050800X0.200000X0.675000X-0.200000X0.675000X-0.200000X-0.675000X0.200000X-0.675000X0*%
%ADD22O,1.351600X1.051600*%
%ADD23O,1.101600X1.651600*%
%ADD24RoundRect,0.300800X0.350000X0.450000X-0.350000X0.450000X-0.350000X-0.450000X0.350000X-0.450000X0*%
%ADD25C,1.001600*%
%ADD26RoundRect,0.050800X0.625000X-0.450000X0.625000X0.450000X-0.625000X0.450000X-0.625000X-0.450000X0*%
%ADD27RoundRect,0.050800X0.450000X-0.400000X0.450000X0.400000X-0.450000X0.400000X-0.450000X-0.400000X0*%
%ADD28RoundRect,0.300800X0.450000X-0.350000X0.450000X0.350000X-0.450000X0.350000X-0.450000X-0.350000X0*%
%ADD29RoundRect,0.050800X-0.762500X0.350000X-0.762500X-0.350000X0.762500X-0.350000X0.762500X0.350000X0*%
%ADD30RoundRect,0.050800X-1.256500X-1.701000X1.256500X-1.701000X1.256500X1.701000X-1.256500X1.701000X0*%
%ADD31RoundRect,0.050800X-0.700000X0.300000X-0.700000X-0.300000X0.700000X-0.300000X0.700000X0.300000X0*%
%ADD32RoundRect,0.050800X-0.800000X0.800000X-0.800000X-0.800000X0.800000X-0.800000X0.800000X0.800000X0*%
%ADD33C,1.701600*%
%ADD34RoundRect,0.050800X0.299999X0.799999X-0.299999X0.799999X-0.299999X-0.799999X0.299999X-0.799999X0*%
%ADD35RoundRect,0.050800X0.350000X1.000000X-0.350000X1.000000X-0.350000X-1.000000X0.350000X-1.000000X0*%
%ADD36FreePoly0,180.000000*%
%ADD37RoundRect,0.050800X-1.250000X-0.500000X1.250000X-0.500000X1.250000X0.500000X-1.250000X0.500000X0*%
%ADD38RoundRect,0.050800X-0.500000X-0.900000X0.500000X-0.900000X0.500000X0.900000X-0.500000X0.900000X0*%
%ADD39RoundRect,0.050800X0.750000X0.500000X-0.750000X0.500000X-0.750000X-0.500000X0.750000X-0.500000X0*%
%ADD40RoundRect,0.300800X0.475000X-0.337500X0.475000X0.337500X-0.475000X0.337500X-0.475000X-0.337500X0*%
%ADD41RoundRect,0.300800X-0.450000X0.325000X-0.450000X-0.325000X0.450000X-0.325000X0.450000X0.325000X0*%
%ADD42RoundRect,0.300800X0.337500X0.475000X-0.337500X0.475000X-0.337500X-0.475000X0.337500X-0.475000X0*%
%ADD43RoundRect,0.050800X-0.600000X0.325000X-0.600000X-0.325000X0.600000X-0.325000X0.600000X0.325000X0*%
%ADD44RoundRect,0.050800X-0.850000X-0.850000X0.850000X-0.850000X0.850000X0.850000X-0.850000X0.850000X0*%
%ADD45RoundRect,0.300800X-0.350000X-0.450000X0.350000X-0.450000X0.350000X0.450000X-0.350000X0.450000X0*%
G04 APERTURE END LIST*
D10*
X157096620Y-70834873D02*
X147866620Y-70804873D01*
X147916669Y-65364807D02*
X149926620Y-65364873D01*
X157036620Y-65324874D02*
X155026620Y-65314873D01*
X155026619Y-65314873D02*
G75*
G03*
X149926620Y-65364873I-2548019J-227008D01*
G01*
X147916669Y-65394800D02*
G75*
G03*
X147866620Y-70804873I0J-2705268D01*
G01*
X157096620Y-70834872D02*
G75*
G03*
X157036620Y-65324874I-41644J2754872D01*
G01*
D11*
X137841904Y-63332380D02*
X137841904Y-62332380D01*
X137413333Y-63332380D02*
X137413333Y-62808571D01*
X137460952Y-62713333D01*
X137556190Y-62665714D01*
X137699047Y-62665714D01*
X137794285Y-62713333D01*
X137841904Y-62760952D01*
X137080000Y-62665714D02*
X136699047Y-62665714D01*
X136937142Y-62332380D02*
X136937142Y-63189523D01*
X136889523Y-63284761D01*
X136794285Y-63332380D01*
X136699047Y-63332380D01*
X136508571Y-62665714D02*
X136127619Y-62665714D01*
X136365714Y-62332380D02*
X136365714Y-63189523D01*
X136318095Y-63284761D01*
X136222857Y-63332380D01*
X136127619Y-63332380D01*
X135794285Y-62665714D02*
X135794285Y-63665714D01*
X135794285Y-62713333D02*
X135699047Y-62665714D01*
X135508571Y-62665714D01*
X135413333Y-62713333D01*
X135365714Y-62760952D01*
X135318095Y-62856190D01*
X135318095Y-63141904D01*
X135365714Y-63237142D01*
X135413333Y-63284761D01*
X135508571Y-63332380D01*
X135699047Y-63332380D01*
X135794285Y-63284761D01*
X134937142Y-63284761D02*
X134841904Y-63332380D01*
X134651428Y-63332380D01*
X134556190Y-63284761D01*
X134508571Y-63189523D01*
X134508571Y-63141904D01*
X134556190Y-63046666D01*
X134651428Y-62999047D01*
X134794285Y-62999047D01*
X134889523Y-62951428D01*
X134937142Y-62856190D01*
X134937142Y-62808571D01*
X134889523Y-62713333D01*
X134794285Y-62665714D01*
X134651428Y-62665714D01*
X134556190Y-62713333D01*
X134080000Y-63237142D02*
X134032380Y-63284761D01*
X134080000Y-63332380D01*
X134127619Y-63284761D01*
X134080000Y-63237142D01*
X134080000Y-63332380D01*
X134080000Y-62713333D02*
X134032380Y-62760952D01*
X134080000Y-62808571D01*
X134127619Y-62760952D01*
X134080000Y-62713333D01*
X134080000Y-62808571D01*
X132889523Y-62284761D02*
X133746666Y-63570476D01*
X131841904Y-62284761D02*
X132699047Y-63570476D01*
X131080000Y-62665714D02*
X131080000Y-63475238D01*
X131127619Y-63570476D01*
X131175238Y-63618095D01*
X131270476Y-63665714D01*
X131413333Y-63665714D01*
X131508571Y-63618095D01*
X131080000Y-63284761D02*
X131175238Y-63332380D01*
X131365714Y-63332380D01*
X131460952Y-63284761D01*
X131508571Y-63237142D01*
X131556190Y-63141904D01*
X131556190Y-62856190D01*
X131508571Y-62760952D01*
X131460952Y-62713333D01*
X131365714Y-62665714D01*
X131175238Y-62665714D01*
X131080000Y-62713333D01*
X130603809Y-63332380D02*
X130603809Y-62665714D01*
X130603809Y-62332380D02*
X130651428Y-62380000D01*
X130603809Y-62427619D01*
X130556190Y-62380000D01*
X130603809Y-62332380D01*
X130603809Y-62427619D01*
X130270476Y-62665714D02*
X129889523Y-62665714D01*
X130127619Y-62332380D02*
X130127619Y-63189523D01*
X130080000Y-63284761D01*
X129984761Y-63332380D01*
X129889523Y-63332380D01*
X129556190Y-63332380D02*
X129556190Y-62332380D01*
X129127619Y-63332380D02*
X129127619Y-62808571D01*
X129175238Y-62713333D01*
X129270476Y-62665714D01*
X129413333Y-62665714D01*
X129508571Y-62713333D01*
X129556190Y-62760952D01*
X128222857Y-62665714D02*
X128222857Y-63332380D01*
X128651428Y-62665714D02*
X128651428Y-63189523D01*
X128603809Y-63284761D01*
X128508571Y-63332380D01*
X128365714Y-63332380D01*
X128270476Y-63284761D01*
X128222857Y-63237142D01*
X127746666Y-63332380D02*
X127746666Y-62332380D01*
X127746666Y-62713333D02*
X127651428Y-62665714D01*
X127460952Y-62665714D01*
X127365714Y-62713333D01*
X127318095Y-62760952D01*
X127270476Y-62856190D01*
X127270476Y-63141904D01*
X127318095Y-63237142D01*
X127365714Y-63284761D01*
X127460952Y-63332380D01*
X127651428Y-63332380D01*
X127746666Y-63284761D01*
X126841904Y-63237142D02*
X126794285Y-63284761D01*
X126841904Y-63332380D01*
X126889523Y-63284761D01*
X126841904Y-63237142D01*
X126841904Y-63332380D01*
X125937142Y-63284761D02*
X126032380Y-63332380D01*
X126222857Y-63332380D01*
X126318095Y-63284761D01*
X126365714Y-63237142D01*
X126413333Y-63141904D01*
X126413333Y-62856190D01*
X126365714Y-62760952D01*
X126318095Y-62713333D01*
X126222857Y-62665714D01*
X126032380Y-62665714D01*
X125937142Y-62713333D01*
X125365714Y-63332380D02*
X125460952Y-63284761D01*
X125508571Y-63237142D01*
X125556190Y-63141904D01*
X125556190Y-62856190D01*
X125508571Y-62760952D01*
X125460952Y-62713333D01*
X125365714Y-62665714D01*
X125222857Y-62665714D01*
X125127619Y-62713333D01*
X125080000Y-62760952D01*
X125032380Y-62856190D01*
X125032380Y-63141904D01*
X125080000Y-63237142D01*
X125127619Y-63284761D01*
X125222857Y-63332380D01*
X125365714Y-63332380D01*
X124603809Y-63332380D02*
X124603809Y-62665714D01*
X124603809Y-62760952D02*
X124556190Y-62713333D01*
X124460952Y-62665714D01*
X124318095Y-62665714D01*
X124222857Y-62713333D01*
X124175238Y-62808571D01*
X124175238Y-63332380D01*
X124175238Y-62808571D02*
X124127619Y-62713333D01*
X124032380Y-62665714D01*
X123889523Y-62665714D01*
X123794285Y-62713333D01*
X123746666Y-62808571D01*
X123746666Y-63332380D01*
X122556190Y-62284761D02*
X123413333Y-63570476D01*
X121794285Y-62665714D02*
X121794285Y-63475238D01*
X121841904Y-63570476D01*
X121889523Y-63618095D01*
X121984761Y-63665714D01*
X122127619Y-63665714D01*
X122222857Y-63618095D01*
X121794285Y-63284761D02*
X121889523Y-63332380D01*
X122080000Y-63332380D01*
X122175238Y-63284761D01*
X122222857Y-63237142D01*
X122270476Y-63141904D01*
X122270476Y-62856190D01*
X122222857Y-62760952D01*
X122175238Y-62713333D01*
X122080000Y-62665714D01*
X121889523Y-62665714D01*
X121794285Y-62713333D01*
X121318095Y-62665714D02*
X121318095Y-63522857D01*
X121365714Y-63618095D01*
X121460952Y-63665714D01*
X121508571Y-63665714D01*
X121318095Y-62332380D02*
X121365714Y-62380000D01*
X121318095Y-62427619D01*
X121270476Y-62380000D01*
X121318095Y-62332380D01*
X121318095Y-62427619D01*
X120699047Y-63332380D02*
X120794285Y-63284761D01*
X120841904Y-63189523D01*
X120841904Y-62332380D01*
X120318095Y-62665714D02*
X120318095Y-63665714D01*
X120318095Y-62713333D02*
X120222857Y-62665714D01*
X120032380Y-62665714D01*
X119937142Y-62713333D01*
X119889523Y-62760952D01*
X119841904Y-62856190D01*
X119841904Y-63141904D01*
X119889523Y-63237142D01*
X119937142Y-63284761D01*
X120032380Y-63332380D01*
X120222857Y-63332380D01*
X120318095Y-63284761D01*
X119460952Y-62427619D02*
X119413333Y-62380000D01*
X119318095Y-62332380D01*
X119080000Y-62332380D01*
X118984761Y-62380000D01*
X118937142Y-62427619D01*
X118889523Y-62522857D01*
X118889523Y-62618095D01*
X118937142Y-62760952D01*
X119508571Y-63332380D01*
X118889523Y-63332380D01*
X117984761Y-62332380D02*
X118460952Y-62332380D01*
X118508571Y-62808571D01*
X118460952Y-62760952D01*
X118365714Y-62713333D01*
X118127619Y-62713333D01*
X118032380Y-62760952D01*
X117984761Y-62808571D01*
X117937142Y-62903809D01*
X117937142Y-63141904D01*
X117984761Y-63237142D01*
X118032380Y-63284761D01*
X118127619Y-63332380D01*
X118365714Y-63332380D01*
X118460952Y-63284761D01*
X118508571Y-63237142D01*
X116794285Y-62284761D02*
X117651428Y-63570476D01*
X116603809Y-62332380D02*
X116032380Y-62332380D01*
X116318095Y-63332380D02*
X116318095Y-62332380D01*
X115556190Y-63332380D02*
X115651428Y-63284761D01*
X115699047Y-63237142D01*
X115746666Y-63141904D01*
X115746666Y-62856190D01*
X115699047Y-62760952D01*
X115651428Y-62713333D01*
X115556190Y-62665714D01*
X115413333Y-62665714D01*
X115318095Y-62713333D01*
X115270476Y-62760952D01*
X115222857Y-62856190D01*
X115222857Y-63141904D01*
X115270476Y-63237142D01*
X115318095Y-63284761D01*
X115413333Y-63332380D01*
X115556190Y-63332380D01*
X114794285Y-62665714D02*
X114794285Y-63665714D01*
X114794285Y-62713333D02*
X114699047Y-62665714D01*
X114508571Y-62665714D01*
X114413333Y-62713333D01*
X114365714Y-62760952D01*
X114318095Y-62856190D01*
X114318095Y-63141904D01*
X114365714Y-63237142D01*
X114413333Y-63284761D01*
X114508571Y-63332380D01*
X114699047Y-63332380D01*
X114794285Y-63284761D01*
X113889523Y-63332380D02*
X113889523Y-62665714D01*
X113889523Y-62332380D02*
X113937142Y-62380000D01*
X113889523Y-62427619D01*
X113841904Y-62380000D01*
X113889523Y-62332380D01*
X113889523Y-62427619D01*
X113080000Y-62808571D02*
X112937142Y-62856190D01*
X112889523Y-62903809D01*
X112841904Y-62999047D01*
X112841904Y-63141904D01*
X112889523Y-63237142D01*
X112937142Y-63284761D01*
X113032380Y-63332380D01*
X113413333Y-63332380D01*
X113413333Y-62332380D01*
X113080000Y-62332380D01*
X112984761Y-62380000D01*
X112937142Y-62427619D01*
X112889523Y-62522857D01*
X112889523Y-62618095D01*
X112937142Y-62713333D01*
X112984761Y-62760952D01*
X113080000Y-62808571D01*
X113413333Y-62808571D01*
X111984761Y-63332380D02*
X111984761Y-62808571D01*
X112032380Y-62713333D01*
X112127619Y-62665714D01*
X112318095Y-62665714D01*
X112413333Y-62713333D01*
X111984761Y-63284761D02*
X112080000Y-63332380D01*
X112318095Y-63332380D01*
X112413333Y-63284761D01*
X112460952Y-63189523D01*
X112460952Y-63094285D01*
X112413333Y-62999047D01*
X112318095Y-62951428D01*
X112080000Y-62951428D01*
X111984761Y-62903809D01*
X111080000Y-63332380D02*
X111080000Y-62332380D01*
X111080000Y-63284761D02*
X111175238Y-63332380D01*
X111365714Y-63332380D01*
X111460952Y-63284761D01*
X111508571Y-63237142D01*
X111556190Y-63141904D01*
X111556190Y-62856190D01*
X111508571Y-62760952D01*
X111460952Y-62713333D01*
X111365714Y-62665714D01*
X111175238Y-62665714D01*
X111080000Y-62713333D01*
X110175238Y-62665714D02*
X110175238Y-63475238D01*
X110222857Y-63570476D01*
X110270476Y-63618095D01*
X110365714Y-63665714D01*
X110508571Y-63665714D01*
X110603809Y-63618095D01*
X110175238Y-63284761D02*
X110270476Y-63332380D01*
X110460952Y-63332380D01*
X110556190Y-63284761D01*
X110603809Y-63237142D01*
X110651428Y-63141904D01*
X110651428Y-62856190D01*
X110603809Y-62760952D01*
X110556190Y-62713333D01*
X110460952Y-62665714D01*
X110270476Y-62665714D01*
X110175238Y-62713333D01*
X109318095Y-63284761D02*
X109413333Y-63332380D01*
X109603809Y-63332380D01*
X109699047Y-63284761D01*
X109746666Y-63189523D01*
X109746666Y-62808571D01*
X109699047Y-62713333D01*
X109603809Y-62665714D01*
X109413333Y-62665714D01*
X109318095Y-62713333D01*
X109270476Y-62808571D01*
X109270476Y-62903809D01*
X109746666Y-62999047D01*
D12*
X199009991Y-124410835D02*
X198994558Y-124617854D01*
X198949252Y-124818762D01*
X198875557Y-125012559D01*
X198774959Y-125198246D01*
X198648943Y-125374823D01*
X198498994Y-125541290D01*
X198326598Y-125696648D01*
X198133240Y-125839897D01*
X197920406Y-125970037D01*
X197689580Y-126086068D01*
X197442248Y-126186991D01*
X197179896Y-126271807D01*
X196904009Y-126339514D01*
X196616072Y-126389115D01*
X196317570Y-126419608D01*
X196009990Y-126429995D01*
X196009990Y-61430000D02*
X196317570Y-61440386D01*
X196616072Y-61470880D01*
X196904009Y-61520480D01*
X197179896Y-61588188D01*
X197442248Y-61673004D01*
X197689580Y-61773927D01*
X197920406Y-61889959D01*
X198133240Y-62020099D01*
X198326598Y-62163348D01*
X198498994Y-62318706D01*
X198648943Y-62485173D01*
X198774959Y-62661750D01*
X198875557Y-62847436D01*
X198949252Y-63041233D01*
X198994558Y-63242140D01*
X199009991Y-63449159D01*
D13*
X109010000Y-61430000D02*
X109010000Y-61430000D01*
D12*
X109010000Y-126429995D02*
X108702419Y-126419608D01*
X108403917Y-126389115D01*
X108115979Y-126339514D01*
X107840092Y-126271807D01*
X107577739Y-126186991D01*
X107330408Y-126086068D01*
X107099582Y-125970037D01*
X106886747Y-125839897D01*
X106693389Y-125696648D01*
X106520992Y-125541290D01*
X106371043Y-125374823D01*
X106245027Y-125198246D01*
X106144429Y-125012559D01*
X106070734Y-124818762D01*
X106025428Y-124617854D01*
X106009996Y-124410835D01*
D13*
X196009990Y-126429995D02*
X109010000Y-126429995D01*
X199009991Y-63449159D02*
X199009991Y-124410835D01*
D12*
X106009996Y-63449159D02*
X106025428Y-63242140D01*
X106070734Y-63041233D01*
X106144429Y-62847436D01*
X106245027Y-62661750D01*
X106371043Y-62485173D01*
X106520992Y-62318706D01*
X106693389Y-62163348D01*
X106886747Y-62020099D01*
X107099582Y-61889959D01*
X107330408Y-61773927D01*
X107577739Y-61673004D01*
X107840092Y-61588188D01*
X108115979Y-61520480D01*
X108403917Y-61470880D01*
X108702419Y-61440386D01*
X109010000Y-61430000D01*
D13*
X106009996Y-124410835D02*
X106009996Y-63449159D01*
X109010000Y-61430000D02*
X196009990Y-61430000D01*
D11*
X157431904Y-119612380D02*
X156860476Y-119612380D01*
X157146190Y-120612380D02*
X157146190Y-119612380D01*
X156622380Y-119612380D02*
X155955714Y-120612380D01*
X155955714Y-119612380D02*
X156622380Y-120612380D01*
X157451904Y-117120000D02*
X157547142Y-117072380D01*
X157690000Y-117072380D01*
X157832857Y-117120000D01*
X157928095Y-117215238D01*
X157975714Y-117310476D01*
X158023333Y-117500952D01*
X158023333Y-117643809D01*
X157975714Y-117834285D01*
X157928095Y-117929523D01*
X157832857Y-118024761D01*
X157690000Y-118072380D01*
X157594761Y-118072380D01*
X157451904Y-118024761D01*
X157404285Y-117977142D01*
X157404285Y-117643809D01*
X157594761Y-117643809D01*
X156975714Y-118072380D02*
X156975714Y-117072380D01*
X156404285Y-118072380D01*
X156404285Y-117072380D01*
X155928095Y-118072380D02*
X155928095Y-117072380D01*
X155690000Y-117072380D01*
X155547142Y-117120000D01*
X155451904Y-117215238D01*
X155404285Y-117310476D01*
X155356666Y-117500952D01*
X155356666Y-117643809D01*
X155404285Y-117834285D01*
X155451904Y-117929523D01*
X155547142Y-118024761D01*
X155690000Y-118072380D01*
X155928095Y-118072380D01*
X159917619Y-80182380D02*
X159298571Y-80182380D01*
X159631904Y-80563333D01*
X159489047Y-80563333D01*
X159393809Y-80610952D01*
X159346190Y-80658571D01*
X159298571Y-80753809D01*
X159298571Y-80991904D01*
X159346190Y-81087142D01*
X159393809Y-81134761D01*
X159489047Y-81182380D01*
X159774761Y-81182380D01*
X159870000Y-81134761D01*
X159917619Y-81087142D01*
X158870000Y-81087142D02*
X158822380Y-81134761D01*
X158870000Y-81182380D01*
X158917619Y-81134761D01*
X158870000Y-81087142D01*
X158870000Y-81182380D01*
X158489047Y-80182380D02*
X157822380Y-80182380D01*
X158250952Y-81182380D01*
X157536666Y-80515714D02*
X157298571Y-81182380D01*
X157060476Y-80515714D01*
X155441428Y-81182380D02*
X155917619Y-81182380D01*
X155917619Y-80182380D01*
X155108095Y-81182380D02*
X155108095Y-80515714D01*
X155108095Y-80182380D02*
X155155714Y-80230000D01*
X155108095Y-80277619D01*
X155060476Y-80230000D01*
X155108095Y-80182380D01*
X155108095Y-80277619D01*
X154631904Y-80801428D02*
X153870000Y-80801428D01*
X153393809Y-81182380D02*
X153393809Y-80182380D01*
X153012857Y-80182380D01*
X152917619Y-80230000D01*
X152870000Y-80277619D01*
X152822380Y-80372857D01*
X152822380Y-80515714D01*
X152870000Y-80610952D01*
X152917619Y-80658571D01*
X153012857Y-80706190D01*
X153393809Y-80706190D01*
X152250952Y-81182380D02*
X152346190Y-81134761D01*
X152393809Y-81087142D01*
X152441428Y-80991904D01*
X152441428Y-80706190D01*
X152393809Y-80610952D01*
X152346190Y-80563333D01*
X152250952Y-80515714D01*
X152108095Y-80515714D01*
X152012857Y-80563333D01*
X151965238Y-80610952D01*
X151917619Y-80706190D01*
X151917619Y-80991904D01*
X151965238Y-81087142D01*
X152012857Y-81134761D01*
X152108095Y-81182380D01*
X152250952Y-81182380D01*
X150393809Y-80658571D02*
X150250952Y-80706190D01*
X150203333Y-80753809D01*
X150155714Y-80849047D01*
X150155714Y-80991904D01*
X150203333Y-81087142D01*
X150250952Y-81134761D01*
X150346190Y-81182380D01*
X150727142Y-81182380D01*
X150727142Y-80182380D01*
X150393809Y-80182380D01*
X150298571Y-80230000D01*
X150250952Y-80277619D01*
X150203333Y-80372857D01*
X150203333Y-80468095D01*
X150250952Y-80563333D01*
X150298571Y-80610952D01*
X150393809Y-80658571D01*
X150727142Y-80658571D01*
X149298571Y-81182380D02*
X149298571Y-80658571D01*
X149346190Y-80563333D01*
X149441428Y-80515714D01*
X149631904Y-80515714D01*
X149727142Y-80563333D01*
X149298571Y-81134761D02*
X149393809Y-81182380D01*
X149631904Y-81182380D01*
X149727142Y-81134761D01*
X149774761Y-81039523D01*
X149774761Y-80944285D01*
X149727142Y-80849047D01*
X149631904Y-80801428D01*
X149393809Y-80801428D01*
X149298571Y-80753809D01*
X148965238Y-80515714D02*
X148584285Y-80515714D01*
X148822380Y-80182380D02*
X148822380Y-81039523D01*
X148774761Y-81134761D01*
X148679523Y-81182380D01*
X148584285Y-81182380D01*
X148393809Y-80515714D02*
X148012857Y-80515714D01*
X148250952Y-80182380D02*
X148250952Y-81039523D01*
X148203333Y-81134761D01*
X148108095Y-81182380D01*
X148012857Y-81182380D01*
X147298571Y-81134761D02*
X147393809Y-81182380D01*
X147584285Y-81182380D01*
X147679523Y-81134761D01*
X147727142Y-81039523D01*
X147727142Y-80658571D01*
X147679523Y-80563333D01*
X147584285Y-80515714D01*
X147393809Y-80515714D01*
X147298571Y-80563333D01*
X147250952Y-80658571D01*
X147250952Y-80753809D01*
X147727142Y-80849047D01*
X146822380Y-81182380D02*
X146822380Y-80515714D01*
X146822380Y-80706190D02*
X146774761Y-80610952D01*
X146727142Y-80563333D01*
X146631904Y-80515714D01*
X146536666Y-80515714D01*
X146298571Y-80515714D02*
X146060476Y-81182380D01*
X145822380Y-80515714D02*
X146060476Y-81182380D01*
X146155714Y-81420476D01*
X146203333Y-81468095D01*
X146298571Y-81515714D01*
X113015780Y-92648352D02*
X113015780Y-92838828D01*
X113063400Y-92934066D01*
X113158638Y-93029304D01*
X113349114Y-93076923D01*
X113682447Y-93076923D01*
X113872923Y-93029304D01*
X113968161Y-92934066D01*
X114015780Y-92838828D01*
X114015780Y-92648352D01*
X113968161Y-92553114D01*
X113872923Y-92457876D01*
X113682447Y-92410257D01*
X113349114Y-92410257D01*
X113158638Y-92457876D01*
X113063400Y-92553114D01*
X113015780Y-92648352D01*
X113349114Y-93505495D02*
X114015780Y-93505495D01*
X113444352Y-93505495D02*
X113396733Y-93553114D01*
X113349114Y-93648352D01*
X113349114Y-93791209D01*
X113396733Y-93886447D01*
X113491971Y-93934066D01*
X114015780Y-93934066D01*
X114349114Y-94648352D02*
X112920542Y-94648352D01*
X113015780Y-95553114D02*
X113015780Y-95743590D01*
X113063400Y-95838828D01*
X113158638Y-95934066D01*
X113349114Y-95981685D01*
X113682447Y-95981685D01*
X113872923Y-95934066D01*
X113968161Y-95838828D01*
X114015780Y-95743590D01*
X114015780Y-95553114D01*
X113968161Y-95457876D01*
X113872923Y-95362638D01*
X113682447Y-95315019D01*
X113349114Y-95315019D01*
X113158638Y-95362638D01*
X113063400Y-95457876D01*
X113015780Y-95553114D01*
X113349114Y-96267400D02*
X113349114Y-96648352D01*
X114015780Y-96410257D02*
X113158638Y-96410257D01*
X113063400Y-96457876D01*
X113015780Y-96553114D01*
X113015780Y-96648352D01*
X113349114Y-96838828D02*
X113349114Y-97219780D01*
X114015780Y-96981685D02*
X113158638Y-96981685D01*
X113063400Y-97029304D01*
X113015780Y-97124542D01*
X113015780Y-97219780D01*
X156836666Y-123112380D02*
X157170000Y-122636190D01*
X157408095Y-123112380D02*
X157408095Y-122112380D01*
X157027142Y-122112380D01*
X156931904Y-122160000D01*
X156884285Y-122207619D01*
X156836666Y-122302857D01*
X156836666Y-122445714D01*
X156884285Y-122540952D01*
X156931904Y-122588571D01*
X157027142Y-122636190D01*
X157408095Y-122636190D01*
X156503333Y-122112380D02*
X155836666Y-123112380D01*
X155836666Y-122112380D02*
X156503333Y-123112380D01*
X157852857Y-115452380D02*
X157852857Y-114452380D01*
X157614761Y-114452380D01*
X157471904Y-114500000D01*
X157376666Y-114595238D01*
X157329047Y-114690476D01*
X157281428Y-114880952D01*
X157281428Y-115023809D01*
X157329047Y-115214285D01*
X157376666Y-115309523D01*
X157471904Y-115404761D01*
X157614761Y-115452380D01*
X157852857Y-115452380D01*
X156995714Y-114452380D02*
X156424285Y-114452380D01*
X156710000Y-115452380D02*
X156710000Y-114452380D01*
X155519523Y-115452380D02*
X155852857Y-114976190D01*
X156090952Y-115452380D02*
X156090952Y-114452380D01*
X155710000Y-114452380D01*
X155614761Y-114500000D01*
X155567142Y-114547619D01*
X155519523Y-114642857D01*
X155519523Y-114785714D01*
X155567142Y-114880952D01*
X155614761Y-114928571D01*
X155710000Y-114976190D01*
X156090952Y-114976190D01*
X152833333Y-78012380D02*
X152833333Y-78726666D01*
X152880952Y-78869523D01*
X152976190Y-78964761D01*
X153119047Y-79012380D01*
X153214285Y-79012380D01*
X151928571Y-78012380D02*
X152119047Y-78012380D01*
X152214285Y-78060000D01*
X152261904Y-78107619D01*
X152357142Y-78250476D01*
X152404761Y-78440952D01*
X152404761Y-78821904D01*
X152357142Y-78917142D01*
X152309523Y-78964761D01*
X152214285Y-79012380D01*
X152023809Y-79012380D01*
X151928571Y-78964761D01*
X151880952Y-78917142D01*
X151833333Y-78821904D01*
X151833333Y-78583809D01*
X151880952Y-78488571D01*
X151928571Y-78440952D01*
X152023809Y-78393333D01*
X152214285Y-78393333D01*
X152309523Y-78440952D01*
X152357142Y-78488571D01*
X152404761Y-78583809D01*
X113943333Y-122132380D02*
X113943333Y-122846666D01*
X113990952Y-122989523D01*
X114086190Y-123084761D01*
X114229047Y-123132380D01*
X114324285Y-123132380D01*
X112943333Y-123132380D02*
X113514761Y-123132380D01*
X113229047Y-123132380D02*
X113229047Y-122132380D01*
X113324285Y-122275238D01*
X113419523Y-122370476D01*
X113514761Y-122418095D01*
X174356666Y-106382380D02*
X174690000Y-105906190D01*
X174928095Y-106382380D02*
X174928095Y-105382380D01*
X174547142Y-105382380D01*
X174451904Y-105430000D01*
X174404285Y-105477619D01*
X174356666Y-105572857D01*
X174356666Y-105715714D01*
X174404285Y-105810952D01*
X174451904Y-105858571D01*
X174547142Y-105906190D01*
X174928095Y-105906190D01*
X173785238Y-105810952D02*
X173880476Y-105763333D01*
X173928095Y-105715714D01*
X173975714Y-105620476D01*
X173975714Y-105572857D01*
X173928095Y-105477619D01*
X173880476Y-105430000D01*
X173785238Y-105382380D01*
X173594761Y-105382380D01*
X173499523Y-105430000D01*
X173451904Y-105477619D01*
X173404285Y-105572857D01*
X173404285Y-105620476D01*
X173451904Y-105715714D01*
X173499523Y-105763333D01*
X173594761Y-105810952D01*
X173785238Y-105810952D01*
X173880476Y-105858571D01*
X173928095Y-105906190D01*
X173975714Y-106001428D01*
X173975714Y-106191904D01*
X173928095Y-106287142D01*
X173880476Y-106334761D01*
X173785238Y-106382380D01*
X173594761Y-106382380D01*
X173499523Y-106334761D01*
X173451904Y-106287142D01*
X173404285Y-106191904D01*
X173404285Y-106001428D01*
X173451904Y-105906190D01*
X173499523Y-105858571D01*
X173594761Y-105810952D01*
X109842857Y-107702380D02*
X110176190Y-107226190D01*
X110414285Y-107702380D02*
X110414285Y-106702380D01*
X110033333Y-106702380D01*
X109938095Y-106750000D01*
X109890476Y-106797619D01*
X109842857Y-106892857D01*
X109842857Y-107035714D01*
X109890476Y-107130952D01*
X109938095Y-107178571D01*
X110033333Y-107226190D01*
X110414285Y-107226190D01*
X108890476Y-107702380D02*
X109461904Y-107702380D01*
X109176190Y-107702380D02*
X109176190Y-106702380D01*
X109271428Y-106845238D01*
X109366666Y-106940476D01*
X109461904Y-106988095D01*
X108033333Y-107035714D02*
X108033333Y-107702380D01*
X108271428Y-106654761D02*
X108509523Y-107369047D01*
X107890476Y-107369047D01*
X121562857Y-117212380D02*
X121896190Y-116736190D01*
X122134285Y-117212380D02*
X122134285Y-116212380D01*
X121753333Y-116212380D01*
X121658095Y-116260000D01*
X121610476Y-116307619D01*
X121562857Y-116402857D01*
X121562857Y-116545714D01*
X121610476Y-116640952D01*
X121658095Y-116688571D01*
X121753333Y-116736190D01*
X122134285Y-116736190D01*
X120610476Y-117212380D02*
X121181904Y-117212380D01*
X120896190Y-117212380D02*
X120896190Y-116212380D01*
X120991428Y-116355238D01*
X121086666Y-116450476D01*
X121181904Y-116498095D01*
X119991428Y-116212380D02*
X119896190Y-116212380D01*
X119800952Y-116260000D01*
X119753333Y-116307619D01*
X119705714Y-116402857D01*
X119658095Y-116593333D01*
X119658095Y-116831428D01*
X119705714Y-117021904D01*
X119753333Y-117117142D01*
X119800952Y-117164761D01*
X119896190Y-117212380D01*
X119991428Y-117212380D01*
X120086666Y-117164761D01*
X120134285Y-117117142D01*
X120181904Y-117021904D01*
X120229523Y-116831428D01*
X120229523Y-116593333D01*
X120181904Y-116402857D01*
X120134285Y-116307619D01*
X120086666Y-116260000D01*
X119991428Y-116212380D01*
X191721904Y-86222380D02*
X191721904Y-87031904D01*
X191674285Y-87127142D01*
X191626666Y-87174761D01*
X191531428Y-87222380D01*
X191340952Y-87222380D01*
X191245714Y-87174761D01*
X191198095Y-87127142D01*
X191150476Y-87031904D01*
X191150476Y-86222380D01*
X190769523Y-86222380D02*
X190150476Y-86222380D01*
X190483809Y-86603333D01*
X190340952Y-86603333D01*
X190245714Y-86650952D01*
X190198095Y-86698571D01*
X190150476Y-86793809D01*
X190150476Y-87031904D01*
X190198095Y-87127142D01*
X190245714Y-87174761D01*
X190340952Y-87222380D01*
X190626666Y-87222380D01*
X190721904Y-87174761D01*
X190769523Y-87127142D01*
X117542857Y-97902380D02*
X117876190Y-97426190D01*
X118114285Y-97902380D02*
X118114285Y-96902380D01*
X117733333Y-96902380D01*
X117638095Y-96950000D01*
X117590476Y-96997619D01*
X117542857Y-97092857D01*
X117542857Y-97235714D01*
X117590476Y-97330952D01*
X117638095Y-97378571D01*
X117733333Y-97426190D01*
X118114285Y-97426190D01*
X116590476Y-97902380D02*
X117161904Y-97902380D01*
X116876190Y-97902380D02*
X116876190Y-96902380D01*
X116971428Y-97045238D01*
X117066666Y-97140476D01*
X117161904Y-97188095D01*
X116257142Y-96902380D02*
X115638095Y-96902380D01*
X115971428Y-97283333D01*
X115828571Y-97283333D01*
X115733333Y-97330952D01*
X115685714Y-97378571D01*
X115638095Y-97473809D01*
X115638095Y-97711904D01*
X115685714Y-97807142D01*
X115733333Y-97854761D01*
X115828571Y-97902380D01*
X116114285Y-97902380D01*
X116209523Y-97854761D01*
X116257142Y-97807142D01*
X188511904Y-109562380D02*
X188511904Y-110371904D01*
X188464285Y-110467142D01*
X188416666Y-110514761D01*
X188321428Y-110562380D01*
X188130952Y-110562380D01*
X188035714Y-110514761D01*
X187988095Y-110467142D01*
X187940476Y-110371904D01*
X187940476Y-109562380D01*
X187511904Y-109657619D02*
X187464285Y-109610000D01*
X187369047Y-109562380D01*
X187130952Y-109562380D01*
X187035714Y-109610000D01*
X186988095Y-109657619D01*
X186940476Y-109752857D01*
X186940476Y-109848095D01*
X186988095Y-109990952D01*
X187559523Y-110562380D01*
X186940476Y-110562380D01*
X173204095Y-63551180D02*
X173204095Y-62551180D01*
X172966000Y-62551180D01*
X172823142Y-62598800D01*
X172727904Y-62694038D01*
X172680285Y-62789276D01*
X172632666Y-62979752D01*
X172632666Y-63122609D01*
X172680285Y-63313085D01*
X172727904Y-63408323D01*
X172823142Y-63503561D01*
X172966000Y-63551180D01*
X173204095Y-63551180D01*
X172299333Y-62551180D02*
X171632666Y-62551180D01*
X172061238Y-63551180D01*
X123386666Y-100997142D02*
X123434285Y-101044761D01*
X123577142Y-101092380D01*
X123672380Y-101092380D01*
X123815238Y-101044761D01*
X123910476Y-100949523D01*
X123958095Y-100854285D01*
X124005714Y-100663809D01*
X124005714Y-100520952D01*
X123958095Y-100330476D01*
X123910476Y-100235238D01*
X123815238Y-100140000D01*
X123672380Y-100092380D01*
X123577142Y-100092380D01*
X123434285Y-100140000D01*
X123386666Y-100187619D01*
X122529523Y-100425714D02*
X122529523Y-101092380D01*
X122767619Y-100044761D02*
X123005714Y-100759047D01*
X122386666Y-100759047D01*
X174366666Y-114402380D02*
X174700000Y-113926190D01*
X174938095Y-114402380D02*
X174938095Y-113402380D01*
X174557142Y-113402380D01*
X174461904Y-113450000D01*
X174414285Y-113497619D01*
X174366666Y-113592857D01*
X174366666Y-113735714D01*
X174414285Y-113830952D01*
X174461904Y-113878571D01*
X174557142Y-113926190D01*
X174938095Y-113926190D01*
X173890476Y-114402380D02*
X173700000Y-114402380D01*
X173604761Y-114354761D01*
X173557142Y-114307142D01*
X173461904Y-114164285D01*
X173414285Y-113973809D01*
X173414285Y-113592857D01*
X173461904Y-113497619D01*
X173509523Y-113450000D01*
X173604761Y-113402380D01*
X173795238Y-113402380D01*
X173890476Y-113450000D01*
X173938095Y-113497619D01*
X173985714Y-113592857D01*
X173985714Y-113830952D01*
X173938095Y-113926190D01*
X173890476Y-113973809D01*
X173795238Y-114021428D01*
X173604761Y-114021428D01*
X173509523Y-113973809D01*
X173461904Y-113926190D01*
X173414285Y-113830952D01*
X121238095Y-120522380D02*
X121238095Y-119522380D01*
X121000000Y-119522380D01*
X120857142Y-119570000D01*
X120761904Y-119665238D01*
X120714285Y-119760476D01*
X120666666Y-119950952D01*
X120666666Y-120093809D01*
X120714285Y-120284285D01*
X120761904Y-120379523D01*
X120857142Y-120474761D01*
X121000000Y-120522380D01*
X121238095Y-120522380D01*
X119761904Y-119522380D02*
X120238095Y-119522380D01*
X120285714Y-119998571D01*
X120238095Y-119950952D01*
X120142857Y-119903333D01*
X119904761Y-119903333D01*
X119809523Y-119950952D01*
X119761904Y-119998571D01*
X119714285Y-120093809D01*
X119714285Y-120331904D01*
X119761904Y-120427142D01*
X119809523Y-120474761D01*
X119904761Y-120522380D01*
X120142857Y-120522380D01*
X120238095Y-120474761D01*
X120285714Y-120427142D01*
X113966666Y-107677142D02*
X114014285Y-107724761D01*
X114157142Y-107772380D01*
X114252380Y-107772380D01*
X114395238Y-107724761D01*
X114490476Y-107629523D01*
X114538095Y-107534285D01*
X114585714Y-107343809D01*
X114585714Y-107200952D01*
X114538095Y-107010476D01*
X114490476Y-106915238D01*
X114395238Y-106820000D01*
X114252380Y-106772380D01*
X114157142Y-106772380D01*
X114014285Y-106820000D01*
X113966666Y-106867619D01*
X113061904Y-106772380D02*
X113538095Y-106772380D01*
X113585714Y-107248571D01*
X113538095Y-107200952D01*
X113442857Y-107153333D01*
X113204761Y-107153333D01*
X113109523Y-107200952D01*
X113061904Y-107248571D01*
X113014285Y-107343809D01*
X113014285Y-107581904D01*
X113061904Y-107677142D01*
X113109523Y-107724761D01*
X113204761Y-107772380D01*
X113442857Y-107772380D01*
X113538095Y-107724761D01*
X113585714Y-107677142D01*
X121632857Y-107462380D02*
X121966190Y-106986190D01*
X122204285Y-107462380D02*
X122204285Y-106462380D01*
X121823333Y-106462380D01*
X121728095Y-106510000D01*
X121680476Y-106557619D01*
X121632857Y-106652857D01*
X121632857Y-106795714D01*
X121680476Y-106890952D01*
X121728095Y-106938571D01*
X121823333Y-106986190D01*
X122204285Y-106986190D01*
X120680476Y-107462380D02*
X121251904Y-107462380D01*
X120966190Y-107462380D02*
X120966190Y-106462380D01*
X121061428Y-106605238D01*
X121156666Y-106700476D01*
X121251904Y-106748095D01*
X120299523Y-106557619D02*
X120251904Y-106510000D01*
X120156666Y-106462380D01*
X119918571Y-106462380D01*
X119823333Y-106510000D01*
X119775714Y-106557619D01*
X119728095Y-106652857D01*
X119728095Y-106748095D01*
X119775714Y-106890952D01*
X120347142Y-107462380D01*
X119728095Y-107462380D01*
X108256666Y-111797142D02*
X108304285Y-111844761D01*
X108447142Y-111892380D01*
X108542380Y-111892380D01*
X108685238Y-111844761D01*
X108780476Y-111749523D01*
X108828095Y-111654285D01*
X108875714Y-111463809D01*
X108875714Y-111320952D01*
X108828095Y-111130476D01*
X108780476Y-111035238D01*
X108685238Y-110940000D01*
X108542380Y-110892380D01*
X108447142Y-110892380D01*
X108304285Y-110940000D01*
X108256666Y-110987619D01*
X107875714Y-110987619D02*
X107828095Y-110940000D01*
X107732857Y-110892380D01*
X107494761Y-110892380D01*
X107399523Y-110940000D01*
X107351904Y-110987619D01*
X107304285Y-111082857D01*
X107304285Y-111178095D01*
X107351904Y-111320952D01*
X107923333Y-111892380D01*
X107304285Y-111892380D01*
X125148095Y-120522380D02*
X125148095Y-119522380D01*
X124910000Y-119522380D01*
X124767142Y-119570000D01*
X124671904Y-119665238D01*
X124624285Y-119760476D01*
X124576666Y-119950952D01*
X124576666Y-120093809D01*
X124624285Y-120284285D01*
X124671904Y-120379523D01*
X124767142Y-120474761D01*
X124910000Y-120522380D01*
X125148095Y-120522380D01*
X123719523Y-119522380D02*
X123910000Y-119522380D01*
X124005238Y-119570000D01*
X124052857Y-119617619D01*
X124148095Y-119760476D01*
X124195714Y-119950952D01*
X124195714Y-120331904D01*
X124148095Y-120427142D01*
X124100476Y-120474761D01*
X124005238Y-120522380D01*
X123814761Y-120522380D01*
X123719523Y-120474761D01*
X123671904Y-120427142D01*
X123624285Y-120331904D01*
X123624285Y-120093809D01*
X123671904Y-119998571D01*
X123719523Y-119950952D01*
X123814761Y-119903333D01*
X124005238Y-119903333D01*
X124100476Y-119950952D01*
X124148095Y-119998571D01*
X124195714Y-120093809D01*
X163743333Y-116742380D02*
X163743333Y-117456666D01*
X163790952Y-117599523D01*
X163886190Y-117694761D01*
X164029047Y-117742380D01*
X164124285Y-117742380D01*
X163314761Y-116837619D02*
X163267142Y-116790000D01*
X163171904Y-116742380D01*
X162933809Y-116742380D01*
X162838571Y-116790000D01*
X162790952Y-116837619D01*
X162743333Y-116932857D01*
X162743333Y-117028095D01*
X162790952Y-117170952D01*
X163362380Y-117742380D01*
X162743333Y-117742380D01*
X174359866Y-102492380D02*
X174693200Y-102016190D01*
X174931295Y-102492380D02*
X174931295Y-101492380D01*
X174550342Y-101492380D01*
X174455104Y-101540000D01*
X174407485Y-101587619D01*
X174359866Y-101682857D01*
X174359866Y-101825714D01*
X174407485Y-101920952D01*
X174455104Y-101968571D01*
X174550342Y-102016190D01*
X174931295Y-102016190D01*
X173502723Y-101825714D02*
X173502723Y-102492380D01*
X173740819Y-101444761D02*
X173978914Y-102159047D01*
X173359866Y-102159047D01*
X174396666Y-98602380D02*
X174730000Y-98126190D01*
X174968095Y-98602380D02*
X174968095Y-97602380D01*
X174587142Y-97602380D01*
X174491904Y-97650000D01*
X174444285Y-97697619D01*
X174396666Y-97792857D01*
X174396666Y-97935714D01*
X174444285Y-98030952D01*
X174491904Y-98078571D01*
X174587142Y-98126190D01*
X174968095Y-98126190D01*
X173539523Y-97602380D02*
X173730000Y-97602380D01*
X173825238Y-97650000D01*
X173872857Y-97697619D01*
X173968095Y-97840476D01*
X174015714Y-98030952D01*
X174015714Y-98411904D01*
X173968095Y-98507142D01*
X173920476Y-98554761D01*
X173825238Y-98602380D01*
X173634761Y-98602380D01*
X173539523Y-98554761D01*
X173491904Y-98507142D01*
X173444285Y-98411904D01*
X173444285Y-98173809D01*
X173491904Y-98078571D01*
X173539523Y-98030952D01*
X173634761Y-97983333D01*
X173825238Y-97983333D01*
X173920476Y-98030952D01*
X173968095Y-98078571D01*
X174015714Y-98173809D01*
X174385266Y-110360942D02*
X174432885Y-110408561D01*
X174575742Y-110456180D01*
X174670980Y-110456180D01*
X174813838Y-110408561D01*
X174909076Y-110313323D01*
X174956695Y-110218085D01*
X175004314Y-110027609D01*
X175004314Y-109884752D01*
X174956695Y-109694276D01*
X174909076Y-109599038D01*
X174813838Y-109503800D01*
X174670980Y-109456180D01*
X174575742Y-109456180D01*
X174432885Y-109503800D01*
X174385266Y-109551419D01*
X173432885Y-110456180D02*
X174004314Y-110456180D01*
X173718600Y-110456180D02*
X173718600Y-109456180D01*
X173813838Y-109599038D01*
X173909076Y-109694276D01*
X174004314Y-109741895D01*
X166826666Y-64297142D02*
X166874285Y-64344761D01*
X167017142Y-64392380D01*
X167112380Y-64392380D01*
X167255238Y-64344761D01*
X167350476Y-64249523D01*
X167398095Y-64154285D01*
X167445714Y-63963809D01*
X167445714Y-63820952D01*
X167398095Y-63630476D01*
X167350476Y-63535238D01*
X167255238Y-63440000D01*
X167112380Y-63392380D01*
X167017142Y-63392380D01*
X166874285Y-63440000D01*
X166826666Y-63487619D01*
X166493333Y-63392380D02*
X165874285Y-63392380D01*
X166207619Y-63773333D01*
X166064761Y-63773333D01*
X165969523Y-63820952D01*
X165921904Y-63868571D01*
X165874285Y-63963809D01*
X165874285Y-64201904D01*
X165921904Y-64297142D01*
X165969523Y-64344761D01*
X166064761Y-64392380D01*
X166350476Y-64392380D01*
X166445714Y-64344761D01*
X166493333Y-64297142D01*
X108782857Y-117512380D02*
X109116190Y-117036190D01*
X109354285Y-117512380D02*
X109354285Y-116512380D01*
X108973333Y-116512380D01*
X108878095Y-116560000D01*
X108830476Y-116607619D01*
X108782857Y-116702857D01*
X108782857Y-116845714D01*
X108830476Y-116940952D01*
X108878095Y-116988571D01*
X108973333Y-117036190D01*
X109354285Y-117036190D01*
X107830476Y-117512380D02*
X108401904Y-117512380D01*
X108116190Y-117512380D02*
X108116190Y-116512380D01*
X108211428Y-116655238D01*
X108306666Y-116750476D01*
X108401904Y-116798095D01*
X106878095Y-117512380D02*
X107449523Y-117512380D01*
X107163809Y-117512380D02*
X107163809Y-116512380D01*
X107259047Y-116655238D01*
X107354285Y-116750476D01*
X107449523Y-116798095D01*
D12*
X191471948Y-66229861D02*
X192045416Y-66336572D01*
X192075123Y-65406667D02*
X192284188Y-64918915D01*
X196140476Y-64296074D02*
X195776115Y-63931713D01*
X196728051Y-66229902D02*
X196728093Y-65714643D01*
X196312202Y-67671498D02*
X195815779Y-68167838D01*
X192936321Y-64283503D02*
X192423842Y-63931754D01*
X196140601Y-67648513D02*
X195815530Y-67174702D01*
X196165246Y-65441393D02*
X196847251Y-65568227D01*
X195815738Y-63743516D02*
X196312119Y-64239856D01*
X194420610Y-66679068D02*
X194480313Y-66642516D01*
X196142426Y-66501825D02*
X195934730Y-67020652D01*
X191883482Y-67624366D02*
X192261411Y-67073675D01*
X195776115Y-63931713D02*
X195263802Y-64283337D01*
X194487325Y-63208509D02*
X194618598Y-63913955D01*
X194984992Y-67748337D02*
X195105437Y-67683987D01*
X193842412Y-63344221D02*
X193728232Y-63957851D01*
X193214924Y-67748337D02*
X193619198Y-66771382D01*
X193748977Y-63178263D02*
X194450980Y-63178263D01*
X195796860Y-66979826D02*
X196003436Y-66463613D01*
X192059523Y-64296157D02*
X192404093Y-64798305D01*
X194898072Y-67912055D02*
X194406172Y-66723503D01*
X195795449Y-64798803D02*
X196140476Y-64296074D01*
X195312428Y-67694525D02*
X195776157Y-68012833D01*
X191471948Y-65714643D02*
X191471948Y-66229861D01*
X195987629Y-65482053D02*
X195987546Y-65482095D01*
X192384261Y-68167879D02*
X191887839Y-67671540D01*
X192059398Y-67648513D02*
X192423759Y-68012833D01*
X195987546Y-65482095D02*
X195779683Y-64997082D01*
X196316475Y-64286988D02*
X195919047Y-64866182D01*
X192196853Y-66464567D02*
X192403098Y-66979660D01*
X194580760Y-66771341D02*
X194984992Y-67748337D01*
X191887839Y-64239856D02*
X192384178Y-63743516D01*
X192062261Y-65604862D02*
X191471948Y-65714643D01*
X196728093Y-65714643D02*
X196137945Y-65604738D01*
X193094438Y-67683987D02*
X193094479Y-67683987D01*
X192384427Y-67174868D02*
X192059398Y-67648513D01*
X195938671Y-67073634D02*
X196316558Y-67624325D01*
X196847209Y-66343044D02*
X196181924Y-66466849D01*
X195915769Y-64918915D02*
X196124876Y-65406667D01*
X192421560Y-64994426D02*
X192212536Y-65482178D01*
X194357629Y-63344221D02*
X193842412Y-63344221D01*
X193094479Y-67683987D02*
X193214924Y-67748337D01*
X195175844Y-67799120D02*
X194937279Y-67926493D01*
X193719685Y-66642516D02*
X193779389Y-66679068D01*
X195776157Y-68012833D02*
X196140601Y-67648513D01*
X193601731Y-64109205D02*
X193130575Y-64302090D01*
X195768647Y-68172194D02*
X195227706Y-67800904D01*
X195068801Y-64301758D02*
X194597729Y-64108956D01*
X192018157Y-66466891D02*
X191352873Y-66343086D01*
X192280869Y-64866182D02*
X191883482Y-64286988D01*
X193581276Y-63913955D02*
X193712591Y-63208509D01*
X192265311Y-67020693D02*
X192057614Y-66501866D01*
X192423842Y-63931754D02*
X192059523Y-64296157D01*
X196877497Y-65604655D02*
X196877455Y-66306616D01*
X193262761Y-67926534D02*
X193024196Y-67799162D01*
X192423759Y-68012833D02*
X192887778Y-67694359D01*
X194471891Y-63958432D02*
X194357629Y-63344221D01*
X196155039Y-66336530D02*
X196728051Y-66229902D01*
X192431269Y-63739160D02*
X193020628Y-64143600D01*
X195179288Y-64143600D02*
X195768606Y-63739160D01*
X194653449Y-63953868D02*
X195126306Y-64147417D01*
X193793827Y-66723503D02*
X193301969Y-67912096D01*
X192972334Y-67800946D02*
X192431352Y-68172236D01*
X191352707Y-65568227D02*
X191352707Y-65568227D01*
X191322627Y-66306658D02*
X191322544Y-65604696D01*
X191352707Y-65568227D02*
X192034753Y-65441393D01*
X192212536Y-65482178D02*
X192212495Y-65482178D01*
X193073610Y-64147417D02*
X193546425Y-63953868D01*
X194937279Y-67926493D02*
X194898072Y-67912055D01*
X194876331Y-65959681D02*
X194841426Y-65728826D01*
X194743740Y-65525634D01*
X194593812Y-65360639D01*
X194402181Y-65244375D01*
X194179387Y-65187377D01*
X194100020Y-65183370D01*
X195200074Y-67660420D02*
X195312428Y-67694525D01*
X195815779Y-68167838D02*
X195768647Y-68172194D01*
X195025694Y-65976235D02*
X195002643Y-66181988D01*
X194937009Y-66371659D01*
X194816415Y-66562114D01*
X194654511Y-66717122D01*
X194608475Y-66749434D01*
X196043474Y-65558643D02*
X195987629Y-65482053D01*
X192212495Y-65482178D02*
X192156525Y-65558767D01*
X195126306Y-64147417D02*
X195179288Y-64143600D01*
X193130575Y-64302090D02*
X193051413Y-64318064D01*
X191883482Y-64286988D02*
X191887839Y-64239856D01*
X192438696Y-64912692D02*
X192421560Y-64994426D01*
X192403098Y-66979660D02*
X192419278Y-67059486D01*
X193682013Y-66613598D02*
X193719685Y-66642516D01*
X195815530Y-67174702D02*
X195780762Y-67059486D01*
X192284188Y-64918915D02*
X192280869Y-64866182D01*
X194406172Y-66723503D02*
X194420610Y-66679068D01*
X193546425Y-63953868D02*
X193581276Y-63913955D01*
X192034753Y-65441393D02*
X192075123Y-65406667D01*
X195263802Y-64283337D02*
X195148710Y-64317898D01*
X192887778Y-67694359D02*
X193000008Y-67660420D01*
X196137945Y-65604738D02*
X196043474Y-65558643D01*
X195780762Y-67059486D02*
X195796860Y-66979826D01*
X192156525Y-65558767D02*
X192062261Y-65604862D01*
X192404093Y-64798305D02*
X192438696Y-64912692D01*
X194597729Y-64108956D02*
X194518608Y-64052862D01*
X193728232Y-63957851D02*
X193681349Y-64052904D01*
X196877455Y-66306616D02*
X196847209Y-66343044D01*
X194100020Y-65183370D02*
X193869185Y-65218270D01*
X193666005Y-65315949D01*
X193501016Y-65465871D01*
X193384755Y-65657502D01*
X193327758Y-65880306D01*
X193323751Y-65959681D01*
X196003436Y-66463613D02*
X196058783Y-66384160D01*
X194518608Y-64052862D02*
X194471891Y-63958432D01*
X196847251Y-65568227D02*
X196877497Y-65604655D01*
X193591483Y-66749476D02*
X193420462Y-66604525D01*
X193288832Y-66422195D01*
X193204243Y-66210195D01*
X193174831Y-66006417D01*
X193174347Y-65976235D01*
X195768606Y-63739160D02*
X195815738Y-63743516D01*
X191352873Y-66343086D02*
X191322627Y-66306658D01*
X196058783Y-66384160D02*
X196155039Y-66336530D01*
X193051413Y-64318064D02*
X192936321Y-64283503D01*
X195148710Y-64317898D02*
X195068801Y-64301758D01*
X193174347Y-65976235D02*
X193203512Y-65744869D01*
X193286089Y-65534974D01*
X193414820Y-65353810D01*
X193582443Y-65208638D01*
X193781699Y-65106718D01*
X194005328Y-65055312D01*
X194099979Y-65050520D01*
X193024196Y-67799162D02*
X192972334Y-67800946D01*
X192045416Y-66336572D02*
X192141381Y-66384326D01*
X196181924Y-66466849D02*
X196142426Y-66501825D01*
X195227706Y-67800904D02*
X195175844Y-67799120D01*
X194099979Y-65050520D02*
X194331311Y-65079688D01*
X194541185Y-65162273D01*
X194722341Y-65291016D01*
X194867517Y-65458655D01*
X194969452Y-65657928D01*
X195020887Y-65881577D01*
X195025694Y-65976235D01*
X193020628Y-64143600D02*
X193073610Y-64147417D01*
X196312119Y-64239856D02*
X196316475Y-64286988D01*
X193301969Y-67912096D02*
X193262761Y-67926534D01*
X194618598Y-63913955D02*
X194653449Y-63953868D01*
X195919047Y-64866182D02*
X195915769Y-64918915D01*
X192261411Y-67073675D02*
X192265311Y-67020693D01*
X194518069Y-66613598D02*
X194681022Y-66474263D01*
X194800176Y-66295205D01*
X194866134Y-66085748D01*
X194876331Y-65959681D01*
X195934730Y-67020652D02*
X195938671Y-67073634D01*
X196124876Y-65406667D02*
X196165246Y-65441393D01*
X191887839Y-67671540D02*
X191883482Y-67624366D01*
X192057614Y-66501866D02*
X192018157Y-66466891D01*
X192419278Y-67059486D02*
X192384427Y-67174868D01*
X193323751Y-65959681D02*
X193349436Y-66158369D01*
X193434159Y-66358729D01*
X193568959Y-66525582D01*
X193682013Y-66613598D01*
X191322544Y-65604696D02*
X191352707Y-65568227D01*
X193712591Y-63208509D02*
X193748977Y-63178263D01*
X193000008Y-67660420D02*
X193094438Y-67683987D01*
X192141381Y-66384326D02*
X192196853Y-66464567D01*
X194450980Y-63178263D02*
X194487325Y-63208509D01*
X195105437Y-67683987D02*
X195200074Y-67660420D01*
X192384178Y-63743516D02*
X192431269Y-63739160D01*
X192431352Y-68172236D02*
X192384261Y-68167879D01*
X196316558Y-67624325D02*
X196312202Y-67671498D01*
X194480313Y-66642516D02*
X194518069Y-66613598D01*
X193619198Y-66771382D02*
X193591483Y-66749476D01*
X195779683Y-64997082D02*
X195761469Y-64912609D01*
X193681349Y-64052904D02*
X193601731Y-64109205D01*
X193779389Y-66679068D02*
X193793827Y-66723503D01*
X195761469Y-64912609D02*
X195795449Y-64798803D01*
X194608475Y-66749434D02*
X194580760Y-66771341D01*
D14*
X148640000Y-77470000D02*
X148640000Y-73450000D01*
X148640000Y-73450000D02*
X156360000Y-73450000D01*
X156360000Y-73450000D02*
X156360000Y-77470000D01*
X156360000Y-77470000D02*
X148640000Y-77470000D01*
X148640000Y-75760000D02*
X149140000Y-75760000D01*
X149140000Y-75760000D02*
X149140000Y-76970000D01*
X149140000Y-76970000D02*
X155860000Y-76970000D01*
X155860000Y-76970000D02*
X155860000Y-75760000D01*
X155860000Y-75760000D02*
X156360000Y-75760000D01*
X148640000Y-74950000D02*
X149640000Y-74950000D01*
X149640000Y-74950000D02*
X149640000Y-73450000D01*
X156360000Y-74950000D02*
X155360000Y-74950000D01*
X155360000Y-74950000D02*
X155360000Y-73450000D01*
X148340000Y-75650000D02*
X148340000Y-73150000D01*
X148340000Y-73150000D02*
X150840000Y-73150000D01*
D15*
X117876760Y-125298540D02*
X117876760Y-125848540D01*
X109676760Y-125248540D02*
X109676760Y-125848540D01*
X117126760Y-120148540D02*
X117576760Y-120148540D01*
X109676760Y-125848540D02*
X110076760Y-125848540D01*
X117576760Y-120148540D02*
X117876760Y-120498540D01*
X109676760Y-120148540D02*
X109676760Y-120848540D01*
X117876760Y-120498540D02*
X117876760Y-120798540D01*
X117876760Y-120798540D02*
X118026760Y-120798540D01*
X117876760Y-125848540D02*
X117226760Y-125848540D01*
X110176760Y-120148540D02*
X109676760Y-120148540D01*
D14*
X174445664Y-108380200D02*
X173991536Y-108380200D01*
X174445664Y-106910200D02*
X173991536Y-106910200D01*
X109427064Y-108165000D02*
X108972936Y-108165000D01*
X109427064Y-109635000D02*
X108972936Y-109635000D01*
D15*
X111464000Y-96762600D02*
X111464000Y-96762600D01*
X111464000Y-96662600D02*
X111464000Y-96662600D01*
X111464000Y-96762600D02*
G75*
G03*
X111464000Y-96662600I0J50000D01*
G01*
X111464000Y-96662600D02*
G75*
G03*
X111464000Y-96762600I0J-50000D01*
G01*
D14*
X121635000Y-114327064D02*
X121635000Y-113872936D01*
X120165000Y-114327064D02*
X120165000Y-113872936D01*
D12*
X110325000Y-116805000D02*
X111850000Y-116805000D01*
X108650000Y-104100000D02*
X108650000Y-104100000D01*
D15*
X109850000Y-101650000D02*
X112300000Y-101650000D01*
D12*
X108650000Y-103900000D02*
X108650000Y-103900000D01*
D15*
X109850000Y-104550000D02*
X112450000Y-104550000D01*
D12*
X108650000Y-103900000D02*
G75*
G03*
X108650000Y-104100000I0J-100000D01*
G01*
X108650000Y-104100000D02*
G75*
G03*
X108650000Y-103900000I0J100000D01*
G01*
D15*
X196825600Y-83483400D02*
X197125600Y-83483400D01*
X187425600Y-83483400D02*
X187125600Y-83483400D01*
X187425600Y-90283400D02*
X187125600Y-90283400D01*
X197125600Y-83483400D02*
X197125600Y-83783400D01*
X197125600Y-90283400D02*
X197125600Y-89983400D01*
X187125600Y-83483400D02*
X187125600Y-83783400D01*
X187125600Y-90283400D02*
X187125600Y-89983400D01*
X196825600Y-90283400D02*
X197125600Y-90283400D01*
D14*
X117127064Y-98365000D02*
X116672936Y-98365000D01*
X117127064Y-99835000D02*
X116672936Y-99835000D01*
D11*
X116500000Y-85600000D02*
X116500000Y-83000001D01*
X116500000Y-83000001D02*
X117400000Y-83000001D01*
X121100000Y-85600000D02*
X121100000Y-83000001D01*
X120200000Y-83000001D02*
X121100000Y-83000001D01*
D16*
X121275001Y-86249999D02*
G75*
G03*
X121275001Y-86249999I-125001J0D01*
G01*
D14*
X179128800Y-115084400D02*
X179128800Y-122704400D01*
X195368800Y-98464400D02*
X193248800Y-98464400D01*
X179128800Y-98464400D02*
X179128800Y-99084400D01*
X195368800Y-122704400D02*
X195368800Y-115084400D01*
X195368800Y-99084400D02*
X195368800Y-98464400D01*
X181248800Y-98464400D02*
X179128800Y-98464400D01*
X179128800Y-122704400D02*
X195368800Y-122704400D01*
X179128800Y-115084400D02*
X178518800Y-115084400D01*
X168816000Y-69348800D02*
X168816000Y-68198800D01*
X176116000Y-63848800D02*
X168816000Y-63848800D01*
X176116000Y-69348800D02*
X168816000Y-69348800D01*
X122465000Y-103461252D02*
X122465000Y-102938748D01*
X123935000Y-103461252D02*
X123935000Y-102938748D01*
X174427064Y-116335000D02*
X173972936Y-116335000D01*
X174427064Y-114865000D02*
X173972936Y-114865000D01*
X121460000Y-120840000D02*
X121460000Y-123700000D01*
X119540000Y-123700000D02*
X119540000Y-120840000D01*
X119540000Y-120840000D02*
X121460000Y-120840000D01*
X114061252Y-109735000D02*
X113538748Y-109735000D01*
X114061252Y-108265000D02*
X113538748Y-108265000D01*
X120165000Y-109827064D02*
X120165000Y-109372936D01*
X121635000Y-109827064D02*
X121635000Y-109372936D01*
D12*
X118200000Y-101675000D02*
X118200000Y-104525000D01*
X118800000Y-101675000D02*
X118200000Y-101675000D01*
X118200000Y-104525000D02*
X118800000Y-104525000D01*
X116650000Y-104725000D02*
X117850000Y-104725000D01*
X118800000Y-104525000D02*
X118800000Y-101675000D01*
D14*
X107265000Y-114261252D02*
X107265000Y-113738748D01*
X108735000Y-114261252D02*
X108735000Y-113738748D01*
X123440000Y-123700000D02*
X123440000Y-120840000D01*
X123440000Y-120840000D02*
X125360000Y-120840000D01*
X125360000Y-120840000D02*
X125360000Y-123700000D01*
X159105200Y-123147230D02*
X167735200Y-123147230D01*
X167735200Y-119745800D02*
X168145200Y-119745800D01*
X159105200Y-121611995D02*
X167735200Y-121611995D01*
X159105200Y-121375800D02*
X167735200Y-121375800D01*
X167735200Y-114665800D02*
X168145200Y-114665800D01*
X167735200Y-120465800D02*
X168145200Y-120465800D01*
X159105200Y-122320565D02*
X167735200Y-122320565D01*
X159105200Y-123383420D02*
X167735200Y-123383420D01*
X159105200Y-121966280D02*
X167735200Y-121966280D01*
X159105200Y-122556755D02*
X167735200Y-122556755D01*
X159105200Y-123619610D02*
X167735200Y-123619610D01*
X159105200Y-122438660D02*
X167735200Y-122438660D01*
X159105200Y-113695800D02*
X167735200Y-113695800D01*
X159105200Y-116295800D02*
X167735200Y-116295800D01*
X167735200Y-122285800D02*
X168085200Y-122285800D01*
X167735200Y-123005800D02*
X168085200Y-123005800D01*
X159105200Y-123975800D02*
X159105200Y-113695800D01*
X159105200Y-123975800D02*
X167735200Y-123975800D01*
X167735200Y-115385800D02*
X168145200Y-115385800D01*
X159105200Y-122911040D02*
X167735200Y-122911040D01*
X167735200Y-123975800D02*
X167735200Y-113695800D01*
X159105200Y-122792945D02*
X167735200Y-122792945D01*
X159105200Y-123029135D02*
X167735200Y-123029135D01*
X159105200Y-123855800D02*
X167735200Y-123855800D01*
X159105200Y-123265325D02*
X167735200Y-123265325D01*
X159105200Y-122084375D02*
X167735200Y-122084375D01*
X159105200Y-122674850D02*
X167735200Y-122674850D01*
X159105200Y-121493900D02*
X167735200Y-121493900D01*
X159105200Y-122202470D02*
X167735200Y-122202470D01*
X159105200Y-123501515D02*
X167735200Y-123501515D01*
X167735200Y-117205800D02*
X168145200Y-117205800D01*
X159105200Y-123737705D02*
X167735200Y-123737705D01*
X167735200Y-117925800D02*
X168145200Y-117925800D01*
X159105200Y-121730090D02*
X167735200Y-121730090D01*
X159105200Y-121848185D02*
X167735200Y-121848185D01*
X169195200Y-123975800D02*
X170305200Y-123975800D01*
X159105200Y-118835800D02*
X167735200Y-118835800D01*
X170305200Y-123975800D02*
X170305200Y-122645800D01*
X173966136Y-104468600D02*
X174420264Y-104468600D01*
X173966136Y-102998600D02*
X174420264Y-102998600D01*
X173940736Y-99163200D02*
X174394864Y-99163200D01*
X173940736Y-100633200D02*
X174394864Y-100633200D01*
X174479852Y-112418800D02*
X173957348Y-112418800D01*
X174479852Y-110948800D02*
X173957348Y-110948800D01*
X167375000Y-66951252D02*
X167375000Y-66428748D01*
X165905000Y-66951252D02*
X165905000Y-66428748D01*
X108735000Y-119827064D02*
X108735000Y-119372936D01*
X107265000Y-119827064D02*
X107265000Y-119372936D01*
%LPC*%
D17*
X151250000Y-75760000D03*
D18*
X153750000Y-75760000D03*
D19*
X111709200Y-83058000D03*
D20*
X111709200Y-80518000D03*
X111709200Y-77978000D03*
X111709200Y-75438000D03*
D21*
X115076760Y-120398540D03*
X114426760Y-120398540D03*
X113776760Y-120398540D03*
X113126760Y-120398540D03*
X112476760Y-120398540D03*
D22*
X116276760Y-120398540D03*
X111276760Y-120398540D03*
D23*
X117276760Y-123098540D03*
X110276760Y-123098540D03*
D24*
X175218600Y-107645200D03*
X173218600Y-107645200D03*
X110200000Y-108900000D03*
X108200000Y-108900000D03*
D25*
X108264000Y-95962600D03*
X108264000Y-92962600D03*
D26*
X110339000Y-96712600D03*
X110339000Y-93712600D03*
X110339000Y-92212600D03*
D27*
X109364000Y-98262600D03*
X107164000Y-98262600D03*
X107164000Y-90662600D03*
X109364000Y-90662600D03*
D28*
X120900000Y-115100000D03*
X120900000Y-113100000D03*
D29*
X111088000Y-116105000D03*
X111088000Y-114835000D03*
X111088000Y-113565000D03*
X111088000Y-112295000D03*
X116512000Y-112295000D03*
X116512000Y-113565000D03*
X116512000Y-114835000D03*
X116512000Y-116105000D03*
D30*
X113800000Y-114200000D03*
D31*
X110000000Y-104050000D03*
X110000000Y-103100000D03*
X110000000Y-102150000D03*
X112300000Y-104050000D03*
X112300000Y-103100000D03*
X112300000Y-102150000D03*
D32*
X188325600Y-83083400D03*
D33*
X190865600Y-83083400D03*
X193405600Y-83083400D03*
X195945600Y-83083400D03*
X195945600Y-90703400D03*
X193405600Y-90703400D03*
X190865600Y-90703400D03*
X188325600Y-90703400D03*
D24*
X117900000Y-99100000D03*
X115900000Y-99100000D03*
D34*
X120300000Y-86299999D03*
D35*
X118800001Y-86099999D03*
D36*
X118800000Y-83400000D03*
D34*
X117300000Y-86299999D03*
D37*
X179648800Y-114084400D03*
X179648800Y-112084400D03*
X179648800Y-110084400D03*
X179648800Y-108084400D03*
X179648800Y-106084400D03*
X179648800Y-104084400D03*
X179648800Y-102084400D03*
X179648800Y-100084400D03*
D38*
X182248800Y-98584400D03*
X184248800Y-98584400D03*
X186248800Y-98584400D03*
X188248800Y-98584400D03*
X190248800Y-98584400D03*
X192248800Y-98584400D03*
D37*
X194848800Y-100084400D03*
X194848800Y-102084400D03*
X194848800Y-104084400D03*
X194848800Y-106084400D03*
X194848800Y-108084400D03*
X194848800Y-110084400D03*
X194848800Y-112084400D03*
X194848800Y-114084400D03*
D39*
X174916000Y-68198800D03*
X174916000Y-64998800D03*
X170016000Y-64998800D03*
X170016000Y-68198800D03*
D40*
X123200000Y-104237500D03*
X123200000Y-102162500D03*
D24*
X175200000Y-115600000D03*
X173200000Y-115600000D03*
D41*
X120500000Y-121675000D03*
X120500000Y-123725000D03*
D42*
X114837500Y-109000000D03*
X112762500Y-109000000D03*
D28*
X120900000Y-110600000D03*
X120900000Y-108600000D03*
D43*
X117250000Y-104050000D03*
X117250000Y-103100000D03*
X117250000Y-102150000D03*
X119750000Y-102150000D03*
X119750000Y-103100000D03*
X119750000Y-104050000D03*
D40*
X108000000Y-115037500D03*
X108000000Y-112962500D03*
D41*
X124400000Y-121675000D03*
X124400000Y-123725000D03*
D44*
X169195200Y-122645800D03*
D20*
X169195200Y-120105800D03*
X169195200Y-117565800D03*
X169195200Y-115025800D03*
D45*
X173193200Y-103733600D03*
X175193200Y-103733600D03*
X173167800Y-99898200D03*
X175167800Y-99898200D03*
D42*
X175256100Y-111683800D03*
X173181100Y-111683800D03*
D40*
X166640000Y-67727500D03*
X166640000Y-65652500D03*
D28*
X108000000Y-120600000D03*
X108000000Y-118600000D03*
G36*
X172887058Y-64871879D02*
G01*
X173269815Y-65039919D01*
X173270338Y-65040150D01*
X173343978Y-65072879D01*
X173373467Y-65091223D01*
X173650960Y-65322466D01*
X173667490Y-65339078D01*
X173976085Y-65713133D01*
X173997419Y-65750570D01*
X174201815Y-66317306D01*
X174209222Y-66364115D01*
X174190734Y-66937248D01*
X174181353Y-66981056D01*
X173967012Y-67502931D01*
X173948392Y-67534340D01*
X173633552Y-67923259D01*
X173601655Y-67951289D01*
X173120357Y-68247473D01*
X173076471Y-68264202D01*
X172557794Y-68356823D01*
X172522029Y-68358047D01*
X172095233Y-68311656D01*
X172065606Y-68304741D01*
X171581768Y-68127954D01*
X171542489Y-68104824D01*
X171122238Y-67740607D01*
X171100843Y-67716646D01*
X170880016Y-67394606D01*
X170864398Y-67363194D01*
X170764044Y-67062130D01*
X170758476Y-67037298D01*
X170702546Y-66571217D01*
X170704591Y-66529132D01*
X170806985Y-66063704D01*
X170815954Y-66037298D01*
X170953586Y-65743684D01*
X170969473Y-65718217D01*
X171352758Y-65241447D01*
X171394610Y-65207695D01*
X171986178Y-64911911D01*
X172036604Y-64898748D01*
X172830484Y-64861389D01*
X172887058Y-64871879D01*
G37*
M02*
