G04 #@! TF.GenerationSoftware,KiCad,Pcbnew,(6.0.0)*
G04 #@! TF.CreationDate,2022-05-24T10:02:23+02:00*
G04 #@! TF.ProjectId,drawing.kicad_v3.0_pcb,64726177-696e-4672-9e6b-696361645f76,v2.2*
G04 #@! TF.SameCoordinates,Original*
G04 #@! TF.FileFunction,Paste,Bot*
G04 #@! TF.FilePolarity,Positive*
%FSLAX46Y46*%
G04 Gerber Fmt 4.6, Leading zero omitted, Abs format (unit mm)*
G04 Created by KiCad (PCBNEW (6.0.0)) date 2022-05-24 10:02:23*
%MOMM*%
%LPD*%
G01*
G04 APERTURE LIST*
G04 Aperture macros list*
%AMRoundRect*
0 Rectangle with rounded corners*
0 $1 Rounding radius*
0 $2 $3 $4 $5 $6 $7 $8 $9 X,Y pos of 4 corners*
0 Add a 4 corners polygon primitive as box body*
4,1,4,$2,$3,$4,$5,$6,$7,$8,$9,$2,$3,0*
0 Add four circle primitives for the rounded corners*
1,1,$1+$1,$2,$3*
1,1,$1+$1,$4,$5*
1,1,$1+$1,$6,$7*
1,1,$1+$1,$8,$9*
0 Add four rect primitives between the rounded corners*
20,1,$1+$1,$2,$3,$4,$5,0*
20,1,$1+$1,$4,$5,$6,$7,0*
20,1,$1+$1,$6,$7,$8,$9,0*
20,1,$1+$1,$8,$9,$2,$3,0*%
%AMFreePoly0*
4,1,9,1.000000,1.114214,1.000000,-1.114214,0.414214,-1.700000,-0.414214,-1.700000,-1.000000,-1.114214,-1.000000,1.114214,-0.414214,1.700000,0.414214,1.700000,1.000000,1.114214,1.000000,1.114214,$1*%
G04 Aperture macros list end*
%ADD10R,0.400000X1.350000*%
%ADD11RoundRect,0.250000X0.350000X0.450000X-0.350000X0.450000X-0.350000X-0.450000X0.350000X-0.450000X0*%
%ADD12R,1.250000X0.900000*%
%ADD13R,0.900000X0.800000*%
%ADD14RoundRect,0.250000X0.450000X-0.350000X0.450000X0.350000X-0.450000X0.350000X-0.450000X-0.350000X0*%
%ADD15R,1.525000X0.700000*%
%ADD16R,2.513000X3.402000*%
%ADD17R,1.400000X0.600000*%
%ADD18R,0.599999X1.599999*%
%ADD19R,0.700001X2.000001*%
%ADD20FreePoly0,180.000000*%
%ADD21R,2.500000X1.000000*%
%ADD22R,1.000000X1.800000*%
%ADD23R,1.500000X1.000000*%
%ADD24RoundRect,0.250000X-0.475000X0.337500X-0.475000X-0.337500X0.475000X-0.337500X0.475000X0.337500X0*%
%ADD25RoundRect,0.250000X-0.450000X0.325000X-0.450000X-0.325000X0.450000X-0.325000X0.450000X0.325000X0*%
%ADD26RoundRect,0.250000X0.337500X0.475000X-0.337500X0.475000X-0.337500X-0.475000X0.337500X-0.475000X0*%
%ADD27R,1.200000X0.650000*%
%ADD28RoundRect,0.250000X0.475000X-0.337500X0.475000X0.337500X-0.475000X0.337500X-0.475000X-0.337500X0*%
%ADD29R,1.550000X1.300000*%
%ADD30RoundRect,0.250000X-0.350000X-0.450000X0.350000X-0.450000X0.350000X0.450000X-0.350000X0.450000X0*%
G04 APERTURE END LIST*
D10*
X115076760Y-120398540D03*
X114426760Y-120398540D03*
X113776760Y-120398540D03*
X113126760Y-120398540D03*
X112476760Y-120398540D03*
D11*
X175218600Y-107645200D03*
X173218600Y-107645200D03*
X110200000Y-108900000D03*
X108200000Y-108900000D03*
D12*
X110339000Y-96712600D03*
X110339000Y-93712600D03*
X110339000Y-92212600D03*
D13*
X109364000Y-98262600D03*
X107164000Y-98262600D03*
X107164000Y-90662600D03*
X109364000Y-90662600D03*
D14*
X120900000Y-115100000D03*
X120900000Y-113100000D03*
D15*
X111088000Y-116105000D03*
X111088000Y-114835000D03*
X111088000Y-113565000D03*
X111088000Y-112295000D03*
X116512000Y-112295000D03*
X116512000Y-113565000D03*
X116512000Y-114835000D03*
X116512000Y-116105000D03*
D16*
X113800000Y-114200000D03*
D17*
X110000000Y-104050000D03*
X110000000Y-103100000D03*
X110000000Y-102150000D03*
X112300000Y-104050000D03*
X112300000Y-103100000D03*
X112300000Y-102150000D03*
D11*
X117900000Y-99100000D03*
X115900000Y-99100000D03*
D18*
X120300000Y-86299999D03*
D19*
X118800001Y-86099999D03*
D20*
X118800000Y-83400000D03*
D18*
X117300000Y-86299999D03*
D21*
X179648800Y-114084400D03*
X179648800Y-112084400D03*
X179648800Y-110084400D03*
X179648800Y-108084400D03*
X179648800Y-106084400D03*
X179648800Y-104084400D03*
X179648800Y-102084400D03*
X179648800Y-100084400D03*
D22*
X182248800Y-98584400D03*
X184248800Y-98584400D03*
X186248800Y-98584400D03*
X188248800Y-98584400D03*
X190248800Y-98584400D03*
X192248800Y-98584400D03*
D21*
X194848800Y-100084400D03*
X194848800Y-102084400D03*
X194848800Y-104084400D03*
X194848800Y-106084400D03*
X194848800Y-108084400D03*
X194848800Y-110084400D03*
X194848800Y-112084400D03*
X194848800Y-114084400D03*
D23*
X174916000Y-68198800D03*
X174916000Y-64998800D03*
X170016000Y-64998800D03*
X170016000Y-68198800D03*
D24*
X123200000Y-102162500D03*
X123200000Y-104237500D03*
D11*
X175200000Y-115600000D03*
X173200000Y-115600000D03*
D25*
X120500000Y-121675000D03*
X120500000Y-123725000D03*
D26*
X114837500Y-109000000D03*
X112762500Y-109000000D03*
D14*
X120900000Y-110600000D03*
X120900000Y-108600000D03*
D27*
X117250000Y-104050000D03*
X117250000Y-103100000D03*
X117250000Y-102150000D03*
X119750000Y-102150000D03*
X119750000Y-103100000D03*
X119750000Y-104050000D03*
D28*
X108000000Y-115037500D03*
X108000000Y-112962500D03*
D29*
X149625000Y-110100000D03*
X157575000Y-110100000D03*
X149625000Y-105600000D03*
X157575000Y-105600000D03*
D25*
X124400000Y-121675000D03*
X124400000Y-123725000D03*
D30*
X173193200Y-103733600D03*
X175193200Y-103733600D03*
X173167800Y-99898200D03*
X175167800Y-99898200D03*
D26*
X175256100Y-111683800D03*
X173181100Y-111683800D03*
D28*
X166640000Y-67727500D03*
X166640000Y-65652500D03*
D29*
X169085000Y-105590000D03*
X161135000Y-105590000D03*
X169085000Y-110090000D03*
X161135000Y-110090000D03*
D14*
X108000000Y-120600000D03*
X108000000Y-118600000D03*
M02*
